<svg height="512" viewBox="0 0 60 46" width="512" xmlns="http://www.w3.org/2000/svg"><style>:root{--resa-icon-primary:#428dff;--resa-icon-secondary:#7facfa;--resa-icon-light:#a4c2f7;--resa-icon-bg:#e8edfc;}</style><g id="Page-1" fill="none" fill-rule="evenodd"><g id="023---Buy-Button" fill-rule="nonzero"><path id="Shape" d="m58.63 42.84-1.8 1.79c-.2497868.2483119-.5909168.3826272-.9429442.3712715-.3520275-.0113557-.6837917-.1673773-.9170558-.4312715l-5.71-6.44-3.35 2.67c-.3319092.2670581-.7754709.3502316-1.181584.221562-.4061132-.1286695-.720851-.4520962-.838416-.861562l-3.17-11.16-.67-2.38c-.133955-.4746464.0183029-.9839586.3907867-1.307206.3724839-.3232475.8981629-.4022598 1.3492133-.202794l4.84 2.13 8.59 3.77c.4067678.1777207.6906201.5556457.7479459.9958257.0573258.4401799-.120264.8781997-.4679459 1.1541743l-2.24 1.78 5.42 6.16c.4459444.5020151.4240362 1.2644212-.05 1.74z" fill="var(--resa-icon-secondary, #7facfa)"/><path id="Shape" d="m49 8v14c.0031001 2.0068158-.8609161 3.91713-2.37 5.24l-4.84-2.13c-.4510504-.1994658-.9767294-.1204535-1.3492133.202794-.3724838.3232474-.5247417.8325596-.3907867 1.307206l.67 2.38h-32.72c-3.86599325 0-7-3.1340068-7-7v-14c0-3.86599325 3.13400675-7 7-7h34c3.8659932 0 7 3.13400675 7 7z" fill="var(--resa-icon-bg, #e8edfc)"/><path id="Shape" d="m40.147 25.707-1.357-.6c-.4510504-.1994658-.9767294-.1204535-1.3492133.202794-.3724838.3232474-.5247417.8325596-.3907867 1.307206l.67 2.383h3l-.67-2.38c-.085781-.3055255-.0510614-.6323187.097-.913z" fill="var(--resa-icon-bg, #e8edfc)"/><path id="Shape" d="m42 1h-3c3.8659932 0 7 3.13400675 7 7v14c.0007818 1.5623975-.5252122 3.0794303-1.493 4.306l2.123.934c1.5090839-1.32287 2.3731001-3.2331842 2.37-5.24v-14c0-1.85651543-.7374979-3.63699282-2.0502525-4.94974747-1.3127547-1.31275465-3.0932321-2.05025253-4.9497475-2.05025253z" fill="var(--resa-icon-bg, #e8edfc)"/><path id="Shape" d="m8 29h3c-3.86599325 0-7-3.1340068-7-7v-14c0-3.86599325 3.13400675-7 7-7h-3c-3.86599325 0-7 3.13400675-7 7v14c0 3.8659932 3.13400675 7 7 7z" fill="#fff"/><path id="Rectangle-path" d="m0 8h2v8h-2z" fill="#fff"/><g fill="var(--resa-icon-primary, #428dff)"><path id="Shape" d="m17 11c-.0033061-2.76005315-2.2399468-4.99669388-5-5h-4c-.55228475 0-1 .44771525-1 1v16c0 .5522847.44771525 1 1 1h4c2.1566753.0062173 4.0727751-1.3751502 4.7484261-3.423267.675651-2.0481169-.0423886-4.2984577-1.7794261-5.576733 1.272967-.9358543 2.0265663-2.4200479 2.031-4zm-2 8c0 1.6568542-1.3431458 3-3 3h-3v-6h3c1.6568542 0 3 1.3431458 3 3zm-3-5h-3v-6h3c1.6568542 0 3 1.34314575 3 3 0 1.6568542-1.3431458 3-3 3z"/><path id="Shape" d="m21 6c-.5522847 0-1 .44771525-1 1v12c0 2.7614237 2.2385763 5 5 5s5-2.2385763 5-5v-12c0-.55228475-.4477153-1-1-1s-1 .44771525-1 1v12c0 1.6568542-1.3431458 2.9999999-3 2.9999999s-3-1.3431457-3-2.9999999v-12c0-.55228475-.4477153-1-1-1z"/><path id="Shape" d="m38 24c.5522847 0 1-.4477153 1-1v-6.741l4.874-8.773c.2684104-.48269687.0946969-1.09158961-.388-1.36s-1.0915896-.09469687-1.36.388l-4.126 7.427-4.126-7.427c-.1736311-.31225013-.5006563-.50815006-.8578883-.5139062-.3572321-.00575614-.690399.17950601-.874.486-.183601.30649398-.1897428.68765607-.0161117.9999062l4.874 8.773v6.741c0 .5522847.4477153 1 1 1z"/><circle id="Oval" cx="1" cy="12" r="1"/><path id="Shape" d="m8 30h31.97l2.955 10.429c.2088874.731517.7695927 1.3102103 1.4941513 1.5420851.7245587.2318749 1.5170652.0862394 2.1118487-.3880851l2.611-2.083 5.082 5.731c.4155688.4692324 1.0055791.7472458 1.632.769h.069c.6021607-.0003213 1.1797879-.238633 1.607-.663l1.8-1.793c.8446265-.8457046.8883656-2.2016182.1-3.1l-4.725-5.374 1.418-1.13c.6218217-.4940466.9394582-1.2776848.8371228-2.0652582-.1023354-.7875733-.6096911-1.464014-1.3371228-1.7827418l-7.3-3.206c1.0853678-1.3975013 1.6746778-3.1165275 1.675-4.886v-14c-.0049599-4.41622192-3.5837781-7.99504012-8-8h-34c-4.41622192.00495988-7.99504012 3.58377808-8 8 0 .55228475.44771525 1 1 1s1-.44771525 1-1c.00330738-3.31233757 2.68766243-5.99669262 6-6h34c3.3123376.00330738 5.9966926 2.68766243 6 6v14c.0013434 1.50132-.5635832 2.9479176-1.582 4.051l-4.227-1.851c-.8040995-.3533022-1.7398337-.211271-2.4028792.364723-.6630454.5759941-.9345197 1.4826765-.6971208 2.328277l.309 1.107h-31.4c-3.31233757-.0033074-5.99669262-2.6876624-6-6v-6c0-.5522847-.44771525-1-1-1s-1 .4477153-1 1v6c.00495988 4.4162219 3.58377808 7.9950401 8 8zm33.094-3.929c.0793587-.073332.1952928-.0911376.293-.045l4.821 2.117.036.016 8.574 3.764c.0862482.0364936.1468298.1158005.159355.2086103.0125252.0928097-.0248662.1853387-.098355.2433897l-2.24 1.785c-.2142066.1704945-.3491451.4213563-.3733351.6940607s.0644841.5434015.2453351.7489393l5.423 6.161c.092316.1054083.0866197.2644654-.013.363l-1.8 1.793c-.0548161.0499474-.1258591.0783646-.2.08-.0766808-.0009875-.1493532-.0344168-.2-.092l-5.712-6.441c-.3529884-.3974959-.9552822-.4493345-1.371-.118l-3.352 2.67c-.072271.0588275-.1696269.0765629-.258.047-.0868436-.0263504-.1540649-.09546-.178-.183l-3.837-13.54c-.0317693-.098694.0004135-.2067649.081-.272z"/></g></g></g></svg>