<svg height="512" viewBox="0 0 60 60" width="512" xmlns="http://www.w3.org/2000/svg"><style>:root{--resa-icon-primary:#428dff;--resa-icon-secondary:#7facfa;--resa-icon-light:#a4c2f7;--resa-icon-bg:#e8edfc;}</style><g id="Icons_copy" data-name="Icons copy"><path d="m59 24v27a8 8 0 0 1 -8 8h-42a8 8 0 0 1 -8-8v-27l28.03-16.1a2.025 2.025 0 0 1 1.94 0z" fill="var(--resa-icon-bg, #e8edfc)"/><path d="m59 24v27a8 8 0 0 1 -8 8h-3a8 8 0 0 0 8-8v-28.72z" fill="var(--resa-icon-bg, #e8edfc)"/><path d="m59 18.22v5.78l-28.03-16.1a2.025 2.025 0 0 0 -1.94 0l-28.03 16.1v-5.78a2.007 2.007 0 0 1 1-1.74l26.06-14.98a4 4 0 0 1 3.88 0l26.06 14.98a2.007 2.007 0 0 1 1 1.74z" fill="var(--resa-icon-bg, #e8edfc)"/><path d="m59 18.22v5.78l-3-1.72v-6.95l2 1.15a2.007 2.007 0 0 1 1 1.74z" fill="var(--resa-icon-light, #a4c2f7)"/><path d="m22 59v-16a4 4 0 0 1 4-4h8a4 4 0 0 1 4 4v16z" fill="var(--resa-icon-bg, #e8edfc)"/><path d="m34 39h-3a4 4 0 0 1 4 4v16h3v-16a4 4 0 0 0 -4-4z" fill="var(--resa-icon-light, #a4c2f7)"/><rect fill="var(--resa-icon-bg, #e8edfc)" height="12" rx="3" width="12" x="11" y="23"/><path d="m20 23h-3a3 3 0 0 1 3 3v6a3 3 0 0 1 -3 3h3a3 3 0 0 0 3-3v-6a3 3 0 0 0 -3-3z" fill="var(--resa-icon-light, #a4c2f7)"/><rect fill="var(--resa-icon-bg, #e8edfc)" height="12" rx="3" width="12" x="37" y="23"/><path d="m46 23h-3a3 3 0 0 1 3 3v6a3 3 0 0 1 -3 3h3a3 3 0 0 0 3-3v-6a3 3 0 0 0 -3-3z" fill="var(--resa-icon-light, #a4c2f7)"/><path d="m12 59h-3a8 8 0 0 1 -8-8v-32.78a2.007 2.007 0 0 1 1-1.74l2-1.15v35.67a8 8 0 0 0 8 8z" fill="#fff"/><path d="m0 43h2v8h-2z" fill="#fff"/><g fill="var(--resa-icon-primary, #428dff)"><circle cx="1" cy="47" r="1"/><path d="m58.5 15.617-26.077-14.991a4.978 4.978 0 0 0 -4.86.008l-26.058 14.982a3.007 3.007 0 0 0 -1.5 2.6v24.784a1 1 0 0 0 2 0v-18.421l27.516-15.8a.989.989 0 0 1 .955-.008l27.524 15.808v26.421a7.008 7.008 0 0 1 -7 7h-12v-15a5.006 5.006 0 0 0 -5-5h-8a5.006 5.006 0 0 0 -5 5v15h-12a7.008 7.008 0 0 1 -7-7 1 1 0 0 0 -2 0 9.011 9.011 0 0 0 9 9h42a9.011 9.011 0 0 0 9-9v-32.783a3.006 3.006 0 0 0 -1.5-2.6zm-21.5 42.383h-14v-15a3 3 0 0 1 3-3h8a3 3 0 0 1 3 3zm21-35.728-26.546-15.242a2.98 2.98 0 0 0 -1.454-.378 3.029 3.029 0 0 0 -1.471.385l-26.529 15.235v-4.055a1 1 0 0 1 .5-.867l26.047-14.975a2.975 2.975 0 0 1 2.892-.007l26.061 14.983a1 1 0 0 1 .5.866z"/><path d="m20 36a4 4 0 0 0 4-4v-6a4 4 0 0 0 -4-4h-6a4 4 0 0 0 -4 4v6a4 4 0 0 0 4 4zm-8-4v-6a2 2 0 0 1 2-2h6a2 2 0 0 1 2 2v6a2 2 0 0 1 -2 2h-6a2 2 0 0 1 -2-2z"/><path d="m46 36a4 4 0 0 0 4-4v-6a4 4 0 0 0 -4-4h-6a4 4 0 0 0 -4 4v6a4 4 0 0 0 4 4zm-8-4v-6a2 2 0 0 1 2-2h6a2 2 0 0 1 2 2v6a2 2 0 0 1 -2 2h-6a2 2 0 0 1 -2-2z"/></g></g></svg>