<svg height="512" viewBox="0 0 60 60" width="512" xmlns="http://www.w3.org/2000/svg"><style>:root{--resa-icon-primary:#428dff;--resa-icon-secondary:#7facfa;--resa-icon-light:#a4c2f7;--resa-icon-bg:#e8edfc;}</style><g id="Page-1" fill="none" fill-rule="evenodd"><g id="019---Claustrophobia" fill-rule="nonzero"><path id="Shape" d="m48 35v-2.54c-.0012191-.2116872-.1356148-.3996655-.3355256-.4692974-.1999109-.0696318-.4220071-.0058248-.5544744.1592974l-5.87 7.54c-.1400412.182943-.1400412.437057 0 .62l5.87 7.54c.1324673.1651222.3545635.2289292.5544744.1592974.1999108-.0696319.3343065-.2576102.3355256-.4692974v-2.54h4v12c-.0032948 1.1032019-.8967981 1.9967052-2 2h-40c-1.10320187-.0032948-1.9967052-.8967981-2-2v-12h4v2.54c.0012191.2116872.1356148.3996655.3355256.4692974.1999109.0696318.4220071.0058248.5544744-.1592974l5.87-7.54c.1400412-.182943.1400412-.437057 0-.62l-5.87-7.54c-.1324673-.1651222-.3545635-.2289292-.5544744-.1592974-.1999108.0696319-.3343065.2576102-.3355256.4692974v2.54h-4v-32c.0032948-1.10320187.89679813-1.9967052 2-2h40c1.1032019.0032948 1.9967052.89679813 2 2v32z" fill="var(--resa-icon-light, #a4c2f7)"/><path id="Shape" d="m49 57c-.0032948 1.1032019-.8967981 1.9967052-2 2h3c1.1032019-.0032948 1.9967052-.8967981 2-2v-12h-3z" fill="var(--resa-icon-secondary, #7facfa)"/><path id="Shape" d="m50 1h-3c1.1032019.0032948 1.9967052.89679813 2 2v32h3v-32c-.0032948-1.10320187-.8967981-1.9967052-2-2z" fill="var(--resa-icon-secondary, #7facfa)"/><circle id="Oval" cx="30" cy="14" fill="var(--resa-icon-bg, #e8edfc)" r="7"/><path id="Shape" d="m30 7c-.5044849.00078729-1.0074065.05610867-1.5.165 3.2064126.70878162 5.4891145 3.5511831 5.4891145 6.835s-2.2827019 6.1262184-5.4891145 6.835c2.6211486.579393 5.3427728-.3912156 7.0057888-2.4984637 1.663016-2.107248 1.9744743-4.9799318.8017312-7.3946348-1.172743-2.41470287-3.6231022-3.94606139-6.30752-3.9419015z" fill="var(--resa-icon-bg, #e8edfc)"/><path id="Shape" d="m52 10.99c.0009401.2949075-.0428925.588249-.13.87l-3 10c-.2663364.9089986-.949617 1.636841-1.84 1.96l-3.82 1.39-2.46-5.52 2.81-.99 2.57-8.56c.431377-1.41778095 1.8333608-2.30815217 3.3000184-2.09577415s2.5584917 1.46386426 2.5699816 2.94577415z" fill="var(--resa-icon-bg, #e8edfc)"/><path id="Shape" d="m49.86 8.13c-.7924263-.23952163-1.6488448-.13767923-2.363.281.9266288.52854737 1.4999046 1.51223214 1.503 2.579.0009401.2949075-.0428925.588249-.13.87l-3 10c-.2663364.9089986-.949617 1.636841-1.84 1.96l-1.239.451.419.939 3.82-1.39c.890383-.323159 1.5736636-1.0510014 1.84-1.96l3-10c.0871075-.281751.1309401-.5750925.13-.87.000705-1.32270496-.870837-2.48747598-2.14-2.86z" fill="var(--resa-icon-bg, #e8edfc)"/><path id="Shape" d="m19.25 19.69-2.45 5.52-3.82-1.39c-.8949496-.3193907-1.5827751-1.048114-1.85-1.96l-3-10c-.0871075-.281751-.13094014-.5750925-.13-.87.01148991-1.48190989 1.10332399-2.73339613 2.5699816-2.94577415 1.4666576-.21237802 2.8686414.6779932 3.3000184 2.09577415l2.57 8.56z" fill="var(--resa-icon-bg, #e8edfc)"/><path id="Shape" d="m37 37v18.5c0 .9282577-.3687489 1.8184964-1.0251263 2.4748737-.6563773.6563774-1.546616 1.0251263-2.4748737 1.0251263-1.9291303-.0093024-3.4906976-1.5708697-3.5-3.5 0 1.9329966-1.5670034 3.5-3.5 3.5-1.9291303-.0093024-3.4906976-1.5708697-3.5-3.5v-18.5z" fill="var(--resa-icon-bg, #e8edfc)"/><path id="Shape" d="m34 37v18.5c-.005115 1.3470861-.7828837 2.5716829-2 3.149.467223.2283672.9799598.3483476 1.5.351.9282577 0 1.8184964-.3687489 2.4748737-1.0251263.6563774-.6563773 1.0251263-1.546616 1.0251263-2.4748737v-18.5z" fill="var(--resa-icon-bg, #e8edfc)"/><path id="Shape" d="m43.21 25.21-6.21 2.26v9.53h-14v-9.54l-6.2-2.25 2.45-5.52 3.75 1.31h14l3.75-1.31z" fill="var(--resa-icon-bg, #e8edfc)"/><path id="Shape" d="m40.75 19.69-2.596.907 2.056 4.613-6.21 2.26v9.53h3v-9.53l6.21-2.26z" fill="var(--resa-icon-bg, #e8edfc)"/><path id="Shape" d="m18.76 40.31-5.87 7.54c-.1324673.1651222-.3545635.2289292-.5544744.1592974-.1999108-.0696319-.3343065-.2576102-.3355256-.4692974v-2.54h-10c-.55228475 0-1-.4477153-1-1v-8c0-.5522847.44771525-1 1-1h10v-2.54c.0012191-.2116872.1356148-.3996655.3355256-.4692974.1999109-.0696318.4220071-.0058248.5544744.1592974l5.87 7.54c.1400412.182943.1400412.437057 0 .62z" fill="var(--resa-icon-bg, #e8edfc)"/><path id="Shape" d="m59 36v8c0 .5522847-.4477153 1-1 1h-10v2.54c-.0012191.2116872-.1356148.3996655-.3355256.4692974-.1999109.0696318-.4220071.0058248-.5544744-.1592974l-5.87-7.54c-.1400412-.182943-.1400412-.437057 0-.62l5.87-7.54c.1324673-.1651222.3545635-.2289292.5544744-.1592974.1999108.0696319.3343065.2576102.3355256.4692974v2.54h10c.5522847 0 1 .4477153 1 1z" fill="var(--resa-icon-bg, #e8edfc)"/><path id="Shape" d="m58 35h-3c.5522847 0 1 .4477153 1 1v8c0 .5522847-.4477153 1-1 1h3c.5522847 0 1-.4477153 1-1v-8c0-.5522847-.4477153-1-1-1z" fill="var(--resa-icon-bg, #e8edfc)"/><g fill="#fff"><path id="Shape" d="m8 3v32h3v-32c.0032948-1.10320187.8967981-1.9967052 2-2h-3c-1.10320187.0032948-1.9967052.89679813-2 2z"/><path id="Shape" d="m11 57v-12h-3v12c.0032948 1.1032019.89679813 1.9967052 2 2h3c-1.1032019-.0032948-1.9967052-.8967981-2-2z"/><path id="Shape" d="m4 44v-8c0-.5522847.44771525-1 1-1h-3c-.55228475 0-1 .4477153-1 1v8c0 .5522847.44771525 1 1 1h3c-.55228475 0-1-.4477153-1-1z"/><path id="Rectangle-path" d="m7 49h2v8h-2z"/></g><path id="Shape" d="m8.02 54c-.55228475.0027614-1.00223858-.4427153-1.005-.995s.44271525-1.0022386.995-1.005h.01c.55228475 0 1 .4477153 1 1s-.44771525 1-1 1z" fill="var(--resa-icon-primary, #428dff)"/><path id="Shape" d="m58 34h-5v-31c0-1.65685425-1.3431458-3-3-3h-40c-1.65685425 0-3 1.34314575-3 3v31h-5c-1.1045695 0-2 .8954305-2 2v8c0 1.1045695.8954305 2 2 2h5v3c0 .5522847.44771525 1 1 1s1-.4477153 1-1v-3h2v1.543c.0000366.6410877.4074945 1.2112876 1.014 1.419.6063224.2071044 1.2772502.0062278 1.67-.5l5.869-7.545c.4182845-.5405286.4182845-1.2954714 0-1.836l-5.866-7.542c-.3930996-.5065164-1.064674-.7071796-1.6712163-.4993513-.6065423.2078282-1.0139289.7781913-1.0137837 1.4193513v1.541h-2.002v-15.759l1.171 3.9c.3604444 1.2142902 1.2765699 2.1849823 2.468 2.615l9.361 3.405v27.339c-.0033968.8905867.2610496 1.7616223.759 2.5h-12.759c-.55228475 0-1-.4477153-1-1s-.44771525-1-1-1-1 .4477153-1 1c0 1.6568542 1.34314575 3 3 3h40c1.6568542 0 3-1.3431458 3-3v-11h5c1.1045695 0 2-.8954305 2-2v-8c0-1.1045695-.8954305-2-2-2zm-46 2c.5522847 0 1-.4477153 1-1v-1.085l4.733 6.085-4.733 6.085v-1.085c0-.5522847-.4477153-1-1-1h-10v-8zm31.744-12.049-1.64-3.68 1.788-.627c.301895-.1057927.534956-.3496332.627-.656l2.57-8.565c.2904118-.94138835 1.2231061-1.53108549 2.1980789-1.38973811.9749728.14134737 1.7018037.97163541 1.7129211 1.95673811.000683.1976923-.0289962.3943171-.088.583l-3 10c-.1787279.6025958-.6324248 1.0848574-1.223 1.3zm-33.744-21.951h40c.5522847 0 1 .44771525 1 1v4.551c-.2672939-.16028711-.5530487-.2875504-.851-.379-1.0155332-.30820495-2.1120644-.19848784-3.0463992.30481767s-1.6292418 1.35859664-1.9306008 2.37618233l-2.423 8.072-5.919 2.075h-1.556c2.5049743-2.1962388 3.3867213-5.7149431 2.213427-8.8329139-1.1732944-3.1179708-4.1560067-5.18247669-7.487427-5.18247669s-6.3141326 2.06450589-7.487427 5.18247669c-1.1732943 3.1179708-.2915473 6.6366751 2.213427 8.8329139h-1.556l-5.919-2.075-2.422-8.068c-.2999455-1.01724058-.9931939-1.87285501-1.9261177-2.37723457-.9329239-.50437957-2.0284782-.61587036-3.0438823-.30976543-.30068906.09223042-.58911738.2204954-.859.382v-4.552c0-.55228475.44771525-1 1-1zm14 12c0-3.3137085 2.6862915-6 6-6s6 2.6862915 6 6-2.6862915 6-6 6c-3.3123376-.0033074-5.9966926-2.6876624-6-6zm-11.912 7.573-3-10.009c-.05823526-.1857722-.08790718-.379314-.088-.574.00642208-.7019568.37931427-1.3494886.98322042-1.70737406.60390618-.35788546 1.35095678-.3740516 1.96977958-.04262594.4662877.25108114.8119175.679244.959 1.188l2.569 8.56c.092044.3063668.325105.5502073.627.656l1.79.627-1.633 3.678-2.95-1.072c-.5933997-.214349-1.0491198-.6986676-1.227-1.304zm6.062 3.061 1.642-3.7 2.877 1.009c.1063739.0373592.218257.0566261.331.057h14c.1126863-.0000525.2245678-.0189811.331-.056l2.879-1.009 1.65 3.7-5.2 1.893c-.3951591.1438165-.6581262.5194838-.658.94v8.532h-12.002v-8.54c.0001262-.4205162-.2628409-.7961835-.658-.94zm6.581 32.623c-.4707467-.4630488-.7343744-1.096693-.731-1.757l-.000032-17.5h12.000032v17.5c0 1.3807119-1.1192881 2.5-2.5 2.5-1.3770797-.0087298-2.4912702-1.1229203-2.5-2.5v-11.5c0-.5522847-.4477153-1-1-1s-1 .4477153-1 1v11.5c0 1.3807119-1.1192881 2.5-2.5 2.5-.6659956.0023237-1.3044036-.2658148-1.769-.743zm26.269-.257c0 .5522847-.4477153 1-1 1h-12.762c.4971655-.7389164.7624885-1.6093987.762-2.5v-27.33l9.368-3.409c1.187771-.432471 2.1003583-1.4021878 2.46-2.614l1.172-3.907v15.76h-2v-1.543c-.0004044-.6406239-.4076098-1.2102852-1.0136213-1.418009-.6060116-.2077238-1.2770582-.0076571-1.6703787.498009l-5.867 7.542c-.4198342.5411155-.4198342 1.2978845 0 1.839l5.866 7.542c.2842085.3659915.7216165.5800815 1.185.58.1653817.0002694.3296452-.0271079.486-.081.6054637-.2073541 1.012683-.7760154 1.014-1.416v-1.543h2zm7-13h-10c-.5522847 0-1 .4477153-1 1v1.085l-4.733-6.085 4.733-6.085v1.085c0 .5522847.4477153 1 1 1h10z" fill="var(--resa-icon-primary, #428dff)"/></g></g></svg>