<svg height="512" viewBox="0 0 60 60" width="512" xmlns="http://www.w3.org/2000/svg"><style>:root{--resa-icon-primary:#428dff;--resa-icon-secondary:#7facfa;--resa-icon-light:#a4c2f7;--resa-icon-bg:#e8edfc;}</style><g id="Icons"><g fill="var(--resa-icon-bg, #e8edfc)"><path d="m18.32 47.5a2.322 2.322 0 0 1 -.13.78l-1.45 3.83a2.5 2.5 0 0 1 -4.67-1.76l1.41-3.74a1.084 1.084 0 0 1 .08-.19 2.5 2.5 0 0 1 4.76 1.08z"/><path d="m23.35 48.33a2.431 2.431 0 0 1 -.16.87l-1.77 4.67a2.5 2.5 0 0 1 -4.68-1.76l1.45-3.83.32-.84a2.5 2.5 0 0 1 4.84.89z"/><path d="m32 53.71a2.431 2.431 0 0 1 -.16.87l-.61 1.62-.45 1.18a2.5 2.5 0 0 1 -4.68-1.75l1.08-2.86a2.5 2.5 0 0 1 4.82.94z"/><path d="m28.03 50.09a2.431 2.431 0 0 1 -.16.87l-.69 1.81-1.08 2.86a2.5 2.5 0 0 1 -4.68-1.76l1.77-4.67a2.5 2.5 0 0 1 4.84.89z"/><path d="m50 28.01v14.99l-4.84 1a1.722 1.722 0 0 0 .22-.37 2.5 2.5 0 0 0 -1.18-3.33l-11.04-5.67a2.021 2.021 0 0 0 -2.29.33l-5.94 5.6a2.978 2.978 0 0 1 -4.96-2.23 2.922 2.922 0 0 1 .77-2l7.76-8.7.11-.12a7.469 7.469 0 0 1 7.07-2.36l3.23.64z"/></g><path d="m38.91 25.79-3.23-.64a7.436 7.436 0 0 0 -2.976.005l3.206.635 11.09 2.22v14.99l-1.506.311a2.382 2.382 0 0 1 -.114.319 1.722 1.722 0 0 1 -.22.37l4.84-1v-14.99z" fill="var(--resa-icon-bg, #e8edfc)"/><path d="m45.38 43.63a1.722 1.722 0 0 1 -.22.37 2.469 2.469 0 0 1 -3.11.81 2.488 2.488 0 0 1 1.42 2.25 2.605 2.605 0 0 1 -.24 1.08 2.491 2.491 0 0 1 -2.26 1.42 2.561 2.561 0 0 1 -1.07-.24 2.5 2.5 0 0 1 -1.07 4.75 2.605 2.605 0 0 1 -1.08-.24 2.491 2.491 0 0 1 1.42 2.26 2.605 2.605 0 0 1 -.24 1.08 2.483 2.483 0 0 1 -3.32 1.17l-4.38-2.14.61-1.62a2.431 2.431 0 0 0 .16-.87 2.5 2.5 0 0 0 -4.82-.94l.69-1.81a2.431 2.431 0 0 0 .16-.87 2.5 2.5 0 0 0 -4.84-.89 2.431 2.431 0 0 0 .16-.87 2.5 2.5 0 0 0 -4.84-.89l-.32.84a2.322 2.322 0 0 0 .13-.78 2.5 2.5 0 0 0 -4.76-1.08l-3.56-1.42v-15l13.83-2.44.58-.1a9.518 9.518 0 0 1 4.08.16l.01.01-7.76 8.7a2.922 2.922 0 0 0 -.77 2 2.978 2.978 0 0 0 4.96 2.23l5.94-5.6a2.021 2.021 0 0 1 2.29-.33l11.04 5.67a2.5 2.5 0 0 1 1.18 3.33z" fill="var(--resa-icon-bg, #e8edfc)"/><path d="m44.2 40.3-11.04-5.67a2.021 2.021 0 0 0 -2.29.33l-.024.022 10.354 5.318a2.5 2.5 0 0 1 1.18 3.33 1.722 1.722 0 0 1 -.22.37 2.469 2.469 0 0 1 -3.11.81 2.488 2.488 0 0 1 1.42 2.25 2.605 2.605 0 0 1 -.24 1.08 2.491 2.491 0 0 1 -2.26 1.42 2.561 2.561 0 0 1 -1.07-.24 2.5 2.5 0 0 1 -1.07 4.75 2.605 2.605 0 0 1 -1.08-.24 2.491 2.491 0 0 1 1.42 2.26 2.605 2.605 0 0 1 -.24 1.08 2.446 2.446 0 0 1 -.8.937l.476.233a2.483 2.483 0 0 0 3.32-1.17 2.605 2.605 0 0 0 .24-1.08 2.491 2.491 0 0 0 -1.42-2.26 2.605 2.605 0 0 0 1.08.24 2.5 2.5 0 0 0 1.07-4.75 2.561 2.561 0 0 0 1.07.24 2.491 2.491 0 0 0 2.26-1.42 2.605 2.605 0 0 0 .24-1.08 2.488 2.488 0 0 0 -1.42-2.25 2.469 2.469 0 0 0 3.114-.81 1.722 1.722 0 0 0 .22-.37 2.5 2.5 0 0 0 -1.18-3.33z" fill="var(--resa-icon-light, #a4c2f7)"/><rect fill="var(--resa-icon-bg, #e8edfc)" height="17" rx="1" width="9" x="1" y="29"/><path d="m9 29h-3a1 1 0 0 1 1 1v15a1 1 0 0 1 -1 1h3a1 1 0 0 0 1-1v-15a1 1 0 0 0 -1-1z" fill="var(--resa-icon-bg, #e8edfc)"/><rect fill="var(--resa-icon-bg, #e8edfc)" height="17" rx="1" width="9" x="50" y="27"/><path d="m58 27h-3a1 1 0 0 1 1 1v15a1 1 0 0 1 -1 1h3a1 1 0 0 0 1-1v-15a1 1 0 0 0 -1-1z" fill="var(--resa-icon-bg, #e8edfc)"/><path d="m44 15a13.948 13.948 0 0 1 -5.09 10.79l-3.23-.64a7.469 7.469 0 0 0 -7.07 2.36l-.11.12-.01-.01a9.518 9.518 0 0 0 -4.08-.16l-.58.1a14 14 0 1 1 20.17-12.56z" fill="var(--resa-icon-bg, #e8edfc)"/><path d="m30 1a14.021 14.021 0 0 0 -1.5.083 13.972 13.972 0 0 1 7.943 24.217l2.467.489a13.994 13.994 0 0 0 -8.91-24.789z" fill="var(--resa-icon-bg, #e8edfc)"/></g><g id="Icons_copy_2" data-name="Icons copy 2"><path d="m2 46h3a1 1 0 0 1 -1-1v-15a1 1 0 0 1 1-1h-3a1 1 0 0 0 -1 1v15a1 1 0 0 0 1 1z" fill="#fff"/></g><g id="Icons_copy" data-name="Icons copy"><path d="m0 30h2v8h-2z" fill="#fff"/><g fill="var(--resa-icon-primary, #428dff)"><circle cx="1" cy="34" r="1"/><path d="m2 47h7a1.99 1.99 0 0 0 1.521-.716l1.75.7-1.135 3.016a3.487 3.487 0 0 0 2.039 4.5 3.5 3.5 0 0 0 2.707-.113c.005.012.007.025.013.037a3.5 3.5 0 0 0 3.185 2.056 3.511 3.511 0 0 0 1.481-.331c0 .012.007.024.012.036a3.5 3.5 0 0 0 3.186 2.055 3.514 3.514 0 0 0 1.481-.331c.005.011.007.024.012.035a3.5 3.5 0 0 0 6.464-.206l.06-.158 3.4 1.661a3.483 3.483 0 0 0 4.664-1.654 3.614 3.614 0 0 0 .331-1.5 3.547 3.547 0 0 0 -.208-1.2 3.5 3.5 0 0 0 2.161-4.479l-.011-.032a3.5 3.5 0 0 0 2.029-1.817 3.662 3.662 0 0 0 .329-1.495 3.469 3.469 0 0 0 -.213-1.2 3.5 3.5 0 0 0 1.433-.957l3.68-.759a2 2 0 0 0 1.629.852h7a2 2 0 0 0 2-2v-15a2 2 0 0 0 -2-2h-7a2 2 0 0 0 -1.642.863l-8.372-1.675a14.994 14.994 0 1 0 -19.923 1.847l-10.415 1.835a2 2 0 0 0 -1.648-.87h-7a2 2 0 0 0 -2 2 1 1 0 0 0 2 0h7v15h-7v-7a1 1 0 0 0 -2 0v7a2 2 0 0 0 2 2zm49-19h7v15h-7zm-37.125 24.628a1.492 1.492 0 0 1 -.837-.786 1.471 1.471 0 0 1 -.032-1.139l1.412-3.745a1.457 1.457 0 0 1 .771-.822 1.5 1.5 0 0 1 .622-.136 1.543 1.543 0 0 1 .543.1 1.491 1.491 0 0 1 .966 1.4 1.435 1.435 0 0 1 -.088.489l-.918 2.43-.51 1.34a1.509 1.509 0 0 1 -1.929.869zm4.679 1.756a1.494 1.494 0 0 1 -.874-1.924l.565-1.5.85-2.232c.008-.02.01-.042.017-.063l.331-.876a1.5 1.5 0 0 1 1.935-.871 1.492 1.492 0 0 1 .873 1.924l-1.764 4.668a1.5 1.5 0 0 1 -1.933.874zm4.678 1.76a1.5 1.5 0 0 1 -.874-1.925l1.764-4.667a1.5 1.5 0 0 1 1.405-.969 1.521 1.521 0 0 1 .53.1 1.492 1.492 0 0 1 .873 1.917l-1.764 4.668a1.5 1.5 0 0 1 -1.934.876zm4.679 1.756a1.494 1.494 0 0 1 -.874-1.924l1.059-2.8a1.5 1.5 0 0 1 2.77-.087 1.474 1.474 0 0 1 .037 1.14l-1.058 2.8a1.5 1.5 0 0 1 -1.934.871zm16.563-14.7a1.51 1.51 0 0 1 -1.976.708.141.141 0 0 0 -.018-.014l-2.7-1.29a1 1 0 1 0 -.861 1.8l2.674 1.278c.008 0 .012.011.02.015l.015.007a1.507 1.507 0 0 1 .842 1.352 1.594 1.594 0 0 1 -.142.648 1.5 1.5 0 0 1 -1.978.714c-.006 0-.009-.009-.015-.011l-2.9-1.389a1 1 0 0 0 -.864 1.8l2.876 1.375c.011.006.018.017.03.022a1.47 1.47 0 0 1 .763.845 1.5 1.5 0 0 1 -.059 1.148 1.521 1.521 0 0 1 -2 .706l-2.747-1.319a1 1 0 0 0 -.866 1.8l2.745 1.318.007.005a1.489 1.489 0 0 1 .851 1.357 1.583 1.583 0 0 1 -.144.65 1.482 1.482 0 0 1 -1.977.7l-3.564-1.725.288-.764a3.468 3.468 0 0 0 -3.768-4.674 3.444 3.444 0 0 0 -2.246-3.456 3.493 3.493 0 0 0 -2.711.109c0-.012-.007-.025-.012-.037a3.488 3.488 0 0 0 -5.312-1.324 3.485 3.485 0 0 0 -5.537-.361l-2.188-.87v-13.484l13.584-2.394a8.6 8.6 0 0 1 1.955-.118l-6.531 7.321a3.914 3.914 0 0 0 -1.038 2.68 3.978 3.978 0 0 0 6.645 2.957l5.938-5.6a1.014 1.014 0 0 1 1.15-.17l11.065 5.685a1.505 1.505 0 0 1 .706 2zm-10.867-9.465a3.043 3.043 0 0 0 -3.422.5l-5.92 5.579a1.979 1.979 0 0 1 -3.3-1.482 1.938 1.938 0 0 1 .516-1.334l7.871-8.821a6.525 6.525 0 0 1 6.127-2.047l13.521 2.701v13.354l-2.383.492a3.491 3.491 0 0 0 -1.96-3.269zm-16.607-18.735a13 13 0 1 1 21.607 9.712l-2.73-.546a8.526 8.526 0 0 0 -7.7 2.37 10.461 10.461 0 0 0 -3.941-.061l-.236.042a12.907 12.907 0 0 1 -7-11.517z"/><path d="m30 20a2 2 0 0 1 -2-2 1 1 0 0 0 -2 0 4 4 0 0 0 3 3.858v1.142a1 1 0 0 0 2 0v-1.142a3.992 3.992 0 0 0 -1-7.858 2 2 0 1 1 2-2 1 1 0 0 0 2 0 4 4 0 0 0 -3-3.858v-1.142a1 1 0 0 0 -2 0v1.142a3.992 3.992 0 0 0 1 7.858 2 2 0 0 1 0 4z"/></g></g></svg>