<svg height="512" viewBox="0 0 60 60" width="512" xmlns="http://www.w3.org/2000/svg"><style>:root{--resa-icon-primary:#428dff;--resa-icon-secondary:#7facfa;--resa-icon-light:#a4c2f7;--resa-icon-bg:#e8edfc;}</style><g id="Page-1" fill="none" fill-rule="evenodd"><g id="017---Handing-Over-Keys" fill-rule="nonzero"><g id="Icons_copy" transform="translate(1 1)"><rect id="Rectangle-path" fill="var(--resa-icon-bg, #e8edfc)" height="25" rx="2" width="9" y="33"/><path id="Shape" d="m7 33h-3c1.1045695 0 2 .8954305 2 2v21c0 1.1045695-.8954305 2-2 2h3c1.1045695 0 2-.8954305 2-2v-21c0-1.1045695-.8954305-2-2-2z" fill="var(--resa-icon-bg, #e8edfc)"/><path id="Shape" d="m56.68 44.57-18.74 11.41c-1.0968305.667384-2.3560847 1.020252-3.64 1.02l-25.57.0000001.27-22.0000001h2.8c2.0715011.0028959 4.0808416.7079276 5.7 2s3.6284989 1.9971041 5.7 2h5.23c1.8187149.0061815 3.4928538.9923182 4.38 2.58.852769 1.4249594.6259838 3.2474872-.55 4.42h2.35c.4319935.0002223.8610725-.0707278 1.27-.21l18.51-6.17c1.120338-.3678364 2.3505552.0181141 3.06.96v.01c.4649441.6171961.6465512 1.4025179.4997758 2.1611752s-.608183 1.4195768-1.2697758 1.8188248z" fill="var(--resa-icon-bg, #e8edfc)"/><path id="Shape" d="m29.81 41.58c.852769 1.4249594.6259838 3.2474872-.55 4.42h2.35c.2376052-.0014618.4745837-.0245572.708-.069 1.1239531-1.1745911 1.3252873-2.9550891.492-4.351-.8871462-1.5876818-2.5612851-2.5738185-4.38-2.58h-3c1.8187149.0061815 3.4928538.9923182 4.38 2.58z" fill="var(--resa-icon-bg, #e8edfc)"/><path id="Shape" d="m57.45 40.59v-.01c-.7094448-.9418859-1.939662-1.3278364-3.06-.96l-.749.25c.3140349.1807419.5890261.4220816.809.71v.01c.4649441.6171961.6465512 1.4025179.4997758 2.1611752s-.608183 1.4195768-1.2697758 1.8188248l-18.74 11.41c-1.0968305.667384-2.3560847 1.020252-3.64 1.0200001l3-.0000001c1.2839153.000252 2.5431695-.352616 3.64-1.02l18.74-11.41c.6615928-.399248 1.1230004-1.0601675 1.2697758-1.8188248s-.0348317-1.5439791-.4997758-2.1611752z" fill="var(--resa-icon-bg, #e8edfc)"/><path id="Shape" d="m54 0h-12c-1.2974891.00078263-2.5139955.63084983-3.2632498 1.69014039s-.9381656 2.41619331-.5067502 3.63985961l3.18 9c.5609944 1.6011654 2.0734034 2.6722879 3.77 2.67h5.64c1.6965966.0022879 3.2090056-1.0688346 3.77-2.67l3.18-9c.4314154-1.2236663.2425041-2.58056905-.5067502-3.63985961s-1.9657607-1.68935776-3.2632498-1.69014039zm-1.59 7.41c-.3704612.3798589-.8794095.59282307-1.41.59h-6c-1.1032019-.0032948-1.9967052-.89679813-2-2 .0081672-1.10116878.8988312-1.99183278 2-2h6c1.1032019.0032948 1.9967052.89679813 2 2 .0028231.53059053-.2101411 1.0395388-.59 1.41z" fill="var(--resa-icon-bg, #e8edfc)"/><path id="Shape" d="m54 0h-3c1.2974891.00078263 2.5139955.63084983 3.2632498 1.69014039s.9381656 2.41619331.5067502 3.63985961l-3.18 9c-.5609944 1.6011654-2.0734034 2.6722879-3.77 2.6700037l3-.0000037c1.6965966.0022879 3.2090056-1.0688346 3.77-2.67l3.18-9c.4314154-1.2236663.2425041-2.58056905-.5067502-3.63985961s-1.9657607-1.68935776-3.2632498-1.69014039z" fill="var(--resa-icon-bg, #e8edfc)"/><path id="Shape" d="m51 17v4.586c-.0000566.2651948-.1054506.5195073-.293.707l-.414.414c-.1875494.1874927-.2929434.4418052-.293.707v4.35c-.0000925.1552372.0362123.3083339.106.447l.67 1.342c.1406214.2814108.1406214.6125892 0 .894l-.591 1.183c-.1184032.2371272-.1378258.5115604-.054.763l.674 2.021c.1195324.3593148.0258526.7553247-.242 1.023l-1.856 1.856c-.3904999.3903819-1.0235001.3903819-1.414 0l-1.856-1.856c-.2678526-.2676753-.3615324-.6636852-.242-1.023l.674-2.021c.0838258-.2514396.0644032-.5258728-.054-.763l-.591-1.183c-.1406214-.2814108-.1406214-.6125892 0-.894l.67-1.342c.0697877-.1386661.1060925-.2917628.106-.447v-4.35c-.0000566-.2651948-.1054506-.5195073-.293-.707l-.414-.414c-.1875494-.1874927-.2929434-.4418052-.293-.707v-4.586z" fill="var(--resa-icon-light, #a4c2f7)"/><path id="Shape" d="m36.12 15.12-4-4c-1.1712702-1.16981351-3.0687298-1.16981351-4.24 0l-4 4c-.5613821.5629971-.8776629 1.3249465-.88 2.12v14.76c0 1.6568542 1.3431458 3 3 3h8c1.6568542 0 3-1.3431458 3-3v-14.76c-.0023371-.7950535-.3186179-1.5570029-.88-2.12zm-6.12 3.88c-1.1045695 0-2-.8954305-2-2s.8954305-2 2-2 2 .8954305 2 2c-.0032948 1.1032019-.8967981 1.9967052-2 2z" fill="var(--resa-icon-bg, #e8edfc)"/><path id="Shape" d="m36.121 15.121-4-4c-.9617994-.9587331-2.4489114-1.14888302-3.621-.463.2262186.1267253.4349735.282367.621.463l4 4c.5628932.5627232.8790953 1.326069.879 2.122v14.757c0 1.6568542-1.3431458 3-3 3h3c1.6568542 0 3-1.3431458 3-3v-14.757c.0000953-.795931-.3161068-1.5592768-.879-2.122z" fill="var(--resa-icon-bg, #e8edfc)"/><rect id="Rectangle-path" fill="var(--resa-icon-light, #a4c2f7)" height="8" rx="1" width="6" x="27" y="23"/></g><g id="Icons_copy_2" fill="#fff" transform="translate(1 11)"><path id="Shape" d="m11.73 46.986c-.009.016-.024.029-.033.045h.337c-.327-.008-.304-.021-.304-.045z"/><path id="Shape" d="m27.88 1.12-4 4c-.5613821.56299712-.8776629 1.32494645-.88 2.12v14.76c0 1.6568542 1.3431458 3 3 3h3c-1.6568542 0-3-1.3431458-3-3v-14.76c.0023371-.79505355.3186179-1.55700288.88-2.12l4-4c.1848028-.17964761.3926145-.33399316.618-.459-1.1726712-.6746662-2.6509513-.4871232-3.618.459z"/><path id="Shape" d="m2 48h3c-1.1045695 0-2-.8954305-2-2v-21c0-1.1045695.8954305-2 2-2h-3c-1.1045695 0-2 .8954305-2 2v21c0 1.1045695.8954305 2 2 2z"/></g><g id="Icons"><path id="Rectangle-path" d="m0 49h2v8h-2z" fill="#fff"/><g fill="var(--resa-icon-primary, #428dff)"><circle id="Oval" cx="1" cy="53" r="1"/><path id="Shape" d="m34.688 42.1c-1.0593784-1.9108169-3.0711666-3.0973739-5.256-3.1h-5.232c-1.8447784-.0022216-3.634258-.6300907-5.076-1.781-1.7965359-1.4333058-4.0257628-2.2155092-6.324-2.219h-1.984c-.4222546-1.1943509-1.54921457-1.9947486-2.816-2h-5c-1.65685425 0-3 1.3431458-3 3v13c0 .5522847.44771525 1 1 1s1-.4477153 1-1v-13c0-.5522847.44771525-1 1-1h5c.55228475 0 1 .4477153 1 1v21c0 .5522847-.44771525 1-1 1h-5c-.55228475 0-1-.4477153-1-1s-.44771525-1-1-1-1 .4477153-1 1c0 1.6568542 1.34314575 3 3 3h5c.84849384-.0026614 1.6557601-.3662948 2.22-1h25.08c1.4676987.0003853 2.9072184-.4029985 4.161-1.166l18.739-11.408c.886642-.5347645 1.51102-1.4141041 1.7236308-2.4274668.2126108-1.0133626-.0056897-2.0695022-.6026308-2.9155332-.0205171-.03498-.0435793-.0684035-.069-.1-.967968-1.2850788-2.6470418-1.8107194-4.175-1.307l-18.52 6.168c-.3050039.1034686-.6249238.1561692-.947.156h-.57c.4694778-1.2875297.3404282-2.7173398-.352-3.9zm2.512 5.639 18.5-6.169c.6859401-.2267238 1.4406992-.0086381 1.9.549.015.025.031.048.048.072.2960001.391457.4115853.8903117.3179072 1.3720576-.0936781.4817458-.3877818.9009344-.8089072 1.1529424l-18.736 11.41c-.9406044.5717867-2.0202381.8741257-3.121.874h-24.3v-20h1.8c1.8447784.0022216 3.634258.6300907 5.076 1.781 1.7965359 1.4333058 4.0257628 2.2155092 6.324 2.219h5.231c1.4000941.0181067 2.6955589.7447115 3.441 1.93.0211179.0555781.0472245.10913.078.16.5456847.910432.4864029 2.0605004-.15 2.91h-6.08c-1.9739947.0012245-3.9036785.585313-5.547 1.679l-.731.49c-.4589486.3081749-.5811749.9300514-.273 1.389s.9300514.5811749 1.389.273l.724-.488c1.314757-.8750305 2.8586762-1.3422417 4.438-1.343h8.89c.5407416.0009672 1.0779441-.0872151 1.59-.261z"/><path id="Shape" d="m55 0h-12c-1.5016135-.00030649-2.9238587.67427912-3.8736812 1.83732704-.9498224 1.16304792-1.3266415 2.69139819-1.0263188 4.16267296h-3.1c-2.5215807.00808554-4.6408686 1.89609257-4.939 4.4-.7128569.1532296-1.3677735.5051302-1.889 1.015l-4 4c-.7525409.7484023-1.1745395 1.7666719-1.172 2.828v14.757c0 2.209139 1.790861 4 4 4h8c2.209139 0 4-1.790861 4-4v-14.757c.0028067-1.0616745-.4192123-2.0803536-1.172-2.829l-4-4c-.4916265-.4799709-1.1033436-.8188159-1.771-.981.2716158-1.41122323 1.5058764-2.43159567 2.943-2.433h3.76l2.705 7.664c.5669504 1.5879194 1.8960296 2.7831507 3.535 3.179v3.743c-.0014371.5306972.2095879 1.0398938.586 1.414l.414.414v4.35l-.671 1.342c-.2789267.5637173-.2789267 1.2252827 0 1.789l.592 1.182-.674 2.02c-.2431688.71858-.0557413 1.5129157.483 2.047l1.856 1.856c.7809997.7807639 2.0470003.7807639 2.828 0l1.855-1.855c.5392677-.5341828.7270875-1.3289246.484-2.048l-.673-2.02.591-1.183c.2789267-.5637173.2789267-1.2252827 0-1.789l-.671-1.341v-4.35l.414-.414c.3764121-.3741062.5874371-.8833028.586-1.414v-3.743c1.6389704-.3958493 2.9680496-1.5910806 3.535-3.179l3.177-9c.539851-1.52968087.3040683-3.22619418-.6324579-4.55068706-.9365261-1.32449288-2.4573948-2.11234392-4.0795421-2.11331294zm-24 17c.5522847 0 1 .4477153 1 1s-.4477153 1-1 1-1-.4477153-1-1 .4477153-1 1-1zm5.414-.172c.3762813.3746033.5872584.8840446.586 1.415v14.757c0 1.1045695-.8954305 2-2 2h-8c-1.1045695 0-2-.8954305-2-2v-14.757c-.0012584-.5309554.2097187-1.0403967.586-1.415l4-4c.1240172-.1205162.2631849-.2243878.414-.309v2.665c-1.3775467.4870363-2.2038721 1.8956662-1.9567957 3.3357331.2470764 1.4400668 1.4956868 2.492694 2.9567957 2.492694s2.7097193-1.0526272 2.9567957-2.492694c.2470764-1.4400669-.579249-2.8486968-1.9567957-3.3357331v-2.665c.1508151.0846122.2899828.1884838.414.309zm14.586 5.758-.414.414c-.3764121.3741062-.5874371.8833028-.586 1.414v4.35c.000349.310296.0725699.6162936.211.894l.671 1.342-.59 1.181c-.2398721.4740794-.2791486 1.0246718-.109 1.528l.672 2.021-1.855 1.856-1.856-1.856.673-2.021c.16995-.5029236.1310446-1.0530033-.108-1.527l-.591-1.182.671-1.342c.1384301-.2777064.210651-.583704.211-.894v-4.35c.0014371-.5306972-.2095879-1.0398938-.586-1.414l-.414-.414v-3.586h4zm6.825-16.586-3.177 9c-.4237307 1.1984915-1.5568078 1.999819-2.828 2h-5.64c-1.2711922-.000181-2.4042693-.8015085-2.828-2l-2.471-7h2.3c.422625 1.19538402 1.5511124 1.99601359 2.819 2h6c1.6568542-.00000002 3-1.34314577 3-3s-1.3431458-2.99999998-3-3h-6c-1.2667854.00525139-2.3937454.80564913-2.816 2h-3.009c-.3244339-.91763566-.1835334-1.93563584.3779474-2.7306528.5614807-.79501696 1.4737534-1.26823555 2.4470526-1.2693472h12c.973829.00013865 1.8870021.47295549 2.4491859 1.26812355.5621838.79516805.7034238 1.81374169.3788141 2.73187645zm-12.825 1c0-.55228475.4477153-1 1-1h6c.5522847 0 1 .44771525 1 1s-.4477153 1-1 1h-6c-.5522847 0-1-.44771525-1-1z"/><path id="Shape" d="m29 23c-1.1045695 0-2 .8954305-2 2v6c0 1.1045695.8954305 2 2 2h4c1.1045695 0 2-.8954305 2-2v-6c0-1.1045695-.8954305-2-2-2zm0 8v-6h4v6z"/></g></g></g></g></svg>