<svg height="512pt" viewBox="0 0 512 512.01178" width="512pt" xmlns="http://www.w3.org/2000/svg"><style>:root{--resa-icon-primary:#428dff;--resa-icon-secondary:#7facfa;--resa-icon-light:#a4c2f7;--resa-icon-bg:#e8edfc;}</style><path d="m51.207031 185.613281h409.597657v293.375h-409.597657zm0 0" fill="var(--resa-icon-light, #a4c2f7)"/><path d="m51.207031 185.613281h384v293.375h-384zm0 0" fill="#e3e7f2"/><path d="m493.828125 196.277344h-475.644531c-4.113282.558594-8.023438-1.957032-9.214844-5.933594s.691406-8.230469 4.433594-10.023438c44.375-23.039062 116.140625-72.53125 134.484375-158.121093.382812-1.839844 1.140625-3.582031 2.21875-5.121094 3.703125-5.480469 9.945312-8.699219 16.554687-8.53125h178.691406c8.671876-.371094 16.453126 5.285156 18.773438 13.652344 18.34375 85.589843 90.109375 135.082031 134.484375 158.121093 3.742187 1.792969 5.625 6.046876 4.433594 10.023438-1.191407 3.976562-5.101563 6.492188-9.214844 5.933594zm0 0" fill="#7fabfa"/><path d="m477.871094 196.277344h-459.6875c-4.113282.558594-8.023438-1.957032-9.214844-5.933594s.691406-8.230469 4.433594-10.023438c44.375-23.039062 116.140625-72.53125 134.484375-158.121093.382812-1.839844 1.140625-3.582031 2.21875-5.121094h169.644531c8.671875-.371094 16.453125 5.289063 18.773438 13.652344 18.347656 85.589843 90.113281 135.082031 134.484374 158.125 2.925782 1.320312 4.820313 4.214843 4.863282 7.421875zm0 0" fill="var(--resa-icon-light, #a4c2f7)"/><path d="m298.671875 349.878906v119.464844h-85.332031v-119.464844c.027344-9.414062 7.652344-17.039062 17.066406-17.066406h51.199219c9.414062.027344 17.039062 7.652344 17.066406 17.066406zm0 0" fill="var(--resa-icon-light, #a4c2f7)"/><path d="m277.339844 349.878906v119.464844h-64v-119.464844c.027344-9.414062 7.652344-17.039062 17.066406-17.066406h29.867188c9.414062.027344 17.039062 7.652344 17.066406 17.066406zm0 0" fill="#e3e7f2"/><path d="m341.339844 127.074219v128.9375h-170.667969v-128.9375c-.003906-4.84375 2.042969-9.464844 5.632813-12.714844l58.28125-52.394531 9.984374-9.046875c6.519532-5.804688 16.351563-5.804688 22.871094 0l68.265625 61.441406c3.589844 3.25 5.636719 7.871094 5.632813 12.714844zm0 0" fill="var(--resa-icon-light, #a4c2f7)"/><path d="m315.738281 139.875v116.136719h-145.066406v-128.9375c-.003906-4.84375 2.042969-9.464844 5.632813-12.714844l58.28125-52.394531c2.695312.621094 5.191406 1.914062 7.253906 3.753906l68.265625 61.441406c3.59375 3.25 5.640625 7.867188 5.632812 12.714844zm0 0" fill="#e3e7f2"/><path d="m17.074219 465.078125h477.863281c4.714844 0 8.535156 3.820313 8.535156 8.535156v17.066407c0 4.710937-3.820312 8.53125-8.535156 8.53125h-477.863281c-4.714844 0-8.535157-3.820313-8.535157-8.53125v-17.066407c0-4.714843 3.820313-8.535156 8.535157-8.535156zm0 0" fill="var(--resa-icon-light, #a4c2f7)"/><path d="m17.074219 465.078125h452.265625c4.710937 0 8.53125 3.820313 8.53125 8.535156v17.066407c0 4.710937-3.820313 8.53125-8.53125 8.53125h-452.265625c-4.714844 0-8.535157-3.820313-8.535157-8.53125v-17.066407c0-4.714843 3.820313-8.535156 8.535157-8.535156zm0 0" fill="#e3e7f2"/><path d="m435.207031 349.878906v68.265625c0 4.714844-3.820312 8.535157-8.535156 8.535157h-85.332031c-2.972656.015624-5.734375-1.542969-7.253906-4.097657-.855469-1.320312-1.300782-2.863281-1.28125-4.4375v-68.265625c0-4.714844 3.820312-8.535156 8.535156-8.535156h85.332031c1.503906.003906 2.980469.414062 4.265625 1.195312.605469.347657 1.175781.75 1.707031 1.195313 1.613281 1.640625 2.53125 3.84375 2.5625 6.144531zm0 0" fill="var(--resa-icon-light, #a4c2f7)"/><path d="m179.207031 349.878906v68.265625c0 4.714844-3.820312 8.535157-8.535156 8.535157h-85.332031c-2.972656.015624-5.734375-1.542969-7.253906-4.097657-.855469-1.320312-1.300782-2.863281-1.28125-4.4375v-68.265625c0-4.714844 3.820312-8.535156 8.535156-8.535156h85.332031c1.503906.003906 2.980469.414062 4.265625 1.195312.605469.347657 1.175781.75 1.707031 1.195313 1.613281 1.640625 2.53125 3.84375 2.5625 6.144531zm0 0" fill="var(--resa-icon-light, #a4c2f7)"/><path d="m337.824219 341.34375-5.019531 5.019531v-5.019531zm0 0" fill="#d3dff2"/><path d="m369.097656 341.34375-36.292968 36.292969v-31.273438l5.019531-5.019531zm0 0" fill="#d3dff2"/><path d="m369.113281 341.34375-36.308593 36.3125v-.019531l36.292968-36.292969zm0 0" fill="#d3dff2"/><path d="m369.132812 341.34375-36.328124 36.328125v-.015625l36.308593-36.3125zm0 0" fill="#d8e1f2"/><path d="m369.148438 341.34375-36.34375 36.34375v-.015625l36.328124-36.328125zm0 0" fill="#dce3f2"/><path d="m369.167969 341.34375-36.363281 36.363281v-.019531l36.34375-36.34375zm0 0" fill="#e0e5f2"/><path d="m369.183594 341.34375-36.378906 36.378906v-.015625l36.363281-36.363281zm0 0" fill="#e4e7f2"/><path d="m369.199219 341.34375-36.394531 36.394531v-.015625l36.378906-36.378906zm0 0" fill="#e7e8f2"/><path d="m369.21875 341.34375-36.414062 36.414062v-.019531l36.394531-36.394531zm0 0" fill="#eaeaf2"/><path d="m369.234375 341.34375-36.429687 36.429688v-.015626l36.414062-36.414062zm0 0" fill="#edebf2"/><path d="m369.25 341.34375-36.445312 36.445312v-.015624l36.429687-36.429688zm0 0" fill="#efecf2"/><path d="m369.269531 341.34375-36.464843 36.464844v-.019532l36.445312-36.445312zm0 0" fill="#f1edf2"/><path d="m369.285156 341.34375-36.480468 36.480469v-.015625l36.464843-36.464844zm0 0" fill="#f3eef2"/><path d="m369.304688 341.34375-36.5 36.5v-.019531l36.480468-36.480469zm0 0" fill="#f5eef2"/><path d="m369.320312 341.34375-36.515624 36.515625v-.015625l36.5-36.5zm0 0" fill="#f6eff2"/><path d="m369.335938 341.34375-36.53125 36.53125v-.015625l36.515624-36.515625zm0 0" fill="#f8f0f2"/><path d="m369.355469 341.34375-36.550781 36.550781v-.019531l36.53125-36.53125zm0 0" fill="#f9f0f2"/><path d="m369.371094 341.34375-36.566406 36.566406v-.015625l36.550781-36.550781zm0 0" fill="#faf1f2"/><path d="m369.398438 341.34375-36.59375 36.59375v-.027344l36.566406-36.566406zm0 0" fill="#fbf1f2"/><path d="m369.414062 341.34375-36.609374 36.609375v-.015625l36.59375-36.59375zm0 0" fill="#fbf1f2"/><path d="m369.429688 341.34375-36.625 36.625v-.015625l36.609374-36.609375zm0 0" fill="#fcf2f2"/><path d="m369.449219 341.34375-36.644531 36.644531v-.019531l36.625-36.625zm0 0" fill="#fdf2f2"/><path d="m369.464844 341.34375-36.660156 36.660156v-.015625l36.644531-36.644531zm0 0" fill="#fdf2f2"/><path d="m369.480469 341.34375-36.675781 36.675781v-.015625l36.660156-36.660156zm0 0" fill="#fdf2f2"/><path d="m369.5 341.34375-36.695312 36.695312v-.019531l36.675781-36.675781zm0 0" fill="#fef2f2"/><path d="m369.515625 341.34375-36.710937 36.710938v-.015626l36.695312-36.695312zm0 0" fill="#fef3f2"/><path d="m369.535156 341.34375-36.730468 36.730469v-.019531l36.710937-36.710938zm0 0" fill="#fef3f2"/><path d="m369.550781 341.34375-36.746093 36.746094v-.015625l36.730468-36.730469zm0 0" fill="#fef3f2"/><path d="m369.566406 341.34375-36.761718 36.761719v-.015625l36.746093-36.746094zm0 0" fill="#fff3f2"/><path d="m369.585938 341.34375-36.78125 36.78125v-.019531l36.761718-36.761719zm0 0" fill="#fff3f2"/><path d="m369.601562 341.34375-36.796874 36.796875v-.015625l36.78125-36.78125zm0 0" fill="#fff3f2"/><path d="m369.617188 341.34375-36.8125 36.8125v-.015625l36.796874-36.796875zm0 0" fill="#fff3f2"/><path d="m369.636719 341.34375-36.832031 36.832031v-.019531l36.8125-36.8125zm0 0" fill="#fff3f2"/><path d="m369.652344 341.34375-36.847656 36.847656v-.015625l36.832031-36.832031zm0 0" fill="#fff3f2"/><path d="m369.679688 341.34375-36.875 36.875v-.027344l36.847656-36.847656zm0 0" fill="#fff3f2"/><path d="m369.695312 341.34375-36.890624 36.890625v-.015625l36.875-36.875zm0 0" fill="#fff3f2"/><path d="m369.710938 341.34375-36.90625 36.90625v-.015625l36.890624-36.890625zm0 0" fill="#fff3f2"/><path d="m369.730469 341.34375-36.925781 36.925781v-.019531l36.90625-36.90625zm0 0" fill="#fff3f2"/><path d="m369.746094 341.34375-36.941406 36.941406v-.015625l36.925781-36.925781zm0 0" fill="#fff3f2"/><path d="m369.765625 341.34375-36.960937 36.960938v-.019532l36.941406-36.941406zm0 0" fill="#fff3f2"/><path d="m369.78125 341.34375-36.976562 36.976562v-.015624l36.960937-36.960938zm0 0" fill="#fff3f2"/><path d="m369.796875 341.34375-36.992187 36.992188v-.015626l36.976562-36.976562zm0 0" fill="#fff3f2"/><path d="m369.816406 341.34375-37.011718 37.011719v-.019531l36.992187-36.992188zm0 0" fill="#fff3f2"/><path d="m369.832031 341.34375-37.027343 37.027344v-.015625l37.011718-37.011719zm0 0" fill="#fff3f2"/><path d="m369.847656 341.34375-37.042968 37.042969v-.015625l37.027343-37.027344zm0 0" fill="#fff3f2"/><path d="m369.867188 341.34375-37.0625 37.0625v-.019531l37.042968-37.042969zm0 0" fill="#fff3f2"/><path d="m378.476562 341.34375-45.671874 45.671875v-8.609375l37.0625-37.0625zm0 0" fill="#fff3f2"/><path d="m378.476562 341.34375-45.671874 45.671875zm0 0" fill="#fff3f2"/><path d="m378.476562 341.34375-45.671874 45.671875zm0 0" fill="#fef3f2"/><path d="m378.476562 341.34375-45.671874 45.671875zm0 0" fill="#fdf2f2"/><path d="m378.476562 341.34375-45.671874 45.671875zm0 0" fill="#fcf2f2"/><path d="m378.476562 341.34375-45.671874 45.671875zm0 0" fill="#fbf1f2"/><path d="m378.476562 341.34375-45.671874 45.671875zm0 0" fill="#faf1f2"/><path d="m378.476562 341.34375-45.671874 45.671875zm0 0" fill="#f9f0f2"/><path d="m378.476562 341.34375-45.671874 45.671875zm0 0" fill="#f8f0f2"/><path d="m378.476562 341.34375-45.671874 45.671875zm0 0" fill="#f7eff2"/><path d="m378.476562 341.34375-45.671874 45.671875zm0 0" fill="#f6eff2"/><path d="m378.476562 341.34375-45.671874 45.671875zm0 0" fill="#f5eef2"/><path d="m378.476562 341.34375-45.671874 45.671875zm0 0" fill="#f4eef2"/><path d="m378.476562 341.34375-45.671874 45.671875zm0 0" fill="#f3edf2"/><path d="m378.476562 341.34375-45.671874 45.671875zm0 0" fill="#f2edf2"/><path d="m378.476562 341.34375-45.671874 45.671875zm0 0" fill="#f1ecf2"/><path d="m378.476562 341.34375-45.671874 45.671875zm0 0" fill="#f0ecf2"/><path d="m378.476562 341.34375-45.671874 45.671875zm0 0" fill="#efecf2"/><path d="m378.476562 341.34375-45.671874 45.671875zm0 0" fill="#eeebf2"/><path d="m378.476562 341.34375-45.671874 45.671875zm0 0" fill="#edebf2"/><path d="m378.476562 341.34375-45.671874 45.671875zm0 0" fill="#eceaf2"/><path d="m378.476562 341.34375-45.671874 45.671875zm0 0" fill="#ebeaf2"/><path d="m378.476562 341.34375-45.671874 45.671875zm0 0" fill="#eae9f2"/><path d="m378.476562 341.34375-45.671874 45.671875zm0 0" fill="#e8e9f2"/><path d="m378.476562 341.34375-45.671874 45.671875zm0 0" fill="#e7e8f2"/><path d="m378.476562 341.34375-45.671874 45.671875zm0 0" fill="#e6e8f2"/><path d="m378.476562 341.34375-45.671874 45.671875zm0 0" fill="#e5e7f2"/><path d="m378.476562 341.34375-45.671874 45.671875zm0 0" fill="#e4e7f2"/><path d="m378.476562 341.34375-45.671874 45.671875zm0 0" fill="#e3e6f2"/><path d="m378.476562 341.34375-45.671874 45.671875zm0 0" fill="#e2e6f2"/><path d="m378.476562 341.34375-45.671874 45.671875zm0 0" fill="#e1e6f2"/><path d="m378.476562 341.34375-45.671874 45.671875zm0 0" fill="#e0e5f2"/><path d="m378.476562 341.34375-45.671874 45.671875zm0 0" fill="#dfe5f2"/><path d="m378.476562 341.34375-45.671874 45.671875zm0 0" fill="#dee4f2"/><path d="m378.476562 341.34375-45.671874 45.671875zm0 0" fill="#dde4f2"/><path d="m378.476562 341.34375-45.671874 45.671875zm0 0" fill="#dce3f2"/><path d="m378.476562 341.34375-45.671874 45.671875zm0 0" fill="#dbe3f2"/><path d="m378.476562 341.34375-45.671874 45.671875zm0 0" fill="#dae2f2"/><path d="m378.476562 341.34375-45.671874 45.671875zm0 0" fill="#d9e2f2"/><path d="m378.476562 341.34375-45.671874 45.671875zm0 0" fill="#d8e1f2"/><path d="m378.476562 341.34375-45.671874 45.671875zm0 0" fill="#d7e1f2"/><path d="m378.476562 341.34375-45.671874 45.671875zm0 0" fill="#d6e0f2"/><path d="m378.476562 341.34375-45.671874 45.671875zm0 0" fill="#d5e0f2"/><path d="m378.476562 341.34375-45.671874 45.671875zm0 0" fill="#d4dff2"/><path d="m378.476562 341.34375-45.671874 45.671875zm0 0" fill="#d3dff2"/><path d="m403.496094 341.34375-70.691406 70.691406v-25.019531l45.671874-45.671875zm0 0" fill="#d3dff2"/><path d="m403.511719 341.34375-70.707031 70.707031v-.015625l70.691406-70.691406zm0 0" fill="#d3dff2"/><path d="m403.53125 341.34375-70.726562 70.726562v-.019531l70.707031-70.707031zm0 0" fill="#d8e1f2"/><path d="m403.546875 341.34375-70.742187 70.742188v-.015626l70.726562-70.726562zm0 0" fill="#dce3f2"/><path d="m403.5625 341.34375-70.757812 70.757812v-.015624l70.742187-70.742188zm0 0" fill="#e0e5f2"/><path d="m403.582031 341.34375-70.777343 70.777344v-.019532l70.757812-70.757812zm0 0" fill="#e4e7f2"/><path d="m403.597656 341.34375-70.792968 70.792969v-.015625l70.777343-70.777344zm0 0" fill="#e7e8f2"/><path d="m403.617188 341.34375-70.8125 70.8125v-.019531l70.792968-70.792969zm0 0" fill="#eaeaf2"/><path d="m403.632812 341.34375-70.828124 70.828125v-.015625l70.8125-70.8125zm0 0" fill="#edebf2"/><path d="m403.65625 341.34375-70.851562 70.855469v-.027344l70.828124-70.828125zm0 0" fill="#efecf2"/><path d="m403.675781 341.34375-70.871093 70.871094v-.015625l70.851562-70.855469zm0 0" fill="#f1edf2"/><path d="m403.691406 341.34375-70.886718 70.886719v-.015625l70.871093-70.871094zm0 0" fill="#f3eef2"/><path d="m403.710938 341.34375-70.90625 70.90625v-.019531l70.886718-70.886719zm0 0" fill="#f5eef2"/><path d="m403.726562 341.34375-70.921874 70.921875v-.015625l70.90625-70.90625zm0 0" fill="#f6eff2"/><path d="m403.742188 341.34375-70.9375 70.9375v-.015625l70.921874-70.921875zm0 0" fill="#f8f0f2"/><path d="m403.761719 341.34375-70.957031 70.957031v-.019531l70.9375-70.9375zm0 0" fill="#f9f0f2"/><path d="m403.777344 341.34375-70.972656 70.972656v-.015625l70.957031-70.957031zm0 0" fill="#faf1f2"/><path d="m403.792969 341.34375-70.988281 70.988281v-.015625l70.972656-70.972656zm0 0" fill="#fbf1f2"/><path d="m403.8125 341.34375-71.007812 71.007812v-.019531l70.988281-70.988281zm0 0" fill="#fbf1f2"/><path d="m403.828125 341.34375-71.023437 71.023438v-.015626l71.007812-71.007812zm0 0" fill="#fcf2f2"/><path d="m403.847656 341.34375-71.042968 71.042969v-.019531l71.023437-71.023438zm0 0" fill="#fdf2f2"/><path d="m403.863281 341.34375-71.058593 71.058594v-.015625l71.042968-71.042969zm0 0" fill="#fdf2f2"/><path d="m403.878906 341.34375-71.074218 71.074219v-.015625l71.058593-71.058594zm0 0" fill="#fdf2f2"/><path d="m403.898438 341.34375-71.09375 71.09375v-.019531l71.074218-71.074219zm0 0" fill="#fef2f2"/><path d="m403.914062 341.34375-71.109374 71.109375v-.015625l71.09375-71.09375zm0 0" fill="#fef3f2"/><path d="m403.941406 341.34375-71.136718 71.136719v-.027344l71.109374-71.109375zm0 0" fill="#fef3f2"/><path d="m403.957031 341.34375-71.152343 71.152344v-.015625l71.136718-71.136719zm0 0" fill="#fef3f2"/><path d="m403.972656 341.34375-71.167968 71.167969v-.015625l71.152343-71.152344zm0 0" fill="#fff3f2"/><path d="m403.992188 341.34375-71.1875 71.1875v-.019531l71.167968-71.167969zm0 0" fill="#fff3f2"/><path d="m404.007812 341.34375-71.203124 71.203125v-.015625l71.1875-71.1875zm0 0" fill="#fff3f2"/><path d="m404.023438 341.34375-71.21875 71.21875v-.015625l71.203124-71.203125zm0 0" fill="#fff3f2"/><path d="m404.042969 341.34375-71.238281 71.238281v-.019531l71.21875-71.21875zm0 0" fill="#fff3f2"/><path d="m404.058594 341.34375-71.253906 71.253906v-.015625l71.238281-71.238281zm0 0" fill="#fff3f2"/><path d="m404.078125 341.34375-71.273437 71.273438v-.019532l71.253906-71.253906zm0 0" fill="#fff3f2"/><path d="m404.09375 341.34375-71.289062 71.289062v-.015624l71.273437-71.273438zm0 0" fill="#fff3f2"/><path d="m404.109375 341.34375-71.304687 71.304688v-.015626l71.289062-71.289062zm0 0" fill="#fff3f2"/><path d="m404.128906 341.34375-71.324218 71.324219v-.019531l71.304687-71.304688zm0 0" fill="#fff3f2"/><path d="m404.144531 341.34375-71.339843 71.339844v-.015625l71.324218-71.324219zm0 0" fill="#fff3f2"/><path d="m404.160156 341.34375-71.355468 71.355469v-.015625l71.339843-71.339844zm0 0" fill="#fff3f2"/><path d="m404.179688 341.34375-71.375 71.375v-.019531l71.355468-71.355469zm0 0" fill="#fff3f2"/><path d="m404.195312 341.34375-71.390624 71.390625v-.015625l71.375-71.375zm0 0" fill="#fff3f2"/><path d="m404.222656 341.34375-71.417968 71.417969v-.027344l71.390624-71.390625zm0 0" fill="#fff3f2"/><path d="m404.238281 341.34375-71.433593 71.433594v-.015625l71.417968-71.417969zm0 0" fill="#fff3f2"/><path d="m404.253906 341.34375-71.449218 71.449219v-.015625l71.433593-71.433594zm0 0" fill="#fff3f2"/><path d="m404.273438 341.34375-71.46875 71.46875v-.019531l71.449218-71.449219zm0 0" fill="#fff3f2"/><path d="m413.871094 343.476562-81.066406 81.070313v-11.734375l71.46875-71.46875h9.597656zm0 0" fill="#fff3f2"/><path d="m413.871094 343.476562-81.066406 81.070313zm0 0" fill="#fff3f2"/><path d="m413.871094 343.488281-81.066406 81.066407v-.007813l81.066406-81.070313zm0 0" fill="#faf1f2"/><path d="m413.871094 343.488281-81.066406 81.066407zm0 0" fill="#f6eff2"/><path d="m413.871094 343.496094-81.066406 81.066406v-.007812l81.066406-81.066407zm0 0" fill="#f2edf2"/><path d="m413.871094 343.496094-81.066406 81.066406zm0 0" fill="#eeebf2"/><path d="m413.871094 343.496094-81.066406 81.066406zm0 0" fill="#ebeaf2"/><path d="m413.871094 343.503906-81.066406 81.066406v-.007812l81.066406-81.066406zm0 0" fill="#e8e8f2"/><path d="m413.871094 343.503906-81.066406 81.066406zm0 0" fill="#e5e7f2"/><path d="m413.871094 343.511719-81.066406 81.066406v-.007813l81.066406-81.066406zm0 0" fill="#e3e6f2"/><path d="m413.871094 343.511719-81.066406 81.066406zm0 0" fill="#e1e5f2"/><path d="m413.871094 343.519531-81.066406 81.066407v-.007813l81.066406-81.066406zm0 0" fill="#dfe4f2"/><path d="m413.871094 343.519531-81.066406 81.066407zm0 0" fill="#dde4f2"/><path d="m413.871094 343.519531-81.066406 81.066407zm0 0" fill="#dce3f2"/><path d="m413.871094 343.53125-81.066406 81.066406v-.011718l81.066406-81.066407zm0 0" fill="#dae2f2"/><path d="m413.871094 343.53125-81.066406 81.066406zm0 0" fill="#d9e2f2"/><path d="m413.871094 343.539062-81.066406 81.066407v-.007813l81.066406-81.066406zm0 0" fill="#d8e1f2"/><path d="m413.871094 343.539062-81.066406 81.066407zm0 0" fill="#d7e1f2"/><path d="m413.871094 343.539062-81.066406 81.066407zm0 0" fill="#d7e1f2"/><path d="m413.871094 343.546875-81.066406 81.066406v-.007812l81.066406-81.066407zm0 0" fill="#d6e0f2"/><path d="m413.871094 343.546875-81.066406 81.066406zm0 0" fill="#d5e0f2"/><path d="m413.871094 343.554688-81.066406 81.066406v-.007813l81.066406-81.066406zm0 0" fill="#d5e0f2"/><path d="m413.871094 343.554688-81.066406 81.066406zm0 0" fill="#d5e0f2"/><path d="m413.871094 343.5625-81.066406 81.066406v-.007812l81.066406-81.066406zm0 0" fill="#d4e0f2"/><path d="m413.871094 343.5625-81.066406 81.066406zm0 0" fill="#d4dff2"/><path d="m413.871094 343.5625-81.066406 81.066406zm0 0" fill="#d4dff2"/><path d="m413.871094 343.574219-81.066406 81.066406v-.011719l81.066406-81.066406zm0 0" fill="#d4dff2"/><g fill="#d3dff2"><path d="m413.871094 343.574219-81.066406 81.066406zm0 0"/><path d="m413.871094 343.582031-81.066406 81.066407v-.007813l81.066406-81.066406zm0 0"/><path d="m413.871094 343.582031-81.066406 81.066407zm0 0"/><path d="m413.871094 343.582031-81.066406 81.066407zm0 0"/><path d="m413.871094 343.589844-81.066406 81.066406v-.007812l81.066406-81.066407zm0 0"/><path d="m413.871094 343.589844-81.066406 81.066406zm0 0"/><path d="m413.871094 343.597656-81.066406 81.066406v-.007812l81.066406-81.066406zm0 0"/><path d="m413.871094 343.597656-81.066406 81.066406zm0 0"/><path d="m413.871094 343.605469-81.066406 81.066406v-.007813l81.066406-81.066406zm0 0"/><path d="m413.871094 343.605469-81.066406 81.066406zm0 0"/><path d="m413.871094 343.605469-81.066406 81.066406zm0 0"/><path d="m413.871094 343.613281-81.066406 81.070313v-.011719l81.066406-81.066406zm0 0"/><path d="m413.871094 343.613281-81.066406 81.070313zm0 0"/><path d="m413.871094 343.625-81.066406 81.066406v-.007812l81.066406-81.070313zm0 0"/><path d="m413.871094 343.625-81.066406 81.066406zm0 0"/><path d="m413.871094 343.625-81.066406 81.066406zm0 0"/><path d="m413.871094 343.632812-81.066406 81.066407v-.007813l81.066406-81.066406zm0 0"/><path d="m413.871094 343.632812-81.066406 81.066407zm0 0"/><path d="m413.871094 381.007812-45.667969 45.671876h-35.398437v-1.980469l81.066406-81.066407zm0 0"/><path d="m413.871094 381.007812-45.667969 45.671876zm0 0"/></g><path d="m413.871094 381.015625-45.660156 45.664063h-.007813l45.667969-45.671876zm0 0" fill="#d4dff2"/><path d="m413.871094 381.015625-45.660156 45.664063zm0 0" fill="#d5e0f2"/><path d="m413.871094 381.023438-45.652344 45.65625h-.007812l45.660156-45.664063zm0 0" fill="#d6e0f2"/><path d="m413.871094 381.023438-45.652344 45.65625zm0 0" fill="#d7e1f2"/><path d="m413.871094 381.023438-45.652344 45.65625zm0 0" fill="#d8e1f2"/><path d="m413.871094 381.035156-45.644532 45.644532h-.007812l45.652344-45.65625zm0 0" fill="#d9e2f2"/><path d="m413.871094 381.035156-45.644532 45.644532zm0 0" fill="#dae2f2"/><path d="m413.871094 381.042969-45.636719 45.636719h-.007813l45.644532-45.644532zm0 0" fill="#dbe3f2"/><path d="m413.871094 381.042969-45.636719 45.636719zm0 0" fill="#dce3f2"/><path d="m413.871094 381.050781-45.625 45.628907h-.011719l45.636719-45.636719zm0 0" fill="#dde4f2"/><path d="m413.871094 381.050781-45.625 45.628907zm0 0" fill="#dee4f2"/><path d="m413.871094 381.050781-45.625 45.628907zm0 0" fill="#dfe5f2"/><path d="m413.871094 381.058594-45.617188 45.621094h-.007812l45.625-45.628907zm0 0" fill="#e0e5f2"/><path d="m413.871094 381.058594-45.617188 45.621094zm0 0" fill="#e1e6f2"/><path d="m413.871094 381.066406-45.609375 45.613282h-.007813l45.617188-45.621094zm0 0" fill="#e2e6f2"/><path d="m413.871094 381.066406-45.609375 45.613282zm0 0" fill="#e3e6f2"/><path d="m413.871094 381.066406-45.609375 45.613282zm0 0" fill="#e4e7f2"/><path d="m413.871094 381.078125-45.601563 45.601563h-.007812l45.609375-45.613282zm0 0" fill="#e5e7f2"/><path d="m413.871094 381.078125-45.601563 45.601563zm0 0" fill="#e6e8f2"/><path d="m413.871094 381.085938-45.59375 45.59375h-.007813l45.601563-45.601563zm0 0" fill="#e7e8f2"/><path d="m413.871094 381.085938-45.59375 45.59375zm0 0" fill="#e8e9f2"/><path d="m413.871094 381.09375-45.582032 45.585938h-.011718l45.59375-45.59375zm0 0" fill="#eae9f2"/><path d="m413.871094 381.09375-45.582032 45.585938zm0 0" fill="#ebeaf2"/><path d="m413.871094 381.09375-45.582032 45.585938zm0 0" fill="#eceaf2"/><path d="m413.871094 381.101562-45.574219 45.578126h-.007813l45.582032-45.585938zm0 0" fill="#edebf2"/><path d="m413.871094 381.101562-45.574219 45.578126zm0 0" fill="#eeebf2"/><path d="m413.871094 381.109375-45.566406 45.570313h-.007813l45.574219-45.578126zm0 0" fill="#efecf2"/><path d="m413.871094 381.109375-45.566406 45.570313zm0 0" fill="#f0ecf2"/><path d="m413.871094 381.109375-45.566406 45.570313zm0 0" fill="#f1ecf2"/><path d="m413.871094 381.117188-45.558594 45.5625h-.007812l45.566406-45.570313zm0 0" fill="#f2edf2"/><path d="m413.871094 381.117188-45.558594 45.5625zm0 0" fill="#f3edf2"/><path d="m413.871094 381.128906-45.550782 45.550782h-.007812l45.558594-45.5625zm0 0" fill="#f4eef2"/><path d="m413.871094 381.128906-45.550782 45.550782zm0 0" fill="#f5eef2"/><path d="m413.871094 381.136719-45.539063 45.542969h-.011719l45.550782-45.550782zm0 0" fill="#f6eff2"/><path d="m413.871094 381.136719-45.539063 45.542969zm0 0" fill="#f7eff2"/><path d="m413.871094 381.136719-45.539063 45.542969zm0 0" fill="#f8f0f2"/><path d="m413.871094 381.144531-45.53125 45.535157h-.007813l45.539063-45.542969zm0 0" fill="#f9f0f2"/><path d="m413.871094 381.144531-45.53125 45.535157zm0 0" fill="#faf1f2"/><path d="m413.871094 381.152344-45.523438 45.527344h-.007812l45.53125-45.535157zm0 0" fill="#fbf1f2"/><path d="m413.871094 381.152344-45.523438 45.527344zm0 0" fill="#fcf2f2"/><path d="m413.871094 381.152344-45.523438 45.527344zm0 0" fill="#fdf2f2"/><path d="m413.871094 381.160156-45.515625 45.519532h-.007813l45.523438-45.527344zm0 0" fill="#fef3f2"/><path d="m413.871094 381.160156-45.515625 45.519532zm0 0" fill="#fff3f2"/><path d="m413.871094 398.210938-28.464844 28.46875h-17.050781l45.515625-45.519532zm0 0" fill="#fff3f2"/><path d="m413.871094 398.210938-28.464844 28.46875zm0 0" fill="#fff3f2"/><path d="m413.871094 398.21875-28.457032 28.460938h-.007812l28.464844-28.46875zm0 0" fill="#fef3f2"/><path d="m413.871094 398.21875-28.457032 28.460938zm0 0" fill="#fdf2f2"/><path d="m413.871094 398.21875-28.457032 28.460938zm0 0" fill="#fcf2f2"/><path d="m413.871094 398.226562-28.449219 28.453126h-.007813l28.457032-28.460938zm0 0" fill="#fbf1f2"/><path d="m413.871094 398.226562-28.449219 28.453126zm0 0" fill="#faf1f2"/><path d="m413.871094 398.238281-28.441406 28.441407h-.007813l28.449219-28.453126zm0 0" fill="#f9f0f2"/><path d="m413.871094 398.238281-28.441406 28.441407zm0 0" fill="#f8f0f2"/><path d="m413.871094 398.238281-28.441406 28.441407zm0 0" fill="#f7eff2"/><path d="m413.871094 398.246094-28.429688 28.433594h-.011718l28.441406-28.441407zm0 0" fill="#f6eff2"/><path d="m413.871094 398.246094-28.429688 28.433594zm0 0" fill="#f5eef2"/><path d="m413.871094 398.253906-28.421875 28.425782h-.007813l28.429688-28.433594zm0 0" fill="#f4eef2"/><path d="m413.871094 398.253906-28.421875 28.425782zm0 0" fill="#f3edf2"/><path d="m413.871094 398.261719-28.414063 28.417969h-.007812l28.421875-28.425782zm0 0" fill="#f2edf2"/><path d="m413.871094 398.261719-28.414063 28.417969zm0 0" fill="#f1ecf2"/><path d="m413.871094 398.261719-28.414063 28.417969zm0 0" fill="#f0ecf2"/><path d="m413.871094 398.269531-28.40625 28.410157h-.007813l28.414063-28.417969zm0 0" fill="#efecf2"/><path d="m413.871094 398.269531-28.40625 28.410157zm0 0" fill="#eeebf2"/><path d="m413.871094 398.28125-28.398438 28.398438h-.007812l28.40625-28.410157zm0 0" fill="#edebf2"/><path d="m413.871094 398.28125-28.398438 28.398438zm0 0" fill="#eceaf2"/><path d="m413.871094 398.28125-28.398438 28.398438zm0 0" fill="#ebeaf2"/><path d="m413.871094 398.289062-28.390625 28.390626h-.007813l28.398438-28.398438zm0 0" fill="#eae9f2"/><path d="m413.871094 398.289062-28.390625 28.390626zm0 0" fill="#e8e9f2"/><path d="m413.871094 398.296875-28.378906 28.382813h-.011719l28.390625-28.390626zm0 0" fill="#e7e8f2"/><path d="m413.871094 398.296875-28.378906 28.382813zm0 0" fill="#e6e8f2"/><path d="m413.871094 398.304688-28.371094 28.375h-.007812l28.378906-28.382813zm0 0" fill="#e5e7f2"/><path d="m413.871094 398.304688-28.371094 28.375zm0 0" fill="#e4e7f2"/><path d="m413.871094 398.304688-28.371094 28.375zm0 0" fill="#e3e6f2"/><path d="m413.871094 398.3125-28.363282 28.367188h-.007812l28.371094-28.375zm0 0" fill="#e2e6f2"/><path d="m413.871094 398.3125-28.363282 28.367188zm0 0" fill="#e1e6f2"/><path d="m413.871094 398.320312-28.355469 28.359376h-.007813l28.363282-28.367188zm0 0" fill="#e0e5f2"/><path d="m413.871094 398.320312-28.355469 28.359376zm0 0" fill="#dfe5f2"/><path d="m413.871094 398.320312-28.355469 28.359376zm0 0" fill="#dee4f2"/><path d="m413.871094 398.332031-28.347656 28.347657h-.007813l28.355469-28.359376zm0 0" fill="#dde4f2"/><path d="m413.871094 398.332031-28.347656 28.347657zm0 0" fill="#dce3f2"/><path d="m413.871094 398.339844-28.335938 28.339844h-.011718l28.347656-28.347657zm0 0" fill="#dbe3f2"/><path d="m413.871094 398.339844-28.335938 28.339844zm0 0" fill="#dae2f2"/><path d="m413.871094 398.347656-28.328125 28.332032h-.007813l28.335938-28.339844zm0 0" fill="#d9e2f2"/><path d="m413.871094 398.347656-28.328125 28.332032zm0 0" fill="#d8e1f2"/><path d="m413.871094 398.347656-28.328125 28.332032zm0 0" fill="#d7e1f2"/><path d="m413.871094 398.355469-28.320313 28.324219h-.007812l28.328125-28.332032zm0 0" fill="#d6e0f2"/><path d="m413.871094 398.355469-28.320313 28.324219zm0 0" fill="#d5e0f2"/><path d="m413.871094 398.363281-28.3125 28.316407h-.007813l28.320313-28.324219zm0 0" fill="#d4dff2"/><path d="m413.871094 398.363281-28.3125 28.316407zm0 0" fill="#d3dff2"/><path d="m385.558594 426.679688 28.3125-28.316407v28.316407zm0 0" fill="#d3dff2"/><path d="m81.824219 341.34375-5.019531 5.019531v-5.019531zm0 0" fill="#d3dff2"/><path d="m113.097656 341.34375-36.292968 36.292969v-31.273438l5.019531-5.019531zm0 0" fill="#d3dff2"/><path d="m113.113281 341.34375-36.308593 36.3125v-.019531l36.292968-36.292969zm0 0" fill="#d3dff2"/><path d="m113.132812 341.34375-36.328124 36.328125v-.015625l36.308593-36.3125zm0 0" fill="#d8e1f2"/><path d="m113.148438 341.34375-36.34375 36.34375v-.015625l36.328124-36.328125zm0 0" fill="#dce3f2"/><path d="m113.167969 341.34375-36.363281 36.363281v-.019531l36.34375-36.34375zm0 0" fill="#e0e5f2"/><path d="m113.183594 341.34375-36.378906 36.378906v-.015625l36.363281-36.363281zm0 0" fill="#e4e7f2"/><path d="m113.199219 341.34375-36.394531 36.394531v-.015625l36.378906-36.378906zm0 0" fill="#e7e8f2"/><path d="m113.21875 341.34375-36.414062 36.414062v-.019531l36.394531-36.394531zm0 0" fill="#eaeaf2"/><path d="m113.234375 341.34375-36.429687 36.429688v-.015626l36.414062-36.414062zm0 0" fill="#edebf2"/><path d="m113.25 341.34375-36.445312 36.445312v-.015624l36.429687-36.429688zm0 0" fill="#efecf2"/><path d="m113.269531 341.34375-36.464843 36.464844v-.019532l36.445312-36.445312zm0 0" fill="#f1edf2"/><path d="m113.285156 341.34375-36.480468 36.480469v-.015625l36.464843-36.464844zm0 0" fill="#f3eef2"/><path d="m113.304688 341.34375-36.5 36.5v-.019531l36.480468-36.480469zm0 0" fill="#f5eef2"/><path d="m113.320312 341.34375-36.515624 36.515625v-.015625l36.5-36.5zm0 0" fill="#f6eff2"/><path d="m113.335938 341.34375-36.53125 36.53125v-.015625l36.515624-36.515625zm0 0" fill="#f8f0f2"/><path d="m113.355469 341.34375-36.550781 36.550781v-.019531l36.53125-36.53125zm0 0" fill="#f9f0f2"/><path d="m113.371094 341.34375-36.566406 36.566406v-.015625l36.550781-36.550781zm0 0" fill="#faf1f2"/><path d="m113.398438 341.34375-36.59375 36.59375v-.027344l36.566406-36.566406zm0 0" fill="#fbf1f2"/><path d="m113.414062 341.34375-36.609374 36.609375v-.015625l36.59375-36.59375zm0 0" fill="#fbf1f2"/><path d="m113.429688 341.34375-36.625 36.625v-.015625l36.609374-36.609375zm0 0" fill="#fcf2f2"/><path d="m113.449219 341.34375-36.644531 36.644531v-.019531l36.625-36.625zm0 0" fill="#fdf2f2"/><path d="m113.464844 341.34375-36.660156 36.660156v-.015625l36.644531-36.644531zm0 0" fill="#fdf2f2"/><path d="m113.480469 341.34375-36.675781 36.675781v-.015625l36.660156-36.660156zm0 0" fill="#fdf2f2"/><path d="m113.5 341.34375-36.695312 36.695312v-.019531l36.675781-36.675781zm0 0" fill="#fef2f2"/><path d="m113.515625 341.34375-36.710937 36.710938v-.015626l36.695312-36.695312zm0 0" fill="#fef3f2"/><path d="m113.535156 341.34375-36.730468 36.730469v-.019531l36.710937-36.710938zm0 0" fill="#fef3f2"/><path d="m113.550781 341.34375-36.746093 36.746094v-.015625l36.730468-36.730469zm0 0" fill="#fef3f2"/><path d="m113.566406 341.34375-36.761718 36.761719v-.015625l36.746093-36.746094zm0 0" fill="#fff3f2"/><path d="m113.585938 341.34375-36.78125 36.78125v-.019531l36.761718-36.761719zm0 0" fill="#fff3f2"/><path d="m113.601562 341.34375-36.796874 36.796875v-.015625l36.78125-36.78125zm0 0" fill="#fff3f2"/><path d="m113.617188 341.34375-36.8125 36.8125v-.015625l36.796874-36.796875zm0 0" fill="#fff3f2"/><path d="m113.636719 341.34375-36.832031 36.832031v-.019531l36.8125-36.8125zm0 0" fill="#fff3f2"/><path d="m113.652344 341.34375-36.847656 36.847656v-.015625l36.832031-36.832031zm0 0" fill="#fff3f2"/><path d="m113.679688 341.34375-36.875 36.875v-.027344l36.847656-36.847656zm0 0" fill="#fff3f2"/><path d="m113.695312 341.34375-36.890624 36.890625v-.015625l36.875-36.875zm0 0" fill="#fff3f2"/><path d="m113.710938 341.34375-36.90625 36.90625v-.015625l36.890624-36.890625zm0 0" fill="#fff3f2"/><path d="m113.730469 341.34375-36.925781 36.925781v-.019531l36.90625-36.90625zm0 0" fill="#fff3f2"/><path d="m113.746094 341.34375-36.941406 36.941406v-.015625l36.925781-36.925781zm0 0" fill="#fff3f2"/><path d="m113.765625 341.34375-36.960937 36.960938v-.019532l36.941406-36.941406zm0 0" fill="#fff3f2"/><path d="m113.78125 341.34375-36.976562 36.976562v-.015624l36.960937-36.960938zm0 0" fill="#fff3f2"/><path d="m113.796875 341.34375-36.992187 36.992188v-.015626l36.976562-36.976562zm0 0" fill="#fff3f2"/><path d="m113.816406 341.34375-37.011718 37.011719v-.019531l36.992187-36.992188zm0 0" fill="#fff3f2"/><path d="m113.832031 341.34375-37.027343 37.027344v-.015625l37.011718-37.011719zm0 0" fill="#fff3f2"/><path d="m113.847656 341.34375-37.042968 37.042969v-.015625l37.027343-37.027344zm0 0" fill="#fff3f2"/><path d="m113.867188 341.34375-37.0625 37.0625v-.019531l37.042968-37.042969zm0 0" fill="#fff3f2"/><path d="m122.476562 341.34375-45.671874 45.671875v-8.609375l37.0625-37.0625zm0 0" fill="#fff3f2"/><path d="m122.476562 341.34375-45.671874 45.671875zm0 0" fill="#fff3f2"/><path d="m122.476562 341.34375-45.671874 45.671875zm0 0" fill="#fef3f2"/><path d="m122.476562 341.34375-45.671874 45.671875zm0 0" fill="#fdf2f2"/><path d="m122.476562 341.34375-45.671874 45.671875zm0 0" fill="#fcf2f2"/><path d="m122.476562 341.34375-45.671874 45.671875zm0 0" fill="#fbf1f2"/><path d="m122.476562 341.34375-45.671874 45.671875zm0 0" fill="#faf1f2"/><path d="m122.476562 341.34375-45.671874 45.671875zm0 0" fill="#f9f0f2"/><path d="m122.476562 341.34375-45.671874 45.671875zm0 0" fill="#f8f0f2"/><path d="m122.476562 341.34375-45.671874 45.671875zm0 0" fill="#f7eff2"/><path d="m122.476562 341.34375-45.671874 45.671875zm0 0" fill="#f6eff2"/><path d="m122.476562 341.34375-45.671874 45.671875zm0 0" fill="#f5eef2"/><path d="m122.476562 341.34375-45.671874 45.671875zm0 0" fill="#f4eef2"/><path d="m122.476562 341.34375-45.671874 45.671875zm0 0" fill="#f3edf2"/><path d="m122.476562 341.34375-45.671874 45.671875zm0 0" fill="#f2edf2"/><path d="m122.476562 341.34375-45.671874 45.671875zm0 0" fill="#f1ecf2"/><path d="m122.476562 341.34375-45.671874 45.671875zm0 0" fill="#f0ecf2"/><path d="m122.476562 341.34375-45.671874 45.671875zm0 0" fill="#efecf2"/><path d="m122.476562 341.34375-45.671874 45.671875zm0 0" fill="#eeebf2"/><path d="m122.476562 341.34375-45.671874 45.671875zm0 0" fill="#edebf2"/><path d="m122.476562 341.34375-45.671874 45.671875zm0 0" fill="#eceaf2"/><path d="m122.476562 341.34375-45.671874 45.671875zm0 0" fill="#ebeaf2"/><path d="m122.476562 341.34375-45.671874 45.671875zm0 0" fill="#eae9f2"/><path d="m122.476562 341.34375-45.671874 45.671875zm0 0" fill="#e8e9f2"/><path d="m122.476562 341.34375-45.671874 45.671875zm0 0" fill="#e7e8f2"/><path d="m122.476562 341.34375-45.671874 45.671875zm0 0" fill="#e6e8f2"/><path d="m122.476562 341.34375-45.671874 45.671875zm0 0" fill="#e5e7f2"/><path d="m122.476562 341.34375-45.671874 45.671875zm0 0" fill="#e4e7f2"/><path d="m122.476562 341.34375-45.671874 45.671875zm0 0" fill="#e3e6f2"/><path d="m122.476562 341.34375-45.671874 45.671875zm0 0" fill="#e2e6f2"/><path d="m122.476562 341.34375-45.671874 45.671875zm0 0" fill="#e1e6f2"/><path d="m122.476562 341.34375-45.671874 45.671875zm0 0" fill="#e0e5f2"/><path d="m122.476562 341.34375-45.671874 45.671875zm0 0" fill="#dfe5f2"/><path d="m122.476562 341.34375-45.671874 45.671875zm0 0" fill="#dee4f2"/><path d="m122.476562 341.34375-45.671874 45.671875zm0 0" fill="#dde4f2"/><path d="m122.476562 341.34375-45.671874 45.671875zm0 0" fill="#dce3f2"/><path d="m122.476562 341.34375-45.671874 45.671875zm0 0" fill="#dbe3f2"/><path d="m122.476562 341.34375-45.671874 45.671875zm0 0" fill="#dae2f2"/><path d="m122.476562 341.34375-45.671874 45.671875zm0 0" fill="#d9e2f2"/><path d="m122.476562 341.34375-45.671874 45.671875zm0 0" fill="#d8e1f2"/><path d="m122.476562 341.34375-45.671874 45.671875zm0 0" fill="#d7e1f2"/><path d="m122.476562 341.34375-45.671874 45.671875zm0 0" fill="#d6e0f2"/><path d="m122.476562 341.34375-45.671874 45.671875zm0 0" fill="#d5e0f2"/><path d="m122.476562 341.34375-45.671874 45.671875zm0 0" fill="#d4dff2"/><path d="m122.476562 341.34375-45.671874 45.671875zm0 0" fill="#d3dff2"/><path d="m147.496094 341.34375-70.691406 70.691406v-25.019531l45.671874-45.671875zm0 0" fill="#d3dff2"/><path d="m147.511719 341.34375-70.707031 70.707031v-.015625l70.691406-70.691406zm0 0" fill="#d3dff2"/><path d="m147.53125 341.34375-70.726562 70.726562v-.019531l70.707031-70.707031zm0 0" fill="#d8e1f2"/><path d="m147.546875 341.34375-70.742187 70.742188v-.015626l70.726562-70.726562zm0 0" fill="#dce3f2"/><path d="m147.5625 341.34375-70.757812 70.757812v-.015624l70.742187-70.742188zm0 0" fill="#e0e5f2"/><path d="m147.582031 341.34375-70.777343 70.777344v-.019532l70.757812-70.757812zm0 0" fill="#e4e7f2"/><path d="m147.597656 341.34375-70.792968 70.792969v-.015625l70.777343-70.777344zm0 0" fill="#e7e8f2"/><path d="m147.617188 341.34375-70.8125 70.8125v-.019531l70.792968-70.792969zm0 0" fill="#eaeaf2"/><path d="m147.632812 341.34375-70.828124 70.828125v-.015625l70.8125-70.8125zm0 0" fill="#edebf2"/><path d="m147.65625 341.34375-70.851562 70.855469v-.027344l70.828124-70.828125zm0 0" fill="#efecf2"/><path d="m147.675781 341.34375-70.871093 70.871094v-.015625l70.851562-70.855469zm0 0" fill="#f1edf2"/><path d="m147.691406 341.34375-70.886718 70.886719v-.015625l70.871093-70.871094zm0 0" fill="#f3eef2"/><path d="m147.710938 341.34375-70.90625 70.90625v-.019531l70.886718-70.886719zm0 0" fill="#f5eef2"/><path d="m147.726562 341.34375-70.921874 70.921875v-.015625l70.90625-70.90625zm0 0" fill="#f6eff2"/><path d="m147.742188 341.34375-70.9375 70.9375v-.015625l70.921874-70.921875zm0 0" fill="#f8f0f2"/><path d="m147.761719 341.34375-70.957031 70.957031v-.019531l70.9375-70.9375zm0 0" fill="#f9f0f2"/><path d="m147.777344 341.34375-70.972656 70.972656v-.015625l70.957031-70.957031zm0 0" fill="#faf1f2"/><path d="m147.792969 341.34375-70.988281 70.988281v-.015625l70.972656-70.972656zm0 0" fill="#fbf1f2"/><path d="m147.8125 341.34375-71.007812 71.007812v-.019531l70.988281-70.988281zm0 0" fill="#fbf1f2"/><path d="m147.828125 341.34375-71.023437 71.023438v-.015626l71.007812-71.007812zm0 0" fill="#fcf2f2"/><path d="m147.847656 341.34375-71.042968 71.042969v-.019531l71.023437-71.023438zm0 0" fill="#fdf2f2"/><path d="m147.863281 341.34375-71.058593 71.058594v-.015625l71.042968-71.042969zm0 0" fill="#fdf2f2"/><path d="m147.878906 341.34375-71.074218 71.074219v-.015625l71.058593-71.058594zm0 0" fill="#fdf2f2"/><path d="m147.898438 341.34375-71.09375 71.09375v-.019531l71.074218-71.074219zm0 0" fill="#fef2f2"/><path d="m147.914062 341.34375-71.109374 71.109375v-.015625l71.09375-71.09375zm0 0" fill="#fef3f2"/><path d="m147.941406 341.34375-71.136718 71.136719v-.027344l71.109374-71.109375zm0 0" fill="#fef3f2"/><path d="m147.957031 341.34375-71.152343 71.152344v-.015625l71.136718-71.136719zm0 0" fill="#fef3f2"/><path d="m147.972656 341.34375-71.167968 71.167969v-.015625l71.152343-71.152344zm0 0" fill="#fff3f2"/><path d="m147.992188 341.34375-71.1875 71.1875v-.019531l71.167968-71.167969zm0 0" fill="#fff3f2"/><path d="m148.007812 341.34375-71.203124 71.203125v-.015625l71.1875-71.1875zm0 0" fill="#fff3f2"/><path d="m148.023438 341.34375-71.21875 71.21875v-.015625l71.203124-71.203125zm0 0" fill="#fff3f2"/><path d="m148.042969 341.34375-71.238281 71.238281v-.019531l71.21875-71.21875zm0 0" fill="#fff3f2"/><path d="m148.058594 341.34375-71.253906 71.253906v-.015625l71.238281-71.238281zm0 0" fill="#fff3f2"/><path d="m148.078125 341.34375-71.273437 71.273438v-.019532l71.253906-71.253906zm0 0" fill="#fff3f2"/><path d="m148.09375 341.34375-71.289062 71.289062v-.015624l71.273437-71.273438zm0 0" fill="#fff3f2"/><path d="m148.109375 341.34375-71.304687 71.304688v-.015626l71.289062-71.289062zm0 0" fill="#fff3f2"/><path d="m148.128906 341.34375-71.324218 71.324219v-.019531l71.304687-71.304688zm0 0" fill="#fff3f2"/><path d="m148.144531 341.34375-71.339843 71.339844v-.015625l71.324218-71.324219zm0 0" fill="#fff3f2"/><path d="m148.160156 341.34375-71.355468 71.355469v-.015625l71.339843-71.339844zm0 0" fill="#fff3f2"/><path d="m148.179688 341.34375-71.375 71.375v-.019531l71.355468-71.355469zm0 0" fill="#fff3f2"/><path d="m148.195312 341.34375-71.390624 71.390625v-.015625l71.375-71.375zm0 0" fill="#fff3f2"/><path d="m148.222656 341.34375-71.417968 71.417969v-.027344l71.390624-71.390625zm0 0" fill="#fff3f2"/><path d="m148.238281 341.34375-71.433593 71.433594v-.015625l71.417968-71.417969zm0 0" fill="#fff3f2"/><path d="m148.253906 341.34375-71.449218 71.449219v-.015625l71.433593-71.433594zm0 0" fill="#fff3f2"/><path d="m148.273438 341.34375-71.46875 71.46875v-.019531l71.449218-71.449219zm0 0" fill="#fff3f2"/><path d="m157.871094 343.476562-81.066406 81.070313v-11.734375l71.46875-71.46875h9.597656zm0 0" fill="#fff3f2"/><path d="m157.871094 343.476562-81.066406 81.070313zm0 0" fill="#fff3f2"/><path d="m157.871094 343.488281-81.066406 81.066407v-.007813l81.066406-81.070313zm0 0" fill="#faf1f2"/><path d="m157.871094 343.488281-81.066406 81.066407zm0 0" fill="#f6eff2"/><path d="m157.871094 343.496094-81.066406 81.066406v-.007812l81.066406-81.066407zm0 0" fill="#f2edf2"/><path d="m157.871094 343.496094-81.066406 81.066406zm0 0" fill="#eeebf2"/><path d="m157.871094 343.496094-81.066406 81.066406zm0 0" fill="#ebeaf2"/><path d="m157.871094 343.503906-81.066406 81.066406v-.007812l81.066406-81.066406zm0 0" fill="#e8e8f2"/><path d="m157.871094 343.503906-81.066406 81.066406zm0 0" fill="#e5e7f2"/><path d="m157.871094 343.511719-81.066406 81.066406v-.007813l81.066406-81.066406zm0 0" fill="#e3e6f2"/><path d="m157.871094 343.511719-81.066406 81.066406zm0 0" fill="#e1e5f2"/><path d="m157.871094 343.519531-81.066406 81.066407v-.007813l81.066406-81.066406zm0 0" fill="#dfe4f2"/><path d="m157.871094 343.519531-81.066406 81.066407zm0 0" fill="#dde4f2"/><path d="m157.871094 343.519531-81.066406 81.066407zm0 0" fill="#dce3f2"/><path d="m157.871094 343.53125-81.066406 81.066406v-.011718l81.066406-81.066407zm0 0" fill="#dae2f2"/><path d="m157.871094 343.53125-81.066406 81.066406zm0 0" fill="#d9e2f2"/><path d="m157.871094 343.539062-81.066406 81.066407v-.007813l81.066406-81.066406zm0 0" fill="#d8e1f2"/><path d="m157.871094 343.539062-81.066406 81.066407zm0 0" fill="#d7e1f2"/><path d="m157.871094 343.539062-81.066406 81.066407zm0 0" fill="#d7e1f2"/><path d="m157.871094 343.546875-81.066406 81.066406v-.007812l81.066406-81.066407zm0 0" fill="#d6e0f2"/><path d="m157.871094 343.546875-81.066406 81.066406zm0 0" fill="#d5e0f2"/><path d="m157.871094 343.554688-81.066406 81.066406v-.007813l81.066406-81.066406zm0 0" fill="#d5e0f2"/><path d="m157.871094 343.554688-81.066406 81.066406zm0 0" fill="#d5e0f2"/><path d="m157.871094 343.5625-81.066406 81.066406v-.007812l81.066406-81.066406zm0 0" fill="#d4e0f2"/><path d="m157.871094 343.5625-81.066406 81.066406zm0 0" fill="#d4dff2"/><path d="m157.871094 343.5625-81.066406 81.066406zm0 0" fill="#d4dff2"/><path d="m157.871094 343.574219-81.066406 81.066406v-.011719l81.066406-81.066406zm0 0" fill="#d4dff2"/><path d="m157.871094 343.574219-81.066406 81.066406zm0 0" fill="#d3dff2"/><path d="m157.871094 343.582031-81.066406 81.066407v-.007813l81.066406-81.066406zm0 0" fill="#d3dff2"/><path d="m157.871094 343.582031-81.066406 81.066407zm0 0" fill="#d3dff2"/><path d="m157.871094 343.582031-81.066406 81.066407zm0 0" fill="#d3dff2"/><path d="m157.871094 343.589844-81.066406 81.066406v-.007812l81.066406-81.066407zm0 0" fill="#d3dff2"/><path d="m157.871094 343.589844-81.066406 81.066406zm0 0" fill="#d3dff2"/><path d="m157.871094 343.597656-81.066406 81.066406v-.007812l81.066406-81.066406zm0 0" fill="#d3dff2"/><path d="m157.871094 343.597656-81.066406 81.066406zm0 0" fill="#d3dff2"/><path d="m157.871094 343.605469-81.066406 81.066406v-.007813l81.066406-81.066406zm0 0" fill="#d3dff2"/><path d="m157.871094 343.605469-81.066406 81.066406zm0 0" fill="#d3dff2"/><path d="m157.871094 343.605469-81.066406 81.066406zm0 0" fill="#d3dff2"/><path d="m157.871094 343.613281-81.066406 81.070313v-.011719l81.066406-81.066406zm0 0" fill="#d3dff2"/><path d="m157.871094 343.613281-81.066406 81.070313zm0 0" fill="#d3dff2"/><path d="m157.871094 343.625-81.066406 81.066406v-.007812l81.066406-81.070313zm0 0" fill="#d3dff2"/><path d="m157.871094 343.625-81.066406 81.066406zm0 0" fill="#d3dff2"/><path d="m157.871094 343.625-81.066406 81.066406zm0 0" fill="#d3dff2"/><path d="m157.871094 343.632812-81.066406 81.066407v-.007813l81.066406-81.066406zm0 0" fill="#d3dff2"/><path d="m157.871094 343.632812-81.066406 81.066407zm0 0" fill="#d3dff2"/><path d="m157.871094 381.007812-45.667969 45.671876h-35.398437v-1.980469l81.066406-81.066407zm0 0" fill="#d3dff2"/><path d="m157.871094 381.007812-45.667969 45.671876zm0 0" fill="#d3dff2"/><path d="m157.871094 381.015625-45.660156 45.664063h-.007813l45.667969-45.671876zm0 0" fill="#d4dff2"/><path d="m157.871094 381.015625-45.660156 45.664063zm0 0" fill="#d5e0f2"/><path d="m157.871094 381.023438-45.652344 45.65625h-.007812l45.660156-45.664063zm0 0" fill="#d6e0f2"/><path d="m157.871094 381.023438-45.652344 45.65625zm0 0" fill="#d7e1f2"/><path d="m157.871094 381.023438-45.652344 45.65625zm0 0" fill="#d8e1f2"/><path d="m157.871094 381.035156-45.644532 45.644532h-.007812l45.652344-45.65625zm0 0" fill="#d9e2f2"/><path d="m157.871094 381.035156-45.644532 45.644532zm0 0" fill="#dae2f2"/><path d="m157.871094 381.042969-45.636719 45.636719h-.007813l45.644532-45.644532zm0 0" fill="#dbe3f2"/><path d="m157.871094 381.042969-45.636719 45.636719zm0 0" fill="#dce3f2"/><path d="m157.871094 381.050781-45.625 45.628907h-.011719l45.636719-45.636719zm0 0" fill="#dde4f2"/><path d="m157.871094 381.050781-45.625 45.628907zm0 0" fill="#dee4f2"/><path d="m157.871094 381.050781-45.625 45.628907zm0 0" fill="#dfe5f2"/><path d="m157.871094 381.058594-45.617188 45.621094h-.007812l45.625-45.628907zm0 0" fill="#e0e5f2"/><path d="m157.871094 381.058594-45.617188 45.621094zm0 0" fill="#e1e6f2"/><path d="m157.871094 381.066406-45.609375 45.613282h-.007813l45.617188-45.621094zm0 0" fill="#e2e6f2"/><path d="m157.871094 381.066406-45.609375 45.613282zm0 0" fill="#e3e6f2"/><path d="m157.871094 381.066406-45.609375 45.613282zm0 0" fill="#e4e7f2"/><path d="m157.871094 381.078125-45.601563 45.601563h-.007812l45.609375-45.613282zm0 0" fill="#e5e7f2"/><path d="m157.871094 381.078125-45.601563 45.601563zm0 0" fill="#e6e8f2"/><path d="m157.871094 381.085938-45.59375 45.59375h-.007813l45.601563-45.601563zm0 0" fill="#e7e8f2"/><path d="m157.871094 381.085938-45.59375 45.59375zm0 0" fill="#e8e9f2"/><path d="m157.871094 381.09375-45.582032 45.585938h-.011718l45.59375-45.59375zm0 0" fill="#eae9f2"/><path d="m157.871094 381.09375-45.582032 45.585938zm0 0" fill="#ebeaf2"/><path d="m157.871094 381.09375-45.582032 45.585938zm0 0" fill="#eceaf2"/><path d="m157.871094 381.101562-45.574219 45.578126h-.007813l45.582032-45.585938zm0 0" fill="#edebf2"/><path d="m157.871094 381.101562-45.574219 45.578126zm0 0" fill="#eeebf2"/><path d="m157.871094 381.109375-45.566406 45.570313h-.007813l45.574219-45.578126zm0 0" fill="#efecf2"/><path d="m157.871094 381.109375-45.566406 45.570313zm0 0" fill="#f0ecf2"/><path d="m157.871094 381.109375-45.566406 45.570313zm0 0" fill="#f1ecf2"/><path d="m157.871094 381.117188-45.558594 45.5625h-.007812l45.566406-45.570313zm0 0" fill="#f2edf2"/><path d="m157.871094 381.117188-45.558594 45.5625zm0 0" fill="#f3edf2"/><path d="m157.871094 381.128906-45.550782 45.550782h-.007812l45.558594-45.5625zm0 0" fill="#f4eef2"/><path d="m157.871094 381.128906-45.550782 45.550782zm0 0" fill="#f5eef2"/><path d="m157.871094 381.136719-45.539063 45.542969h-.011719l45.550782-45.550782zm0 0" fill="#f6eff2"/><path d="m157.871094 381.136719-45.539063 45.542969zm0 0" fill="#f7eff2"/><path d="m157.871094 381.136719-45.539063 45.542969zm0 0" fill="#f8f0f2"/><path d="m157.871094 381.144531-45.53125 45.535157h-.007813l45.539063-45.542969zm0 0" fill="#f9f0f2"/><path d="m157.871094 381.144531-45.53125 45.535157zm0 0" fill="#faf1f2"/><path d="m157.871094 381.152344-45.523438 45.527344h-.007812l45.53125-45.535157zm0 0" fill="#fbf1f2"/><path d="m157.871094 381.152344-45.523438 45.527344zm0 0" fill="#fcf2f2"/><path d="m157.871094 381.152344-45.523438 45.527344zm0 0" fill="#fdf2f2"/><path d="m157.871094 381.160156-45.515625 45.519532h-.007813l45.523438-45.527344zm0 0" fill="#fef3f2"/><path d="m157.871094 381.160156-45.515625 45.519532zm0 0" fill="#fff3f2"/><path d="m157.871094 398.210938-28.464844 28.46875h-17.050781l45.515625-45.519532zm0 0" fill="#fff3f2"/><path d="m157.871094 398.210938-28.464844 28.46875zm0 0" fill="#fff3f2"/><path d="m157.871094 398.21875-28.457032 28.460938h-.007812l28.464844-28.46875zm0 0" fill="#fef3f2"/><path d="m157.871094 398.21875-28.457032 28.460938zm0 0" fill="#fdf2f2"/><path d="m157.871094 398.21875-28.457032 28.460938zm0 0" fill="#fcf2f2"/><path d="m157.871094 398.226562-28.449219 28.453126h-.007813l28.457032-28.460938zm0 0" fill="#fbf1f2"/><path d="m157.871094 398.226562-28.449219 28.453126zm0 0" fill="#faf1f2"/><path d="m157.871094 398.238281-28.441406 28.441407h-.007813l28.449219-28.453126zm0 0" fill="#f9f0f2"/><path d="m157.871094 398.238281-28.441406 28.441407zm0 0" fill="#f8f0f2"/><path d="m157.871094 398.238281-28.441406 28.441407zm0 0" fill="#f7eff2"/><path d="m157.871094 398.246094-28.429688 28.433594h-.011718l28.441406-28.441407zm0 0" fill="#f6eff2"/><path d="m157.871094 398.246094-28.429688 28.433594zm0 0" fill="#f5eef2"/><path d="m157.871094 398.253906-28.421875 28.425782h-.007813l28.429688-28.433594zm0 0" fill="#f4eef2"/><path d="m157.871094 398.253906-28.421875 28.425782zm0 0" fill="#f3edf2"/><path d="m157.871094 398.261719-28.414063 28.417969h-.007812l28.421875-28.425782zm0 0" fill="#f2edf2"/><path d="m157.871094 398.261719-28.414063 28.417969zm0 0" fill="#f1ecf2"/><path d="m157.871094 398.261719-28.414063 28.417969zm0 0" fill="#f0ecf2"/><path d="m157.871094 398.269531-28.40625 28.410157h-.007813l28.414063-28.417969zm0 0" fill="#efecf2"/><path d="m157.871094 398.269531-28.40625 28.410157zm0 0" fill="#eeebf2"/><path d="m157.871094 398.28125-28.398438 28.398438h-.007812l28.40625-28.410157zm0 0" fill="#edebf2"/><path d="m157.871094 398.28125-28.398438 28.398438zm0 0" fill="#eceaf2"/><path d="m157.871094 398.28125-28.398438 28.398438zm0 0" fill="#ebeaf2"/><path d="m157.871094 398.289062-28.390625 28.390626h-.007813l28.398438-28.398438zm0 0" fill="#eae9f2"/><path d="m157.871094 398.289062-28.390625 28.390626zm0 0" fill="#e8e9f2"/><path d="m157.871094 398.296875-28.378906 28.382813h-.011719l28.390625-28.390626zm0 0" fill="#e7e8f2"/><path d="m157.871094 398.296875-28.378906 28.382813zm0 0" fill="#e6e8f2"/><path d="m157.871094 398.304688-28.371094 28.375h-.007812l28.378906-28.382813zm0 0" fill="#e5e7f2"/><path d="m157.871094 398.304688-28.371094 28.375zm0 0" fill="#e4e7f2"/><path d="m157.871094 398.304688-28.371094 28.375zm0 0" fill="#e3e6f2"/><path d="m157.871094 398.3125-28.363282 28.367188h-.007812l28.371094-28.375zm0 0" fill="#e2e6f2"/><path d="m157.871094 398.3125-28.363282 28.367188zm0 0" fill="#e1e6f2"/><path d="m157.871094 398.320312-28.355469 28.359376h-.007813l28.363282-28.367188zm0 0" fill="#e0e5f2"/><path d="m157.871094 398.320312-28.355469 28.359376zm0 0" fill="#dfe5f2"/><path d="m157.871094 398.320312-28.355469 28.359376zm0 0" fill="#dee4f2"/><path d="m157.871094 398.332031-28.347656 28.347657h-.007813l28.355469-28.359376zm0 0" fill="#dde4f2"/><path d="m157.871094 398.332031-28.347656 28.347657zm0 0" fill="#dce3f2"/><path d="m157.871094 398.339844-28.335938 28.339844h-.011718l28.347656-28.347657zm0 0" fill="#dbe3f2"/><path d="m157.871094 398.339844-28.335938 28.339844zm0 0" fill="#dae2f2"/><path d="m157.871094 398.347656-28.328125 28.332032h-.007813l28.335938-28.339844zm0 0" fill="#d9e2f2"/><path d="m157.871094 398.347656-28.328125 28.332032zm0 0" fill="#d8e1f2"/><path d="m157.871094 398.347656-28.328125 28.332032zm0 0" fill="#d7e1f2"/><path d="m157.871094 398.355469-28.320313 28.324219h-.007812l28.328125-28.332032zm0 0" fill="#d6e0f2"/><path d="m157.871094 398.355469-28.320313 28.324219zm0 0" fill="#d5e0f2"/><path d="m157.871094 398.363281-28.3125 28.316407h-.007813l28.320313-28.324219zm0 0" fill="#d4dff2"/><path d="m157.871094 398.363281-28.3125 28.316407zm0 0" fill="#d3dff2"/><path d="m129.558594 426.679688 28.3125-28.316407v28.316407zm0 0" fill="#d3dff2"/><path d="m307.207031 138.507812v91.902344h-102.402343v-91.902344c-.011719-2.4375 1.011718-4.761718 2.816406-6.398437l33.023437-29.699219 6.828125-6.140625 2.816406-2.5625c3.257813-2.898437 8.175782-2.898437 11.433594 0l2.816406 2.5625 39.851563 35.839844c.820313.726563 1.460937 1.628906 1.875 2.644531.511719.914063.804687 1.9375.855469 2.984375.070312.25.097656.511719.085937.769531zm0 0" fill="var(--resa-icon-light, #a4c2f7)"/><path d="m237.300781 102.410156-32.496093 32.496094v-32.496094zm0 0" fill="#d3dff2"/><path d="m269.042969 102.410156 1.792969 1.785156-66.03125 66.03125v-35.320312l32.496093-32.496094zm0 0" fill="#d3dff2"/><path d="m204.796875 170.234375 66.03125-66.03125 6.03125 6.035156-66.027344 66.027344zm0 0" fill="#d3dff2"/><path d="m204.792969 170.246094 66.042969-66.039063 6.035156 6.03125-66.042969 66.042969zm0 0" fill="#d8e1f2"/><path d="m204.789062 170.257812 66.066407-66.039062 6.035156 6.035156-66.070313 66.039063zm0 0" fill="#dce3f2"/><path d="m204.800781 170.289062 66.0625-66.058593 6.03125 6.03125-66.058593 66.0625zm0 0" fill="#e0e5f2"/><path d="m204.808594 170.316406 66.058594-66.085937 6.035156 6.035156-66.058594 66.085937zm0 0" fill="#e4e7f2"/><path d="m204.796875 170.320312 66.082031-66.082031 6.035156 6.03125-66.082031 66.085938zm0 0" fill="#e7e8f2"/><path d="m204.800781 170.34375 66.089844-66.09375 6.035156 6.035156-66.09375 66.089844zm0 0" fill="#eaeaf2"/><path d="m204.804688 170.363281 66.101562-66.101562 6.035156 6.03125-66.105468 66.105469zm0 0" fill="#edebf2"/><path d="m204.800781 170.390625 66.109375-66.109375 6.03125 6.035156-66.105468 66.105469zm0 0" fill="#efecf2"/><path d="m204.789062 170.402344 66.132813-66.109375 6.035156 6.035156-66.136719 66.109375zm0 0" fill="#f1edf2"/><path d="m204.800781 170.425781 66.132813-66.132812 6.035156 6.03125-66.132812 66.132812zm0 0" fill="#f3eef2"/><path d="m204.804688 170.449219 66.125-66.152344 6.035156 6.03125-66.125 66.152344zm0 0" fill="#f5eef2"/><path d="m204.804688 170.472656 66.148437-66.152344 6.035156 6.035157-66.152343 66.148437zm0 0" fill="#f6eff2"/><path d="m204.792969 170.484375 66.160156-66.160156 6.035156 6.035156-66.164062 66.160156zm0 0" fill="#f8f0f2"/><path d="m204.796875 170.507812 66.167969-66.167968 6.035156 6.03125-66.171875 66.167968zm0 0" fill="#f9f0f2"/><path d="m204.796875 170.515625 66.195313-66.167969 6.035156 6.035156-66.195313 66.167969zm0 0" fill="#faf1f2"/><path d="m204.800781 170.539062 66.195313-66.191406 6.03125 6.03125-66.191406 66.195313zm0 0" fill="#fbf1f2"/><path d="m204.792969 170.558594 66.199219-66.199219 6.035156 6.035156-66.199219 66.199219zm0 0" fill="#fbf1f2"/><path d="m204.808594 170.589844 66.195312-66.222656 6.035156 6.03125-66.195312 66.226562zm0 0" fill="#fcf2f2"/><path d="m204.800781 170.601562 66.222657-66.222656 6.035156 6.035156-66.222656 66.222657zm0 0" fill="#fdf2f2"/><path d="m204.804688 170.621094 66.230468-66.226563 6.03125 6.03125-66.226562 66.230469zm0 0" fill="#fdf2f2"/><path d="m204.796875 170.640625 66.242187-66.238281 6.03125 6.03125-66.238281 66.242187zm0 0" fill="#fdf2f2"/><path d="m204.789062 170.660156 66.269532-66.238281 6.03125 6.035156-66.265625 66.238281zm0 0" fill="#fef2f2"/><path d="m204.804688 170.683594 66.257812-66.257813 6.035156 6.03125-66.261718 66.261719zm0 0" fill="#fef3f2"/><path d="m204.808594 170.703125 66.269531-66.269531 6.035156 6.035156-66.273437 66.269531zm0 0" fill="#fef3f2"/><path d="m204.796875 170.726562 66.265625-66.289062 6.035156 6.03125-66.261718 66.292969zm0 0" fill="#fef3f2"/><path d="m204.800781 170.746094 66.289063-66.289063 6.035156 6.03125-66.289062 66.292969zm0 0" fill="#fff3f2"/><path d="m204.804688 170.765625 66.300781-66.300781 6.035156 6.035156-66.300781 66.300781zm0 0" fill="#fff3f2"/><path d="m204.808594 170.785156 66.308594-66.304687 6.03125 6.03125-66.304688 66.308593zm0 0" fill="#fff3f2"/><path d="m204.792969 170.796875 66.332031-66.304687 6.03125 6.035156-66.332031 66.304687zm0 0" fill="#fff3f2"/><path d="m204.796875 170.820312 66.328125-66.332031 6.035156 6.035157-66.332031 66.328124zm0 0" fill="#fff3f2"/><path d="m204.808594 170.851562 66.324218-66.351562 6.035157 6.03125-66.324219 66.351562zm0 0" fill="#fff3f2"/><path d="m204.800781 170.859375 66.351563-66.347656 6.035156 6.03125-66.351562 66.351562zm0 0" fill="#fff3f2"/><path d="m204.792969 170.882812 66.363281-66.363281 6.035156 6.035157-66.363281 66.359374zm0 0" fill="#fff3f2"/><path d="m204.796875 170.902344 66.367187-66.367188 6.035157 6.03125-66.367188 66.371094zm0 0" fill="#fff3f2"/><path d="m204.792969 170.917969 66.390625-66.363281 6.035156 6.035156-66.394531 66.367187zm0 0" fill="#fff3f2"/><path d="m204.804688 170.941406 66.390624-66.390625 6.035157 6.035157-66.390625 66.390624zm0 0" fill="#fff3f2"/><path d="m204.796875 170.964844 66.398437-66.398438 6.03125 6.035156-66.398437 66.394532zm0 0" fill="#fff3f2"/><path d="m204.808594 170.988281 66.394531-66.425781 6.035156 6.03125-66.394531 66.425781zm0 0" fill="#fff3f2"/><path d="m204.804688 171.003906 66.421874-66.421875 6.03125 6.035157-66.421874 66.421874zm0 0" fill="#fff3f2"/><path d="m204.804688 171.023438 66.429687-66.425782 6.035156 6.035156-66.429687 66.425782zm0 0" fill="#fff3f2"/><path d="m204.804688 171.039062 66.4375-66.4375 6.035156 6.03125-66.4375 66.441407zm0 0" fill="#fff3f2"/><path d="m204.792969 171.054688 66.460937-66.429688 6.03125 6.035156-66.460937 66.429688zm0 0" fill="#fff3f2"/><path d="m204.804688 171.078125 66.457031-66.457031 6.035156 6.035156-66.457031 66.457031zm0 0" fill="#fff3f2"/><path d="m271.273438 104.628906 4.855468 4.867188-71.324218 71.320312v-9.71875zm0 0" fill="#fff3f2"/><path d="m276.128906 109.496094-71.324218 71.320312zm0 0" fill="#fff3f2"/><path d="m276.128906 109.496094-71.324218 71.320312zm0 0" fill="#fef3f2"/><path d="m276.128906 109.496094-71.324218 71.320312zm0 0" fill="#fdf2f2"/><path d="m276.128906 109.496094-71.324218 71.320312zm0 0" fill="#fcf2f2"/><path d="m276.128906 109.496094-71.324218 71.320312zm0 0" fill="#fbf1f2"/><path d="m276.128906 109.496094-71.324218 71.320312zm0 0" fill="#faf1f2"/><path d="m276.128906 109.496094-71.324218 71.320312zm0 0" fill="#f9f0f2"/><path d="m276.128906 109.496094-71.324218 71.320312zm0 0" fill="#f8f0f2"/><path d="m276.128906 109.496094-71.324218 71.320312zm0 0" fill="#f7eff2"/><path d="m276.128906 109.496094-71.324218 71.320312zm0 0" fill="#f6eff2"/><path d="m276.128906 109.496094-71.324218 71.320312zm0 0" fill="#f5eef2"/><path d="m276.128906 109.496094-71.324218 71.320312zm0 0" fill="#f4eef2"/><path d="m276.128906 109.496094-71.324218 71.320312zm0 0" fill="#f3edf2"/><path d="m276.128906 109.496094-71.324218 71.320312zm0 0" fill="#f2edf2"/><path d="m276.128906 109.496094-71.324218 71.320312zm0 0" fill="#f1ecf2"/><path d="m276.128906 109.496094-71.324218 71.320312zm0 0" fill="#f0ecf2"/><path d="m276.128906 109.496094-71.324218 71.320312zm0 0" fill="#efecf2"/><path d="m276.128906 109.496094-71.324218 71.320312zm0 0" fill="#eeebf2"/><path d="m276.128906 109.496094-71.324218 71.320312zm0 0" fill="#edebf2"/><path d="m276.128906 109.496094-71.324218 71.320312zm0 0" fill="#eceaf2"/><path d="m276.128906 109.496094-71.324218 71.320312zm0 0" fill="#ebeaf2"/><path d="m276.128906 109.496094-71.324218 71.320312zm0 0" fill="#eae9f2"/><path d="m276.128906 109.496094-71.324218 71.320312zm0 0" fill="#e8e9f2"/><path d="m276.128906 109.496094-71.324218 71.320312zm0 0" fill="#e7e8f2"/><path d="m276.128906 109.496094-71.324218 71.320312zm0 0" fill="#e6e8f2"/><path d="m276.128906 109.496094-71.324218 71.320312zm0 0" fill="#e5e7f2"/><path d="m276.128906 109.496094-71.324218 71.320312zm0 0" fill="#e4e7f2"/><path d="m276.128906 109.496094-71.324218 71.320312zm0 0" fill="#e3e6f2"/><path d="m276.128906 109.496094-71.324218 71.320312zm0 0" fill="#e2e6f2"/><path d="m276.128906 109.496094-71.324218 71.320312zm0 0" fill="#e1e6f2"/><path d="m276.128906 109.496094-71.324218 71.320312zm0 0" fill="#e0e5f2"/><path d="m276.128906 109.496094-71.324218 71.320312zm0 0" fill="#dfe5f2"/><path d="m276.128906 109.496094-71.324218 71.320312zm0 0" fill="#dee4f2"/><path d="m276.128906 109.496094-71.324218 71.320312zm0 0" fill="#dde4f2"/><path d="m276.128906 109.496094-71.324218 71.320312zm0 0" fill="#dce3f2"/><path d="m276.128906 109.496094-71.324218 71.320312zm0 0" fill="#dbe3f2"/><path d="m276.128906 109.496094-71.324218 71.320312zm0 0" fill="#dae2f2"/><path d="m276.128906 109.496094-71.324218 71.320312zm0 0" fill="#d9e2f2"/><path d="m276.128906 109.496094-71.324218 71.320312zm0 0" fill="#d8e1f2"/><path d="m276.128906 109.496094-71.324218 71.320312zm0 0" fill="#d7e1f2"/><path d="m276.128906 109.496094-71.324218 71.320312zm0 0" fill="#d6e0f2"/><path d="m276.128906 109.496094-71.324218 71.320312zm0 0" fill="#d5e0f2"/><path d="m276.128906 109.496094-71.324218 71.320312zm0 0" fill="#d4dff2"/><path d="m276.128906 109.496094-71.324218 71.320312zm0 0" fill="#d3dff2"/><path d="m276.128906 109.496094 9.742188 9.742187v8.765625l-81.066406 81.066406v-28.253906zm0 0" fill="#d3dff2"/><path d="m285.871094 128.019531-81.066406 81.066407v-.015626l81.066406-81.066406zm0 0" fill="#d3dff2"/><path d="m285.871094 128.039062-81.066406 81.066407v-.019531l81.066406-81.066407zm0 0" fill="#d8e1f2"/><path d="m285.871094 128.0625-81.066406 81.066406v-.023437l81.066406-81.066407zm0 0" fill="#dce3f2"/><path d="m285.871094 128.078125-81.066406 81.070313v-.019532l81.066406-81.066406zm0 0" fill="#e0e5f2"/><path d="m285.871094 128.097656-81.066406 81.066406v-.015624l81.066406-81.070313zm0 0" fill="#e4e7f2"/><path d="m285.871094 128.121094-81.066406 81.066406v-.023438l81.066406-81.066406zm0 0" fill="#e7e8f2"/><path d="m285.871094 128.140625-81.066406 81.066406v-.019531l81.066406-81.066406zm0 0" fill="#eaeaf2"/><path d="m285.871094 128.15625-81.066406 81.066406v-.015625l81.066406-81.066406zm0 0" fill="#edebf2"/><path d="m285.871094 128.183594-81.066406 81.066406v-.027344l81.066406-81.066406zm0 0" fill="#efecf2"/><path d="m285.871094 128.199219-81.066406 81.066406v-.015625l81.066406-81.066406zm0 0" fill="#f1edf2"/><path d="m285.871094 128.214844-81.066406 81.070312v-.019531l81.066406-81.066406zm0 0" fill="#f3eef2"/><path d="m285.871094 128.242188-81.066406 81.066406v-.023438l81.066406-81.070312zm0 0" fill="#f5eef2"/><path d="m285.871094 128.257812-81.066406 81.066407v-.015625l81.066406-81.066406zm0 0" fill="#f6eff2"/><path d="m285.871094 128.277344-81.066406 81.066406v-.019531l81.066406-81.066407zm0 0" fill="#f8f0f2"/><path d="m285.871094 128.300781-81.066406 81.066407v-.023438l81.066406-81.066406zm0 0" fill="#f9f0f2"/><path d="m285.871094 128.320312-81.066406 81.066407v-.019531l81.066406-81.066407zm0 0" fill="#faf1f2"/><path d="m285.871094 128.335938-81.066406 81.066406v-.015625l81.066406-81.066407zm0 0" fill="#fbf1f2"/><path d="m285.871094 128.363281-81.066406 81.066407v-.027344l81.066406-81.066406zm0 0" fill="#fbf1f2"/><path d="m285.871094 128.378906-81.066406 81.066406v-.015624l81.066406-81.066407zm0 0" fill="#fcf2f2"/><path d="m285.871094 128.394531-81.066406 81.066407v-.015626l81.066406-81.066406zm0 0" fill="#fdf2f2"/><path d="m285.871094 128.421875-81.066406 81.066406v-.027343l81.066406-81.066407zm0 0" fill="#fdf2f2"/><path d="m285.871094 128.4375-81.066406 81.066406v-.015625l81.066406-81.066406zm0 0" fill="#fdf2f2"/><path d="m285.871094 128.457031-81.066406 81.066407v-.019532l81.066406-81.066406zm0 0" fill="#fef2f2"/><path d="m285.871094 128.480469-81.066406 81.066406v-.023437l81.066406-81.066407zm0 0" fill="#fef3f2"/><path d="m285.871094 128.5-81.066406 81.066406v-.019531l81.066406-81.066406zm0 0" fill="#fef3f2"/><path d="m285.871094 128.515625-81.066406 81.066406v-.015625l81.066406-81.066406zm0 0" fill="#fef3f2"/><path d="m285.871094 128.539062-81.066406 81.070313v-.027344l81.066406-81.066406zm0 0" fill="#fff3f2"/><path d="m285.871094 128.558594-81.066406 81.066406v-.015625l81.066406-81.070313zm0 0" fill="#fff3f2"/><path d="m285.871094 128.574219-81.066406 81.066406v-.015625l81.066406-81.066406zm0 0" fill="#fff3f2"/><path d="m285.871094 128.601562-81.066406 81.066407v-.027344l81.066406-81.066406zm0 0" fill="#fff3f2"/><path d="m285.871094 128.617188-81.066406 81.066406v-.015625l81.066406-81.066407zm0 0" fill="#fff3f2"/><path d="m285.871094 128.632812-81.066406 81.070313v-.019531l81.066406-81.066406zm0 0" fill="#fff3f2"/><path d="m285.871094 128.660156-81.066406 81.066406v-.023437l81.066406-81.070313zm0 0" fill="#fff3f2"/><path d="m285.871094 128.675781-81.066406 81.066407v-.015626l81.066406-81.066406zm0 0" fill="#fff3f2"/><path d="m285.871094 128.695312-81.066406 81.066407v-.019531l81.066406-81.066407zm0 0" fill="#fff3f2"/><path d="m285.871094 128.71875-81.066406 81.066406v-.023437l81.066406-81.066407zm0 0" fill="#fff3f2"/><path d="m285.871094 128.738281-81.066406 81.066407v-.019532l81.066406-81.066406zm0 0" fill="#fff3f2"/><path d="m285.871094 128.753906-81.066406 81.066406v-.015624l81.066406-81.066407zm0 0" fill="#fff3f2"/><path d="m285.871094 128.78125-81.066406 81.066406v-.027344l81.066406-81.066406zm0 0" fill="#fff3f2"/><path d="m285.871094 128.796875-81.066406 81.066406v-.015625l81.066406-81.066406zm0 0" fill="#fff3f2"/><path d="m285.871094 128.8125-81.066406 81.066406v-.015625l81.066406-81.066406zm0 0" fill="#fff3f2"/><path d="m285.871094 128.839844-81.066406 81.066406v-.027344l81.066406-81.066406zm0 0" fill="#fff3f2"/><path d="m285.871094 128.855469-81.066406 81.066406v-.015625l81.066406-81.066406zm0 0" fill="#fff3f2"/><path d="m285.871094 128.875-81.066406 81.066406v-.019531l81.066406-81.066406zm0 0" fill="#fff3f2"/><path d="m285.871094 142.125-81.066406 81.066406v-13.25l81.066406-81.066406zm0 0" fill="#fff3f2"/><path d="m285.871094 142.132812-81.066406 81.066407v-.007813l81.066406-81.066406zm0 0" fill="#fff3f2"/><path d="m285.871094 142.132812-81.066406 81.066407zm0 0" fill="#faf1f2"/><path d="m285.871094 142.144531-81.066406 81.066407v-.011719l81.066406-81.066407zm0 0" fill="#f6eff2"/><path d="m285.871094 142.144531-81.066406 81.066407zm0 0" fill="#f2edf2"/><path d="m285.871094 142.144531-81.066406 81.066407zm0 0" fill="#eeebf2"/><path d="m285.871094 142.152344-81.066406 81.066406v-.007812l81.066406-81.066407zm0 0" fill="#ebeaf2"/><path d="m285.871094 142.152344-81.066406 81.066406zm0 0" fill="#e8e8f2"/><path d="m285.871094 142.160156-81.066406 81.066406v-.007812l81.066406-81.066406zm0 0" fill="#e5e7f2"/><path d="m285.871094 142.160156-81.066406 81.066406zm0 0" fill="#e3e6f2"/><path d="m285.871094 142.167969-81.066406 81.066406v-.007813l81.066406-81.066406zm0 0" fill="#e1e5f2"/><path d="m285.871094 142.167969-81.066406 81.066406zm0 0" fill="#dfe4f2"/><path d="m285.871094 142.175781-81.066406 81.066407v-.007813l81.066406-81.066406zm0 0" fill="#dde4f2"/><path d="m285.871094 142.175781-81.066406 81.066407zm0 0" fill="#dce3f2"/><path d="m285.871094 142.1875-81.066406 81.066406v-.011718l81.066406-81.066407zm0 0" fill="#dae2f2"/><path d="m285.871094 142.1875-81.066406 81.066406zm0 0" fill="#d9e2f2"/><path d="m285.871094 142.195312-81.066406 81.066407v-.007813l81.066406-81.066406zm0 0" fill="#d8e1f2"/><path d="m285.871094 142.195312-81.066406 81.066407zm0 0" fill="#d7e1f2"/><path d="m285.871094 142.203125-81.066406 81.066406v-.007812l81.066406-81.066407zm0 0" fill="#d7e1f2"/><path d="m285.871094 142.203125-81.066406 81.066406zm0 0" fill="#d6e0f2"/><path d="m285.871094 142.210938-81.066406 81.066406v-.007813l81.066406-81.066406zm0 0" fill="#d5e0f2"/><path d="m285.871094 142.210938-81.066406 81.066406zm0 0" fill="#d5e0f2"/><path d="m285.871094 142.210938-81.066406 81.066406zm0 0" fill="#d5e0f2"/><path d="m285.871094 142.21875-81.066406 81.066406v-.007812l81.066406-81.066406zm0 0" fill="#d4e0f2"/><path d="m285.871094 142.21875-81.066406 81.066406zm0 0" fill="#d4dff2"/><path d="m285.871094 142.226562-81.066406 81.070313v-.011719l81.066406-81.066406zm0 0" fill="#d4dff2"/><path d="m285.871094 142.226562-81.066406 81.070313zm0 0" fill="#d4dff2"/><path d="m285.871094 142.238281-81.066406 81.066407v-.007813l81.066406-81.070313zm0 0" fill="#d3dff2"/><path d="m285.871094 142.238281-81.066406 81.066407zm0 0" fill="#d3dff2"/><path d="m285.871094 142.246094-81.066406 81.066406v-.007812l81.066406-81.066407zm0 0" fill="#d3dff2"/><path d="m285.871094 142.246094-81.066406 81.066406zm0 0" fill="#d3dff2"/><path d="m285.871094 142.253906-81.066406 81.066406v-.007812l81.066406-81.066406zm0 0" fill="#d3dff2"/><path d="m285.871094 142.253906-81.066406 81.066406zm0 0" fill="#d3dff2"/><path d="m285.871094 142.261719-81.066406 81.066406v-.007813l81.066406-81.066406zm0 0" fill="#d3dff2"/><path d="m285.871094 142.261719-81.066406 81.066406zm0 0" fill="#d3dff2"/><path d="m285.871094 142.269531-81.066406 81.066407v-.007813l81.066406-81.066406zm0 0" fill="#d3dff2"/><path d="m285.871094 142.269531-81.066406 81.066407zm0 0" fill="#d3dff2"/><path d="m285.871094 142.28125-81.066406 81.066406v-.011718l81.066406-81.066407zm0 0" fill="#d3dff2"/><path d="m285.871094 142.28125-81.066406 81.066406zm0 0" fill="#d3dff2"/><path d="m285.871094 142.28125-81.066406 81.066406zm0 0" fill="#d3dff2"/><path d="m285.871094 142.289062-81.066406 81.066407v-.007813l81.066406-81.066406zm0 0" fill="#d3dff2"/><path d="m285.871094 142.289062-81.066406 81.066407zm0 0" fill="#d3dff2"/><path d="m285.871094 142.296875-81.066406 81.066406v-.007812l81.066406-81.066407zm0 0" fill="#d3dff2"/><path d="m285.871094 142.296875-81.066406 81.066406zm0 0" fill="#d3dff2"/><path d="m285.871094 142.304688-81.066406 81.066406v-.007813l81.066406-81.066406zm0 0" fill="#d3dff2"/><path d="m285.871094 184.503906-45.90625 45.90625h-35.160156v-7.039062l81.066406-81.066406zm0 0" fill="#d3dff2"/><path d="m285.871094 184.511719-45.898438 45.898437h-.007812l45.90625-45.90625zm0 0" fill="#d3dff2"/><path d="m285.871094 184.511719-45.898438 45.898437zm0 0" fill="#d4dff2"/><path d="m285.871094 184.519531-45.890625 45.890625h-.007813l45.898438-45.898437zm0 0" fill="#d5e0f2"/><path d="m285.871094 184.519531-45.890625 45.890625zm0 0" fill="#d6e0f2"/><path d="m285.871094 184.519531-45.890625 45.890625zm0 0" fill="#d7e1f2"/><path d="m285.871094 184.527344-45.882813 45.882812h-.007812l45.890625-45.890625zm0 0" fill="#d8e1f2"/><path d="m285.871094 184.527344-45.882813 45.882812zm0 0" fill="#d9e2f2"/><path d="m285.871094 184.535156-45.875 45.875h-.007813l45.882813-45.882812zm0 0" fill="#dae2f2"/><path d="m285.871094 184.535156-45.875 45.875zm0 0" fill="#dbe3f2"/><path d="m285.871094 184.546875-45.863282 45.863281h-.011718l45.875-45.875zm0 0" fill="#dce3f2"/><path d="m285.871094 184.546875-45.863282 45.863281zm0 0" fill="#dde4f2"/><path d="m285.871094 184.554688-45.855469 45.855468h-.007813l45.863282-45.863281zm0 0" fill="#dee4f2"/><path d="m285.871094 184.554688-45.855469 45.855468zm0 0" fill="#dfe5f2"/><path d="m285.871094 184.5625-45.847656 45.847656h-.007813l45.855469-45.855468zm0 0" fill="#e0e5f2"/><path d="m285.871094 184.5625-45.847656 45.847656zm0 0" fill="#e1e6f2"/><path d="m285.871094 184.570312-45.839844 45.839844h-.007812l45.847656-45.847656zm0 0" fill="#e2e6f2"/><path d="m285.871094 184.570312-45.839844 45.839844zm0 0" fill="#e3e6f2"/><path d="m285.871094 184.578125-45.832032 45.832031h-.007812l45.839844-45.839844zm0 0" fill="#e4e7f2"/><path d="m285.871094 184.578125-45.832032 45.832031zm0 0" fill="#e5e7f2"/><path d="m285.871094 184.585938-45.824219 45.824218h-.007813l45.832032-45.832031zm0 0" fill="#e6e8f2"/><path d="m285.871094 184.585938-45.824219 45.824218zm0 0" fill="#e7e8f2"/><path d="m285.871094 184.585938-45.824219 45.824218zm0 0" fill="#e8e9f2"/><path d="m285.871094 184.597656-45.8125 45.8125h-.011719l45.824219-45.824218zm0 0" fill="#eae9f2"/><path d="m285.871094 184.597656-45.8125 45.8125zm0 0" fill="#ebeaf2"/><path d="m285.871094 184.605469-45.804688 45.804687h-.007812l45.8125-45.8125zm0 0" fill="#eceaf2"/><path d="m285.871094 184.605469-45.804688 45.804687zm0 0" fill="#edebf2"/><path d="m285.871094 184.613281-45.796875 45.796875h-.007813l45.804688-45.804687zm0 0" fill="#eeebf2"/><path d="m285.871094 184.613281-45.796875 45.796875zm0 0" fill="#efecf2"/><path d="m285.871094 184.621094-45.789063 45.789062h-.007812l45.796875-45.796875zm0 0" fill="#f0ecf2"/><path d="m285.871094 184.621094-45.789063 45.789062zm0 0" fill="#f1ecf2"/><path d="m285.871094 184.628906-45.78125 45.78125h-.007813l45.789063-45.789062zm0 0" fill="#f2edf2"/><path d="m285.871094 184.628906-45.78125 45.78125zm0 0" fill="#f3edf2"/><path d="m285.871094 184.640625-45.769532 45.769531h-.011718l45.78125-45.78125zm0 0" fill="#f4eef2"/><path d="m285.871094 184.640625-45.769532 45.769531zm0 0" fill="#f5eef2"/><path d="m285.871094 184.648438-45.761719 45.761718h-.007813l45.769532-45.769531zm0 0" fill="#f6eff2"/><path d="m285.871094 184.648438-45.761719 45.761718zm0 0" fill="#f7eff2"/><path d="m285.871094 184.65625-45.753906 45.753906h-.007813l45.761719-45.761718zm0 0" fill="#f8f0f2"/><path d="m285.871094 184.65625-45.753906 45.753906zm0 0" fill="#f9f0f2"/><path d="m285.871094 184.65625-45.753906 45.753906zm0 0" fill="#faf1f2"/><path d="m285.871094 184.664062-45.746094 45.746094h-.007812l45.753906-45.753906zm0 0" fill="#fbf1f2"/><path d="m285.871094 184.664062-45.746094 45.746094zm0 0" fill="#fcf2f2"/><path d="m285.871094 184.671875-45.738282 45.738281h-.007812l45.746094-45.746094zm0 0" fill="#fdf2f2"/><path d="m285.871094 184.671875-45.738282 45.738281zm0 0" fill="#fef3f2"/><path d="m285.871094 184.683594-45.730469 45.726562h-.007813l45.738282-45.738281zm0 0" fill="#fff3f2"/><path d="m285.871094 203.925781-26.484375 26.484375h-19.246094l45.730469-45.726562zm0 0" fill="#fff3f2"/><path d="m285.871094 203.933594-26.476563 26.476562h-.007812l26.484375-26.484375zm0 0" fill="#fff3f2"/><path d="m285.871094 203.933594-26.476563 26.476562zm0 0" fill="#fef3f2"/><path d="m285.871094 203.941406-26.46875 26.46875h-.007813l26.476563-26.476562zm0 0" fill="#fdf2f2"/><path d="m285.871094 203.941406-26.46875 26.46875zm0 0" fill="#fcf2f2"/><path d="m285.871094 203.949219-26.460938 26.460937h-.007812l26.46875-26.46875zm0 0" fill="#fbf1f2"/><path d="m285.871094 203.949219-26.460938 26.460937zm0 0" fill="#faf1f2"/><path d="m285.871094 203.957031-26.453125 26.453125h-.007813l26.460938-26.460937zm0 0" fill="#f9f0f2"/><path d="m285.871094 203.957031-26.453125 26.453125zm0 0" fill="#f8f0f2"/><path d="m285.871094 203.957031-26.453125 26.453125zm0 0" fill="#f7eff2"/><path d="m285.871094 203.96875-26.441406 26.441406h-.011719l26.453125-26.453125zm0 0" fill="#f6eff2"/><path d="m285.871094 203.96875-26.441406 26.441406zm0 0" fill="#f5eef2"/><path d="m285.871094 203.976562-26.433594 26.433594h-.007812l26.441406-26.441406zm0 0" fill="#f4eef2"/><path d="m285.871094 203.976562-26.433594 26.433594zm0 0" fill="#f3edf2"/><path d="m285.871094 203.984375-26.425782 26.425781h-.007812l26.433594-26.433594zm0 0" fill="#f2edf2"/><path d="m285.871094 203.984375-26.425782 26.425781zm0 0" fill="#f1ecf2"/><path d="m285.871094 203.992188-26.417969 26.417968h-.007813l26.425782-26.425781zm0 0" fill="#f0ecf2"/><path d="m285.871094 203.992188-26.417969 26.417968zm0 0" fill="#efecf2"/><path d="m285.871094 204-26.410156 26.410156h-.007813l26.417969-26.417968zm0 0" fill="#eeebf2"/><path d="m285.871094 204-26.410156 26.410156zm0 0" fill="#edebf2"/><path d="m285.871094 204.007812-26.402344 26.402344h-.007812l26.410156-26.410156zm0 0" fill="#eceaf2"/><path d="m285.871094 204.007812-26.402344 26.402344zm0 0" fill="#ebeaf2"/><path d="m285.871094 204.019531-26.390625 26.390625h-.011719l26.402344-26.402344zm0 0" fill="#eae9f2"/><path d="m285.871094 204.019531-26.390625 26.390625zm0 0" fill="#e8e9f2"/><path d="m285.871094 204.027344-26.382813 26.382812h-.007812l26.390625-26.390625zm0 0" fill="#e7e8f2"/><path d="m285.871094 204.027344-26.382813 26.382812zm0 0" fill="#e6e8f2"/><path d="m285.871094 204.027344-26.382813 26.382812zm0 0" fill="#e5e7f2"/><path d="m285.871094 204.035156-26.375 26.375h-.007813l26.382813-26.382812zm0 0" fill="#e4e7f2"/><path d="m285.871094 204.035156-26.375 26.375zm0 0" fill="#e3e6f2"/><path d="m285.871094 204.042969-26.367188 26.367187h-.007812l26.375-26.375zm0 0" fill="#e2e6f2"/><path d="m285.871094 204.042969-26.367188 26.367187zm0 0" fill="#e1e6f2"/><path d="m285.871094 204.050781-26.359375 26.359375h-.007813l26.367188-26.367187zm0 0" fill="#e0e5f2"/><path d="m285.871094 204.050781-26.359375 26.359375zm0 0" fill="#dfe5f2"/><path d="m285.871094 204.0625-26.347656 26.347656h-.011719l26.359375-26.359375zm0 0" fill="#dee4f2"/><path d="m285.871094 204.0625-26.347656 26.347656zm0 0" fill="#dde4f2"/><path d="m285.871094 204.070312-26.339844 26.339844h-.007812l26.347656-26.347656zm0 0" fill="#dce3f2"/><path d="m285.871094 204.070312-26.339844 26.339844zm0 0" fill="#dbe3f2"/><path d="m285.871094 204.078125-26.332032 26.332031h-.007812l26.339844-26.339844zm0 0" fill="#dae2f2"/><path d="m285.871094 204.078125-26.332032 26.332031zm0 0" fill="#d9e2f2"/><path d="m285.871094 204.085938-26.324219 26.324218h-.007813l26.332032-26.332031zm0 0" fill="#d8e1f2"/><path d="m285.871094 204.085938-26.324219 26.324218zm0 0" fill="#d7e1f2"/><path d="m285.871094 204.09375-26.316406 26.316406h-.007813l26.324219-26.324218zm0 0" fill="#d6e0f2"/><path d="m285.871094 204.09375-26.316406 26.316406zm0 0" fill="#d5e0f2"/><path d="m285.871094 204.09375-26.316406 26.316406zm0 0" fill="#d4dff2"/><path d="m285.871094 204.101562-26.308594 26.308594h-.007812l26.316406-26.316406zm0 0" fill="#d3dff2"/><path d="m259.5625 230.410156 26.308594-26.308594v26.308594zm0 0" fill="#d3dff2"/><path d="m18.183594 196.277344h25.597656c-4.113281.558594-8.019531-1.957032-9.210938-5.933594-1.191406-3.976562.6875-8.230469 4.433594-10.023438 44.371094-23.039062 116.136719-72.53125 134.484375-158.121093.382813-1.839844 1.136719-3.582031 2.21875-5.121094 3.703125-5.480469 9.941407-8.699219 16.554688-8.53125h-25.601563c-6.609375-.167969-12.851562 3.050781-16.554687 8.53125-1.078125 1.539063-1.835938 3.28125-2.21875 5.121094-18.34375 85.589843-90.109375 135.082031-134.484375 158.121093-3.742188 1.792969-5.625 6.046876-4.433594 10.023438s5.101562 6.492188 9.214844 5.933594zm0 0" fill="#fff"/><path d="m76.804688 418.144531v-221.867187h-25.597657v268.800781h25.597657zm0 0" fill="#fff"/><path d="m17.074219 499.210938h25.597656c-4.710937 0-8.53125-3.820313-8.53125-8.53125v-17.066407c0-4.714843 3.820313-8.535156 8.53125-8.535156h-25.597656c-4.714844 0-8.535157 3.820313-8.535157 8.535156v17.066407c0 4.710937 3.820313 8.53125 8.535157 8.53125zm0 0" fill="#fff"/><path d="m494.9375 512.011719h-477.863281c-9.425781 0-17.0664065-7.640625-17.0664065-17.066407v-17.066406c0-9.425781 7.6406255-17.066406 17.0664065-17.066406h477.863281c9.425781 0 17.070312 7.640625 17.070312 17.066406v17.066406c0 9.425782-7.644531 17.066407-17.070312 17.066407zm-477.863281-34.132813v17.066406h477.863281v-17.066406zm0 0" fill="var(--resa-icon-primary, #428dff)"/><path d="m298.671875 477.878906h-85.332031c-4.714844 0-8.535156-3.820312-8.535156-8.535156v-119.464844c0-14.140625 11.460937-25.601562 25.601562-25.601562h51.199219c14.140625 0 25.601562 11.460937 25.601562 25.601562v119.464844c0 4.714844-3.820312 8.535156-8.535156 8.535156zm-76.800781-17.066406h68.269531v-110.933594c0-4.714844-3.820313-8.535156-8.535156-8.535156h-51.199219c-4.714844 0-8.535156 3.820312-8.535156 8.535156zm0 0" fill="var(--resa-icon-primary, #428dff)"/><path d="m170.671875 435.210938h-85.332031c-9.425782 0-17.066406-7.640626-17.066406-17.066407v-68.265625c0-9.425781 7.640624-17.066406 17.066406-17.066406h85.332031c9.425781 0 17.066406 7.640625 17.066406 17.066406v68.265625c0 9.425781-7.640625 17.066407-17.066406 17.066407zm-85.332031-85.332032v68.265625h85.332031v-68.265625zm0 0" fill="var(--resa-icon-primary, #428dff)"/><path d="m128.007812 435.210938c-4.714843 0-8.535156-3.820313-8.535156-8.53125v-85.335938c0-4.710938 3.820313-8.53125 8.535156-8.53125 4.710938 0 8.53125 3.820312 8.53125 8.53125v85.335938c0 4.710937-3.820312 8.53125-8.53125 8.53125zm0 0" fill="var(--resa-icon-primary, #428dff)"/><path d="m179.207031 392.546875h-102.402343c-4.710938 0-8.53125-3.824219-8.53125-8.535156 0-4.710938 3.820312-8.535157 8.53125-8.535157h102.402343c4.710938 0 8.53125 3.824219 8.53125 8.535157 0 4.710937-3.820312 8.535156-8.53125 8.535156zm0 0" fill="var(--resa-icon-primary, #428dff)"/><path d="m426.671875 435.210938h-85.332031c-9.425782 0-17.066406-7.640626-17.066406-17.066407v-68.265625c0-9.425781 7.640624-17.066406 17.066406-17.066406h85.332031c9.425781 0 17.066406 7.640625 17.066406 17.066406v68.265625c0 9.425781-7.640625 17.066407-17.066406 17.066407zm-85.332031-85.332032v68.265625h85.332031v-68.265625zm0 0" fill="var(--resa-icon-primary, #428dff)"/><path d="m384.007812 435.210938c-4.714843 0-8.535156-3.820313-8.535156-8.53125v-85.335938c0-4.710938 3.820313-8.53125 8.535156-8.53125 4.710938 0 8.53125 3.820312 8.53125 8.53125v85.335938c0 4.710937-3.820312 8.53125-8.53125 8.53125zm0 0" fill="var(--resa-icon-primary, #428dff)"/><path d="m435.207031 392.546875h-102.402343c-4.710938 0-8.53125-3.824219-8.53125-8.535156 0-4.710938 3.820312-8.535157 8.53125-8.535157h102.402343c4.710938 0 8.53125 3.824219 8.53125 8.535157 0 4.710937-3.820312 8.535156-8.53125 8.535156zm0 0" fill="var(--resa-icon-primary, #428dff)"/><path d="m59.738281 196.277344v273.066406h-17.066406v-273.066406zm0 0" fill="#fff"/><path d="m51.207031 238.945312c4.710938 0 8.53125-3.820312 8.53125-8.535156v-34.132812h-17.066406v34.132812c0 4.714844 3.820313 8.535156 8.535156 8.535156zm0 0" fill="var(--resa-icon-primary, #428dff)"/><path d="m42.671875 469.34375h17.066406v-170.664062c0-4.714844-3.820312-8.535157-8.53125-8.535157-4.714843 0-8.535156 3.820313-8.535156 8.535157zm0 0" fill="var(--resa-icon-primary, #428dff)"/><path d="m59.738281 264.546875c-.03125-2.261719-.914062-4.425781-2.472656-6.058594l-1.28125-1.027343c-.476563-.320313-.992187-.578126-1.535156-.765626-.484375-.246093-1-.421874-1.535157-.511718-.566406-.097656-1.136718-.152344-1.707031-.171875-2.261719.03125-4.421875.917969-6.058593 2.476562-.773438.8125-1.378907 1.769531-1.792969 2.8125-1.289063 3.183594-.585938 6.828125 1.792969 9.304688.816406.769531 1.769531 1.378906 2.816406 1.789062 1.023437.4375 2.125.671875 3.242187.683594 2.269531.023437 4.453125-.867187 6.058594-2.472656s2.496094-3.789063 2.472656-6.058594zm0 0" fill="var(--resa-icon-primary, #428dff)"/><path d="m170.671875 204.8125h-119.464844c-4.714843 0-8.535156-3.820312-8.535156-8.535156 0-4.710938 3.820313-8.53125 8.535156-8.53125h119.464844c4.714844 0 8.535156 3.820312 8.535156 8.53125 0 4.714844-3.820312 8.535156-8.535156 8.535156zm0 0" fill="var(--resa-icon-primary, #428dff)"/><path d="m460.804688 477.878906h-409.597657c-4.714843 0-8.535156-3.820312-8.535156-8.535156 0-4.710938 3.820313-8.53125 8.535156-8.53125h401.066407v-256h-110.933594c-4.714844 0-8.535156-3.820312-8.535156-8.535156 0-4.710938 3.820312-8.53125 8.535156-8.53125h119.464844c4.714843 0 8.535156 3.820312 8.535156 8.53125v273.066406c0 4.714844-3.820313 8.535156-8.535156 8.535156zm0 0" fill="var(--resa-icon-primary, #428dff)"/><path d="m493.828125 204.8125h-152.488281c-4.714844 0-8.535156-3.820312-8.535156-8.535156 0-4.710938 3.820312-8.53125 8.535156-8.53125h152.488281c.785156 0 1.109375-.222656 1.144531-.28125-43.902344-22.1875-119.925781-73.609375-139.195312-163.472656-1.5-4.40625-5.785156-7.246094-10.425782-6.914063h-178.691406c-4.640625-.332031-8.925781 2.507813-10.425781 6.914063-19.21875 89.632812-94.898437 140.996093-138.554687 163.753906.167968.007812.335937.007812.503906 0h152.488281c4.714844 0 8.535156 3.820312 8.535156 8.53125 0 4.714844-3.820312 8.535156-8.535156 8.535156h-152.488281c-8.269532.289062-15.625-5.203125-17.699219-13.210938-1.800781-7.609374 1.933594-15.449218 8.976563-18.847656 40.960937-21.265625 112.289062-69.308594 130.082031-152.339844 3.164062-12.300781 14.421875-20.769531 27.117187-20.4023432h178.691406c12.691407-.3710938 23.949219 8.0976562 27.109376 20.3945312 17.800781 83.039062 89.136718 131.082031 130.082031 152.335938 7.046875 3.402343 10.785156 11.246093 8.984375 18.859374-2.074219 8.007813-9.429688 13.5-17.699219 13.210938zm0 0" fill="var(--resa-icon-primary, #428dff)"/><path d="m341.339844 264.546875c-4.714844 0-8.535156-3.824219-8.535156-8.535156v-128.929688c0-2.417969-1.027344-4.722656-2.824219-6.339843l-68.265625-61.441407c-3.246094-2.921875-8.171875-2.921875-11.417969 0l-68.265625 61.441407c-1.800781 1.617187-2.828125 3.925781-2.824219 6.347656v128.921875c0 4.710937-3.820312 8.535156-8.535156 8.535156-4.710937 0-8.53125-3.824219-8.53125-8.535156v-128.929688c0-7.257812 3.082031-14.175781 8.480469-19.03125l68.265625-61.4375c9.726562-8.792969 24.527343-8.792969 34.253906 0l68.265625 61.4375c5.390625 4.859375 8.46875 11.773438 8.464844 19.03125v128.929688c0 4.710937-3.820313 8.535156-8.53125 8.535156zm0 0" fill="var(--resa-icon-primary, #428dff)"/><path d="m307.207031 238.945312h-102.402343c-4.710938 0-8.53125-3.820312-8.53125-8.535156v-91.929687c-.003907-4.84375 2.054687-9.457031 5.65625-12.695313l42.667968-38.402344c6.488282-5.839843 16.34375-5.839843 22.835938 0l42.664062 38.402344c3.597656 3.242188 5.648438 7.855469 5.640625 12.695313v91.929687c0 4.714844-3.820312 8.535156-8.53125 8.535156zm-93.867187-17.066406h85.332031v-83.398437l-42.664063-38.398438-42.667968 38.398438zm0 0" fill="var(--resa-icon-primary, #428dff)"/><path d="m307.207031 179.210938h-102.402343c-4.710938 0-8.53125-3.820313-8.53125-8.53125 0-4.714844 3.820312-8.535157 8.53125-8.535157h102.402343c4.710938 0 8.53125 3.820313 8.53125 8.535157 0 4.710937-3.820312 8.53125-8.53125 8.53125zm0 0" fill="var(--resa-icon-primary, #428dff)"/><path d="m256.007812 238.945312c-4.714843 0-8.535156-3.820312-8.535156-8.535156v-136.53125c0-4.714844 3.820313-8.535156 8.535156-8.535156 4.710938 0 8.53125 3.820312 8.53125 8.535156v136.53125c0 4.714844-3.820312 8.535156-8.53125 8.535156zm0 0" fill="var(--resa-icon-primary, #428dff)"/><path d="m179.207031 264.546875h-17.066406c-4.714844 0-8.535156-3.824219-8.535156-8.535156 0-4.710938 3.820312-8.535157 8.535156-8.535157h17.066406c4.710938 0 8.53125 3.824219 8.53125 8.535157 0 4.710937-3.820312 8.535156-8.53125 8.535156zm0 0" fill="var(--resa-icon-primary, #428dff)"/><path d="m349.871094 264.546875h-17.066406c-4.710938 0-8.53125-3.824219-8.53125-8.535156 0-4.710938 3.820312-8.535157 8.53125-8.535157h17.066406c4.714844 0 8.535156 3.824219 8.535156 8.535157 0 4.710937-3.820312 8.535156-8.535156 8.535156zm0 0" fill="var(--resa-icon-primary, #428dff)"/><path d="m315.738281 238.945312h-119.464843c-4.714844 0-8.535157-3.820312-8.535157-8.535156 0-4.710937 3.820313-8.53125 8.535157-8.53125h119.464843c4.714844 0 8.535157 3.820313 8.535157 8.53125 0 4.714844-3.820313 8.535156-8.535157 8.535156zm0 0" fill="var(--resa-icon-primary, #428dff)"/><path d="m273.074219 409.613281c-1.117188-.015625-2.21875-.246093-3.246094-.683593-2.140625-.777344-3.832031-2.464844-4.605469-4.609376-.910156-2.066406-.910156-4.417968 0-6.484374.433594-1.035157 1.039063-1.984376 1.792969-2.816407.8125-.769531 1.769531-1.378906 2.8125-1.792969 3.183594-1.285156 6.828125-.585937 9.304687 1.792969.75.832031 1.359376 1.78125 1.789063 2.816407.910156 2.066406.910156 4.417968 0 6.484374-.410156 1.046876-1.019531 2-1.789063 2.816407-1.636718 1.558593-3.800781 2.441406-6.058593 2.476562zm0 0" fill="var(--resa-icon-primary, #428dff)"/></svg>