<?xml version="1.0" encoding="iso-8859-1"?>
<!-- Generator: Adobe Illustrator 19.0.0, SVG Export Plug-In . SVG Version: 6.00 Build 0)  -->
<svg version="1.1" id="Capa_1" xmlns="http://www.w3.org/2000/svg" xmlns:xlink="http://www.w3.org/1999/xlink" x="0px" y="0px"
	 viewBox="0 0 512 512" style="enable-background:new 0 0 512 512;" xml:space="preserve"><style>:root{--resa-icon-primary:#428dff;--resa-icon-secondary:#7facfa;--resa-icon-light:#a4c2f7;--resa-icon-bg:#e8edfc;}</style>
<g>
	<g transform="translate(1 1)">
		<polygon style="fill:var(--resa-icon-bg, #e3e7f2);" points="340.333,7.533 169.667,7.533 7.533,186.733 7.533,502.467 331.8,502.467 502.467,502.467 
			502.467,220.867 502.467,186.733 		"/>
		<polygon style="fill:var(--resa-icon-light, #a4c2f7);" points="502.467,186.733 331.8,186.733 255,101.827 169.667,7.533 340.333,7.533 		"/>
		<polygon style="fill:var(--resa-icon-bg, #e3e7f2);" points="476.867,186.733 331.8,186.733 255,101.827 169.667,7.533 314.733,7.533 		"/>
		<g>
			<polygon style="fill:var(--resa-icon-bg, #d4e1f4);" points="425.667,152.173 348.867,152.173 310.637,109.933 387.437,109.933 			"/>
			<polygon style="fill:var(--resa-icon-bg, #d4e1f4);" points="387.437,109.933 310.637,109.933 272.067,67.267 348.867,67.267 			"/>
		</g>
		<g>
			<rect x="331.8" y="220.867" style="fill:var(--resa-icon-bg, #e3e7f2);" width="170.667" height="281.6"/>
			<rect x="331.8" y="220.867" style="fill:var(--resa-icon-bg, #e3e7f2);" width="145.067" height="281.6"/>
		</g>
		<rect x="331.8" y="186.733" style="fill:var(--resa-icon-light, #a4c2f7);" width="170.667" height="34.133"/>
		<rect x="331.8" y="186.733" style="fill:var(--resa-icon-bg, #e3e7f2);" width="145.067" height="34.133"/>
		
			<linearGradient id="SVGID_1_" gradientUnits="userSpaceOnUse" x1="-49.7923" y1="651.2184" x2="-48.2506" y2="650.4785" gradientTransform="matrix(102.4 0 0 -213.3333 5112.667 139243.4688)">
			<stop  offset="0" style="stop-color:#D4E1F4"/>
			<stop  offset="0.1717" style="stop-color:#D4E1F4"/>
			<stop  offset="0.2" style="stop-color:#D4E1F4"/>
			<stop  offset="0.2001" style="stop-color:#DAE4F4"/>
			<stop  offset="0.2007" style="stop-color:#EBEBF4"/>
			<stop  offset="0.2014" style="stop-color:#F6F1F4"/>
			<stop  offset="0.2023" style="stop-color:#FDF4F4"/>
			<stop  offset="0.205" style="stop-color:#FFF5F4"/>
			<stop  offset="0.2522" style="stop-color:#FFF5F4"/>
			<stop  offset="0.26" style="stop-color:#FFF5F4"/>
			<stop  offset="0.26" style="stop-color:#D4E1F4"/>
			<stop  offset="0.3974" style="stop-color:#D4E1F4"/>
			<stop  offset="0.42" style="stop-color:#D4E1F4"/>
			<stop  offset="0.4201" style="stop-color:#DAE4F4"/>
			<stop  offset="0.4207" style="stop-color:#EBEBF4"/>
			<stop  offset="0.4214" style="stop-color:#F6F1F4"/>
			<stop  offset="0.4223" style="stop-color:#FDF4F4"/>
			<stop  offset="0.425" style="stop-color:#FFF5F4"/>
			<stop  offset="0.4894" style="stop-color:#FFF5F4"/>
			<stop  offset="0.5" style="stop-color:#FFF5F4"/>
			<stop  offset="0.5" style="stop-color:#F9F2F4"/>
			<stop  offset="0.5001" style="stop-color:#E8EBF4"/>
			<stop  offset="0.5003" style="stop-color:#DDE5F4"/>
			<stop  offset="0.5005" style="stop-color:#D6E2F4"/>
			<stop  offset="0.501" style="stop-color:#D4E1F4"/>
			<stop  offset="0.7062" style="stop-color:#D4E1F4"/>
			<stop  offset="0.74" style="stop-color:#D4E1F4"/>
			<stop  offset="0.741" style="stop-color:#FFF5F4"/>
			<stop  offset="0.8346" style="stop-color:#FFF5F4"/>
			<stop  offset="0.85" style="stop-color:#FFF5F4"/>
			<stop  offset="0.851" style="stop-color:#D4E1F4"/>
		</linearGradient>
		<rect x="41.667" y="289.133" style="fill:url(#SVGID_1_);" width="102.4" height="213.333"/>
		<g>
			<path style="fill:var(--resa-icon-bg, #e3e7f2);" d="M58.733,255H127c9.426,0,17.067,7.641,17.067,17.067v17.067h-102.4v-17.067
				C41.667,262.641,49.308,255,58.733,255z"/>
			<rect x="41.667" y="468.333" style="fill:var(--resa-icon-bg, #e3e7f2);" width="102.4" height="34.133"/>
		</g>
		
			<linearGradient id="SVGID_2_" gradientUnits="userSpaceOnUse" x1="-49.7923" y1="651.2184" x2="-48.2506" y2="650.4785" gradientTransform="matrix(102.4 0 0 -213.3333 5266.2666 139243.4688)">
			<stop  offset="0" style="stop-color:#D4E1F4"/>
			<stop  offset="0.1717" style="stop-color:#D4E1F4"/>
			<stop  offset="0.2" style="stop-color:#D4E1F4"/>
			<stop  offset="0.2001" style="stop-color:#DAE4F4"/>
			<stop  offset="0.2007" style="stop-color:#EBEBF4"/>
			<stop  offset="0.2014" style="stop-color:#F6F1F4"/>
			<stop  offset="0.2023" style="stop-color:#FDF4F4"/>
			<stop  offset="0.205" style="stop-color:#FFF5F4"/>
			<stop  offset="0.2522" style="stop-color:#FFF5F4"/>
			<stop  offset="0.26" style="stop-color:#FFF5F4"/>
			<stop  offset="0.26" style="stop-color:#D4E1F4"/>
			<stop  offset="0.3974" style="stop-color:#D4E1F4"/>
			<stop  offset="0.42" style="stop-color:#D4E1F4"/>
			<stop  offset="0.4201" style="stop-color:#DAE4F4"/>
			<stop  offset="0.4207" style="stop-color:#EBEBF4"/>
			<stop  offset="0.4214" style="stop-color:#F6F1F4"/>
			<stop  offset="0.4223" style="stop-color:#FDF4F4"/>
			<stop  offset="0.425" style="stop-color:#FFF5F4"/>
			<stop  offset="0.4894" style="stop-color:#FFF5F4"/>
			<stop  offset="0.5" style="stop-color:#FFF5F4"/>
			<stop  offset="0.5" style="stop-color:#F9F2F4"/>
			<stop  offset="0.5001" style="stop-color:#E8EBF4"/>
			<stop  offset="0.5003" style="stop-color:#DDE5F4"/>
			<stop  offset="0.5005" style="stop-color:#D6E2F4"/>
			<stop  offset="0.501" style="stop-color:#D4E1F4"/>
			<stop  offset="0.7062" style="stop-color:#D4E1F4"/>
			<stop  offset="0.74" style="stop-color:#D4E1F4"/>
			<stop  offset="0.741" style="stop-color:#FFF5F4"/>
			<stop  offset="0.8346" style="stop-color:#FFF5F4"/>
			<stop  offset="0.85" style="stop-color:#FFF5F4"/>
			<stop  offset="0.851" style="stop-color:#D4E1F4"/>
		</linearGradient>
		<rect x="195.267" y="289.133" style="fill:url(#SVGID_2_);" width="102.4" height="213.333"/>
		<g>
			<path style="fill:var(--resa-icon-bg, #e3e7f2);" d="M212.333,255H280.6c9.426,0,17.067,7.641,17.067,17.067v17.067h-102.4v-17.067
				C195.267,262.641,202.908,255,212.333,255z"/>
			<rect x="195.267" y="468.333" style="fill:var(--resa-icon-bg, #e3e7f2);" width="102.4" height="34.133"/>
		</g>
		<g>
			<path style="fill:var(--resa-icon-bg, #d4e1f4);" d="M400.067,280.6v25.6h-34.133v-25.6c0.014-4.707,3.826-8.519,8.533-8.533h17.067
				C396.24,272.081,400.053,275.893,400.067,280.6z"/>
			<path style="fill:var(--resa-icon-bg, #d4e1f4);" d="M400.067,306.2v42.667c-0.014,4.707-3.826,8.519-8.533,8.533h-17.067
				c-4.707-0.014-8.519-3.826-8.533-8.533V306.2H400.067z"/>
			<path style="fill:var(--resa-icon-bg, #d4e1f4);" d="M468.333,306.2v42.667c-0.014,4.707-3.826,8.519-8.533,8.533h-17.067
				c-4.707-0.014-8.519-3.826-8.533-8.533V306.2H468.333z"/>
			<path style="fill:var(--resa-icon-bg, #d4e1f4);" d="M468.333,280.6v25.6H434.2v-25.6c0.014-4.707,3.826-8.519,8.533-8.533H459.8
				C464.507,272.081,468.319,275.893,468.333,280.6z"/>
		</g>
		<polygon style="fill:#FFFFFF;" points="195.267,7.533 33.133,186.733 33.133,502.467 7.533,502.467 7.533,186.733 169.667,7.533 
					"/>
	</g>
	<g>
		<polygon style="fill:#FFFFFF;" points="17.067,187.733 17.067,298.667 17.067,503.467 0,503.467 0,298.667 0,187.733 		"/>
		<g>
			<path style="fill:var(--resa-icon-primary, #428dff);" d="M8.533,264.533c2.259-0.034,4.422-0.918,6.059-2.475c3.3-3.365,3.3-8.752,0-12.117l-1.279-1.025
				c-0.476-0.324-0.993-0.583-1.538-0.771c-0.484-0.246-1.003-0.417-1.538-0.509c-0.563-0.096-1.133-0.153-1.704-0.171
				c-2.259,0.031-4.423,0.915-6.059,2.475c-3.222,3.397-3.222,8.721,0,12.117c0.815,0.771,1.77,1.379,2.813,1.792
				C6.314,264.288,7.417,264.52,8.533,264.533z"/>
			<path style="fill:var(--resa-icon-primary, #428dff);" d="M511.426,184.883c-0.073-0.204-0.104-0.419-0.192-0.616c-0.357-0.825-0.844-1.587-1.442-2.259
				L347.658,2.809c-0.046-0.051-0.112-0.068-0.16-0.118c-0.495-0.467-1.045-0.873-1.637-1.208c-0.339-0.267-0.696-0.508-1.071-0.722
				c-0.448-0.151-0.907-0.264-1.373-0.34c-0.612-0.198-1.244-0.325-1.885-0.381c-0.07-0.002-0.129-0.04-0.2-0.04H170.667
				c-2.343,0.006-4.579,0.985-6.173,2.702c-0.044,0.046-0.109,0.059-0.152,0.106L2.208,182.008
				c-1.404,1.574-2.166,3.617-2.136,5.725H0v34.133c0,4.713,3.821,8.533,8.533,8.533s8.533-3.821,8.533-8.533v-30.849l153.6-169.768
				l153.6,169.768v303.916H307.2V273.067c-0.015-14.132-11.468-25.585-25.6-25.6h-68.267c-14.132,0.015-25.585,11.468-25.6,25.6
				v221.867H153.6V273.067c-0.015-14.132-11.468-25.585-25.6-25.6H59.733c-14.132,0.015-25.585,11.468-25.6,25.6v221.867H17.067
				v-204.8c0-4.713-3.821-8.533-8.533-8.533S0,285.421,0,290.133v213.333c-0.001,2.264,0.897,4.435,2.498,6.035
				c1.601,1.601,3.772,2.499,6.035,2.498h494.933c2.264,0.001,4.435-0.897,6.035-2.498c1.601-1.601,2.499-3.772,2.498-6.035V187.733
				c0-0.165-0.084-0.302-0.094-0.465C511.863,186.454,511.701,185.651,511.426,184.883z M51.2,298.667h85.333V460.8H51.2V298.667z
				 M51.2,273.067c0.003-4.712,3.822-8.53,8.533-8.533H128c4.712,0.003,8.53,3.822,8.533,8.533v8.533H51.2V273.067z M51.2,494.933
				v-17.067h85.333v17.067H51.2z M204.8,298.667h85.333V460.8H204.8V298.667z M204.8,273.067c0.003-4.712,3.822-8.53,8.533-8.533
				H281.6c4.712,0.003,8.53,3.822,8.533,8.533v8.533H204.8V273.067z M204.8,494.933v-17.067h85.333v17.067H204.8z M341.333,196.267
				h153.6v17.067h-153.6V196.267z M336.592,179.2L189.893,17.067h147.656L484.242,179.2H336.592z M341.333,494.933V230.4h153.6
				v264.533H341.333z"/>
			<path style="fill:var(--resa-icon-primary, #428dff);" d="M273.067,59.733c-3.374,0-6.431,1.988-7.799,5.072c-1.368,3.084-0.79,6.685,1.474,9.186
				l38.807,42.905l0.092,0.101l37.901,41.903c1.616,1.789,3.914,2.81,6.325,2.808h76.8c3.374,0,6.431-1.988,7.799-5.072
				c1.368-3.084,0.79-6.685-1.474-9.186l-76.8-84.908c-1.616-1.789-3.914-2.81-6.325-2.808H273.067z M353.658,144.642
				l-22.772-25.175h53.783l22.772,25.175H353.658z M369.232,102.4h-53.783l-23.157-25.6h53.783L369.232,102.4z"/>
			<path style="fill:var(--resa-icon-primary, #428dff);" d="M392.533,264.533h-17.067c-9.421,0.012-17.054,7.646-17.067,17.067v68.267
				c0.012,9.421,7.646,17.054,17.067,17.067h17.067c9.421-0.012,17.054-7.646,17.067-17.067V281.6
				C409.588,272.179,401.954,264.546,392.533,264.533z M392.533,281.6l0.004,17.067h-17.071V281.6H392.533z M375.467,349.867
				v-34.133h17.075l0.009,34.133H375.467z"/>
			<path style="fill:var(--resa-icon-primary, #428dff);" d="M460.8,264.533h-17.067c-9.421,0.012-17.054,7.646-17.067,17.067v68.267
				c0.012,9.421,7.646,17.054,17.067,17.067H460.8c9.421-0.012,17.054-7.646,17.067-17.067V281.6
				C477.854,272.179,470.221,264.546,460.8,264.533z M460.8,281.6l0.004,17.067h-17.071V281.6H460.8z M443.733,349.867v-34.133
				h17.075l0.009,34.133H443.733z"/>
			<path style="fill:var(--resa-icon-primary, #428dff);" d="M102.4,355.817v-5.95h8.533c4.713,0,8.533-3.821,8.533-8.533s-3.821-8.533-8.533-8.533H102.4
				v-8.533c0-4.713-3.821-8.533-8.533-8.533c-4.713,0-8.533,3.821-8.533,8.533v8.533H76.8c-4.713,0-8.533,3.82-8.533,8.533
				s3.821,8.533,8.533,8.533h8.533v5.95L69.7,379.266c-1.723,2.536-1.952,5.802-0.601,8.554c1.351,2.752,4.075,4.568,7.135,4.757
				c3.06,0.189,5.986-1.279,7.665-3.844l9.967-14.95l9.967,14.95c1.679,2.565,4.605,4.033,7.665,3.844
				c3.06-0.189,5.784-2.005,7.135-4.757c1.351-2.752,1.122-6.018-0.601-8.554L102.4,355.817z"/>
			<path style="fill:var(--resa-icon-primary, #428dff);" d="M256,355.817v-5.95h8.533c4.713,0,8.533-3.821,8.533-8.533s-3.82-8.533-8.533-8.533H256v-8.533
				c0-4.713-3.82-8.533-8.533-8.533c-4.713,0-8.533,3.821-8.533,8.533v8.533H230.4c-4.713,0-8.533,3.82-8.533,8.533
				s3.821,8.533,8.533,8.533h8.533v5.95l-15.633,23.45c-1.723,2.536-1.952,5.802-0.601,8.554c1.351,2.752,4.075,4.568,7.135,4.757
				c3.06,0.189,5.986-1.279,7.665-3.844l9.967-14.95l9.967,14.95c1.679,2.565,4.605,4.033,7.665,3.844
				c3.06-0.189,5.784-2.005,7.135-4.757s1.122-6.018-0.601-8.554L256,355.817z"/>
		</g>
	</g>
</g>
<g>
</g>
<g>
</g>
<g>
</g>
<g>
</g>
<g>
</g>
<g>
</g>
<g>
</g>
<g>
</g>
<g>
</g>
<g>
</g>
<g>
</g>
<g>
</g>
<g>
</g>
<g>
</g>
<g>
</g>
</svg>
