<svg height="512" viewBox="0 0 60 54" width="512" xmlns="http://www.w3.org/2000/svg"><style>:root{--resa-icon-primary:#428dff;--resa-icon-secondary:#7facfa;--resa-icon-light:#a4c2f7;--resa-icon-bg:#e8edfc;}</style><g id="Page-1" fill="none" fill-rule="evenodd"><g id="049---House" fill-rule="nonzero"><g id="Icons" transform="translate(1 1)"><rect id="Rectangle-path" fill="var(--resa-icon-bg, #e8edfc)" height="4" rx="2" width="58" y="48"/><path id="Shape" d="m56 48h-3c1.1045695 0 2 .8954305 2 2s-.8954305 2-2 2h3c1.1045695 0 2-.8954305 2-2s-.8954305-2-2-2z" fill="var(--resa-icon-bg, #e8edfc)"/><path id="Shape" d="m58 17h-15.28l-13.72-13-13.72 13h-15.28l6.49-15.76c.30819826-.7502085 1.03895194-1.24001096 1.85-1.24h41.32c.8110481-.00001096 1.5418017.4897915 1.85 1.24z" fill="var(--resa-icon-bg, #e8edfc)"/><g fill="var(--resa-icon-bg, #e8edfc)"><path id="Shape" d="m26 4-13.72 13h3l12.22-11.579z"/><path id="Shape" d="m51.51 1.24c-.3081983-.7502085-1.0389519-1.24001096-1.85-1.24h-3c.8110481-.00001096 1.5418017.4897915 1.85 1.24l6.49 15.76h3z"/><path id="Shape" d="m55 17v31h-52v-31h12.28l13.72-13 13.72 13z"/><path id="Shape" d="m48 22.000008-19-18.000008-1.5 1.421 16.92 16.032c.3727949.3526154.8668611.5484518 1.38.547z"/><path id="Rectangle-path" d="m52 17h3v31h-3z"/></g><path id="Shape" d="m15.28 17-5.28 5" fill="var(--resa-icon-bg, #e8edfc)"/><path id="Shape" d="m48 22-5.28-5" fill="var(--resa-icon-bg, #e8edfc)"/><path id="Shape" d="m22 26h14c.5522847 0 1 .4477153 1 1v21h-16v-21c0-.5522847.4477153-1 1-1z" fill="var(--resa-icon-bg, #e8edfc)"/><path id="Shape" d="m36 26h-3c.5522847 0 1 .4477153 1 1v21h3v-21c0-.5522847-.4477153-1-1-1z" fill="var(--resa-icon-bg, #e8edfc)"/><rect id="Rectangle-path" fill="var(--resa-icon-light, #a4c2f7)" height="12" rx="1" width="10" x="7" y="26"/><path id="Shape" d="m16 26h-3c.5522847 0 1 .4477153 1 1v10c0 .5522847-.4477153 1-1 1h3c.5522847 0 1-.4477153 1-1v-10c0-.5522847-.4477153-1-1-1z" fill="var(--resa-icon-secondary, #7facfa)"/><rect id="Rectangle-path" fill="var(--resa-icon-light, #a4c2f7)" height="12" rx="1" width="10" x="41" y="26"/><path id="Shape" d="m50 26h-3c.5522847 0 1 .4477153 1 1v10c0 .5522847-.4477153 1-1 1h3c.5522847 0 1-.4477153 1-1v-10c0-.5522847-.4477153-1-1-1z" fill="var(--resa-icon-secondary, #7facfa)"/></g><g id="Icons_copy_2" fill="#fff" transform="translate(1 1)"><path id="Shape" d="m11.34 0h-3c-.81104806-.00001096-1.54180174.4897915-1.85 1.24l-6.49 15.76h3l6.49-15.76c.30819826-.7502085 1.0389519-1.24001096 1.85-1.24z"/><path id="Shape" d="m3 50c0-1.1045695.8954305-2 2-2h1v-31h-3v31h-1c-1.1045695 0-2 .8954305-2 2s.8954305 2 2 2h3c-1.1045695 0-2-.8954305-2-2z"/></g><g id="Icons_copy"><path id="Rectangle-path" d="m3 41h2v8h-2z" fill="#fff"/><g fill="var(--resa-icon-primary, #428dff)"><path id="Shape" d="m4.02 46c-.55228475.0027614-1.00223858-.4427153-1.005-.995s.44271525-1.0022386.995-1.005h.01c.55228475 0 1 .4477153 1 1s-.44771525 1-1 1z"/><path id="Shape" d="m57 48v-29h2c.3337353.0001418.6455451-.1662138.8312701-.4434961.1857249-.2772824.2208831-.6289406.0937299-.9375039l-6.49-15.762c-.4612501-1.12575882-1.5584164-1.8599706-2.775-1.857h-41.32c-1.21658365-.0029706-2.31374988.73124118-2.775 1.857l-6.49 15.762c-.12715318.3085633-.09199504.6602215.09372992.9375039.18572495.2772823.49753481.4436379.83127008.4434961h2v22c0 .5522847.44771525 1 1 1s1-.4477153 1-1v-22h8.769l-3.456 3.274c-.26627.2440105-.38027532.6126381-.2982491.964366.0820261.351728.3473365.6318957.6940779.7329463.3467414.1010507.7210283.0072804.9791712-.2453123l18.312-17.348 18.313 17.348c.4024691.3688237 1.026356.3467211 1.401716-.0496591.37536-.3963801.363469-1.0205452-.026716-1.4023409l-3.457-3.274h8.769v29h-16v-20c0-1.1045695-.8954305-2-2-2h-14c-1.1045695 0-2 .8954305-2 2v20h-18c-1.65685425 0-3 1.3431458-3 3s1.34314575 3 3 3h54c1.6568542 0 3-1.3431458 3-3s-1.3431458-3-3-3zm-12.88-31-13.432-12.726c-.3856303-.3650875-.9893697-.3650875-1.375 0l-13.433 12.726h-13.387l5.922-14.381c.15441169-.37471189.51971992-.61917221.925-.619h41.32c.4052801-.00017221.7705883.24428811.925.619l5.922 14.381zm-21.12 11h14v11h-1c-.5522847 0-1 .4477153-1 1s.4477153 1 1 1h1v7h-14zm34 24h-54c-.55228475 0-1-.4477153-1-1s.44771525-1 1-1h54c.5522847 0 1 .4477153 1 1s-.4477153 1-1 1z"/><path id="Shape" d="m17 40c1.1045695 0 2-.8954305 2-2v-10c0-1.1045695-.8954305-2-2-2h-8c-1.1045695 0-2 .8954305-2 2v10c0 1.1045695.8954305 2 2 2zm-8-12h8v10h-8z"/><path id="Shape" d="m51 40c1.1045695 0 2-.8954305 2-2v-10c0-1.1045695-.8954305-2-2-2h-8c-1.1045695 0-2 .8954305-2 2v10c0 1.1045695.8954305 2 2 2zm-8-12h8v10h-8z"/></g></g></g></g></svg>