<svg height="512pt" viewBox="0 0 512 512" width="512pt" xmlns="http://www.w3.org/2000/svg"><style>:root{--resa-icon-primary:#428dff;--resa-icon-secondary:#7facfa;--resa-icon-light:#a4c2f7;--resa-icon-bg:#e8edfc;}</style><path d="m409.601562 34.121094v80.8125l-21.335937-5.207032-29.867187-7.339843v-68.265625c0-4.710938 3.820312-8.53125 8.535156-8.53125h34.132812c4.714844 0 8.535156 3.820312 8.535156 8.53125zm0 0" fill="var(--resa-icon-light, #a4c2f7)"/><path d="m388.265625 34.121094v75.605468l-29.867187-7.339843v-68.265625c0-4.710938 3.820312-8.53125 8.535156-8.53125h12.800781c4.710937 0 8.53125 3.820312 8.53125 8.53125zm0 0" fill="#e3e7f2"/><path d="m93.867188 145.054688h324.265624v324.265624h-324.265624zm0 0" fill="var(--resa-icon-light, #a4c2f7)"/><path d="m93.867188 145.054688h298.667968v324.265624h-298.667968zm0 0" fill="#e3e7f2"/><path d="m307.199219 332.789062v136.53125h-102.398438v-136.53125c.027344-9.414062 7.652344-17.039062 17.066407-17.066406h68.265624c9.414063.027344 17.039063 7.652344 17.066407 17.066406zm0 0" fill="var(--resa-icon-light, #a4c2f7)"/><path d="m281.601562 332.789062v136.53125h-76.800781v-136.53125c.027344-9.414062 7.652344-17.039062 17.066407-17.066406h42.667968c9.414063.027344 17.035156 7.652344 17.066406 17.066406zm0 0" fill="#e3e7f2"/><path d="m440.148438 153.589844h-368.296876c-3.804687-.046875-7.128906-2.578125-8.191406-6.230469-1.058594-3.652344.394532-7.566406 3.582032-9.644531l175.957031-114.003906 8.191406-5.289063c2.808594-1.804687 6.410156-1.804687 9.21875 0l184.148437 119.292969c3.1875 2.078125 4.640626 5.992187 3.582032 9.644531-1.0625 3.652344-4.386719 6.183594-8.191406 6.230469zm0 0" fill="var(--resa-icon-light, #a4c2f7)"/><path d="m414.550781 153.589844h-342.699219c-3.804687-.046875-7.128906-2.578125-8.191406-6.230469-1.058594-3.652344.394532-7.566406 3.582032-9.644531l175.957031-114.003906 175.957031 114.003906c3.1875 2.078125 4.644531 5.992187 3.582031 9.644531-1.058593 3.652344-4.386719 6.183594-8.1875 6.230469zm0 0" fill="#e3e7f2"/><path d="m170.667969 247.453125v59.734375c0 4.714844-3.820313 8.535156-8.535157 8.535156h-68.265624v-76.800781h68.265624c1.464844 0 2.90625.382813 4.183594 1.109375 2.460938 1.34375 4.070313 3.855469 4.265625 6.65625.070313.25.097657.507812.085938.765625zm0 0" fill="var(--resa-icon-light, #a4c2f7)"/><path d="m162.132812 426.65625v42.664062h-136.53125v-42.664062c.027344-9.414062 7.652344-17.039062 17.066407-17.066406h102.398437c9.414063.027344 17.039063 7.652344 17.066406 17.066406zm0 0" fill="var(--resa-icon-light, #a4c2f7)"/><path d="m486.398438 426.65625v42.664062h-136.53125v-42.664062c.027343-9.414062 7.652343-17.039062 17.066406-17.066406h102.398437c9.414063.027344 17.039063 7.652344 17.066407 17.066406zm0 0" fill="var(--resa-icon-light, #a4c2f7)"/><path d="m136.535156 426.65625v42.664062h-110.933594v-42.664062c.027344-9.414062 7.652344-17.039062 17.066407-17.066406h76.796875c9.414062.027344 17.039062 7.652344 17.070312 17.066406zm0 0" fill="#e3e7f2"/><path d="m460.800781 426.65625v42.664062h-110.933593v-42.664062c.027343-9.414062 7.652343-17.039062 17.066406-17.066406h76.800781c9.414063.027344 17.039063 7.652344 17.066406 17.066406zm0 0" fill="#e3e7f2"/><path d="m17.066406 460.789062h477.867188c4.710937 0 8.53125 3.820313 8.53125 8.53125v17.066407c0 4.714843-3.820313 8.535156-8.53125 8.535156h-477.867188c-4.710937 0-8.53125-3.820313-8.53125-8.535156v-17.066407c0-4.710937 3.820313-8.53125 8.53125-8.53125zm0 0" fill="var(--resa-icon-light, #a4c2f7)"/><path d="m17.066406 460.789062h452.265625c4.714844 0 8.535157 3.820313 8.535157 8.53125v17.066407c0 4.714843-3.820313 8.535156-8.535157 8.535156h-452.265625c-4.710937 0-8.53125-3.820313-8.53125-8.535156v-17.066407c0-4.710937 3.820313-8.53125 8.53125-8.53125zm0 0" fill="#e3e7f2"/><path d="m418.132812 238.921875v76.800781h-68.265624c-2.265626 0-4.441407-.890625-6.058594-2.476562-1.078125-1.117188-1.84375-2.5-2.21875-4.011719-.167969-.667969-.253906-1.355469-.257813-2.046875v-59.734375c0-4.710937 3.820313-8.53125 8.535157-8.53125zm0 0" fill="var(--resa-icon-light, #a4c2f7)"/><path d="m118.460938 238.921875-24.59375 24.59375v-24.59375zm0 0" fill="#d3dff2"/><path d="m118.476562 238.921875-24.609374 24.609375v-.015625l24.59375-24.59375zm0 0" fill="#d3dff2"/><path d="m118.492188 238.921875-24.625 24.625v-.015625l24.609374-24.609375zm0 0" fill="#d8e1f2"/><path d="m118.503906 238.921875-24.636718 24.636719v-.011719l24.625-24.625zm0 0" fill="#dce3f2"/><path d="m118.519531 238.921875-24.652343 24.652344v-.015625l24.636718-24.636719zm0 0" fill="#e0e5f2"/><path d="m118.535156 238.921875-24.667968 24.667969v-.015625l24.652343-24.652344zm0 0" fill="#e4e7f2"/><path d="m118.546875 238.921875-24.679687 24.679687v-.011718l24.667968-24.667969zm0 0" fill="#e7e8f2"/><path d="m118.5625 238.921875-24.695312 24.695313v-.015626l24.679687-24.679687zm0 0" fill="#eaeaf2"/><path d="m118.570312 238.921875-24.703124 24.703125v-.007812l24.695312-24.695313zm0 0" fill="#edebf2"/><path d="m118.585938 238.921875-24.71875 24.71875v-.015625l24.703124-24.703125zm0 0" fill="#efecf2"/><path d="m118.605469 238.921875-24.738281 24.738281v-.019531l24.71875-24.71875zm0 0" fill="#f1edf2"/><path d="m118.613281 238.921875-24.746093 24.746094v-.007813l24.738281-24.738281zm0 0" fill="#f3eef2"/><path d="m118.628906 238.921875-24.761718 24.761719v-.015625l24.746093-24.746094zm0 0" fill="#f5eef2"/><path d="m118.648438 238.921875-24.78125 24.78125v-.019531l24.761718-24.761719zm0 0" fill="#f6eff2"/><path d="m118.65625 238.921875-24.789062 24.789063v-.007813l24.78125-24.78125zm0 0" fill="#f8f0f2"/><path d="m118.671875 238.921875-24.804687 24.804687v-.015624l24.789062-24.789063zm0 0" fill="#f9f0f2"/><path d="m118.679688 238.921875-24.8125 24.8125v-.007813l24.804687-24.804687zm0 0" fill="#faf1f2"/><path d="m118.699219 238.921875-24.832031 24.832031v-.019531l24.8125-24.8125zm0 0" fill="#fbf1f2"/><path d="m118.714844 238.921875-24.847656 24.847656v-.015625l24.832031-24.832031zm0 0" fill="#fbf1f2"/><path d="m118.722656 238.921875-24.855468 24.855469v-.007813l24.847656-24.847656zm0 0" fill="#fcf2f2"/><path d="m118.742188 238.921875-24.875 24.875v-.019531l24.855468-24.855469zm0 0" fill="#fdf2f2"/><path d="m118.757812 238.921875-24.890624 24.890625v-.015625l24.875-24.875zm0 0" fill="#fdf2f2"/><path d="m118.765625 238.921875-24.898437 24.898437v-.007812l24.890624-24.890625zm0 0" fill="#fdf2f2"/><path d="m118.785156 238.921875-24.917968 24.917969v-.019532l24.898437-24.898437zm0 0" fill="#fef2f2"/><path d="m118.792969 238.921875-24.925781 24.925781v-.007812l24.917968-24.917969zm0 0" fill="#fef3f2"/><path d="m118.808594 238.921875-24.941406 24.941406v-.015625l24.925781-24.925781zm0 0" fill="#fef3f2"/><path d="m118.828125 238.921875-24.960937 24.960937v-.019531l24.941406-24.941406zm0 0" fill="#fef3f2"/><path d="m118.835938 238.921875-24.96875 24.96875v-.007813l24.960937-24.960937zm0 0" fill="#fff3f2"/><path d="m118.851562 238.921875-24.984374 24.984375v-.015625l24.96875-24.96875zm0 0" fill="#fff3f2"/><path d="m118.871094 238.921875-25.003906 25.003906v-.019531l24.984374-24.984375zm0 0" fill="#fff3f2"/><path d="m118.878906 238.921875-25.011718 25.011719v-.007813l25.003906-25.003906zm0 0" fill="#fff3f2"/><path d="m118.894531 238.921875-25.027343 25.027344v-.015625l25.011718-25.011719zm0 0" fill="#fff3f2"/><path d="m118.902344 238.921875-25.035156 25.035156v-.007812l25.027343-25.027344zm0 0" fill="#fff3f2"/><path d="m118.921875 238.921875-25.054687 25.054687v-.019531l25.035156-25.035156zm0 0" fill="#fff3f2"/><path d="m118.9375 238.921875-25.070312 25.070313v-.015626l25.054687-25.054687zm0 0" fill="#fff3f2"/><path d="m118.945312 238.921875-25.078124 25.078125v-.007812l25.070312-25.070313zm0 0" fill="#fff3f2"/><path d="m118.964844 238.921875-25.097656 25.097656v-.019531l25.078124-25.078125zm0 0" fill="#fff3f2"/><path d="m118.972656 238.921875-25.105468 25.105469v-.007813l25.097656-25.097656zm0 0" fill="#fff3f2"/><path d="m118.988281 238.921875-25.121093 25.121094v-.015625l25.105468-25.105469zm0 0" fill="#fff3f2"/><path d="m119.007812 238.921875-25.140624 25.140625v-.019531l25.121093-25.121094zm0 0" fill="#fff3f2"/><path d="m119.015625 238.921875-25.148437 25.148437v-.007812l25.140624-25.140625zm0 0" fill="#fff3f2"/><path d="m119.03125 238.921875-25.164062 25.164063v-.015626l25.148437-25.148437zm0 0" fill="#fff3f2"/><path d="m119.046875 238.921875-25.179687 25.179687v-.015624l25.164062-25.164063zm0 0" fill="#fff3f2"/><path d="m119.058594 238.921875-25.191406 25.191406v-.011719l25.179687-25.179687zm0 0" fill="#fff3f2"/><path d="m119.074219 238.921875-25.207031 25.207031v-.015625l25.191406-25.191406zm0 0" fill="#fff3f2"/><path d="m125.839844 238.921875-31.972656 31.972656v-6.765625l25.207031-25.207031zm0 0" fill="#fff3f2"/><path d="m125.839844 238.921875-31.972656 31.972656zm0 0" fill="#fff3f2"/><path d="m125.839844 238.921875-31.972656 31.972656zm0 0" fill="#fef3f2"/><path d="m125.839844 238.921875-31.972656 31.972656zm0 0" fill="#fdf2f2"/><path d="m125.839844 238.921875-31.972656 31.972656zm0 0" fill="#fcf2f2"/><path d="m125.839844 238.921875-31.972656 31.972656zm0 0" fill="#fbf1f2"/><path d="m125.839844 238.921875-31.972656 31.972656zm0 0" fill="#faf1f2"/><path d="m125.839844 238.921875-31.972656 31.972656zm0 0" fill="#f9f0f2"/><path d="m125.839844 238.921875-31.972656 31.972656zm0 0" fill="#f8f0f2"/><path d="m125.839844 238.921875-31.972656 31.972656zm0 0" fill="#f7eff2"/><path d="m125.839844 238.921875-31.972656 31.972656zm0 0" fill="#f6eff2"/><path d="m125.839844 238.921875-31.972656 31.972656zm0 0" fill="#f5eef2"/><path d="m125.839844 238.921875-31.972656 31.972656zm0 0" fill="#f4eef2"/><path d="m125.839844 238.921875-31.972656 31.972656zm0 0" fill="#f3edf2"/><path d="m125.839844 238.921875-31.972656 31.972656zm0 0" fill="#f2edf2"/><path d="m125.839844 238.921875-31.972656 31.972656zm0 0" fill="#f1ecf2"/><path d="m125.839844 238.921875-31.972656 31.972656zm0 0" fill="#f0ecf2"/><path d="m125.839844 238.921875-31.972656 31.972656zm0 0" fill="#efecf2"/><path d="m125.839844 238.921875-31.972656 31.972656zm0 0" fill="#eeebf2"/><path d="m125.839844 238.921875-31.972656 31.972656zm0 0" fill="#edebf2"/><path d="m125.839844 238.921875-31.972656 31.972656zm0 0" fill="#eceaf2"/><path d="m125.839844 238.921875-31.972656 31.972656zm0 0" fill="#ebeaf2"/><path d="m125.839844 238.921875-31.972656 31.972656zm0 0" fill="#eae9f2"/><path d="m125.839844 238.921875-31.972656 31.972656zm0 0" fill="#e8e9f2"/><path d="m125.839844 238.921875-31.972656 31.972656zm0 0" fill="#e7e8f2"/><path d="m125.839844 238.921875-31.972656 31.972656zm0 0" fill="#e6e8f2"/><path d="m125.839844 238.921875-31.972656 31.972656zm0 0" fill="#e5e7f2"/><path d="m125.839844 238.921875-31.972656 31.972656zm0 0" fill="#e4e7f2"/><path d="m125.839844 238.921875-31.972656 31.972656zm0 0" fill="#e3e6f2"/><path d="m125.839844 238.921875-31.972656 31.972656zm0 0" fill="#e2e6f2"/><path d="m125.839844 238.921875-31.972656 31.972656zm0 0" fill="#e1e6f2"/><path d="m125.839844 238.921875-31.972656 31.972656zm0 0" fill="#e0e5f2"/><path d="m125.839844 238.921875-31.972656 31.972656zm0 0" fill="#dfe5f2"/><path d="m125.839844 238.921875-31.972656 31.972656zm0 0" fill="#dee4f2"/><path d="m125.839844 238.921875-31.972656 31.972656zm0 0" fill="#dde4f2"/><path d="m125.839844 238.921875-31.972656 31.972656zm0 0" fill="#dce3f2"/><path d="m125.839844 238.921875-31.972656 31.972656zm0 0" fill="#dbe3f2"/><path d="m125.839844 238.921875-31.972656 31.972656zm0 0" fill="#dae2f2"/><path d="m125.839844 238.921875-31.972656 31.972656zm0 0" fill="#d9e2f2"/><path d="m125.839844 238.921875-31.972656 31.972656zm0 0" fill="#d8e1f2"/><path d="m125.839844 238.921875-31.972656 31.972656zm0 0" fill="#d7e1f2"/><path d="m125.839844 238.921875-31.972656 31.972656zm0 0" fill="#d6e0f2"/><path d="m125.839844 238.921875-31.972656 31.972656zm0 0" fill="#d5e0f2"/><path d="m125.839844 238.921875-31.972656 31.972656zm0 0" fill="#d4dff2"/><path d="m125.839844 238.921875-31.972656 31.972656zm0 0" fill="#d3dff2"/><path d="m145.066406 239.375-51.199218 51.199219v-19.679688l31.972656-31.972656h19.226562zm0 0" fill="#d3dff2"/><path d="m145.066406 239.390625-51.199218 51.199219v-.015625l51.199218-51.199219zm0 0" fill="#d3dff2"/><path d="m145.066406 239.398438-51.199218 51.199218v-.007812l51.199218-51.199219zm0 0" fill="#d8e1f2"/><path d="m145.066406 239.417969-51.199218 51.199219v-.019532l51.199218-51.199218zm0 0" fill="#dce3f2"/><path d="m145.066406 239.433594-51.199218 51.199218v-.015624l51.199218-51.199219zm0 0" fill="#e0e5f2"/><path d="m145.066406 239.441406-51.199218 51.199219v-.007813l51.199218-51.199218zm0 0" fill="#e4e7f2"/><path d="m145.066406 239.457031-51.199218 51.203125v-.019531l51.199218-51.199219zm0 0" fill="#e7e8f2"/><path d="m145.066406 239.476562-51.199218 51.199219v-.015625l51.199218-51.203125zm0 0" fill="#eaeaf2"/><path d="m145.066406 239.484375-51.199218 51.199219v-.007813l51.199218-51.199219zm0 0" fill="#edebf2"/><path d="m145.066406 239.5-51.199218 51.203125v-.019531l51.199218-51.199219zm0 0" fill="#efecf2"/><path d="m145.066406 239.511719-51.199218 51.199219v-.007813l51.199218-51.203125zm0 0" fill="#f1edf2"/><path d="m145.066406 239.527344-51.199218 51.199218v-.015624l51.199218-51.199219zm0 0" fill="#f3eef2"/><path d="m145.066406 239.542969-51.199218 51.203125v-.019532l51.199218-51.199218zm0 0" fill="#f5eef2"/><path d="m145.066406 239.554688-51.199218 51.199218v-.007812l51.199218-51.203125zm0 0" fill="#f6eff2"/><path d="m145.066406 239.570312-51.199218 51.199219v-.015625l51.199218-51.199218zm0 0" fill="#f8f0f2"/><path d="m145.066406 239.585938-51.199218 51.199218v-.015625l51.199218-51.199219zm0 0" fill="#f9f0f2"/><path d="m145.066406 239.59375-51.199218 51.203125v-.011719l51.199218-51.199218zm0 0" fill="#faf1f2"/><path d="m145.066406 239.613281-51.199218 51.199219v-.015625l51.199218-51.203125zm0 0" fill="#fbf1f2"/><path d="m145.066406 239.621094-51.199218 51.199218v-.007812l51.199218-51.199219zm0 0" fill="#fbf1f2"/><path d="m145.066406 239.636719-51.199218 51.203125v-.019532l51.199218-51.199218zm0 0" fill="#fcf2f2"/><path d="m145.066406 239.65625-51.199218 51.199219v-.015625l51.199218-51.203125zm0 0" fill="#fdf2f2"/><path d="m145.066406 239.664062-51.199218 51.199219v-.007812l51.199218-51.199219zm0 0" fill="#fdf2f2"/><path d="m145.066406 239.679688-51.199218 51.199218v-.015625l51.199218-51.199219zm0 0" fill="#fdf2f2"/><path d="m145.066406 239.699219-51.199218 51.199219v-.019532l51.199218-51.199218zm0 0" fill="#fef2f2"/><path d="m145.066406 239.707031-51.199218 51.199219v-.007812l51.199218-51.199219zm0 0" fill="#fef3f2"/><path d="m145.066406 239.722656-51.199218 51.199219v-.015625l51.199218-51.199219zm0 0" fill="#fef3f2"/><path d="m145.066406 239.730469-51.199218 51.203125v-.011719l51.199218-51.199219zm0 0" fill="#fef3f2"/><path d="m145.066406 239.75-51.199218 51.199219v-.015625l51.199218-51.203125zm0 0" fill="#fff3f2"/><path d="m145.066406 239.765625-51.199218 51.199219v-.015625l51.199218-51.199219zm0 0" fill="#fff3f2"/><path d="m145.066406 239.773438-51.199218 51.203124v-.011718l51.199218-51.199219zm0 0" fill="#fff3f2"/><path d="m145.066406 239.792969-51.199218 51.199219v-.015626l51.199218-51.203124zm0 0" fill="#fff3f2"/><path d="m145.066406 239.808594-51.199218 51.199218v-.015624l51.199218-51.199219zm0 0" fill="#fff3f2"/><path d="m145.066406 239.816406-51.199218 51.199219v-.007813l51.199218-51.199218zm0 0" fill="#fff3f2"/><path d="m145.066406 239.835938-51.199218 51.199218v-.019531l51.199218-51.199219zm0 0" fill="#fff3f2"/><path d="m145.066406 239.84375-51.199218 51.199219v-.007813l51.199218-51.199218zm0 0" fill="#fff3f2"/><path d="m145.066406 239.859375-51.199218 51.199219v-.015625l51.199218-51.199219zm0 0" fill="#fff3f2"/><path d="m145.066406 239.878906-51.199218 51.199219v-.019531l51.199218-51.199219zm0 0" fill="#fff3f2"/><path d="m145.066406 239.886719-51.199218 51.199219v-.007813l51.199218-51.199219zm0 0" fill="#fff3f2"/><path d="m145.066406 239.902344-51.199218 51.199218v-.015624l51.199218-51.199219zm0 0" fill="#fff3f2"/><path d="m145.066406 239.910156-51.199218 51.199219v-.007813l51.199218-51.199218zm0 0" fill="#fff3f2"/><path d="m145.066406 239.929688-51.199218 51.199218v-.019531l51.199218-51.199219zm0 0" fill="#fff3f2"/><path d="m145.066406 239.945312-51.199218 51.199219v-.015625l51.199218-51.199218zm0 0" fill="#fff3f2"/><path d="m145.066406 239.953125-51.199218 51.199219v-.007813l51.199218-51.199219zm0 0" fill="#fff3f2"/><path d="m145.066406 239.972656-51.199218 51.199219v-.019531l51.199218-51.199219zm0 0" fill="#fff3f2"/><path d="m145.066406 239.988281-51.199218 51.199219v-.015625l51.199218-51.199219zm0 0" fill="#fff3f2"/><path d="m145.066406 249.210938-51.199218 51.203124v-9.226562l51.199218-51.199219zm0 0" fill="#fff3f2"/><path d="m145.066406 249.222656-51.199218 51.199219v-.007813l51.199218-51.203124zm0 0" fill="#fff3f2"/><path d="m145.066406 249.222656-51.199218 51.199219zm0 0" fill="#faf1f2"/><path d="m145.066406 249.222656-51.199218 51.199219zm0 0" fill="#f6eff2"/><path d="m145.066406 249.230469-51.199218 51.199219v-.007813l51.199218-51.199219zm0 0" fill="#f2edf2"/><path d="m145.066406 249.230469-51.199218 51.199219zm0 0" fill="#eeebf2"/><path d="m145.066406 249.230469-51.199218 51.199219zm0 0" fill="#ebeaf2"/><path d="m145.066406 249.238281-51.199218 51.199219v-.007812l51.199218-51.199219zm0 0" fill="#e8e8f2"/><path d="m145.066406 249.238281-51.199218 51.199219zm0 0" fill="#e5e7f2"/><path d="m145.066406 249.238281-51.199218 51.199219zm0 0" fill="#e3e6f2"/><path d="m145.066406 249.246094-51.199218 51.199218v-.007812l51.199218-51.199219zm0 0" fill="#e1e5f2"/><path d="m145.066406 249.246094-51.199218 51.199218zm0 0" fill="#dfe4f2"/><path d="m145.066406 249.246094-51.199218 51.199218zm0 0" fill="#dde4f2"/><path d="m145.066406 249.253906-51.199218 51.203125v-.011719l51.199218-51.199218zm0 0" fill="#dce3f2"/><path d="m145.066406 249.253906-51.199218 51.203125zm0 0" fill="#dae2f2"/><path d="m145.066406 249.253906-51.199218 51.203125zm0 0" fill="#d9e2f2"/><path d="m145.066406 249.253906-51.199218 51.203125zm0 0" fill="#d8e1f2"/><path d="m145.066406 249.265625-51.199218 51.199219v-.007813l51.199218-51.203125zm0 0" fill="#d7e1f2"/><path d="m145.066406 249.265625-51.199218 51.199219zm0 0" fill="#d7e1f2"/><path d="m145.066406 249.265625-51.199218 51.199219zm0 0" fill="#d6e0f2"/><path d="m145.066406 249.273438-51.199218 51.199218v-.007812l51.199218-51.199219zm0 0" fill="#d5e0f2"/><path d="m145.066406 249.273438-51.199218 51.199218zm0 0" fill="#d5e0f2"/><path d="m145.066406 249.273438-51.199218 51.199218zm0 0" fill="#d5e0f2"/><path d="m145.066406 249.28125-51.199218 51.199219v-.007813l51.199218-51.199218zm0 0" fill="#d4e0f2"/><path d="m145.066406 249.28125-51.199218 51.199219zm0 0" fill="#d4dff2"/><path d="m145.066406 249.28125-51.199218 51.199219zm0 0" fill="#d4dff2"/><path d="m145.066406 249.289062-51.199218 51.199219v-.007812l51.199218-51.199219zm0 0" fill="#d4dff2"/><g fill="#d3dff2"><path d="m145.066406 249.289062-51.199218 51.199219zm0 0"/><path d="m145.066406 249.289062-51.199218 51.199219zm0 0"/><path d="m145.066406 249.296875-51.199218 51.199219v-.007813l51.199218-51.199219zm0 0"/><path d="m145.066406 249.296875-51.199218 51.199219zm0 0"/><path d="m145.066406 249.296875-51.199218 51.199219zm0 0"/><path d="m145.066406 249.304688-51.199218 51.203124v-.011718l51.199218-51.199219zm0 0"/><path d="m145.066406 249.304688-51.199218 51.203124zm0 0"/><path d="m145.066406 249.304688-51.199218 51.203124zm0 0"/><path d="m145.066406 249.316406-51.199218 51.199219v-.007813l51.199218-51.203124zm0 0"/><path d="m145.066406 249.316406-51.199218 51.199219zm0 0"/><path d="m145.066406 249.316406-51.199218 51.199219zm0 0"/><path d="m145.066406 249.324219-51.199218 51.199219v-.007813l51.199218-51.199219zm0 0"/><path d="m145.066406 249.324219-51.199218 51.199219zm0 0"/><path d="m145.066406 249.324219-51.199218 51.199219zm0 0"/><path d="m145.066406 249.332031-51.199218 51.199219v-.007812l51.199218-51.199219zm0 0"/><path d="m145.066406 249.332031-51.199218 51.199219zm0 0"/><path d="m145.066406 249.332031-51.199218 51.199219zm0 0"/><path d="m145.066406 249.339844-51.199218 51.199218v-.007812l51.199218-51.199219zm0 0"/><path d="m145.066406 278.730469-36.992187 36.992187h-14.207031v-15.183594l51.199218-51.199218zm0 0"/><path d="m145.066406 278.738281-36.984375 36.984375h-.007812l36.992187-36.992187zm0 0"/></g><path d="m145.066406 278.738281-36.984375 36.984375zm0 0" fill="#d4dff2"/><path d="m145.066406 278.738281-36.984375 36.984375zm0 0" fill="#d5e0f2"/><path d="m145.066406 278.746094-36.976562 36.976562h-.007813l36.984375-36.984375zm0 0" fill="#d6e0f2"/><path d="m145.066406 278.746094-36.976562 36.976562zm0 0" fill="#d7e1f2"/><path d="m145.066406 278.746094-36.976562 36.976562zm0 0" fill="#d8e1f2"/><path d="m145.066406 278.753906-36.964844 36.96875h-.011718l36.976562-36.976562zm0 0" fill="#d9e2f2"/><path d="m145.066406 278.753906-36.964844 36.96875zm0 0" fill="#dae2f2"/><path d="m145.066406 278.753906-36.964844 36.96875zm0 0" fill="#dbe3f2"/><path d="m145.066406 278.761719-36.957031 36.960937h-.007813l36.964844-36.96875zm0 0" fill="#dce3f2"/><path d="m145.066406 278.761719-36.957031 36.960937zm0 0" fill="#dde4f2"/><path d="m145.066406 278.761719-36.957031 36.960937zm0 0" fill="#dee4f2"/><path d="m145.066406 278.773438-36.949218 36.949218h-.007813l36.957031-36.960937zm0 0" fill="#dfe5f2"/><path d="m145.066406 278.773438-36.949218 36.949218zm0 0" fill="#e0e5f2"/><path d="m145.066406 278.773438-36.949218 36.949218zm0 0" fill="#e1e6f2"/><path d="m145.066406 278.773438-36.949218 36.949218zm0 0" fill="#e2e6f2"/><path d="m145.066406 278.78125-36.941406 36.941406h-.007812l36.949218-36.949218zm0 0" fill="#e3e6f2"/><path d="m145.066406 278.78125-36.941406 36.941406zm0 0" fill="#e4e7f2"/><path d="m145.066406 278.78125-36.941406 36.941406zm0 0" fill="#e5e7f2"/><path d="m145.066406 278.789062-36.933594 36.933594h-.007812l36.941406-36.941406zm0 0" fill="#e6e8f2"/><path d="m145.066406 278.789062-36.933594 36.933594zm0 0" fill="#e7e8f2"/><path d="m145.066406 278.789062-36.933594 36.933594zm0 0" fill="#e8e9f2"/><path d="m145.066406 278.796875-36.921875 36.925781h-.011719l36.933594-36.933594zm0 0" fill="#eae9f2"/><path d="m145.066406 278.796875-36.921875 36.925781zm0 0" fill="#ebeaf2"/><path d="m145.066406 278.796875-36.921875 36.925781zm0 0" fill="#eceaf2"/><path d="m145.066406 278.804688-36.914062 36.917968h-.007813l36.921875-36.925781zm0 0" fill="#edebf2"/><path d="m145.066406 278.804688-36.914062 36.917968zm0 0" fill="#eeebf2"/><path d="m145.066406 278.804688-36.914062 36.917968zm0 0" fill="#efecf2"/><path d="m145.066406 278.816406-36.90625 36.90625h-.007812l36.914062-36.917968zm0 0" fill="#f0ecf2"/><path d="m145.066406 278.816406-36.90625 36.90625zm0 0" fill="#f1ecf2"/><path d="m145.066406 278.816406-36.90625 36.90625zm0 0" fill="#f2edf2"/><path d="m145.066406 278.824219-36.898437 36.898437h-.007813l36.90625-36.90625zm0 0" fill="#f3edf2"/><path d="m145.066406 278.824219-36.898437 36.898437zm0 0" fill="#f4eef2"/><path d="m145.066406 278.824219-36.898437 36.898437zm0 0" fill="#f5eef2"/><path d="m145.066406 278.832031-36.890625 36.890625h-.007812l36.898437-36.898437zm0 0" fill="#f6eff2"/><path d="m145.066406 278.832031-36.890625 36.890625zm0 0" fill="#f7eff2"/><path d="m145.066406 278.832031-36.890625 36.890625zm0 0" fill="#f8f0f2"/><path d="m145.066406 278.839844-36.878906 36.882812h-.011719l36.890625-36.890625zm0 0" fill="#f9f0f2"/><path d="m145.066406 278.839844-36.878906 36.882812zm0 0" fill="#faf1f2"/><path d="m145.066406 278.839844-36.878906 36.882812zm0 0" fill="#fbf1f2"/><path d="m145.066406 278.847656-36.871094 36.875h-.007812l36.878906-36.882812zm0 0" fill="#fcf2f2"/><path d="m145.066406 278.847656-36.871094 36.875zm0 0" fill="#fdf2f2"/><path d="m145.066406 278.847656-36.871094 36.875zm0 0" fill="#fef3f2"/><path d="m145.066406 278.855469-36.863281 36.867187h-.007813l36.871094-36.875zm0 0" fill="#fff3f2"/><path d="m145.066406 292.261719-23.457031 23.460937h-13.40625l36.863281-36.867187zm0 0" fill="#fff3f2"/><path d="m145.066406 292.261719-23.457031 23.460937zm0 0" fill="#fff3f2"/><path d="m145.066406 292.261719-23.457031 23.460937zm0 0" fill="#fef3f2"/><path d="m145.066406 292.273438-23.449218 23.449218h-.007813l23.457031-23.460937zm0 0" fill="#fdf2f2"/><path d="m145.066406 292.273438-23.449218 23.449218zm0 0" fill="#fcf2f2"/><path d="m145.066406 292.273438-23.449218 23.449218zm0 0" fill="#fbf1f2"/><path d="m145.066406 292.28125-23.441406 23.441406h-.007812l23.449218-23.449218zm0 0" fill="#faf1f2"/><path d="m145.066406 292.28125-23.441406 23.441406zm0 0" fill="#f9f0f2"/><path d="m145.066406 292.28125-23.441406 23.441406zm0 0" fill="#f8f0f2"/><path d="m145.066406 292.289062-23.433594 23.433594h-.007812l23.441406-23.441406zm0 0" fill="#f7eff2"/><path d="m145.066406 292.289062-23.433594 23.433594zm0 0" fill="#f6eff2"/><path d="m145.066406 292.289062-23.433594 23.433594zm0 0" fill="#f5eef2"/><path d="m145.066406 292.296875-23.421875 23.425781h-.011719l23.433594-23.433594zm0 0" fill="#f4eef2"/><path d="m145.066406 292.296875-23.421875 23.425781zm0 0" fill="#f3edf2"/><path d="m145.066406 292.296875-23.421875 23.425781zm0 0" fill="#f2edf2"/><path d="m145.066406 292.304688-23.414062 23.417968h-.007813l23.421875-23.425781zm0 0" fill="#f1ecf2"/><path d="m145.066406 292.304688-23.414062 23.417968zm0 0" fill="#f0ecf2"/><path d="m145.066406 292.304688-23.414062 23.417968zm0 0" fill="#efecf2"/><path d="m145.066406 292.3125-23.40625 23.410156h-.007812l23.414062-23.417968zm0 0" fill="#eeebf2"/><path d="m145.066406 292.3125-23.40625 23.410156zm0 0" fill="#edebf2"/><path d="m145.066406 292.3125-23.40625 23.410156zm0 0" fill="#eceaf2"/><path d="m145.066406 292.3125-23.40625 23.410156zm0 0" fill="#ebeaf2"/><path d="m145.066406 292.324219-23.398437 23.398437h-.007813l23.40625-23.410156zm0 0" fill="#eae9f2"/><path d="m145.066406 292.324219-23.398437 23.398437zm0 0" fill="#e8e9f2"/><path d="m145.066406 292.324219-23.398437 23.398437zm0 0" fill="#e7e8f2"/><path d="m145.066406 292.332031-23.390625 23.390625h-.007812l23.398437-23.398437zm0 0" fill="#e6e8f2"/><path d="m145.066406 292.332031-23.390625 23.390625zm0 0" fill="#e5e7f2"/><path d="m145.066406 292.332031-23.390625 23.390625zm0 0" fill="#e4e7f2"/><path d="m145.066406 292.339844-23.382812 23.382812h-.007813l23.390625-23.390625zm0 0" fill="#e3e6f2"/><path d="m145.066406 292.339844-23.382812 23.382812zm0 0" fill="#e2e6f2"/><path d="m145.066406 292.339844-23.382812 23.382812zm0 0" fill="#e1e6f2"/><path d="m145.066406 292.347656-23.371094 23.375h-.011718l23.382812-23.382812zm0 0" fill="#e0e5f2"/><path d="m145.066406 292.347656-23.371094 23.375zm0 0" fill="#dfe5f2"/><path d="m145.066406 292.347656-23.371094 23.375zm0 0" fill="#dee4f2"/><path d="m145.066406 292.355469-23.363281 23.367187h-.007813l23.371094-23.375zm0 0" fill="#dde4f2"/><path d="m145.066406 292.355469-23.363281 23.367187zm0 0" fill="#dce3f2"/><path d="m145.066406 292.355469-23.363281 23.367187zm0 0" fill="#dbe3f2"/><path d="m145.066406 292.367188-23.355468 23.355468h-.007813l23.363281-23.367187zm0 0" fill="#dae2f2"/><path d="m145.066406 292.367188-23.355468 23.355468zm0 0" fill="#d9e2f2"/><path d="m145.066406 292.367188-23.355468 23.355468zm0 0" fill="#d8e1f2"/><path d="m145.066406 292.375-23.347656 23.347656h-.007812l23.355468-23.355468zm0 0" fill="#d7e1f2"/><path d="m145.066406 292.375-23.347656 23.347656zm0 0" fill="#d6e0f2"/><path d="m145.066406 292.375-23.347656 23.347656zm0 0" fill="#d5e0f2"/><path d="m145.066406 292.382812-23.339844 23.339844h-.007812l23.347656-23.347656zm0 0" fill="#d4dff2"/><path d="m145.066406 292.382812-23.339844 23.339844zm0 0" fill="#d3dff2"/><path d="m121.726562 315.722656 23.339844-23.339844v23.339844zm0 0" fill="#d3dff2"/><path d="m346.351562 238.921875-5.019531 5.015625v-5.015625zm0 0" fill="#d3dff2"/><path d="m370.945312 238.921875-29.613281 29.609375v-24.59375l5.019531-5.015625zm0 0" fill="#d3dff2"/><path d="m370.960938 238.921875-29.628907 29.628906v-.019531l29.613281-29.609375zm0 0" fill="#d3dff2"/><path d="m370.96875 238.921875-29.636719 29.636719v-.007813l29.628907-29.628906zm0 0" fill="#d8e1f2"/><path d="m370.988281 238.921875-29.65625 29.652344v-.015625l29.636719-29.636719zm0 0" fill="#dce3f2"/><path d="m370.996094 238.921875-29.664063 29.660156v-.007812l29.65625-29.652344zm0 0" fill="#e0e5f2"/><path d="m371.011719 238.921875-29.679688 29.679687v-.019531l29.664063-29.660156zm0 0" fill="#e4e7f2"/><path d="m371.03125 238.921875-29.699219 29.695313v-.015626l29.679688-29.679687zm0 0" fill="#e7e8f2"/><path d="m371.039062 238.921875-29.707031 29.703125v-.007812l29.699219-29.695313zm0 0" fill="#eaeaf2"/><path d="m371.054688 238.921875-29.722657 29.722656v-.019531l29.707031-29.703125zm0 0" fill="#edebf2"/><path d="m371.070312 238.921875-29.738281 29.738281v-.015625l29.722657-29.722656zm0 0" fill="#efecf2"/><path d="m371.082031 238.921875-29.75 29.746094v-.007813l29.738281-29.738281zm0 0" fill="#f1edf2"/><path d="m371.097656 238.921875-29.765625 29.765625v-.019531l29.75-29.746094zm0 0" fill="#f3eef2"/><path d="m371.105469 238.921875-29.773438 29.773437v-.007812l29.765625-29.765625zm0 0" fill="#f5eef2"/><path d="m371.125 238.921875-29.792969 29.789063v-.015626l29.773438-29.773437zm0 0" fill="#f6eff2"/><path d="m371.140625 238.921875-29.808594 29.804687v-.015624l29.792969-29.789063zm0 0" fill="#f8f0f2"/><path d="m371.148438 238.921875-29.816407 29.816406v-.011719l29.808594-29.804687zm0 0" fill="#f9f0f2"/><path d="m371.164062 238.921875-29.832031 29.832031v-.015625l29.816407-29.816406zm0 0" fill="#faf1f2"/><path d="m371.183594 238.921875-29.851563 29.847656v-.015625l29.832031-29.832031zm0 0" fill="#fbf1f2"/><path d="m371.191406 238.921875-29.859375 29.859375v-.011719l29.851563-29.847656zm0 0" fill="#fbf1f2"/><path d="m371.207031 238.921875-29.875 29.875v-.015625l29.859375-29.859375zm0 0" fill="#fcf2f2"/><path d="m371.21875 238.921875-29.886719 29.882813v-.007813l29.875-29.875zm0 0" fill="#fdf2f2"/><path d="m371.234375 238.921875-29.902344 29.898437v-.015624l29.886719-29.882813zm0 0" fill="#fdf2f2"/><path d="m371.25 238.921875-29.917969 29.917969v-.019532l29.902344-29.898437zm0 0" fill="#fdf2f2"/><path d="m371.257812 238.921875-29.925781 29.925781v-.007812l29.917969-29.917969zm0 0" fill="#fef2f2"/><path d="m371.277344 238.921875-29.945313 29.941406v-.015625l29.925781-29.925781zm0 0" fill="#fef3f2"/><path d="m371.292969 238.921875-29.960938 29.960937v-.019531l29.945313-29.941406zm0 0" fill="#fef3f2"/><path d="m371.300781 238.921875-29.96875 29.96875v-.007813l29.960938-29.960937zm0 0" fill="#fef3f2"/><path d="m371.320312 238.921875-29.988281 29.984375v-.015625l29.96875-29.96875zm0 0" fill="#fff3f2"/><path d="m371.328125 238.921875-29.996094 29.996094v-.011719l29.988281-29.984375zm0 0" fill="#fff3f2"/><path d="m371.34375 238.921875-30.011719 30.011719v-.015625l29.996094-29.996094zm0 0" fill="#fff3f2"/><path d="m371.363281 238.921875-30.03125 30.027344v-.015625l30.011719-30.011719zm0 0" fill="#fff3f2"/><path d="m371.371094 238.921875-30.039063 30.035156v-.007812l30.03125-30.027344zm0 0" fill="#fff3f2"/><path d="m371.386719 238.921875-30.054688 30.054687v-.019531l30.039063-30.035156zm0 0" fill="#fff3f2"/><path d="m371.40625 238.921875-30.074219 30.070313v-.015626l30.054688-30.054687zm0 0" fill="#fff3f2"/><path d="m371.414062 238.921875-30.082031 30.078125v-.007812l30.074219-30.070313zm0 0" fill="#fff3f2"/><path d="m371.429688 238.921875-30.097657 30.097656v-.019531l30.082031-30.078125zm0 0" fill="#fff3f2"/><path d="m371.4375 238.921875-30.105469 30.105469v-.007813l30.097657-30.097656zm0 0" fill="#fff3f2"/><path d="m371.457031 238.921875-30.125 30.121094v-.015625l30.105469-30.105469zm0 0" fill="#fff3f2"/><path d="m371.472656 238.921875-30.140625 30.140625v-.019531l30.125-30.121094zm0 0" fill="#fff3f2"/><path d="m371.480469 238.921875-30.148438 30.148437v-.007812l30.140625-30.140625zm0 0" fill="#fff3f2"/><path d="m371.5 238.921875-30.167969 30.164063v-.015626l30.148438-30.148437zm0 0" fill="#fff3f2"/><path d="m371.507812 238.921875-30.175781 30.171875v-.007812l30.167969-30.164063zm0 0" fill="#fff3f2"/><path d="m371.523438 238.921875-30.191407 30.191406v-.019531l30.175781-30.171875zm0 0" fill="#fff3f2"/><path d="m371.542969 238.921875-30.210938 30.207031v-.015625l30.191407-30.191406zm0 0" fill="#fff3f2"/><path d="m371.550781 238.921875-30.21875 30.214844v-.007813l30.210938-30.207031zm0 0" fill="#fff3f2"/><path d="m378.324219 238.921875-36.992188 36.992187v-6.777343l30.21875-30.214844zm0 0" fill="#fff3f2"/><path d="m378.324219 238.921875-36.992188 36.992187zm0 0" fill="#fff3f2"/><path d="m378.324219 238.921875-36.992188 36.992187zm0 0" fill="#fef3f2"/><path d="m378.324219 238.921875-36.992188 36.992187zm0 0" fill="#fdf2f2"/><path d="m378.324219 238.921875-36.992188 36.992187zm0 0" fill="#fcf2f2"/><path d="m378.324219 238.921875-36.992188 36.992187zm0 0" fill="#fbf1f2"/><path d="m378.324219 238.921875-36.992188 36.992187zm0 0" fill="#faf1f2"/><path d="m378.324219 238.921875-36.992188 36.992187zm0 0" fill="#f9f0f2"/><path d="m378.324219 238.921875-36.992188 36.992187zm0 0" fill="#f8f0f2"/><path d="m378.324219 238.921875-36.992188 36.992187zm0 0" fill="#f7eff2"/><path d="m378.324219 238.921875-36.992188 36.992187zm0 0" fill="#f6eff2"/><path d="m378.324219 238.921875-36.992188 36.992187zm0 0" fill="#f5eef2"/><path d="m378.324219 238.921875-36.992188 36.992187zm0 0" fill="#f4eef2"/><path d="m378.324219 238.921875-36.992188 36.992187zm0 0" fill="#f3edf2"/><path d="m378.324219 238.921875-36.992188 36.992187zm0 0" fill="#f2edf2"/><path d="m378.324219 238.921875-36.992188 36.992187zm0 0" fill="#f1ecf2"/><path d="m378.324219 238.921875-36.992188 36.992187zm0 0" fill="#f0ecf2"/><path d="m378.324219 238.921875-36.992188 36.992187zm0 0" fill="#efecf2"/><path d="m378.324219 238.921875-36.992188 36.992187zm0 0" fill="#eeebf2"/><path d="m378.324219 238.921875-36.992188 36.992187zm0 0" fill="#edebf2"/><path d="m378.324219 238.921875-36.992188 36.992187zm0 0" fill="#eceaf2"/><path d="m378.324219 238.921875-36.992188 36.992187zm0 0" fill="#ebeaf2"/><path d="m378.324219 238.921875-36.992188 36.992187zm0 0" fill="#eae9f2"/><path d="m378.324219 238.921875-36.992188 36.992187zm0 0" fill="#e8e9f2"/><path d="m378.324219 238.921875-36.992188 36.992187zm0 0" fill="#e7e8f2"/><path d="m378.324219 238.921875-36.992188 36.992187zm0 0" fill="#e6e8f2"/><path d="m378.324219 238.921875-36.992188 36.992187zm0 0" fill="#e5e7f2"/><path d="m378.324219 238.921875-36.992188 36.992187zm0 0" fill="#e4e7f2"/><path d="m378.324219 238.921875-36.992188 36.992187zm0 0" fill="#e3e6f2"/><path d="m378.324219 238.921875-36.992188 36.992187zm0 0" fill="#e2e6f2"/><path d="m378.324219 238.921875-36.992188 36.992187zm0 0" fill="#e1e6f2"/><path d="m378.324219 238.921875-36.992188 36.992187zm0 0" fill="#e0e5f2"/><path d="m378.324219 238.921875-36.992188 36.992187zm0 0" fill="#dfe5f2"/><path d="m378.324219 238.921875-36.992188 36.992187zm0 0" fill="#dee4f2"/><path d="m378.324219 238.921875-36.992188 36.992187zm0 0" fill="#dde4f2"/><path d="m378.324219 238.921875-36.992188 36.992187zm0 0" fill="#dce3f2"/><path d="m378.324219 238.921875-36.992188 36.992187zm0 0" fill="#dbe3f2"/><path d="m378.324219 238.921875-36.992188 36.992187zm0 0" fill="#dae2f2"/><path d="m378.324219 238.921875-36.992188 36.992187zm0 0" fill="#d9e2f2"/><path d="m378.324219 238.921875-36.992188 36.992187zm0 0" fill="#d8e1f2"/><path d="m378.324219 238.921875-36.992188 36.992187zm0 0" fill="#d7e1f2"/><path d="m378.324219 238.921875-36.992188 36.992187zm0 0" fill="#d6e0f2"/><path d="m378.324219 238.921875-36.992188 36.992187zm0 0" fill="#d5e0f2"/><path d="m378.324219 238.921875-36.992188 36.992187zm0 0" fill="#d4dff2"/><path d="m378.324219 238.921875-36.992188 36.992187zm0 0" fill="#d3dff2"/><path d="m392.535156 244.390625-51.203125 51.199219v-19.675782l36.992188-36.992187h14.210937zm0 0" fill="#d3dff2"/><path d="m392.535156 244.398438-51.203125 51.203124v-.011718l51.203125-51.199219zm0 0" fill="#d3dff2"/><path d="m392.535156 244.417969-51.203125 51.199219v-.015626l51.203125-51.203124zm0 0" fill="#d8e1f2"/><path d="m392.535156 244.433594-51.203125 51.199218v-.015624l51.203125-51.199219zm0 0" fill="#dce3f2"/><path d="m392.535156 244.441406-51.203125 51.199219v-.007813l51.203125-51.199218zm0 0" fill="#e0e5f2"/><path d="m392.535156 244.460938-51.203125 51.199218v-.019531l51.203125-51.199219zm0 0" fill="#e4e7f2"/><path d="m392.535156 244.46875-51.203125 51.199219v-.007813l51.203125-51.199218zm0 0" fill="#e7e8f2"/><path d="m392.535156 244.484375-51.203125 51.199219v-.015625l51.203125-51.199219zm0 0" fill="#eaeaf2"/><path d="m392.535156 244.503906-51.203125 51.199219v-.019531l51.203125-51.199219zm0 0" fill="#edebf2"/><path d="m392.535156 244.511719-51.203125 51.199219v-.007813l51.203125-51.199219zm0 0" fill="#efecf2"/><path d="m392.535156 244.527344-51.203125 51.199218v-.015624l51.203125-51.199219zm0 0" fill="#f1edf2"/><path d="m392.535156 244.542969-51.203125 51.203125v-.019532l51.203125-51.199218zm0 0" fill="#f3eef2"/><path d="m392.535156 244.554688-51.203125 51.199218v-.007812l51.203125-51.203125zm0 0" fill="#f5eef2"/><path d="m392.535156 244.570312-51.203125 51.199219v-.015625l51.203125-51.199218zm0 0" fill="#f6eff2"/><path d="m392.535156 244.578125-51.203125 51.199219v-.007813l51.203125-51.199219zm0 0" fill="#f8f0f2"/><path d="m392.535156 244.597656-51.203125 51.199219v-.019531l51.203125-51.199219zm0 0" fill="#f9f0f2"/><path d="m392.535156 244.613281-51.203125 51.199219v-.015625l51.203125-51.199219zm0 0" fill="#faf1f2"/><path d="m392.535156 244.621094-51.203125 51.199218v-.007812l51.203125-51.199219zm0 0" fill="#fbf1f2"/><path d="m392.535156 244.640625-51.203125 51.199219v-.019532l51.203125-51.199218zm0 0" fill="#fbf1f2"/><path d="m392.535156 244.65625-51.203125 51.199219v-.015625l51.203125-51.199219zm0 0" fill="#fcf2f2"/><path d="m392.535156 244.664062-51.203125 51.199219v-.007812l51.203125-51.199219zm0 0" fill="#fdf2f2"/><path d="m392.535156 244.679688-51.203125 51.203124v-.019531l51.203125-51.199219zm0 0" fill="#fdf2f2"/><path d="m392.535156 244.691406-51.203125 51.199219v-.007813l51.203125-51.203124zm0 0" fill="#fdf2f2"/><path d="m392.535156 244.707031-51.203125 51.199219v-.015625l51.203125-51.199219zm0 0" fill="#fef2f2"/><path d="m392.535156 244.722656-51.203125 51.203125v-.019531l51.203125-51.199219zm0 0" fill="#fef3f2"/><path d="m392.535156 244.734375-51.203125 51.199219v-.007813l51.203125-51.203125zm0 0" fill="#fef3f2"/><path d="m392.535156 244.75-51.203125 51.199219v-.015625l51.203125-51.199219zm0 0" fill="#fef3f2"/><path d="m392.535156 244.765625-51.203125 51.199219v-.015625l51.203125-51.199219zm0 0" fill="#fff3f2"/><path d="m392.535156 244.773438-51.203125 51.203124v-.011718l51.203125-51.199219zm0 0" fill="#fff3f2"/><path d="m392.535156 244.792969-51.203125 51.199219v-.015626l51.203125-51.203124zm0 0" fill="#fff3f2"/><path d="m392.535156 244.800781-51.203125 51.199219v-.007812l51.203125-51.199219zm0 0" fill="#fff3f2"/><path d="m392.535156 244.816406-51.203125 51.203125v-.019531l51.203125-51.199219zm0 0" fill="#fff3f2"/><path d="m392.535156 244.835938-51.203125 51.199218v-.015625l51.203125-51.203125zm0 0" fill="#fff3f2"/><path d="m392.535156 244.84375-51.203125 51.199219v-.007813l51.203125-51.199218zm0 0" fill="#fff3f2"/><path d="m392.535156 244.859375-51.203125 51.203125v-.019531l51.203125-51.199219zm0 0" fill="#fff3f2"/><path d="m392.535156 244.878906-51.203125 51.199219v-.015625l51.203125-51.203125zm0 0" fill="#fff3f2"/><path d="m392.535156 244.886719-51.203125 51.199219v-.007813l51.203125-51.199219zm0 0" fill="#fff3f2"/><path d="m392.535156 244.902344-51.203125 51.199218v-.015624l51.203125-51.199219zm0 0" fill="#fff3f2"/><path d="m392.535156 244.910156-51.203125 51.203125v-.011719l51.203125-51.199218zm0 0" fill="#fff3f2"/><path d="m392.535156 244.929688-51.203125 51.199218v-.015625l51.203125-51.203125zm0 0" fill="#fff3f2"/><path d="m392.535156 244.945312-51.203125 51.199219v-.015625l51.203125-51.199218zm0 0" fill="#fff3f2"/><path d="m392.535156 244.953125-51.203125 51.203125v-.011719l51.203125-51.199219zm0 0" fill="#fff3f2"/><path d="m392.535156 244.972656-51.203125 51.199219v-.015625l51.203125-51.203125zm0 0" fill="#fff3f2"/><path d="m392.535156 244.980469-51.203125 51.199219v-.007813l51.203125-51.199219zm0 0" fill="#fff3f2"/><path d="m392.535156 244.996094-51.203125 51.199218v-.015624l51.203125-51.199219zm0 0" fill="#fff3f2"/><path d="m392.535156 254.230469-51.203125 51.199219v-9.234376l51.203125-51.199218zm0 0" fill="#fff3f2"/><path d="m392.535156 254.230469-51.203125 51.199219zm0 0" fill="#fff3f2"/><path d="m392.535156 254.230469-51.203125 51.199219zm0 0" fill="#faf1f2"/><path d="m392.535156 254.238281-51.203125 51.199219v-.007812l51.203125-51.199219zm0 0" fill="#f6eff2"/><path d="m392.535156 254.238281-51.203125 51.199219zm0 0" fill="#f2edf2"/><path d="m392.535156 254.238281-51.203125 51.199219zm0 0" fill="#eeebf2"/><path d="m392.535156 254.246094-51.203125 51.199218v-.007812l51.203125-51.199219zm0 0" fill="#ebeaf2"/><path d="m392.535156 254.246094-51.203125 51.199218zm0 0" fill="#e8e8f2"/><path d="m392.535156 254.246094-51.203125 51.199218zm0 0" fill="#e5e7f2"/><path d="m392.535156 254.253906-51.203125 51.203125v-.011719l51.203125-51.199218zm0 0" fill="#e3e6f2"/><path d="m392.535156 254.253906-51.203125 51.203125zm0 0" fill="#e1e5f2"/><path d="m392.535156 254.253906-51.203125 51.203125zm0 0" fill="#dfe4f2"/><path d="m392.535156 254.265625-51.203125 51.199219v-.007813l51.203125-51.203125zm0 0" fill="#dde4f2"/><path d="m392.535156 254.265625-51.203125 51.199219zm0 0" fill="#dce3f2"/><path d="m392.535156 254.265625-51.203125 51.199219zm0 0" fill="#dae2f2"/><path d="m392.535156 254.273438-51.203125 51.199218v-.007812l51.203125-51.199219zm0 0" fill="#d9e2f2"/><path d="m392.535156 254.273438-51.203125 51.199218zm0 0" fill="#d8e1f2"/><path d="m392.535156 254.273438-51.203125 51.199218zm0 0" fill="#d7e1f2"/><path d="m392.535156 254.28125-51.203125 51.199219v-.007813l51.203125-51.199218zm0 0" fill="#d7e1f2"/><path d="m392.535156 254.28125-51.203125 51.199219zm0 0" fill="#d6e0f2"/><path d="m392.535156 254.28125-51.203125 51.199219zm0 0" fill="#d5e0f2"/><path d="m392.535156 254.289062-51.203125 51.199219v-.007812l51.203125-51.199219zm0 0" fill="#d5e0f2"/><path d="m392.535156 254.289062-51.203125 51.199219zm0 0" fill="#d5e0f2"/><path d="m392.535156 254.289062-51.203125 51.199219zm0 0" fill="#d4e0f2"/><path d="m392.535156 254.296875-51.203125 51.203125v-.011719l51.203125-51.199219zm0 0" fill="#d4dff2"/><path d="m392.535156 254.296875-51.203125 51.203125zm0 0" fill="#d4dff2"/><path d="m392.535156 254.296875-51.203125 51.203125zm0 0" fill="#d4dff2"/><path d="m392.535156 254.308594-51.203125 51.199218v-.007812l51.203125-51.203125zm0 0" fill="#d3dff2"/><path d="m392.535156 254.308594-51.203125 51.199218zm0 0" fill="#d3dff2"/><path d="m392.535156 254.308594-51.203125 51.199218zm0 0" fill="#d3dff2"/><path d="m392.535156 254.316406-51.203125 51.199219v-.007813l51.203125-51.199218zm0 0" fill="#d3dff2"/><path d="m392.535156 254.316406-51.203125 51.199219zm0 0" fill="#d3dff2"/><path d="m392.535156 254.316406-51.203125 51.199219zm0 0" fill="#d3dff2"/><path d="m392.535156 254.324219-51.203125 51.199219v-.007813l51.203125-51.199219zm0 0" fill="#d3dff2"/><path d="m392.535156 254.324219-51.203125 51.199219zm0 0" fill="#d3dff2"/><path d="m392.535156 254.324219-51.203125 51.199219zm0 0" fill="#d3dff2"/><path d="m392.535156 254.332031-51.203125 51.199219v-.007812l51.203125-51.199219zm0 0" fill="#d3dff2"/><path d="m392.535156 254.332031-51.203125 51.199219zm0 0" fill="#d3dff2"/><path d="m392.535156 254.332031-51.203125 51.199219zm0 0" fill="#d3dff2"/><path d="m392.535156 254.339844-51.203125 51.203125v-.011719l51.203125-51.199219zm0 0" fill="#d3dff2"/><path d="m392.535156 254.339844-51.203125 51.203125zm0 0" fill="#d3dff2"/><path d="m392.535156 254.339844-51.203125 51.203125zm0 0" fill="#d3dff2"/><path d="m392.535156 254.351562-51.203125 51.199219v-.007812l51.203125-51.203125zm0 0" fill="#d3dff2"/><path d="m392.535156 254.351562-51.203125 51.199219zm0 0" fill="#d3dff2"/><path d="m392.535156 254.351562-51.203125 51.199219zm0 0" fill="#d3dff2"/><path d="m392.535156 283.746094-31.976562 31.976562h-19.226563v-10.171875l51.203125-51.199219zm0 0" fill="#d3dff2"/><path d="m392.535156 283.746094-31.976562 31.976562zm0 0" fill="#d3dff2"/><path d="m392.535156 283.746094-31.976562 31.976562zm0 0" fill="#d4dff2"/><path d="m392.535156 283.753906-31.96875 31.96875h-.007812l31.976562-31.976562zm0 0" fill="#d5e0f2"/><path d="m392.535156 283.753906-31.96875 31.96875zm0 0" fill="#d6e0f2"/><path d="m392.535156 283.753906-31.96875 31.96875zm0 0" fill="#d7e1f2"/><path d="m392.535156 283.765625-31.960937 31.957031h-.007813l31.96875-31.96875zm0 0" fill="#d8e1f2"/><path d="m392.535156 283.765625-31.960937 31.957031zm0 0" fill="#d9e2f2"/><path d="m392.535156 283.765625-31.960937 31.957031zm0 0" fill="#dae2f2"/><path d="m392.535156 283.773438-31.949218 31.949218h-.011719l31.960937-31.957031zm0 0" fill="#dbe3f2"/><path d="m392.535156 283.773438-31.949218 31.949218zm0 0" fill="#dce3f2"/><path d="m392.535156 283.773438-31.949218 31.949218zm0 0" fill="#dde4f2"/><path d="m392.535156 283.78125-31.941406 31.941406h-.007812l31.949218-31.949218zm0 0" fill="#dee4f2"/><path d="m392.535156 283.78125-31.941406 31.941406zm0 0" fill="#dfe5f2"/><path d="m392.535156 283.78125-31.941406 31.941406zm0 0" fill="#e0e5f2"/><path d="m392.535156 283.789062-31.933594 31.933594h-.007812l31.941406-31.941406zm0 0" fill="#e1e6f2"/><path d="m392.535156 283.789062-31.933594 31.933594zm0 0" fill="#e2e6f2"/><path d="m392.535156 283.789062-31.933594 31.933594zm0 0" fill="#e3e6f2"/><path d="m392.535156 283.796875-31.925781 31.925781h-.007813l31.933594-31.933594zm0 0" fill="#e4e7f2"/><path d="m392.535156 283.796875-31.925781 31.925781zm0 0" fill="#e5e7f2"/><path d="m392.535156 283.796875-31.925781 31.925781zm0 0" fill="#e6e8f2"/><path d="m392.535156 283.808594-31.917968 31.914062h-.007813l31.925781-31.925781zm0 0" fill="#e7e8f2"/><path d="m392.535156 283.808594-31.917968 31.914062zm0 0" fill="#e8e9f2"/><path d="m392.535156 283.808594-31.917968 31.914062zm0 0" fill="#eae9f2"/><path d="m392.535156 283.816406-31.90625 31.90625h-.011718l31.917968-31.914062zm0 0" fill="#ebeaf2"/><path d="m392.535156 283.816406-31.90625 31.90625zm0 0" fill="#eceaf2"/><path d="m392.535156 283.816406-31.90625 31.90625zm0 0" fill="#edebf2"/><path d="m392.535156 283.824219-31.898437 31.898437h-.007813l31.90625-31.90625zm0 0" fill="#eeebf2"/><path d="m392.535156 283.824219-31.898437 31.898437zm0 0" fill="#efecf2"/><path d="m392.535156 283.824219-31.898437 31.898437zm0 0" fill="#f0ecf2"/><path d="m392.535156 283.832031-31.890625 31.890625h-.007812l31.898437-31.898437zm0 0" fill="#f1ecf2"/><path d="m392.535156 283.832031-31.890625 31.890625zm0 0" fill="#f2edf2"/><path d="m392.535156 283.832031-31.890625 31.890625zm0 0" fill="#f3edf2"/><path d="m392.535156 283.839844-31.882812 31.882812h-.007813l31.890625-31.890625zm0 0" fill="#f4eef2"/><path d="m392.535156 283.839844-31.882812 31.882812zm0 0" fill="#f5eef2"/><path d="m392.535156 283.839844-31.882812 31.882812zm0 0" fill="#f6eff2"/><path d="m392.535156 283.847656-31.875 31.875h-.007812l31.882812-31.882812zm0 0" fill="#f7eff2"/><path d="m392.535156 283.847656-31.875 31.875zm0 0" fill="#f8f0f2"/><path d="m392.535156 283.847656-31.875 31.875zm0 0" fill="#f9f0f2"/><path d="m392.535156 283.859375-31.867187 31.863281h-.007813l31.875-31.875zm0 0" fill="#faf1f2"/><path d="m392.535156 283.859375-31.867187 31.863281zm0 0" fill="#fbf1f2"/><path d="m392.535156 283.859375-31.867187 31.863281zm0 0" fill="#fcf2f2"/><path d="m392.535156 283.867188-31.855468 31.855468h-.011719l31.867187-31.863281zm0 0" fill="#fdf2f2"/><path d="m392.535156 283.867188-31.855468 31.855468zm0 0" fill="#fef3f2"/><path d="m392.535156 283.867188-31.855468 31.855468zm0 0" fill="#fff3f2"/><path d="m392.535156 297.273438-18.449218 18.449218h-13.40625l31.855468-31.855468zm0 0" fill="#fff3f2"/><path d="m392.535156 297.273438-18.449218 18.449218zm0 0" fill="#fff3f2"/><path d="m392.535156 297.28125-18.441406 18.441406h-.007812l18.449218-18.449218zm0 0" fill="#fef3f2"/><path d="m392.535156 297.28125-18.441406 18.441406zm0 0" fill="#fdf2f2"/><path d="m392.535156 297.28125-18.441406 18.441406zm0 0" fill="#fcf2f2"/><path d="m392.535156 297.289062-18.433594 18.433594h-.007812l18.441406-18.441406zm0 0" fill="#fbf1f2"/><path d="m392.535156 297.289062-18.433594 18.433594zm0 0" fill="#faf1f2"/><path d="m392.535156 297.289062-18.433594 18.433594zm0 0" fill="#f9f0f2"/><path d="m392.535156 297.296875-18.425781 18.425781h-.007813l18.433594-18.433594zm0 0" fill="#f8f0f2"/><path d="m392.535156 297.296875-18.425781 18.425781zm0 0" fill="#f7eff2"/><path d="m392.535156 297.296875-18.425781 18.425781zm0 0" fill="#f6eff2"/><path d="m392.535156 297.304688-18.417968 18.417968h-.007813l18.425781-18.425781zm0 0" fill="#f5eef2"/><path d="m392.535156 297.304688-18.417968 18.417968zm0 0" fill="#f4eef2"/><path d="m392.535156 297.304688-18.417968 18.417968zm0 0" fill="#f3edf2"/><path d="m392.535156 297.316406-18.410156 18.40625h-.007812l18.417968-18.417968zm0 0" fill="#f2edf2"/><path d="m392.535156 297.316406-18.410156 18.40625zm0 0" fill="#f1ecf2"/><path d="m392.535156 297.316406-18.410156 18.40625zm0 0" fill="#f0ecf2"/><path d="m392.535156 297.324219-18.398437 18.398437h-.011719l18.410156-18.40625zm0 0" fill="#efecf2"/><path d="m392.535156 297.324219-18.398437 18.398437zm0 0" fill="#eeebf2"/><path d="m392.535156 297.324219-18.398437 18.398437zm0 0" fill="#edebf2"/><path d="m392.535156 297.332031-18.390625 18.390625h-.007812l18.398437-18.398437zm0 0" fill="#eceaf2"/><path d="m392.535156 297.332031-18.390625 18.390625zm0 0" fill="#ebeaf2"/><path d="m392.535156 297.332031-18.390625 18.390625zm0 0" fill="#eae9f2"/><path d="m392.535156 297.339844-18.382812 18.382812h-.007813l18.390625-18.390625zm0 0" fill="#e8e9f2"/><path d="m392.535156 297.339844-18.382812 18.382812zm0 0" fill="#e7e8f2"/><path d="m392.535156 297.339844-18.382812 18.382812zm0 0" fill="#e6e8f2"/><path d="m392.535156 297.347656-18.375 18.375h-.007812l18.382812-18.382812zm0 0" fill="#e5e7f2"/><path d="m392.535156 297.347656-18.375 18.375zm0 0" fill="#e4e7f2"/><path d="m392.535156 297.347656-18.375 18.375zm0 0" fill="#e3e6f2"/><path d="m392.535156 297.359375-18.367187 18.363281h-.007813l18.375-18.375zm0 0" fill="#e2e6f2"/><path d="m392.535156 297.359375-18.367187 18.363281zm0 0" fill="#e1e6f2"/><path d="m392.535156 297.359375-18.367187 18.363281zm0 0" fill="#e0e5f2"/><path d="m392.535156 297.367188-18.355468 18.355468h-.011719l18.367187-18.363281zm0 0" fill="#dfe5f2"/><path d="m392.535156 297.367188-18.355468 18.355468zm0 0" fill="#dee4f2"/><path d="m392.535156 297.367188-18.355468 18.355468zm0 0" fill="#dde4f2"/><path d="m392.535156 297.375-18.347656 18.347656h-.007812l18.355468-18.355468zm0 0" fill="#dce3f2"/><path d="m392.535156 297.375-18.347656 18.347656zm0 0" fill="#dbe3f2"/><path d="m392.535156 297.375-18.347656 18.347656zm0 0" fill="#dae2f2"/><path d="m392.535156 297.382812-18.339844 18.339844h-.007812l18.347656-18.347656zm0 0" fill="#d9e2f2"/><path d="m392.535156 297.382812-18.339844 18.339844zm0 0" fill="#d8e1f2"/><path d="m392.535156 297.382812-18.339844 18.339844zm0 0" fill="#d7e1f2"/><path d="m392.535156 297.390625-18.332031 18.332031h-.007813l18.339844-18.339844zm0 0" fill="#d6e0f2"/><path d="m392.535156 297.390625-18.332031 18.332031zm0 0" fill="#d5e0f2"/><path d="m392.535156 297.390625-18.332031 18.332031zm0 0" fill="#d4dff2"/><path d="m392.535156 297.398438-18.324218 18.324218h-.007813l18.332031-18.332031zm0 0" fill="#d3dff2"/><path d="m374.210938 315.722656 18.324218-18.324218v18.324218zm0 0" fill="#d3dff2"/><path d="m93.867188 315.722656v93.867188h25.597656v-256h-22.015625c-3.800781-.046875-7.128907-2.578125-8.1875-6.230469-1.0625-3.652344.394531-7.566406 3.582031-9.644531l175.957031-113.996094-8.191406-5.296875c-2.808594-1.804687-6.410156-1.804687-9.21875 0l-8.191406 5.289063-175.957031 114.003906c-3.1875 2.078125-4.640626 5.992187-3.582032 9.644531 1.0625 3.652344 4.386719 6.183594 8.191406 6.230469h22.015626zm0 0" fill="#fff"/><path d="m17.066406 494.921875h25.601563c-4.714844 0-8.535157-3.820313-8.535157-8.535156v-17.066407c0-4.710937 3.820313-8.53125 8.535157-8.53125h8.53125v-34.132812c.027343-9.414062 7.652343-17.039062 17.066406-17.066406h-25.597656c-9.414063.027344-17.039063 7.652344-17.066407 17.066406v34.132812h-8.535156c-4.710937 0-8.53125 3.820313-8.53125 8.53125v17.066407c0 4.714843 3.820313 8.535156 8.53125 8.535156zm0 0" fill="#fff"/><path d="m418.132812 477.855469h-324.265624c-4.714844 0-8.535157-3.820313-8.535157-8.535157v-324.265624c0-4.710938 3.820313-8.535157 8.535157-8.535157h324.265624c4.714844 0 8.535157 3.824219 8.535157 8.535157v324.265624c0 4.714844-3.820313 8.535157-8.535157 8.535157zm-315.734374-17.066407h307.203124v-307.199218h-307.203124zm0 0" fill="var(--resa-icon-primary, #428dff)"/><path d="m494.933594 511.988281h-477.867188c-9.425781 0-17.066406-7.640625-17.066406-17.066406v-17.066406c0-9.425781 7.640625-17.066407 17.066406-17.066407h477.867188c9.425781 0 17.066406 7.640626 17.066406 17.066407v17.066406c0 9.425781-7.640625 17.066406-17.066406 17.066406zm-477.867188-34.132812v17.066406h477.867188v-17.066406zm0 0" fill="var(--resa-icon-primary, #428dff)"/><path d="m162.132812 477.855469h-136.53125c-4.714843 0-8.535156-3.820313-8.535156-8.535157v-42.664062c0-14.140625 11.460938-25.601562 25.601563-25.601562h102.398437c14.140625 0 25.601563 11.460937 25.601563 25.601562v42.664062c0 2.265626-.898438 4.433594-2.5 6.035157-1.601563 1.601562-3.769531 2.5-6.035157 2.5zm-128-17.066407h119.46875v-34.132812c0-4.714844-3.820312-8.535156-8.535156-8.535156h-102.398437c-4.714844 0-8.535157 3.820312-8.535157 8.535156zm0 0" fill="var(--resa-icon-primary, #428dff)"/><path d="m59.734375 477.855469c-4.714844 0-8.535156-3.820313-8.535156-8.535157v-59.730468c0-4.714844 3.820312-8.535156 8.535156-8.535156 4.710937 0 8.53125 3.820312 8.53125 8.535156v59.730468c0 4.714844-3.820313 8.535157-8.53125 8.535157zm0 0" fill="var(--resa-icon-primary, #428dff)"/><path d="m128 477.855469c-4.710938 0-8.535156-3.820313-8.535156-8.535157v-59.730468c0-4.714844 3.824218-8.535156 8.535156-8.535156s8.535156 3.820312 8.535156 8.535156v59.730468c0 4.714844-3.824218 8.535157-8.535156 8.535157zm0 0" fill="var(--resa-icon-primary, #428dff)"/><path d="m486.398438 477.855469h-136.53125c-4.714844 0-8.535157-3.820313-8.535157-8.535157v-42.664062c0-14.140625 11.460938-25.601562 25.601563-25.601562h102.398437c14.140625 0 25.601563 11.460937 25.601563 25.601562v42.664062c0 2.265626-.898438 4.433594-2.5 6.035157-1.601563 1.601562-3.769532 2.5-6.035156 2.5zm-128-17.066407h119.46875v-34.132812c0-4.714844-3.820313-8.535156-8.535157-8.535156h-102.398437c-4.714844 0-8.535156 3.820312-8.535156 8.535156zm0 0" fill="var(--resa-icon-primary, #428dff)"/><path d="m384 477.855469c-4.710938 0-8.535156-3.820313-8.535156-8.535157v-59.730468c0-4.714844 3.824218-8.535156 8.535156-8.535156s8.535156 3.820312 8.535156 8.535156v59.730468c0 4.714844-3.824218 8.535157-8.535156 8.535157zm0 0" fill="var(--resa-icon-primary, #428dff)"/><path d="m452.265625 477.855469c-4.710937 0-8.53125-3.820313-8.53125-8.535157v-59.730468c0-4.714844 3.820313-8.535156 8.53125-8.535156 4.714844 0 8.535156 3.820312 8.535156 8.535156v59.730468c0 4.714844-3.820312 8.535157-8.535156 8.535157zm0 0" fill="var(--resa-icon-primary, #428dff)"/><path d="m307.199219 477.855469h-102.398438c-4.714843 0-8.535156-3.820313-8.535156-8.535157v-136.53125c0-14.140624 11.460937-25.601562 25.601563-25.601562h68.265624c14.140626 0 25.601563 11.460938 25.601563 25.601562v136.53125c0 4.714844-3.820313 8.535157-8.535156 8.535157zm-93.867188-17.066407h85.335938v-128c0-4.714843-3.820313-8.535156-8.535157-8.535156h-68.265624c-4.714844 0-8.535157 3.820313-8.535157 8.535156zm0 0" fill="var(--resa-icon-primary, #428dff)"/><path d="m162.132812 324.253906h-68.265624c-4.714844 0-8.535157-3.820312-8.535157-8.53125v-76.800781c0-4.714844 3.820313-8.535156 8.535157-8.535156h68.265624c9.425782 0 17.066407 7.640625 17.066407 17.066406v59.734375c0 9.425781-7.640625 17.066406-17.066407 17.066406zm-59.734374-17.066406h59.734374v-59.734375h-59.734374zm0 0" fill="var(--resa-icon-primary, #428dff)"/><path d="m418.132812 324.253906h-68.265624c-9.425782 0-17.066407-7.640625-17.066407-17.066406v-59.734375c0-9.425781 7.640625-17.066406 17.066407-17.066406h68.265624c4.714844 0 8.535157 3.820312 8.535157 8.535156v76.800781c0 4.710938-3.820313 8.53125-8.535157 8.53125zm-68.265624-76.800781v59.734375h59.734374v-59.734375zm0 0" fill="var(--resa-icon-primary, #428dff)"/><path d="m273.066406 401.054688c-3.464844.019531-6.601562-2.058594-7.929687-5.261719-1.332031-3.199219-.589844-6.890625 1.871093-9.332031l1.28125-1.023438c.472657-.320312.992188-.582031 1.535157-.765625.484375-.246094 1-.421875 1.535156-.511719 3.1875-.648437 6.464844.570313 8.453125 3.144532 1.988281 2.574218 2.339844 6.054687.90625 8.976562-1.433594 2.917969-4.398438 4.769531-7.652344 4.773438zm0 0" fill="var(--resa-icon-primary, #428dff)"/><path d="m187.734375 213.320312h-93.867187c-4.714844 0-8.535157-3.820312-8.535157-8.53125 0-4.714843 3.820313-8.535156 8.535157-8.535156h93.867187c4.710937 0 8.53125 3.820313 8.53125 8.535156 0 4.710938-3.820313 8.53125-8.53125 8.53125zm0 0" fill="var(--resa-icon-primary, #428dff)"/><path d="m418.132812 213.320312h-93.867187c-4.710937 0-8.53125-3.820312-8.53125-8.53125 0-4.714843 3.820313-8.535156 8.53125-8.535156h93.867187c4.714844 0 8.535157 3.820313 8.535157 8.535156 0 4.710938-3.820313 8.53125-8.535157 8.53125zm0 0" fill="var(--resa-icon-primary, #428dff)"/><path d="m256.042969 17.046875-93.117188 60.296875-91.058593 58.964844-9.273438-14.320313 91.058594-58.964843 93.105468-60.304688zm0 0" fill="#fff"/><path d="m215.585938 33.070312c1.226562 1.90625 3.15625 3.246094 5.371093 3.726563 2.210938.480469 4.527344.0625 6.429688-1.164063l28.65625-18.578124-9.285157-14.335938-28.644531 18.550781c-1.902343 1.230469-3.234375 3.164063-3.707031 5.378907-.476562 2.210937-.050781 4.523437 1.179688 6.421874zm0 0" fill="var(--resa-icon-primary, #428dff)"/><path d="m62.59375 122.015625 9.273438 14.316406 98.21875-63.597656c3.957031-2.5625 5.085937-7.84375 2.527343-11.800781-2.5625-3.957032-7.847656-5.085938-11.800781-2.527344zm0 0" fill="var(--resa-icon-primary, #428dff)"/><path d="m198.742188 54.148438c1.875-1.253907 3.210937-3.171876 3.738281-5.367188l.160156-1.628906c.015625-.574219-.046875-1.148438-.1875-1.707032-.054687-.542968-.195313-1.070312-.410156-1.570312-.222657-.523438-.484375-1.03125-.785157-1.519531-1.25-1.878907-3.167968-3.21875-5.367187-3.746094-4.601563-.847656-9.0625 2.042969-10.171875 6.589844-.207031 1.101562-.207031 2.234375 0 3.335937.195312 1.097656.601562 2.152344 1.195312 3.097656 1.207032 1.921876 3.140626 3.277344 5.363282 3.761719 2.21875.480469 4.539062.046875 6.4375-1.203125zm0 0" fill="var(--resa-icon-primary, #428dff)"/><path d="m440.175781 153.589844h-368.351562c-7.570313-.074219-14.203125-5.09375-16.328125-12.363282-2.125-7.269531.757812-15.070312 7.097656-19.210937 3.953125-2.5625 9.238281-1.429687 11.800781 2.523437 2.558594 3.957032 1.429688 9.242188-2.527343 11.804688l368.308593.175781-184.175781-119.464843c-2.5625 1.777343-5.890625 2.019531-8.679688.625-2.789062-1.394532-4.597656-4.199219-4.714843-7.3125-.117188-3.117188 1.476562-6.050782 4.152343-7.648438 5.628907-3.625 12.855469-3.625 18.484376 0l184.164062 119.296875c6.339844 4.140625 9.222656 11.941406 7.097656 19.210937-2.125 7.269532-8.757812 12.289063-16.328125 12.363282zm0 0" fill="var(--resa-icon-primary, #428dff)"/><path d="m409.601562 114.933594c-4.714843 0-8.535156-3.820313-8.535156-8.535156v-80.808594h-34.132812v47.613281c0 4.714844-3.820313 8.535156-8.535156 8.535156-4.710938 0-8.53125-3.820312-8.53125-8.535156v-47.613281c0-9.425782 7.640624-17.070313 17.066406-17.070313h34.132812c9.425782 0 17.066406 7.644531 17.066406 17.070313v80.808594c0 4.714843-3.820312 8.535156-8.53125 8.535156zm0 0" fill="var(--resa-icon-primary, #428dff)"/></svg>