<svg height="512pt" viewBox="0 0 512 512" width="512pt" xmlns="http://www.w3.org/2000/svg"><style>:root{--resa-icon-primary:#428dff;--resa-icon-secondary:#7facfa;--resa-icon-light:#a4c2f7;--resa-icon-bg:#e8edfc;}</style><path d="m477.867188 422.398438v44.800781h-206.667969v-44.800781zm0 0" fill="var(--resa-icon-light, #a4c2f7)"/><path d="m478.71875 112.726562-1.363281 194.472657-.171875 20.90625-24.917969-.167969h-.679687l-184.75-1.367188.171874-19.371093.683594-105.300781c-5.242187-.253907-10.023437-3.058594-12.800781-7.507813l-58.28125-83.542969-.171875-.171875zm0 0" fill="var(--resa-icon-bg, #e3e7f2)"/><path d="m155.390625 130.132812-57.511719 66.988282c-3.105468 3.726562-7.695312 5.894531-12.546875 5.921875v273.398437h-51.199219v-346.308594zm0 0" fill="var(--resa-icon-bg, #e3e7f2)"/><path d="m260.949219 307.199219h216.917969v119.46875h-216.917969zm0 0" fill="var(--resa-icon-bg, #e3e7f2)"/><path d="m453.121094 112.726562-1.367188 194.472657-.167968 20.738281v.167969l-190.636719-1.363281-19.710938-.171876.167969-19.371093h25.601562l.683594-105.300781c-5.242187-.253907-10.023437-3.058594-12.800781-7.507813l-58.28125-83.542969zm0 0" fill="var(--resa-icon-bg, #e3e7f2)"/><path d="m452.265625 307.199219v119.46875h-191.316406v-99.925781l-19.710938-.171876.167969-19.371093zm0 0" fill="var(--resa-icon-bg, #e3e7f2)"/><path d="m494.59375 145.066406h-477.1875c-3.277344.101563-6.320312-1.6875-7.832031-4.601562-1.511719-2.910156-1.21875-6.429688.75-9.050782l92.757812-119.46875c1.726563-2.144531 4.328125-3.398437 7.082031-3.410156h291.671876c2.753906.011719 5.355468 1.265625 7.082031 3.410156l92.757812 119.46875c1.96875 2.621094 2.261719 6.140626.75 9.050782-1.511719 2.914062-4.554687 4.703125-7.832031 4.601562zm0 0" fill="var(--resa-icon-secondary, #7facfa)"/><path d="m464.726562 145.066406h-447.320312c-3.277344.101563-6.320312-1.6875-7.832031-4.601562-1.511719-2.910156-1.21875-6.429688.75-9.050782l92.757812-119.46875c1.726563-2.144531 4.328125-3.398437 7.082031-3.410156h261.804688c2.753906.011719 5.355469 1.265625 7.082031 3.410156l92.757813 119.46875c1.96875 2.621094 2.261718 6.140626.75 9.050782-1.511719 2.914062-4.554688 4.703125-7.832032 4.601562zm0 0" fill="var(--resa-icon-light, #a4c2f7)"/><path d="m418.132812 187.734375v34.132813c-.074218 4.765624-3.980468 8.574218-8.746093 8.53125h-34.988281v-51.199219h34.988281c4.765625-.042969 8.671875 3.769531 8.746093 8.535156zm0 0" fill="var(--resa-icon-bg, #e3e7f2)"/><path d="m418.132812 349.867188v34.132812c-.09375 4.785156-4.03125 8.59375-8.8125 8.535156h-35.277343v-51.203125h35.277343c4.78125-.0625 8.71875 3.75 8.8125 8.535157zm0 0" fill="var(--resa-icon-bg, #e3e7f2)"/><path d="m273.066406 213.332031v256h-187.734375v-256c4.777344.007813 9.335938-2.007812 12.546875-5.546875l60.328125-98.644531 20.824219-.511719 20.050781-.511718 61.441407 99.667968c3.210937 3.539063 7.765624 5.554688 12.542968 5.546875zm0 0" fill="var(--resa-icon-light, #a4c2f7)"/><path d="m247.464844 204.800781v256h-162.132813v-247.46875c4.777344.007813 9.335938-2.007812 12.546875-5.546875l60.328125-98.644531 20.824219-.511719 59.902344 77.5c3.328125 3.667969 3.925781 18.671875 8.53125 18.671875zm0 0" fill="var(--resa-icon-bg, #e3e7f2)"/><path d="m176.359375 230.398438h62.574219v68.269531h-62.574219zm0 0" fill="#d3dff2"/><path d="m201.496094 230.398438-25.136719 25.140624zm0 0" fill="#d3dff2"/><path d="m201.515625 230.398438-25.15625 25.15625v-.015626l25.136719-25.140624zm0 0" fill="#d3dff2"/><path d="m201.523438 230.398438-25.164063 25.175781v-.019531l25.15625-25.15625zm0 0" fill="#d8e1f2"/><path d="m201.539062 230.398438-25.179687 25.183593v-.007812l25.164063-25.175781zm0 0" fill="#dce3f2"/><path d="m201.558594 230.398438-25.199219 25.199218v-.015625l25.179687-25.183593zm0 0" fill="#e0e5f2"/><path d="m201.566406 230.398438-25.207031 25.21875v-.019532l25.199219-25.199218zm0 0" fill="#e4e7f2"/><path d="m201.582031 230.398438-25.222656 25.226562v-.007812l25.207031-25.21875zm0 0" fill="#e7e8f2"/><path d="m201.601562 230.398438-25.242187 25.242187v-.015625l25.222656-25.226562zm0 0" fill="#eaeaf2"/><path d="m201.609375 230.398438-25.25 25.261718v-.019531l25.242187-25.242187zm0 0" fill="#edebf2"/><path d="m201.625 230.398438-25.265625 25.269531v-.007813l25.25-25.261718zm0 0" fill="#efecf2"/><path d="m201.644531 230.398438-25.285156 25.285156v-.015625l25.265625-25.269531zm0 0" fill="#f1edf2"/><path d="m201.652344 230.398438-25.292969 25.304687v-.019531l25.285156-25.285156zm0 0" fill="#f3eef2"/><path d="m201.667969 230.398438-25.308594 25.3125v-.007813l25.292969-25.304687zm0 0" fill="#f5eef2"/><path d="m201.683594 230.398438-25.324219 25.328124v-.015624l25.308594-25.3125zm0 0" fill="#f6eff2"/><path d="m201.695312 230.398438-25.335937 25.34375v-.015626l25.324219-25.328124zm0 0" fill="#f8f0f2"/><path d="m201.710938 230.398438-25.351563 25.355468v-.011718l25.335937-25.34375zm0 0" fill="#f9f0f2"/><path d="m201.726562 230.398438-25.367187 25.371093v-.015625l25.351563-25.355468zm0 0" fill="#faf1f2"/><path d="m201.738281 230.398438-25.378906 25.386718v-.015625l25.367187-25.371093zm0 0" fill="#fbf1f2"/><path d="m201.753906 230.398438-25.394531 25.398437v-.011719l25.378906-25.386718zm0 0" fill="#fbf1f2"/><path d="m201.769531 230.398438-25.410156 25.414062v-.015625l25.394531-25.398437zm0 0" fill="#fcf2f2"/><path d="m201.777344 230.398438-25.417969 25.429687v-.015625l25.410156-25.414062zm0 0" fill="#fdf2f2"/><path d="m201.796875 230.398438-25.4375 25.4375v-.007813l25.417969-25.429687zm0 0" fill="#fdf2f2"/><path d="m201.8125 230.398438-25.453125 25.457031v-.019531l25.4375-25.4375zm0 0" fill="#fdf2f2"/><path d="m201.820312 230.398438-25.460937 25.472656v-.015625l25.453125-25.457031zm0 0" fill="#fef2f2"/><path d="m201.839844 230.398438-25.480469 25.480468v-.007812l25.460937-25.472656zm0 0" fill="#fef3f2"/><path d="m201.855469 230.398438-25.496094 25.5v-.019532l25.480469-25.480468zm0 0" fill="#fef3f2"/><path d="m201.863281 230.398438-25.503906 25.515624v-.015624l25.496094-25.5zm0 0" fill="#fef3f2"/><path d="m201.882812 230.398438-25.523437 25.523437v-.007813l25.503906-25.515624zm0 0" fill="#fff3f2"/><path d="m201.898438 230.398438-25.539063 25.542968v-.019531l25.523437-25.523437zm0 0" fill="#fff3f2"/><path d="m201.90625 230.398438-25.546875 25.558593v-.015625l25.539063-25.542968zm0 0" fill="#fff3f2"/><path d="m201.925781 230.398438-25.566406 25.566406v-.007813l25.546875-25.558593zm0 0" fill="#fff3f2"/><path d="m201.933594 230.398438-25.574219 25.585937v-.019531l25.566406-25.566406zm0 0" fill="#fff3f2"/><path d="m201.949219 230.398438-25.589844 25.59375v-.007813l25.574219-25.585937zm0 0" fill="#fff3f2"/><path d="m201.96875 230.398438-25.609375 25.609374v-.015624l25.589844-25.59375zm0 0" fill="#fff3f2"/><path d="m201.976562 230.398438-25.617187 25.628906v-.019532l25.609375-25.609374zm0 0" fill="#fff3f2"/><path d="m201.992188 230.398438-25.632813 25.636718v-.007812l25.617187-25.628906zm0 0" fill="#fff3f2"/><path d="m202.007812 230.398438-25.648437 25.652343v-.015625l25.632813-25.636718zm0 0" fill="#fff3f2"/><path d="m202.019531 230.398438-25.660156 25.667968v-.015625l25.648437-25.652343zm0 0" fill="#fff3f2"/><path d="m202.035156 230.398438-25.675781 25.679687v-.011719l25.660156-25.667968zm0 0" fill="#fff3f2"/><path d="m202.050781 230.398438-25.691406 25.695312v-.015625l25.675781-25.679687zm0 0" fill="#fff3f2"/><path d="m202.0625 230.398438-25.703125 25.710937v-.015625l25.691406-25.695312zm0 0" fill="#fff3f2"/><path d="m202.078125 230.398438-25.71875 25.722656v-.011719l25.703125-25.710937zm0 0" fill="#fff3f2"/><path d="m202.09375 230.398438-25.734375 25.738281v-.015625l25.71875-25.722656zm0 0" fill="#fff3f2"/><path d="m202.101562 230.398438-25.742187 25.753906v-.015625l25.734375-25.738281zm0 0" fill="#fff3f2"/><path d="m202.121094 230.398438-25.761719 25.765624v-.011718l25.742187-25.753906zm0 0" fill="#fff3f2"/><path d="m209.042969 230.398438-32.683594 32.683593v-6.917969l25.761719-25.765624zm0 0" fill="#fff3f2"/><path d="m209.042969 230.398438-32.683594 32.683593zm0 0" fill="#fff3f2"/><path d="m209.042969 230.398438-32.683594 32.683593zm0 0" fill="#fef3f2"/><path d="m209.042969 230.398438-32.683594 32.683593zm0 0" fill="#fdf2f2"/><path d="m209.042969 230.398438-32.683594 32.683593zm0 0" fill="#fcf2f2"/><path d="m209.042969 230.398438-32.683594 32.683593zm0 0" fill="#fbf1f2"/><path d="m209.042969 230.398438-32.683594 32.683593zm0 0" fill="#faf1f2"/><path d="m209.042969 230.398438-32.683594 32.683593zm0 0" fill="#f9f0f2"/><path d="m209.042969 230.398438-32.683594 32.683593zm0 0" fill="#f8f0f2"/><path d="m209.042969 230.398438-32.683594 32.683593zm0 0" fill="#f7eff2"/><path d="m209.042969 230.398438-32.683594 32.683593zm0 0" fill="#f6eff2"/><path d="m209.042969 230.398438-32.683594 32.683593zm0 0" fill="#f5eef2"/><path d="m209.042969 230.398438-32.683594 32.683593zm0 0" fill="#f4eef2"/><path d="m209.042969 230.398438-32.683594 32.683593zm0 0" fill="#f3edf2"/><path d="m209.042969 230.398438-32.683594 32.683593zm0 0" fill="#f2edf2"/><path d="m209.042969 230.398438-32.683594 32.683593zm0 0" fill="#f1ecf2"/><path d="m209.042969 230.398438-32.683594 32.683593zm0 0" fill="#f0ecf2"/><path d="m209.042969 230.398438-32.683594 32.683593zm0 0" fill="#efecf2"/><path d="m209.042969 230.398438-32.683594 32.683593zm0 0" fill="#eeebf2"/><path d="m209.042969 230.398438-32.683594 32.683593zm0 0" fill="#edebf2"/><path d="m209.042969 230.398438-32.683594 32.683593zm0 0" fill="#eceaf2"/><path d="m209.042969 230.398438-32.683594 32.683593zm0 0" fill="#ebeaf2"/><path d="m209.042969 230.398438-32.683594 32.683593zm0 0" fill="#eae9f2"/><path d="m209.042969 230.398438-32.683594 32.683593zm0 0" fill="#e8e9f2"/><path d="m209.042969 230.398438-32.683594 32.683593zm0 0" fill="#e7e8f2"/><path d="m209.042969 230.398438-32.683594 32.683593zm0 0" fill="#e6e8f2"/><path d="m209.042969 230.398438-32.683594 32.683593zm0 0" fill="#e5e7f2"/><path d="m209.042969 230.398438-32.683594 32.683593zm0 0" fill="#e4e7f2"/><path d="m209.042969 230.398438-32.683594 32.683593zm0 0" fill="#e3e6f2"/><path d="m209.042969 230.398438-32.683594 32.683593zm0 0" fill="#e2e6f2"/><path d="m209.042969 230.398438-32.683594 32.683593zm0 0" fill="#e1e6f2"/><path d="m209.042969 230.398438-32.683594 32.683593zm0 0" fill="#e0e5f2"/><path d="m209.042969 230.398438-32.683594 32.683593zm0 0" fill="#dfe5f2"/><path d="m209.042969 230.398438-32.683594 32.683593zm0 0" fill="#dee4f2"/><path d="m209.042969 230.398438-32.683594 32.683593zm0 0" fill="#dde4f2"/><path d="m209.042969 230.398438-32.683594 32.683593zm0 0" fill="#dce3f2"/><path d="m209.042969 230.398438-32.683594 32.683593zm0 0" fill="#dbe3f2"/><path d="m209.042969 230.398438-32.683594 32.683593zm0 0" fill="#dae2f2"/><path d="m209.042969 230.398438-32.683594 32.683593zm0 0" fill="#d9e2f2"/><path d="m209.042969 230.398438-32.683594 32.683593zm0 0" fill="#d8e1f2"/><path d="m209.042969 230.398438-32.683594 32.683593zm0 0" fill="#d7e1f2"/><path d="m209.042969 230.398438-32.683594 32.683593zm0 0" fill="#d6e0f2"/><path d="m209.042969 230.398438-32.683594 32.683593zm0 0" fill="#d5e0f2"/><path d="m209.042969 230.398438-32.683594 32.683593zm0 0" fill="#d4dff2"/><path d="m209.042969 230.398438-32.683594 32.683593zm0 0" fill="#d3dff2"/><path d="m229.152344 230.398438-52.792969 52.804687v-20.121094l32.683594-32.683593zm0 0" fill="#d3dff2"/><path d="m229.171875 230.398438-52.8125 52.8125v-.007813l52.792969-52.804687zm0 0" fill="#d3dff2"/><path d="m229.1875 230.398438-52.828125 52.832031v-.019531l52.8125-52.8125zm0 0" fill="#d8e1f2"/><path d="m229.195312 230.398438-52.835937 52.847656v-.015625l52.828125-52.832031zm0 0" fill="#dce3f2"/><path d="m229.214844 230.398438-52.855469 52.855468v-.007812l52.835937-52.847656zm0 0" fill="#e0e5f2"/><path d="m229.222656 230.398438-52.863281 52.875v-.019532l52.855469-52.855468zm0 0" fill="#e4e7f2"/><path d="m229.238281 230.398438-52.878906 52.882812v-.007812l52.863281-52.875zm0 0" fill="#e7e8f2"/><path d="m229.257812 230.398438-52.898437 52.898437v-.015625l52.878906-52.882812zm0 0" fill="#eaeaf2"/><path d="m229.265625 230.398438-52.90625 52.917968v-.019531l52.898437-52.898437zm0 0" fill="#edebf2"/><path d="m229.28125 230.398438-52.921875 52.925781v-.007813l52.90625-52.917968zm0 0" fill="#efecf2"/><path d="m229.300781 230.398438-52.941406 52.941406v-.015625l52.921875-52.925781zm0 0" fill="#f1edf2"/><path d="m229.308594 230.398438-52.949219 52.960937v-.019531l52.941406-52.941406zm0 0" fill="#f3eef2"/><path d="m229.324219 230.398438-52.964844 52.96875v-.007813l52.949219-52.960937zm0 0" fill="#f5eef2"/><path d="m229.34375 230.398438-52.984375 52.984374v-.015624l52.964844-52.96875zm0 0" fill="#f6eff2"/><path d="m229.351562 230.398438-52.992187 53.003906v-.019532l52.984375-52.984374zm0 0" fill="#f8f0f2"/><path d="m229.367188 230.398438-53.007813 53.011718v-.007812l52.992187-53.003906zm0 0" fill="#f9f0f2"/><path d="m229.382812 230.398438-53.023437 53.027343v-.015625l53.007813-53.011718zm0 0" fill="#faf1f2"/><path d="m229.394531 230.398438-53.035156 53.042968v-.015625l53.023437-53.027343zm0 0" fill="#fbf1f2"/><path d="m229.410156 230.398438-53.050781 53.054687v-.011719l53.035156-53.042968zm0 0" fill="#fbf1f2"/><path d="m229.425781 230.398438-53.066406 53.070312v-.015625l53.050781-53.054687zm0 0" fill="#fcf2f2"/><path d="m229.4375 230.398438-53.078125 53.085937v-.015625l53.066406-53.070312zm0 0" fill="#fdf2f2"/><path d="m229.453125 230.398438-53.09375 53.097656v-.011719l53.078125-53.085937zm0 0" fill="#fdf2f2"/><path d="m229.46875 230.398438-53.109375 53.113281v-.015625l53.09375-53.097656zm0 0" fill="#fdf2f2"/><path d="m229.476562 230.398438-53.117187 53.128906v-.015625l53.109375-53.113281zm0 0" fill="#fef2f2"/><path d="m229.496094 230.398438-53.136719 53.136718v-.007812l53.117187-53.128906zm0 0" fill="#fef3f2"/><path d="m229.511719 230.398438-53.152344 53.15625v-.019532l53.136719-53.136718zm0 0" fill="#fef3f2"/><path d="m229.519531 230.398438-53.160156 53.171874v-.015624l53.152344-53.15625zm0 0" fill="#fef3f2"/><path d="m229.539062 230.398438-53.179687 53.179687v-.007813l53.160156-53.171874zm0 0" fill="#fff3f2"/><path d="m229.554688 230.398438-53.195313 53.199218v-.019531l53.179687-53.179687zm0 0" fill="#fff3f2"/><path d="m229.5625 230.398438-53.203125 53.214843v-.015625l53.195313-53.199218zm0 0" fill="#fff3f2"/><path d="m229.582031 230.398438-53.222656 53.222656v-.007813l53.203125-53.214843zm0 0" fill="#fff3f2"/><path d="m229.597656 230.398438-53.238281 53.242187v-.019531l53.222656-53.222656zm0 0" fill="#fff3f2"/><path d="m229.605469 230.398438-53.246094 53.257812v-.015625l53.238281-53.242187zm0 0" fill="#fff3f2"/><path d="m229.625 230.398438-53.265625 53.265624v-.007812l53.246094-53.257812zm0 0" fill="#fff3f2"/><path d="m229.640625 230.398438-53.28125 53.285156v-.019532l53.265625-53.265624zm0 0" fill="#fff3f2"/><path d="m229.648438 230.398438-53.289063 53.300781v-.015625l53.28125-53.285156zm0 0" fill="#fff3f2"/><path d="m229.667969 230.398438-53.308594 53.308593v-.007812l53.289063-53.300781zm0 0" fill="#fff3f2"/><path d="m229.683594 230.398438-53.324219 53.328124v-.019531l53.308594-53.308593zm0 0" fill="#fff3f2"/><path d="m229.691406 230.398438-53.332031 53.34375v-.015626l53.324219-53.328124zm0 0" fill="#fff3f2"/><path d="m229.707031 230.398438-53.347656 53.351562v-.007812l53.332031-53.34375zm0 0" fill="#fff3f2"/><path d="m229.726562 230.398438-53.367187 53.367187v-.015625l53.347656-53.351562zm0 0" fill="#fff3f2"/><path d="m229.734375 230.398438-53.375 53.378906v-.011719l53.367187-53.367187zm0 0" fill="#fff3f2"/><path d="m229.75 230.398438-53.390625 53.394531v-.015625l53.375-53.378906zm0 0" fill="#fff3f2"/><path d="m229.761719 230.398438-53.402344 53.410156v-.015625l53.390625-53.394531zm0 0" fill="#fff3f2"/><path d="m229.777344 230.398438-53.417969 53.421874v-.011718l53.402344-53.410156zm0 0" fill="#fff3f2"/><path d="m238.933594 230.679688-62.574219 62.578124v-9.4375l53.417969-53.421874h9.15625zm0 0" fill="#fff3f2"/><path d="m238.933594 230.679688-62.574219 62.578124zm0 0" fill="#fff3f2"/><path d="m238.933594 230.679688-62.574219 62.585937v-.007813zm0 0" fill="#faf1f2"/><path d="m238.933594 230.691406-62.574219 62.574219 62.574219-62.585937zm0 0" fill="#f6eff2"/><path d="m238.933594 230.691406-62.574219 62.574219zm0 0" fill="#f2edf2"/><path d="m238.933594 230.691406-62.574219 62.582032v-.007813zm0 0" fill="#eeebf2"/><path d="m238.933594 230.699219-62.574219 62.574219 62.574219-62.582032zm0 0" fill="#ebeaf2"/><path d="m238.933594 230.699219-62.574219 62.574219zm0 0" fill="#e8e8f2"/><path d="m238.933594 230.699219-62.574219 62.582031v-.007812zm0 0" fill="#e5e7f2"/><path d="m238.933594 230.707031-62.574219 62.574219 62.574219-62.582031zm0 0" fill="#e3e6f2"/><path d="m238.933594 230.707031-62.574219 62.574219zm0 0" fill="#e1e5f2"/><path d="m238.933594 230.707031-62.574219 62.582031v-.007812zm0 0" fill="#dfe4f2"/><path d="m238.933594 230.714844-62.574219 62.574218 62.574219-62.582031zm0 0" fill="#dde4f2"/><path d="m238.933594 230.714844-62.574219 62.574218zm0 0" fill="#dce3f2"/><path d="m238.933594 230.714844-62.574219 62.585937v-.011719zm0 0" fill="#dae2f2"/><path d="m238.933594 230.722656-62.574219 62.578125 62.574219-62.585937zm0 0" fill="#d9e2f2"/><path d="m238.933594 230.722656-62.574219 62.578125zm0 0" fill="#d8e1f2"/><path d="m238.933594 230.722656-62.574219 62.585938v-.007813zm0 0" fill="#d7e1f2"/><path d="m238.933594 230.734375-62.574219 62.574219 62.574219-62.585938zm0 0" fill="#d7e1f2"/><path d="m238.933594 230.734375-62.574219 62.574219zm0 0" fill="#d6e0f2"/><path d="m238.933594 230.734375-62.574219 62.582031v-.007812zm0 0" fill="#d5e0f2"/><path d="m238.933594 230.742188-62.574219 62.574218 62.574219-62.582031zm0 0" fill="#d5e0f2"/><path d="m238.933594 230.742188-62.574219 62.574218zm0 0" fill="#d5e0f2"/><path d="m238.933594 230.742188-62.574219 62.582031v-.007813zm0 0" fill="#d4e0f2"/><path d="m238.933594 230.75-62.574219 62.574219 62.574219-62.582031zm0 0" fill="#d4dff2"/><path d="m238.933594 230.75-62.574219 62.574219zm0 0" fill="#d4dff2"/><path d="m238.933594 230.75-62.574219 62.582031v-.007812zm0 0" fill="#d4dff2"/><path d="m238.933594 230.757812-62.574219 62.574219 62.574219-62.582031zm0 0" fill="#d3dff2"/><path d="m238.933594 230.757812-62.574219 62.574219zm0 0" fill="#d3dff2"/><path d="m238.933594 230.757812-62.574219 62.585938v-.011719zm0 0" fill="#d3dff2"/><path d="m238.933594 230.765625-62.574219 62.578125 62.574219-62.585938zm0 0" fill="#d3dff2"/><path d="m238.933594 230.765625-62.574219 62.578125zm0 0" fill="#d3dff2"/><path d="m238.933594 230.765625-62.574219 62.585937v-.007812zm0 0" fill="#d3dff2"/><path d="m238.933594 230.777344-62.574219 62.574218 62.574219-62.585937zm0 0" fill="#d3dff2"/><path d="m238.933594 230.777344-62.574219 62.582031v-.007813zm0 0" fill="#d3dff2"/><path d="m238.933594 230.785156-62.574219 62.574219 62.574219-62.582031zm0 0" fill="#d3dff2"/><path d="m238.933594 230.785156-62.574219 62.574219zm0 0" fill="#d3dff2"/><path d="m238.933594 230.785156-62.574219 62.582032v-.007813zm0 0" fill="#d3dff2"/><path d="m238.933594 230.792969-62.574219 62.574219 62.574219-62.582032zm0 0" fill="#d3dff2"/><path d="m238.933594 230.792969-62.574219 62.574219zm0 0" fill="#d3dff2"/><path d="m238.933594 230.792969-62.574219 62.582031v-.007812zm0 0" fill="#d3dff2"/><path d="m238.933594 230.800781-62.574219 62.574219 62.574219-62.582031zm0 0" fill="#d3dff2"/><path d="m238.933594 230.800781-62.574219 62.574219zm0 0" fill="#d3dff2"/><path d="m238.933594 230.800781-62.574219 62.582031v-.007812zm0 0" fill="#d3dff2"/><path d="m238.933594 230.808594-62.574219 62.574218 62.574219-62.582031zm0 0" fill="#d3dff2"/><path d="m238.933594 260.855469-37.8125 37.8125h-24.761719v-5.285157l62.574219-62.574218zm0 0" fill="#d3dff2"/><path d="m238.933594 260.855469-37.8125 37.8125zm0 0" fill="#d3dff2"/><path d="m238.933594 260.855469-37.8125 37.8125zm0 0" fill="#d4dff2"/><path d="m238.933594 260.863281-37.804688 37.804688h-.007812l37.8125-37.8125zm0 0" fill="#d5e0f2"/><path d="m238.933594 260.863281-37.804688 37.804688zm0 0" fill="#d6e0f2"/><path d="m238.933594 260.863281-37.804688 37.804688zm0 0" fill="#d7e1f2"/><path d="m238.933594 260.871094-37.792969 37.796875h-.011719l37.804688-37.804688zm0 0" fill="#d8e1f2"/><path d="m238.933594 260.871094-37.792969 37.796875zm0 0" fill="#d9e2f2"/><path d="m238.933594 260.871094-37.792969 37.796875zm0 0" fill="#dae2f2"/><path d="m238.933594 260.882812-37.785156 37.785157h-.007813l37.792969-37.796875zm0 0" fill="#dbe3f2"/><path d="m238.933594 260.882812-37.785156 37.785157zm0 0" fill="#dce3f2"/><path d="m238.933594 260.882812-37.785156 37.785157zm0 0" fill="#dde4f2"/><path d="m238.933594 260.890625-37.777344 37.777344h-.007812l37.785156-37.785157zm0 0" fill="#dee4f2"/><path d="m238.933594 260.890625-37.777344 37.777344zm0 0" fill="#dfe5f2"/><path d="m238.933594 260.890625-37.777344 37.777344zm0 0" fill="#e0e5f2"/><path d="m238.933594 260.898438-37.769532 37.769531h-.007812l37.777344-37.777344zm0 0" fill="#e1e6f2"/><path d="m238.933594 260.898438-37.769532 37.769531zm0 0" fill="#e2e6f2"/><path d="m238.933594 260.898438-37.769532 37.769531zm0 0" fill="#e3e6f2"/><path d="m238.933594 260.90625-37.761719 37.761719h-.007813l37.769532-37.769531zm0 0" fill="#e4e7f2"/><path d="m238.933594 260.90625-37.761719 37.761719zm0 0" fill="#e5e7f2"/><path d="m238.933594 260.90625-37.761719 37.761719zm0 0" fill="#e6e8f2"/><path d="m238.933594 260.914062-37.75 37.753907h-.011719l37.761719-37.761719zm0 0" fill="#e7e8f2"/><path d="m238.933594 260.914062-37.75 37.753907zm0 0" fill="#e8e9f2"/><path d="m238.933594 260.914062-37.75 37.753907zm0 0" fill="#eae9f2"/><path d="m238.933594 260.921875-37.742188 37.746094h-.007812l37.75-37.753907zm0 0" fill="#ebeaf2"/><path d="m238.933594 260.921875-37.742188 37.746094zm0 0" fill="#eceaf2"/><path d="m238.933594 260.921875-37.742188 37.746094zm0 0" fill="#edebf2"/><path d="m238.933594 260.933594-37.734375 37.734375h-.007813l37.742188-37.746094zm0 0" fill="#eeebf2"/><path d="m238.933594 260.933594-37.734375 37.734375zm0 0" fill="#efecf2"/><path d="m238.933594 260.933594-37.734375 37.734375zm0 0" fill="#f0ecf2"/><path d="m238.933594 260.941406-37.726563 37.726563h-.007812l37.734375-37.734375zm0 0" fill="#f1ecf2"/><path d="m238.933594 260.941406-37.726563 37.726563zm0 0" fill="#f2edf2"/><path d="m238.933594 260.941406-37.726563 37.726563zm0 0" fill="#f3edf2"/><path d="m238.933594 260.949219-37.71875 37.71875h-.007813l37.726563-37.726563zm0 0" fill="#f4eef2"/><path d="m238.933594 260.949219-37.71875 37.71875zm0 0" fill="#f5eef2"/><path d="m238.933594 260.949219-37.71875 37.71875zm0 0" fill="#f6eff2"/><path d="m238.933594 260.957031-37.710938 37.710938h-.007812l37.71875-37.71875zm0 0" fill="#f7eff2"/><path d="m238.933594 260.957031-37.710938 37.710938zm0 0" fill="#f8f0f2"/><path d="m238.933594 260.957031-37.710938 37.710938zm0 0" fill="#f9f0f2"/><path d="m238.933594 260.964844-37.699219 37.703125h-.011719l37.710938-37.710938zm0 0" fill="#faf1f2"/><path d="m238.933594 260.964844-37.699219 37.703125zm0 0" fill="#fbf1f2"/><path d="m238.933594 260.964844-37.699219 37.703125zm0 0" fill="#fcf2f2"/><path d="m238.933594 260.976562-37.691406 37.691407h-.007813l37.699219-37.703125zm0 0" fill="#fdf2f2"/><path d="m238.933594 260.976562-37.691406 37.691407zm0 0" fill="#fef3f2"/><path d="m238.933594 260.976562-37.691406 37.691407zm0 0" fill="#fff3f2"/><path d="m238.933594 274.679688-23.988282 23.988281h-13.703124l37.691406-37.691407zm0 0" fill="#fff3f2"/><path d="m238.933594 274.679688-23.988282 23.988281zm0 0" fill="#fff3f2"/><path d="m238.933594 274.6875-23.980469 23.980469h-.007813l23.988282-23.988281zm0 0" fill="#fef3f2"/><path d="m238.933594 274.6875-23.980469 23.980469zm0 0" fill="#fdf2f2"/><path d="m238.933594 274.6875-23.980469 23.980469zm0 0" fill="#fcf2f2"/><path d="m238.933594 274.695312-23.96875 23.972657h-.011719l23.980469-23.980469zm0 0" fill="#fbf1f2"/><path d="m238.933594 274.695312-23.96875 23.972657zm0 0" fill="#faf1f2"/><path d="m238.933594 274.695312-23.96875 23.972657zm0 0" fill="#f9f0f2"/><path d="m238.933594 274.703125-23.960938 23.964844h-.007812l23.96875-23.972657zm0 0" fill="#f8f0f2"/><path d="m238.933594 274.703125-23.960938 23.964844zm0 0" fill="#f7eff2"/><path d="m238.933594 274.703125-23.960938 23.964844zm0 0" fill="#f6eff2"/><path d="m238.933594 274.714844-23.953125 23.953125h-.007813l23.960938-23.964844zm0 0" fill="#f5eef2"/><path d="m238.933594 274.714844-23.953125 23.953125zm0 0" fill="#f4eef2"/><path d="m238.933594 274.714844-23.953125 23.953125zm0 0" fill="#f3edf2"/><path d="m238.933594 274.722656-23.945313 23.945313h-.007812l23.953125-23.953125zm0 0" fill="#f2edf2"/><path d="m238.933594 274.722656-23.945313 23.945313zm0 0" fill="#f1ecf2"/><path d="m238.933594 274.722656-23.945313 23.945313zm0 0" fill="#f0ecf2"/><path d="m238.933594 274.730469-23.9375 23.9375h-.007813l23.945313-23.945313zm0 0" fill="#efecf2"/><path d="m238.933594 274.730469-23.9375 23.9375zm0 0" fill="#eeebf2"/><path d="m238.933594 274.730469-23.9375 23.9375zm0 0" fill="#edebf2"/><path d="m238.933594 274.738281-23.925782 23.929688h-.011718l23.9375-23.9375zm0 0" fill="#eceaf2"/><path d="m238.933594 274.738281-23.925782 23.929688zm0 0" fill="#ebeaf2"/><path d="m238.933594 274.738281-23.925782 23.929688zm0 0" fill="#eae9f2"/><path d="m238.933594 274.746094-23.917969 23.921875h-.007813l23.925782-23.929688zm0 0" fill="#e8e9f2"/><path d="m238.933594 274.746094-23.917969 23.921875zm0 0" fill="#e7e8f2"/><path d="m238.933594 274.746094-23.917969 23.921875zm0 0" fill="#e6e8f2"/><path d="m238.933594 274.757812-23.910156 23.910157h-.007813l23.917969-23.921875zm0 0" fill="#e5e7f2"/><path d="m238.933594 274.757812-23.910156 23.910157zm0 0" fill="#e4e7f2"/><path d="m238.933594 274.757812-23.910156 23.910157zm0 0" fill="#e3e6f2"/><path d="m238.933594 274.765625-23.902344 23.902344h-.007812l23.910156-23.910157zm0 0" fill="#e2e6f2"/><path d="m238.933594 274.765625-23.902344 23.902344zm0 0" fill="#e1e6f2"/><path d="m238.933594 274.765625-23.902344 23.902344zm0 0" fill="#e0e5f2"/><path d="m238.933594 274.773438-23.894532 23.894531h-.007812l23.902344-23.902344zm0 0" fill="#dfe5f2"/><path d="m238.933594 274.773438-23.894532 23.894531zm0 0" fill="#dee4f2"/><path d="m238.933594 274.773438-23.894532 23.894531zm0 0" fill="#dde4f2"/><path d="m238.933594 274.78125-23.886719 23.886719h-.007813l23.894532-23.894531zm0 0" fill="#dce3f2"/><path d="m238.933594 274.78125-23.886719 23.886719zm0 0" fill="#dbe3f2"/><path d="m238.933594 274.78125-23.886719 23.886719zm0 0" fill="#dae2f2"/><path d="m238.933594 274.789062-23.875 23.878907h-.011719l23.886719-23.886719zm0 0" fill="#d9e2f2"/><path d="m238.933594 274.789062-23.875 23.878907zm0 0" fill="#d8e1f2"/><path d="m238.933594 274.789062-23.875 23.878907zm0 0" fill="#d7e1f2"/><path d="m238.933594 274.800781-23.867188 23.867188h-.007812l23.875-23.878907zm0 0" fill="#d6e0f2"/><path d="m238.933594 274.800781-23.867188 23.867188zm0 0" fill="#d5e0f2"/><path d="m238.933594 274.800781-23.867188 23.867188zm0 0" fill="#d4dff2"/><path d="m238.933594 274.808594-23.859375 23.859375h-.007813l23.867188-23.867188zm0 0" fill="#d3dff2"/><path d="m215.074219 298.667969 23.859375-23.859375v23.859375zm0 0" fill="#d3dff2"/><path d="m221.867188 358.398438v110.933593h-85.332032v-110.933593c0-4.917969 2.148438-9.59375 5.886719-12.796876 3.058594-2.777343 7.046875-4.300781 11.179687-4.269531h51.199219c9.414063.03125 17.039063 7.652344 17.066407 17.066407zm0 0" fill="var(--resa-icon-secondary, #7facfa)"/><path d="m200.535156 362.667969v106.664062h-64v-110.933593c0-4.917969 2.148438-9.59375 5.886719-12.796876h41.042969c9.414062.027344 17.039062 7.652344 17.070312 17.066407zm0 0" fill="var(--resa-icon-bg, #e3e7f2)"/><path d="m17.066406 465.066406h477.867188c4.710937 0 8.53125 3.820313 8.53125 8.535156v17.066407c0 4.710937-3.820313 8.53125-8.53125 8.53125h-477.867188c-4.710937 0-8.53125-3.820313-8.53125-8.53125v-17.066407c0-4.714843 3.820313-8.535156 8.53125-8.535156zm0 0" fill="var(--resa-icon-light, #a4c2f7)"/><path d="m17.066406 465.066406h452.265625c4.714844 0 8.535157 3.820313 8.535157 8.535156v17.066407c0 4.710937-3.820313 8.53125-8.535157 8.53125h-452.265625c-4.710937 0-8.53125-3.820313-8.53125-8.53125v-17.066407c0-4.714843 3.820313-8.535156 8.53125-8.535156zm0 0" fill="var(--resa-icon-bg, #e3e7f2)"/><path d="m284.585938 208.8125c-3.117188 2.925781-7.242188 4.546875-11.519532 4.519531-4.777344.007813-9.332031-2.007812-12.542968-5.546875l-57.515626-62.71875-23.808593-25.941406-23.808594 25.941406-57.511719 62.71875c-3.210937 3.539063-7.769531 5.554688-12.546875 5.546875-4.277343.027344-8.398437-1.59375-11.519531-4.519531-3.351562-3.042969-5.34375-7.296875-5.539062-11.820312-.191407-4.519532 1.433593-8.929688 4.515624-12.246094l36.351563-39.679688 57.515625-62.71875 1.023438-1.023437c.234374-.226563.492187-.425781.769531-.597657.445312-.417968.929687-.789062 1.449219-1.109374.425781-.257813.9375-.511719 1.367187-.769532l1.535156-.769531 1.535157-.511719c.597656-.167968 1.109374-.253906 1.621093-.425781.535157-.097656 1.078125-.15625 1.621094-.171875 1.078125-.113281 2.164063-.113281 3.242187 0 .546876.015625 1.085938.074219 1.621094.171875.511719.171875 1.023438.257813 1.621094.425781l1.539062.511719 1.535157.769531c.425781.257813.9375.511719 1.363281.769532.519531.320312 1.007812.691406 1.453125 1.109374.273437.171876.53125.371094.765625.597657l1.023438 1.023437 57.515624 62.71875 36.351563 39.679688c3.082031 3.316406 4.707031 7.726562 4.515625 12.246094-.191406 4.523437-2.1875 8.777343-5.539062 11.820312zm0 0" fill="var(--resa-icon-secondary, #7facfa)"/><path d="m375.464844 179.199219v51.199219h-34.132813c-4.710937 0-8.53125-3.820313-8.53125-8.53125v-34.132813c0-4.714844 3.820313-8.535156 8.53125-8.535156zm0 0" fill="var(--resa-icon-bg, #d4e1f4)"/><path d="m375.464844 341.332031v51.203125h-34.132813c-4.710937 0-8.53125-3.824218-8.53125-8.535156v-34.132812c0-4.714844 3.820313-8.535157 8.53125-8.535157zm0 0" fill="var(--resa-icon-bg, #d4e1f4)"/><path d="m124.484375 230.398438-5.019531 5.019531v-5.019531zm0 0" fill="#d3dff2"/><path d="m149.078125 230.398438-29.613281 29.613281v-24.59375l5.019531-5.019531zm0 0" fill="#d3dff2"/><path d="m149.09375 230.398438-29.628906 29.628906v-.015625l29.613281-29.613281zm0 0" fill="#d3dff2"/><path d="m149.101562 230.398438-29.636718 29.636718v-.007812l29.628906-29.628906zm0 0" fill="#d8e1f2"/><path d="m149.121094 230.398438-29.65625 29.65625v-.019532l29.636718-29.636718zm0 0" fill="#dce3f2"/><path d="m149.128906 230.398438-29.664062 29.664062v-.007812l29.65625-29.65625zm0 0" fill="#e0e5f2"/><path d="m149.144531 230.398438-29.679687 29.679687v-.015625l29.664062-29.664062zm0 0" fill="#e4e7f2"/><path d="m149.164062 230.398438-29.699218 29.699218v-.019531l29.679687-29.679687zm0 0" fill="#e7e8f2"/><path d="m149.171875 230.398438-29.707031 29.707031v-.007813l29.699218-29.699218zm0 0" fill="#eaeaf2"/><path d="m149.1875 230.398438-29.722656 29.722656v-.015625l29.707031-29.707031zm0 0" fill="#edebf2"/><path d="m149.207031 230.398438-29.742187 29.738281v-.015625l29.722656-29.722656zm0 0" fill="#efecf2"/><path d="m149.214844 230.398438-29.75 29.75v-.011719l29.742187-29.738281zm0 0" fill="#f1edf2"/><path d="m149.230469 230.398438-29.765625 29.765624v-.015624l29.75-29.75zm0 0" fill="#f3eef2"/><path d="m149.238281 230.398438-29.773437 29.773437v-.007813l29.765625-29.765624zm0 0" fill="#f5eef2"/><path d="m149.257812 230.398438-29.792968 29.792968v-.019531l29.773437-29.773437zm0 0" fill="#f6eff2"/><path d="m149.273438 230.398438-29.808594 29.808593v-.015625l29.792968-29.792968zm0 0" fill="#f8f0f2"/><path d="m149.28125 230.398438-29.816406 29.816406v-.007813l29.808594-29.808593zm0 0" fill="#f9f0f2"/><path d="m149.300781 230.398438-29.835937 29.835937v-.019531l29.816406-29.816406zm0 0" fill="#faf1f2"/><path d="m149.316406 230.398438-29.851562 29.851562v-.015625l29.835937-29.835937zm0 0" fill="#fbf1f2"/><path d="m149.324219 230.398438-29.859375 29.859374v-.007812l29.851562-29.851562zm0 0" fill="#fbf1f2"/><path d="m149.34375 230.398438-29.878906 29.875v-.015626l29.859375-29.859374zm0 0" fill="#fcf2f2"/><path d="m149.351562 230.398438-29.886718 29.886718v-.011718l29.878906-29.875zm0 0" fill="#fdf2f2"/><path d="m149.367188 230.398438-29.902344 29.902343v-.015625l29.886718-29.886718zm0 0" fill="#fdf2f2"/><path d="m149.382812 230.398438-29.917968 29.917968v-.015625l29.902344-29.902343zm0 0" fill="#fdf2f2"/><path d="m149.394531 230.398438-29.929687 29.929687v-.011719l29.917968-29.917968zm0 0" fill="#fef2f2"/><path d="m149.410156 230.398438-29.945312 29.945312v-.015625l29.929687-29.929687zm0 0" fill="#fef3f2"/><path d="m149.425781 230.398438-29.960937 29.960937v-.015625l29.945312-29.945312zm0 0" fill="#fef3f2"/><path d="m149.4375 230.398438-29.972656 29.96875v-.007813l29.960937-29.960937zm0 0" fill="#fef3f2"/><path d="m149.453125 230.398438-29.988281 29.988281v-.019531l29.972656-29.96875zm0 0" fill="#fff3f2"/><path d="m149.460938 230.398438-29.996094 29.996093v-.007812l29.988281-29.988281zm0 0" fill="#fff3f2"/><path d="m149.476562 230.398438-30.011718 30.011718v-.015625l29.996094-29.996093zm0 0" fill="#fff3f2"/><path d="m149.496094 230.398438-30.03125 30.03125v-.019532l30.011718-30.011718zm0 0" fill="#fff3f2"/><path d="m149.503906 230.398438-30.039062 30.039062v-.007812l30.03125-30.03125zm0 0" fill="#fff3f2"/><path d="m149.519531 230.398438-30.054687 30.054687v-.015625l30.039062-30.039062zm0 0" fill="#fff3f2"/><path d="m149.539062 230.398438-30.074218 30.074218v-.019531l30.054687-30.054687zm0 0" fill="#fff3f2"/><path d="m149.546875 230.398438-30.082031 30.082031v-.007813l30.074218-30.074218zm0 0" fill="#fff3f2"/><path d="m149.5625 230.398438-30.097656 30.097656v-.015625l30.082031-30.082031zm0 0" fill="#fff3f2"/><path d="m149.574219 230.398438-30.109375 30.105468v-.007812l30.097656-30.097656zm0 0" fill="#fff3f2"/><path d="m149.589844 230.398438-30.125 30.125v-.019532l30.109375-30.105468zm0 0" fill="#fff3f2"/><path d="m149.605469 230.398438-30.140625 30.140624v-.015624l30.125-30.125zm0 0" fill="#fff3f2"/><path d="m149.613281 230.398438-30.148437 30.148437v-.007813l30.140625-30.140624zm0 0" fill="#fff3f2"/><path d="m149.632812 230.398438-30.167968 30.167968v-.019531l30.148437-30.148437zm0 0" fill="#fff3f2"/><path d="m149.640625 230.398438-30.175781 30.175781v-.007813l30.167968-30.167968zm0 0" fill="#fff3f2"/><path d="m149.65625 230.398438-30.191406 30.191406v-.015625l30.175781-30.175781zm0 0" fill="#fff3f2"/><path d="m149.675781 230.398438-30.210937 30.210937v-.019531l30.191406-30.191406zm0 0" fill="#fff3f2"/><path d="m149.683594 230.398438-30.21875 30.21875v-.007813l30.210937-30.210937zm0 0" fill="#fff3f2"/><path d="m156.457031 230.398438-36.992187 36.992187v-6.773437l30.21875-30.21875zm0 0" fill="#fff3f2"/><path d="m156.457031 230.398438-36.992187 36.992187zm0 0" fill="#fff3f2"/><path d="m156.457031 230.398438-36.992187 36.992187zm0 0" fill="#fef3f2"/><path d="m156.457031 230.398438-36.992187 36.992187zm0 0" fill="#fdf2f2"/><path d="m156.457031 230.398438-36.992187 36.992187zm0 0" fill="#fcf2f2"/><path d="m156.457031 230.398438-36.992187 36.992187zm0 0" fill="#fbf1f2"/><path d="m156.457031 230.398438-36.992187 36.992187zm0 0" fill="#faf1f2"/><path d="m156.457031 230.398438-36.992187 36.992187zm0 0" fill="#f9f0f2"/><path d="m156.457031 230.398438-36.992187 36.992187zm0 0" fill="#f8f0f2"/><path d="m156.457031 230.398438-36.992187 36.992187zm0 0" fill="#f7eff2"/><path d="m156.457031 230.398438-36.992187 36.992187zm0 0" fill="#f6eff2"/><path d="m156.457031 230.398438-36.992187 36.992187zm0 0" fill="#f5eef2"/><path d="m156.457031 230.398438-36.992187 36.992187zm0 0" fill="#f4eef2"/><path d="m156.457031 230.398438-36.992187 36.992187zm0 0" fill="#f3edf2"/><path d="m156.457031 230.398438-36.992187 36.992187zm0 0" fill="#f2edf2"/><path d="m156.457031 230.398438-36.992187 36.992187zm0 0" fill="#f1ecf2"/><path d="m156.457031 230.398438-36.992187 36.992187zm0 0" fill="#f0ecf2"/><path d="m156.457031 230.398438-36.992187 36.992187zm0 0" fill="#efecf2"/><path d="m156.457031 230.398438-36.992187 36.992187zm0 0" fill="#eeebf2"/><path d="m156.457031 230.398438-36.992187 36.992187zm0 0" fill="#edebf2"/><path d="m156.457031 230.398438-36.992187 36.992187zm0 0" fill="#eceaf2"/><path d="m156.457031 230.398438-36.992187 36.992187zm0 0" fill="#ebeaf2"/><path d="m156.457031 230.398438-36.992187 36.992187zm0 0" fill="#eae9f2"/><path d="m156.457031 230.398438-36.992187 36.992187zm0 0" fill="#e8e9f2"/><path d="m156.457031 230.398438-36.992187 36.992187zm0 0" fill="#e7e8f2"/><path d="m156.457031 230.398438-36.992187 36.992187zm0 0" fill="#e6e8f2"/><path d="m156.457031 230.398438-36.992187 36.992187zm0 0" fill="#e5e7f2"/><path d="m156.457031 230.398438-36.992187 36.992187zm0 0" fill="#e4e7f2"/><path d="m156.457031 230.398438-36.992187 36.992187zm0 0" fill="#e3e6f2"/><path d="m156.457031 230.398438-36.992187 36.992187zm0 0" fill="#e2e6f2"/><path d="m156.457031 230.398438-36.992187 36.992187zm0 0" fill="#e1e6f2"/><path d="m156.457031 230.398438-36.992187 36.992187zm0 0" fill="#e0e5f2"/><path d="m156.457031 230.398438-36.992187 36.992187zm0 0" fill="#dfe5f2"/><path d="m156.457031 230.398438-36.992187 36.992187zm0 0" fill="#dee4f2"/><path d="m156.457031 230.398438-36.992187 36.992187zm0 0" fill="#dde4f2"/><path d="m156.457031 230.398438-36.992187 36.992187zm0 0" fill="#dce3f2"/><path d="m156.457031 230.398438-36.992187 36.992187zm0 0" fill="#dbe3f2"/><path d="m156.457031 230.398438-36.992187 36.992187zm0 0" fill="#dae2f2"/><path d="m156.457031 230.398438-36.992187 36.992187zm0 0" fill="#d9e2f2"/><path d="m156.457031 230.398438-36.992187 36.992187zm0 0" fill="#d8e1f2"/><path d="m156.457031 230.398438-36.992187 36.992187zm0 0" fill="#d7e1f2"/><path d="m156.457031 230.398438-36.992187 36.992187zm0 0" fill="#d6e0f2"/><path d="m156.457031 230.398438-36.992187 36.992187zm0 0" fill="#d5e0f2"/><path d="m156.457031 230.398438-36.992187 36.992187zm0 0" fill="#d4dff2"/><path d="m156.457031 230.398438-36.992187 36.992187zm0 0" fill="#d3dff2"/><path d="m176.136719 230.398438-56.671875 56.671874v-19.679687l36.992187-36.992187zm0 0" fill="#d3dff2"/><path d="m176.144531 230.398438-56.679687 56.679687v-.007813l56.671875-56.671874zm0 0" fill="#d3dff2"/><path d="m176.164062 230.398438-56.699218 56.695312v-.015625l56.679687-56.679687zm0 0" fill="#d8e1f2"/><path d="m176.179688 230.398438-56.714844 56.714843v-.019531l56.699218-56.695312zm0 0" fill="#dce3f2"/><path d="m176.1875 230.398438-56.722656 56.722656v-.007813l56.714844-56.714843zm0 0" fill="#e0e5f2"/><path d="m176.203125 230.398438-56.738281 56.738281v-.015625l56.722656-56.722656zm0 0" fill="#e4e7f2"/><path d="m176.214844 230.398438-56.75 56.75v-.011719l56.738281-56.738281zm0 0" fill="#e7e8f2"/><path d="m176.230469 230.398438-56.765625 56.765624v-.015624l56.75-56.75zm0 0" fill="#eaeaf2"/><path d="m176.246094 230.398438-56.78125 56.78125v-.015626l56.765625-56.765624zm0 0" fill="#edebf2"/><path d="m176.257812 230.398438-56.792968 56.789062v-.007812l56.78125-56.78125zm0 0" fill="#efecf2"/><path d="m176.273438 230.398438-56.808594 56.808593v-.019531l56.792968-56.789062zm0 0" fill="#f1edf2"/><path d="m176.289062 230.398438-56.824218 56.824218v-.015625l56.808594-56.808593zm0 0" fill="#f3eef2"/><path d="m176.296875 230.398438-56.832031 56.832031v-.007813l56.824218-56.824218zm0 0" fill="#f5eef2"/><path d="m176.316406 230.398438-56.851562 56.851562v-.019531l56.832031-56.832031zm0 0" fill="#f6eff2"/><path d="m176.324219 230.398438-56.859375 56.859374v-.007812l56.851562-56.851562zm0 0" fill="#f8f0f2"/><path d="m176.339844 230.398438-56.875 56.875v-.015626l56.859375-56.859374zm0 0" fill="#f9f0f2"/><path d="m176.359375 230.398438-56.894531 56.894531v-.019531l56.875-56.875zm0 0" fill="#faf1f2"/><path d="m176.367188 230.398438-56.902344 56.902343v-.007812l56.894531-56.894531zm0 0" fill="#fbf1f2"/><path d="m176.382812 230.398438-56.917968 56.917968v-.015625l56.902344-56.902343zm0 0" fill="#fbf1f2"/><path d="m176.402344 230.398438-56.9375 56.9375v-.019532l56.917968-56.917968zm0 0" fill="#fcf2f2"/><path d="m176.410156 230.398438-56.945312 56.945312v-.007812l56.9375-56.9375zm0 0" fill="#fdf2f2"/><path d="m176.425781 230.398438-56.960937 56.960937v-.015625l56.945312-56.945312zm0 0" fill="#fdf2f2"/><path d="m176.433594 230.398438-56.96875 56.96875v-.007813l56.960937-56.960937zm0 0" fill="#fdf2f2"/><path d="m176.453125 230.398438-56.988281 56.988281v-.019531l56.96875-56.96875zm0 0" fill="#fef2f2"/><path d="m176.46875 230.398438-57.003906 57.003906v-.015625l56.988281-56.988281zm0 0" fill="#fef3f2"/><path d="m176.476562 230.398438-57.011718 57.011718v-.007812l57.003906-57.003906zm0 0" fill="#fef3f2"/><path d="m176.496094 230.398438-57.03125 57.03125v-.019532l57.011718-57.011718zm0 0" fill="#fef3f2"/><path d="m176.511719 230.398438-57.046875 57.046874v-.015624l57.03125-57.03125zm0 0" fill="#fff3f2"/><path d="m176.519531 230.398438-57.054687 57.054687v-.007813l57.046875-57.046874zm0 0" fill="#fff3f2"/><path d="m176.539062 230.398438-57.074218 57.074218v-.019531l57.054687-57.054687zm0 0" fill="#fff3f2"/><path d="m176.546875 230.398438-57.082031 57.082031v-.007813l57.074218-57.074218zm0 0" fill="#fff3f2"/><path d="m176.5625 230.398438-57.097656 57.097656v-.015625l57.082031-57.082031zm0 0" fill="#fff3f2"/><path d="m176.582031 230.398438-57.117187 57.113281v-.015625l57.097656-57.097656zm0 0" fill="#fff3f2"/><path d="m176.589844 230.398438-57.125 57.125v-.011719l57.117187-57.113281zm0 0" fill="#fff3f2"/><path d="m176.605469 230.398438-57.140625 57.140624v-.015624l57.125-57.125zm0 0" fill="#fff3f2"/><path d="m176.621094 230.398438-57.15625 57.15625v-.015626l57.140625-57.140624zm0 0" fill="#fff3f2"/><path d="m176.632812 230.398438-57.167968 57.167968v-.011718l57.15625-57.15625zm0 0" fill="#fff3f2"/><path d="m176.648438 230.398438-57.183594 57.183593v-.015625l57.167968-57.167968zm0 0" fill="#fff3f2"/><path d="m176.65625 230.398438-57.191406 57.191406v-.007813l57.183594-57.183593zm0 0" fill="#fff3f2"/><path d="m176.675781 230.398438-57.210937 57.210937v-.019531l57.191406-57.191406zm0 0" fill="#fff3f2"/><path d="m176.691406 230.398438-57.226562 57.226562v-.015625l57.210937-57.210937zm0 0" fill="#fff3f2"/><path d="m176.699219 230.398438-57.234375 57.234374v-.007812l57.226562-57.226562zm0 0" fill="#fff3f2"/><path d="m176.71875 230.398438-57.253906 57.25v-.015626l57.234375-57.234374zm0 0" fill="#fff3f2"/><path d="m176.726562 230.398438-57.261718 57.261718v-.011718l57.253906-57.25zm0 0" fill="#fff3f2"/><path d="m176.742188 230.398438-57.277344 57.277343v-.015625l57.261718-57.261718zm0 0" fill="#fff3f2"/><path d="m179.199219 237.175781-59.734375 59.734375v-9.234375l57.277344-57.277343h2.457031zm0 0" fill="#fff3f2"/><path d="m179.199219 237.175781-59.734375 59.734375zm0 0" fill="#fff3f2"/><path d="m179.199219 237.175781-59.734375 59.734375zm0 0" fill="#faf1f2"/><path d="m179.199219 237.183594-59.734375 59.734375v-.007813l59.734375-59.734375zm0 0" fill="#f6eff2"/><path d="m179.199219 237.183594-59.734375 59.734375zm0 0" fill="#f2edf2"/><path d="m179.199219 237.183594-59.734375 59.734375zm0 0" fill="#eeebf2"/><path d="m179.199219 237.191406-59.734375 59.734375v-.007812l59.734375-59.734375zm0 0" fill="#ebeaf2"/><path d="m179.199219 237.191406-59.734375 59.734375zm0 0" fill="#e8e8f2"/><path d="m179.199219 237.191406-59.734375 59.734375zm0 0" fill="#e5e7f2"/><path d="m179.199219 237.199219-59.734375 59.734375v-.007813l59.734375-59.734375zm0 0" fill="#e3e6f2"/><path d="m179.199219 237.199219-59.734375 59.734375zm0 0" fill="#e1e5f2"/><path d="m179.199219 237.199219-59.734375 59.734375zm0 0" fill="#dfe4f2"/><path d="m179.199219 237.210938-59.734375 59.730468v-.007812l59.734375-59.734375zm0 0" fill="#dde4f2"/><path d="m179.199219 237.210938-59.734375 59.730468zm0 0" fill="#dce3f2"/><path d="m179.199219 237.210938-59.734375 59.730468zm0 0" fill="#dae2f2"/><path d="m179.199219 237.21875-59.734375 59.734375v-.011719l59.734375-59.730468zm0 0" fill="#d9e2f2"/><path d="m179.199219 237.21875-59.734375 59.734375zm0 0" fill="#d8e1f2"/><path d="m179.199219 237.21875-59.734375 59.734375zm0 0" fill="#d7e1f2"/><path d="m179.199219 237.226562-59.734375 59.734376v-.007813l59.734375-59.734375zm0 0" fill="#d7e1f2"/><path d="m179.199219 237.226562-59.734375 59.734376zm0 0" fill="#d6e0f2"/><path d="m179.199219 237.226562-59.734375 59.734376zm0 0" fill="#d5e0f2"/><path d="m179.199219 237.234375-59.734375 59.734375v-.007812l59.734375-59.734376zm0 0" fill="#d5e0f2"/><path d="m179.199219 237.234375-59.734375 59.734375zm0 0" fill="#d5e0f2"/><path d="m179.199219 237.234375-59.734375 59.734375zm0 0" fill="#d4e0f2"/><path d="m179.199219 237.242188-59.734375 59.734374v-.007812l59.734375-59.734375zm0 0" fill="#d4dff2"/><path d="m179.199219 237.242188-59.734375 59.734374zm0 0" fill="#d4dff2"/><path d="m179.199219 237.242188-59.734375 59.734374zm0 0" fill="#d4dff2"/><path d="m179.199219 237.253906-59.734375 59.730469v-.007813l59.734375-59.734374zm0 0" fill="#d3dff2"/><path d="m179.199219 237.253906-59.734375 59.730469zm0 0" fill="#d3dff2"/><path d="m179.199219 237.253906-59.734375 59.730469zm0 0" fill="#d3dff2"/><path d="m179.199219 237.261719-59.734375 59.730469v-.007813l59.734375-59.730469zm0 0" fill="#d3dff2"/><path d="m179.199219 237.261719-59.734375 59.730469zm0 0" fill="#d3dff2"/><path d="m179.199219 237.261719-59.734375 59.730469zm0 0" fill="#d3dff2"/><path d="m179.199219 237.269531-59.734375 59.734375v-.011718l59.734375-59.730469zm0 0" fill="#d3dff2"/><path d="m179.199219 237.269531-59.734375 59.734375zm0 0" fill="#d3dff2"/><path d="m179.199219 237.269531-59.734375 59.734375zm0 0" fill="#d3dff2"/><path d="m179.199219 237.277344-59.734375 59.734375v-.007813l59.734375-59.734375zm0 0" fill="#d3dff2"/><path d="m179.199219 237.277344-59.734375 59.734375zm0 0" fill="#d3dff2"/><path d="m179.199219 237.277344-59.734375 59.734375zm0 0" fill="#d3dff2"/><path d="m179.199219 237.285156-59.734375 59.734375v-.007812l59.734375-59.734375zm0 0" fill="#d3dff2"/><path d="m179.199219 237.285156-59.734375 59.734375zm0 0" fill="#d3dff2"/><path d="m179.199219 237.285156-59.734375 59.734375zm0 0" fill="#d3dff2"/><path d="m179.199219 237.296875-59.734375 59.730469v-.007813l59.734375-59.734375zm0 0" fill="#d3dff2"/><path d="m179.199219 237.296875-59.734375 59.730469zm0 0" fill="#d3dff2"/><path d="m179.199219 237.296875-59.734375 59.730469zm0 0" fill="#d3dff2"/><path d="m179.199219 266.691406-31.972657 31.976563h-27.761718v-1.640625l59.734375-59.730469zm0 0" fill="#d3dff2"/><path d="m179.199219 266.691406-31.972657 31.976563zm0 0" fill="#d3dff2"/><path d="m179.199219 266.691406-31.972657 31.976563zm0 0" fill="#d4dff2"/><path d="m179.199219 266.699219-31.964844 31.96875h-.007813l31.972657-31.976563zm0 0" fill="#d5e0f2"/><path d="m179.199219 266.699219-31.964844 31.96875zm0 0" fill="#d6e0f2"/><path d="m179.199219 266.699219-31.964844 31.96875zm0 0" fill="#d7e1f2"/><path d="m179.199219 266.710938-31.957031 31.957031h-.007813l31.964844-31.96875zm0 0" fill="#d8e1f2"/><path d="m179.199219 266.710938-31.957031 31.957031zm0 0" fill="#d9e2f2"/><path d="m179.199219 266.710938-31.957031 31.957031zm0 0" fill="#dae2f2"/><path d="m179.199219 266.71875-31.949219 31.949219h-.007812l31.957031-31.957031zm0 0" fill="#dbe3f2"/><path d="m179.199219 266.71875-31.949219 31.949219zm0 0" fill="#dce3f2"/><path d="m179.199219 266.71875-31.949219 31.949219zm0 0" fill="#dde4f2"/><path d="m179.199219 266.726562-31.941407 31.941407h-.007812l31.949219-31.949219zm0 0" fill="#dee4f2"/><path d="m179.199219 266.726562-31.941407 31.941407zm0 0" fill="#dfe5f2"/><path d="m179.199219 266.726562-31.941407 31.941407zm0 0" fill="#e0e5f2"/><path d="m179.199219 266.734375-31.929688 31.933594h-.011719l31.941407-31.941407zm0 0" fill="#e1e6f2"/><path d="m179.199219 266.734375-31.929688 31.933594zm0 0" fill="#e2e6f2"/><path d="m179.199219 266.734375-31.929688 31.933594zm0 0" fill="#e3e6f2"/><path d="m179.199219 266.742188-31.921875 31.925781h-.007813l31.929688-31.933594zm0 0" fill="#e4e7f2"/><path d="m179.199219 266.742188-31.921875 31.925781zm0 0" fill="#e5e7f2"/><path d="m179.199219 266.742188-31.921875 31.925781zm0 0" fill="#e6e8f2"/><path d="m179.199219 266.753906-31.914063 31.914063h-.007812l31.921875-31.925781zm0 0" fill="#e7e8f2"/><path d="m179.199219 266.753906-31.914063 31.914063zm0 0" fill="#e8e9f2"/><path d="m179.199219 266.753906-31.914063 31.914063zm0 0" fill="#eae9f2"/><path d="m179.199219 266.761719-31.90625 31.90625h-.007813l31.914063-31.914063zm0 0" fill="#ebeaf2"/><path d="m179.199219 266.761719-31.90625 31.90625zm0 0" fill="#eceaf2"/><path d="m179.199219 266.761719-31.90625 31.90625zm0 0" fill="#edebf2"/><path d="m179.199219 266.769531-31.898438 31.898438h-.007812l31.90625-31.90625zm0 0" fill="#eeebf2"/><path d="m179.199219 266.769531-31.898438 31.898438zm0 0" fill="#efecf2"/><path d="m179.199219 266.769531-31.898438 31.898438zm0 0" fill="#f0ecf2"/><path d="m179.199219 266.777344-31.886719 31.890625h-.011719l31.898438-31.898438zm0 0" fill="#f1ecf2"/><path d="m179.199219 266.777344-31.886719 31.890625zm0 0" fill="#f2edf2"/><path d="m179.199219 266.777344-31.886719 31.890625zm0 0" fill="#f3edf2"/><path d="m179.199219 266.785156-31.878907 31.882813h-.007812l31.886719-31.890625zm0 0" fill="#f4eef2"/><path d="m179.199219 266.785156-31.878907 31.882813zm0 0" fill="#f5eef2"/><path d="m179.199219 266.785156-31.878907 31.882813zm0 0" fill="#f6eff2"/><path d="m179.199219 266.792969-31.871094 31.875h-.007813l31.878907-31.882813zm0 0" fill="#f7eff2"/><path d="m179.199219 266.792969-31.871094 31.875zm0 0" fill="#f8f0f2"/><path d="m179.199219 266.792969-31.871094 31.875zm0 0" fill="#f9f0f2"/><path d="m179.199219 266.804688-31.863281 31.863281h-.007813l31.871094-31.875zm0 0" fill="#faf1f2"/><path d="m179.199219 266.804688-31.863281 31.863281zm0 0" fill="#fbf1f2"/><path d="m179.199219 266.804688-31.863281 31.863281zm0 0" fill="#fcf2f2"/><path d="m179.199219 266.8125-31.855469 31.855469h-.007812l31.863281-31.863281zm0 0" fill="#fdf2f2"/><path d="m179.199219 266.8125-31.855469 31.855469zm0 0" fill="#fef3f2"/><path d="m179.199219 266.8125-31.855469 31.855469zm0 0" fill="#fff3f2"/><path d="m179.199219 280.21875-18.449219 18.449219h-13.40625l31.855469-31.855469zm0 0" fill="#fff3f2"/><path d="m179.199219 280.21875-18.449219 18.449219zm0 0" fill="#fff3f2"/><path d="m179.199219 280.226562-18.441407 18.441407h-.007812l18.449219-18.449219zm0 0" fill="#fef3f2"/><path d="m179.199219 280.226562-18.441407 18.441407zm0 0" fill="#fdf2f2"/><path d="m179.199219 280.226562-18.441407 18.441407zm0 0" fill="#fcf2f2"/><path d="m179.199219 280.234375-18.429688 18.433594h-.011719l18.441407-18.441407zm0 0" fill="#fbf1f2"/><path d="m179.199219 280.234375-18.429688 18.433594zm0 0" fill="#faf1f2"/><path d="m179.199219 280.234375-18.429688 18.433594zm0 0" fill="#f9f0f2"/><path d="m179.199219 280.242188-18.421875 18.425781h-.007813l18.429688-18.433594zm0 0" fill="#f8f0f2"/><path d="m179.199219 280.242188-18.421875 18.425781zm0 0" fill="#f7eff2"/><path d="m179.199219 280.242188-18.421875 18.425781zm0 0" fill="#f6eff2"/><path d="m179.199219 280.25-18.414063 18.417969h-.007812l18.421875-18.425781zm0 0" fill="#f5eef2"/><path d="m179.199219 280.25-18.414063 18.417969zm0 0" fill="#f4eef2"/><path d="m179.199219 280.25-18.414063 18.417969zm0 0" fill="#f3edf2"/><path d="m179.199219 280.261719-18.40625 18.40625h-.007813l18.414063-18.417969zm0 0" fill="#f2edf2"/><path d="m179.199219 280.261719-18.40625 18.40625zm0 0" fill="#f1ecf2"/><path d="m179.199219 280.261719-18.40625 18.40625zm0 0" fill="#f0ecf2"/><path d="m179.199219 280.269531-18.398438 18.398438h-.007812l18.40625-18.40625zm0 0" fill="#efecf2"/><path d="m179.199219 280.269531-18.398438 18.398438zm0 0" fill="#eeebf2"/><path d="m179.199219 280.269531-18.398438 18.398438zm0 0" fill="#edebf2"/><path d="m179.199219 280.277344-18.386719 18.390625h-.011719l18.398438-18.398438zm0 0" fill="#eceaf2"/><path d="m179.199219 280.277344-18.386719 18.390625zm0 0" fill="#ebeaf2"/><path d="m179.199219 280.277344-18.386719 18.390625zm0 0" fill="#eae9f2"/><path d="m179.199219 280.285156-18.378907 18.382813h-.007812l18.386719-18.390625zm0 0" fill="#e8e9f2"/><path d="m179.199219 280.285156-18.378907 18.382813zm0 0" fill="#e7e8f2"/><path d="m179.199219 280.285156-18.378907 18.382813zm0 0" fill="#e6e8f2"/><path d="m179.199219 280.292969-18.371094 18.375h-.007813l18.378907-18.382813zm0 0" fill="#e5e7f2"/><path d="m179.199219 280.292969-18.371094 18.375zm0 0" fill="#e4e7f2"/><path d="m179.199219 280.292969-18.371094 18.375zm0 0" fill="#e3e6f2"/><path d="m179.199219 280.304688-18.363281 18.363281h-.007813l18.371094-18.375zm0 0" fill="#e2e6f2"/><path d="m179.199219 280.304688-18.363281 18.363281zm0 0" fill="#e1e6f2"/><path d="m179.199219 280.304688-18.363281 18.363281zm0 0" fill="#e0e5f2"/><path d="m179.199219 280.3125-18.355469 18.355469h-.007812l18.363281-18.363281zm0 0" fill="#dfe5f2"/><path d="m179.199219 280.3125-18.355469 18.355469zm0 0" fill="#dee4f2"/><path d="m179.199219 280.3125-18.355469 18.355469zm0 0" fill="#dde4f2"/><path d="m179.199219 280.320312-18.347657 18.347657h-.007812l18.355469-18.355469zm0 0" fill="#dce3f2"/><path d="m179.199219 280.320312-18.347657 18.347657zm0 0" fill="#dbe3f2"/><path d="m179.199219 280.320312-18.347657 18.347657zm0 0" fill="#dae2f2"/><path d="m179.199219 280.328125-18.335938 18.339844h-.011719l18.347657-18.347657zm0 0" fill="#d9e2f2"/><path d="m179.199219 280.328125-18.335938 18.339844zm0 0" fill="#d8e1f2"/><path d="m179.199219 280.328125-18.335938 18.339844zm0 0" fill="#d7e1f2"/><path d="m179.199219 280.335938-18.328125 18.332031h-.007813l18.335938-18.339844zm0 0" fill="#d6e0f2"/><path d="m179.199219 280.335938-18.328125 18.332031zm0 0" fill="#d5e0f2"/><path d="m179.199219 280.335938-18.328125 18.332031zm0 0" fill="#d4dff2"/><path d="m179.199219 280.34375-18.320313 18.324219h-.007812l18.328125-18.332031zm0 0" fill="#d3dff2"/><path d="m160.878906 298.667969 18.320313-18.324219v18.324219zm0 0" fill="#d3dff2"/><path d="m477.867188 264.535156v42.664063h-206.667969v-42.664063zm0 0" fill="var(--resa-icon-light, #a4c2f7)"/><path d="m17.066406 499.199219h25.601563c-4.714844 0-8.535157-3.820313-8.535157-8.53125v-17.066407c0-4.714843 3.820313-8.535156 8.535157-8.535156h17.066406v-320h-16.726563c-3.277343.101563-6.324218-1.6875-7.832031-4.601562-1.511719-2.910156-1.21875-6.429688.75-9.050782l92.757813-119.46875c1.726562-2.144531 4.328125-3.398437 7.082031-3.410156h-25.601563c-2.753906.011719-5.355468 1.265625-7.082031 3.410156l-92.757812 119.46875c-1.96875 2.621094-2.261719 6.140626-.75 9.050782 1.511719 2.914062 4.554687 4.703125 7.832031 4.601562h16.726562v320h-17.066406c-4.710937 0-8.53125 3.820313-8.53125 8.535156v17.066407c0 4.710937 3.820313 8.53125 8.53125 8.53125zm0 0" fill="#fff"/><path d="m494.933594 512h-477.867188c-9.425781 0-17.066406-7.640625-17.066406-17.066406v-17.066406c0-9.425782 7.640625-17.066407 17.066406-17.066407h477.867188c9.425781 0 17.066406 7.640625 17.066406 17.066407v17.066406c0 9.425781-7.640625 17.066406-17.066406 17.066406zm-477.867188-34.132812v17.066406h477.867188v-17.066406zm0 0" fill="var(--resa-icon-primary, #428dff)"/><path d="m42.667969 145.066406v324.265625h-17.066407v-324.265625zm0 0" fill="#fff"/><g fill="var(--resa-icon-primary, #428dff)"><path d="m34.132812 187.734375c4.714844 0 8.535157-3.820313 8.535157-8.535156v-34.132813h-17.066407v34.132813c0 4.714843 3.820313 8.535156 8.53125 8.535156zm0 0"/><path d="m25.601562 469.332031h17.066407v-221.867187c0-4.710938-3.820313-8.53125-8.535157-8.53125-4.710937 0-8.53125 3.820312-8.53125 8.53125zm0 0"/><path d="m42.667969 213.332031c-.035157-2.257812-.917969-4.421875-2.476563-6.058593l-1.28125-1.023438c-.472656-.324219-.992187-.582031-1.535156-.765625-.484375-.25-1-.421875-1.535156-.515625-.5625-.09375-1.132813-.148438-1.707032-.167969-2.257812.03125-4.421874.914063-6.058593 2.472657-.769531.816406-1.378907 1.773437-1.792969 2.816406-1.285156 3.183594-.585938 6.824218 1.792969 9.300781.816406.773437 1.773437 1.382813 2.816406 1.792969 1.027344.4375 2.128906.667968 3.242187.683594 2.269532.023437 4.453126-.867188 6.058594-2.472657 1.605469-1.605469 2.5-3.792969 2.476563-6.0625zm0 0"/><path d="m109.140625 153.601562h-75.007813c-4.710937 0-8.53125-3.820312-8.53125-8.535156 0-4.710937 3.820313-8.53125 8.53125-8.53125h75.007813c4.714844 0 8.535156 3.820313 8.535156 8.53125 0 4.714844-3.820312 8.535156-8.535156 8.535156zm0 0"/><path d="m477.867188 477.867188h-443.734376c-4.710937 0-8.53125-3.820313-8.53125-8.535157 0-4.710937 3.820313-8.53125 8.53125-8.53125h435.199219v-307.199219h-220.074219c-4.710937 0-8.53125-3.820312-8.53125-8.535156 0-4.710937 3.820313-8.53125 8.53125-8.53125h228.609376c4.710937 0 8.53125 3.820313 8.53125 8.53125v324.265625c0 4.714844-3.820313 8.535157-8.53125 8.535157zm0 0"/><path d="m494.59375 153.601562h-245.335938c-4.710937 0-8.53125-3.820312-8.53125-8.535156 0-4.710937 3.820313-8.53125 8.53125-8.53125h245.335938l-92.417969-119.359375-292.011719-.109375-93.097656 119.578125 17.066406-.109375h75.007813c4.714844 0 8.535156 3.820313 8.535156 8.53125 0 4.714844-3.820312 8.535156-8.535156 8.535156h-91.734375c-6.636719.0625-12.71875-3.683593-15.65625-9.636718-2.863281-5.777344-2.152344-12.6875 1.824219-17.765625l92.765625-119.484375c3.359375-4.210938 8.441406-6.6796878 13.824218-6.714844h291.671876c5.339843.0234375 10.386718 2.453125 13.738281 6.613281l92.839843 119.570313c3.984376 5.078125 4.699219 11.996094 1.835938 17.78125-2.9375 5.953125-9.019531 9.699218-15.65625 9.636718zm0 0"/><path d="m273.066406 221.867188c-7.179687-.003907-14.027344-3.015626-18.882812-8.304688l-74.984375-81.808594-74.988281 81.808594c-9.734376 10.035156-25.609376 10.726562-36.175782 1.570312-10.417968-9.550781-11.125-25.738281-1.578125-36.164062l93.867188-102.398438c.1875-.207031.546875-.546874.851562-.855468.308594-.304688.566407-.605469.761719-.773438.429688-.390625.890625-.746094 1.375-1.066406.59375-.507812 1.222656-.972656 1.875-1.402344.710938-.460937 1.398438-.851562 2.109375-1.226562.753906-.402344 1.527344-.765625 2.320313-1.085938.75-.320312 1.515624-.605468 2.296874-.851562.851563-.238282 1.609376-.4375 2.40625-.589844.804688-.160156 1.621094-.277344 2.4375-.351562 2.464844-.234376 4.953126-.117188 7.382813.359374 1.609375.324219 3.1875.796876 4.710937 1.410157.765626.3125 1.515626.664062 2.242188 1.058593.742188.382813 1.460938.804688 2.160156 1.261719.738282.488281 1.453125 1.019531 2.132813 1.585938.394531.25.765625.535156 1.109375.855469.273437.25.535156.519531.777344.800781.300781.273437.640624.589843.851562.785156l93.867188 102.398437c6.925781 7.488282 8.746093 18.367188 4.636718 27.699219-4.109375 9.335938-13.367187 15.335938-23.5625 15.285157zm-93.867187-111.273438c2.394531 0 4.675781 1.007812 6.289062 2.773438l81.289063 88.667968c3.234375 3.367188 8.546875 3.597656 12.058594.519532 1.667968-1.527344 2.660156-3.660157 2.757812-5.921876.097656-2.257812-.707031-4.464843-2.238281-6.132812l-93.578125-102.09375c-.230469-.195312-.476563-.417969-.605469-.546875l-.246094-.265625-.359375-.273438-.75-.5625-1.460937-.757812-1.566407-.460938-1.589843-.15625-1.707031.164063-1.527344.460937-.777344.375-1.472656 1.007813-.335938.246094c-.085937.101562-.179687.199219-.28125.289062l-.757812.683594-93.296875 101.890625c-1.527344 1.667969-2.332031 3.875-2.234375 6.132812.097656 2.261719 1.089844 4.394532 2.757812 5.921876 3.507813 3.085937 8.824219 2.855468 12.054688-.519532l81.289062-88.667968c1.617188-1.765626 3.898438-2.773438 6.289063-2.773438zm0 0"/><path d="m273.066406 477.867188h-187.734375c-4.710937 0-8.53125-3.820313-8.53125-8.535157v-256c0-4.710937 3.820313-8.53125 8.53125-8.53125 4.714844 0 8.535157 3.820313 8.535157 8.53125v247.46875h170.667968v-247.46875c0-4.710937 3.820313-8.53125 8.53125-8.53125 4.714844 0 8.535156 3.820313 8.535156 8.53125v256c0 4.714844-3.820312 8.535157-8.535156 8.535157zm0 0"/><path d="m230.398438 307.199219h-102.398438c-9.425781 0-17.066406-7.640625-17.066406-17.066407v-51.199218c0-9.425782 7.640625-17.066406 17.066406-17.066406h102.398438c9.425781 0 17.066406 7.640624 17.066406 17.066406v51.199218c0 9.425782-7.640625 17.066407-17.066406 17.066407zm-102.398438-68.265625v51.199218h102.398438v-51.199218zm0 0"/><path d="m179.199219 307.199219c-4.710938 0-8.53125-3.820313-8.53125-8.53125v-68.269531c0-4.710938 3.820312-8.53125 8.53125-8.53125 4.714843 0 8.535156 3.820312 8.535156 8.53125v68.269531c0 4.710937-3.820313 8.53125-8.535156 8.53125zm0 0"/><path d="m221.867188 477.867188h-85.332032c-4.714844 0-8.535156-3.820313-8.535156-8.535157v-110.933593c0-14.136719 11.460938-25.597657 25.601562-25.597657h51.199219c14.136719 0 25.597657 11.460938 25.597657 25.597657v110.933593c0 4.714844-3.820313 8.535157-8.53125 8.535157zm-76.800782-17.066407h68.265625v-102.402343c0-4.710938-3.820312-8.53125-8.53125-8.53125h-51.199219c-4.714843 0-8.535156 3.820312-8.535156 8.53125zm0 0"/><path d="m477.867188 315.734375h-204.800782c-4.710937 0-8.53125-3.820313-8.53125-8.535156v-42.664063c0-4.714844 3.820313-8.535156 8.53125-8.535156h204.800782c4.710937 0 8.53125 3.820312 8.53125 8.535156v42.664063c0 4.714843-3.820313 8.535156-8.53125 8.535156zm-196.265626-17.066406h187.730469v-25.601563h-187.730469zm0 0"/><path d="m307.199219 315.734375c-4.710938 0-8.53125-3.820313-8.53125-8.535156v-42.664063c0-4.714844 3.820312-8.535156 8.53125-8.535156 4.714843 0 8.535156 3.820312 8.535156 8.535156v42.664063c0 4.714843-3.820313 8.535156-8.535156 8.535156zm0 0"/><path d="m341.332031 315.734375c-4.710937 0-8.53125-3.820313-8.53125-8.535156v-42.664063c0-4.714844 3.820313-8.535156 8.53125-8.535156 4.714844 0 8.535157 3.820312 8.535157 8.535156v42.664063c0 4.714843-3.820313 8.535156-8.535157 8.535156zm0 0"/><path d="m375.464844 315.734375c-4.710938 0-8.53125-3.820313-8.53125-8.535156v-42.664063c0-4.714844 3.820312-8.535156 8.53125-8.535156 4.714844 0 8.535156 3.820312 8.535156 8.535156v42.664063c0 4.714843-3.820312 8.535156-8.535156 8.535156zm0 0"/><path d="m409.601562 315.734375c-4.714843 0-8.535156-3.820313-8.535156-8.535156v-42.664063c0-4.714844 3.820313-8.535156 8.535156-8.535156 4.710938 0 8.53125 3.820312 8.53125 8.535156v42.664063c0 4.714843-3.820312 8.535156-8.53125 8.535156zm0 0"/><path d="m443.734375 315.734375c-4.714844 0-8.535156-3.820313-8.535156-8.535156v-42.664063c0-4.714844 3.820312-8.535156 8.535156-8.535156 4.710937 0 8.53125 3.820312 8.53125 8.535156v42.664063c0 4.714843-3.820313 8.535156-8.53125 8.535156zm0 0"/><path d="m409.601562 238.933594h-68.269531c-9.425781 0-17.066406-7.640625-17.066406-17.066406v-34.132813c0-9.425781 7.640625-17.066406 17.066406-17.066406h68.269531c9.425782 0 17.066407 7.640625 17.066407 17.066406v34.132813c0 9.425781-7.640625 17.066406-17.066407 17.066406zm-68.269531-51.199219v34.132813h68.269531v-34.132813zm0 0"/><path d="m375.464844 238.933594c-4.710938 0-8.53125-3.820313-8.53125-8.535156v-51.199219c0-4.710938 3.820312-8.53125 8.53125-8.53125 4.714844 0 8.535156 3.820312 8.535156 8.53125v51.199219c0 4.714843-3.820312 8.535156-8.535156 8.535156zm0 0"/><path d="m477.867188 477.867188h-204.800782c-4.710937 0-8.53125-3.820313-8.53125-8.535157v-42.664062c0-4.714844 3.820313-8.535157 8.53125-8.535157h204.800782c4.710937 0 8.53125 3.820313 8.53125 8.535157v42.664062c0 4.714844-3.820313 8.535157-8.53125 8.535157zm-196.265626-17.066407h187.730469v-25.601562h-187.730469zm0 0"/><path d="m307.199219 477.867188c-4.710938 0-8.53125-3.820313-8.53125-8.535157v-42.664062c0-4.714844 3.820312-8.535157 8.53125-8.535157 4.714843 0 8.535156 3.820313 8.535156 8.535157v42.664062c0 4.714844-3.820313 8.535157-8.535156 8.535157zm0 0"/><path d="m341.332031 477.867188c-4.710937 0-8.53125-3.820313-8.53125-8.535157v-42.664062c0-4.714844 3.820313-8.535157 8.53125-8.535157 4.714844 0 8.535157 3.820313 8.535157 8.535157v42.664062c0 4.714844-3.820313 8.535157-8.535157 8.535157zm0 0"/><path d="m375.464844 477.867188c-4.710938 0-8.53125-3.820313-8.53125-8.535157v-42.664062c0-4.714844 3.820312-8.535157 8.53125-8.535157 4.714844 0 8.535156 3.820313 8.535156 8.535157v42.664062c0 4.714844-3.820312 8.535157-8.535156 8.535157zm0 0"/><path d="m409.601562 477.867188c-4.714843 0-8.535156-3.820313-8.535156-8.535157v-42.664062c0-4.714844 3.820313-8.535157 8.535156-8.535157 4.710938 0 8.53125 3.820313 8.53125 8.535157v42.664062c0 4.714844-3.820312 8.535157-8.53125 8.535157zm0 0"/><path d="m443.734375 477.867188c-4.714844 0-8.535156-3.820313-8.535156-8.535157v-42.664062c0-4.714844 3.820312-8.535157 8.535156-8.535157 4.710937 0 8.53125 3.820313 8.53125 8.535157v42.664062c0 4.714844-3.820313 8.535157-8.53125 8.535157zm0 0"/><path d="m409.601562 401.066406h-68.269531c-9.425781 0-17.066406-7.640625-17.066406-17.066406v-34.132812c0-9.425782 7.640625-17.066407 17.066406-17.066407h68.269531c9.425782 0 17.066407 7.640625 17.066407 17.066407v34.132812c0 9.425781-7.640625 17.066406-17.066407 17.066406zm-68.269531-51.199218v34.132812h68.269531v-34.132812zm0 0"/><path d="m375.464844 401.066406c-4.710938 0-8.53125-3.820312-8.53125-8.53125v-51.203125c0-4.710937 3.820312-8.53125 8.53125-8.53125 4.714844 0 8.535156 3.820313 8.535156 8.53125v51.203125c0 4.710938-3.820312 8.53125-8.535156 8.53125zm0 0"/><path d="m196.265625 418.132812c-1.113281-.015624-2.214844-.246093-3.242187-.683593-1.042969-.414063-1.996094-1.023438-2.816407-1.789063-.769531-.816406-1.378906-1.773437-1.792969-2.816406-.90625-2.070312-.90625-4.425781 0-6.496094.433594-1.03125 1.039063-1.980468 1.792969-2.804687.816407-.777344 1.773438-1.386719 2.816407-1.800781 3.183593-1.285157 6.828124-.582032 9.300781 1.800781.753906.824219 1.359375 1.773437 1.792969 2.804687.910156 2.070313.910156 4.425782 0 6.496094-.414063 1.042969-1.019532 2-1.792969 2.816406-1.636719 1.554688-3.800781 2.4375-6.058594 2.472656zm0 0"/></g></svg>