<svg height="512pt" viewBox="0 0 512 512.00224" width="512pt" xmlns="http://www.w3.org/2000/svg"><style>:root{--resa-icon-primary:#428dff;--resa-icon-secondary:#7facfa;--resa-icon-light:#a4c2f7;--resa-icon-bg:#e8edfc;}</style><path d="m477.882812 34.136719v145.066406h-234.664062v-153.601563h226.132812c4.710938 0 8.53125 3.820313 8.53125 8.535157zm0 0" fill="var(--resa-icon-light, #a4c2f7)"/><path d="m452.285156 34.136719v145.066406h-209.066406v-153.601563h200.53125c4.714844 0 8.535156 3.820313 8.535156 8.535157zm0 0" fill="var(--resa-icon-bg, #e3e7f2)"/><path d="m469.351562 179.203125v140.800781h-213.332031v-140.800781h42.664063l61.867187-131.585937c.421875-.65625 1.011719-1.1875 1.707031-1.535157 6.484376-3.753906 25.855469-2.644531 28.84375 2.304688l61.183594 130.816406zm0 0" fill="var(--resa-icon-light, #a4c2f7)"/><path d="m443.75 179.203125v140.800781h-187.730469v-140.800781h42.664063l61.867187-131.585937c.421875-.65625 1.011719-1.1875 1.707031-1.535157 1.296876.410157 2.429688 1.214844 3.242188 2.304688zm0 0" fill="var(--resa-icon-bg, #e3e7f2)"/><path d="m496.144531 375.46875h-248.660156v-59.734375h221.867187l30.464844 53.335937c.757813 1.316407.761719 2.9375.003906 4.253907-.753906 1.320312-2.15625 2.136719-3.675781 2.144531zm0 0" fill="var(--resa-icon-light, #a4c2f7)"/><path d="m392.550781 162.136719v25.597656c0 4.714844-3.820312 8.535156-8.53125 8.535156h-17.066406c-4.714844 0-8.535156-3.820312-8.535156-8.535156v-25.597656zm0 0" fill="var(--resa-icon-bg, #e3e7f2)"/><path d="m392.550781 136.535156v25.601563h-34.132812v-25.601563c0-4.710937 3.820312-8.53125 8.535156-8.53125h17.066406c4.710938 0 8.53125 3.820313 8.53125 8.53125zm0 0" fill="var(--resa-icon-bg, #e3e7f2)"/><path d="m401.085938 221.867188v68.269531h-34.132813c-4.714844 0-8.535156-3.820313-8.535156-8.535157v-51.199218c0-4.714844 3.820312-8.535156 8.535156-8.535156zm0 0" fill="var(--resa-icon-bg, #e3e7f2)"/><path d="m435.21875 230.402344v51.199218c0 4.714844-3.820312 8.535157-8.535156 8.535157h-25.597656v-68.269531h25.597656c4.714844 0 8.535156 3.820312 8.535156 8.535156zm0 0" fill="var(--resa-icon-bg, #e3e7f2)"/><path d="m324.285156 256.003906v25.597656c0 4.714844-3.820312 8.535157-8.535156 8.535157h-17.066406c-4.710938 0-8.53125-3.820313-8.53125-8.535157v-25.597656zm0 0" fill="var(--resa-icon-bg, #e3e7f2)"/><path d="m324.285156 230.402344v25.601562h-34.132812v-25.601562c0-4.714844 3.820312-8.535156 8.53125-8.535156h17.066406c4.714844 0 8.535156 3.820312 8.535156 8.535156zm0 0" fill="var(--resa-icon-bg, #e3e7f2)"/><path d="m246.035156 375.46875h248.917969v128h-248.917969zm0 0" fill="var(--resa-icon-light, #a4c2f7)"/><path d="m246.035156 375.46875h223.316406v128h-223.316406zm0 0" fill="var(--resa-icon-bg, #e3e7f2)"/><path d="m256.019531 25.601562v153.601563h-221.867187v-145.066406c0-4.714844 3.820312-8.535157 8.53125-8.535157zm0 0" fill="var(--resa-icon-light, #a4c2f7)"/><path d="m238.953125 25.601562v153.601563h-200.535156v-145.066406c0-4.714844 3.820312-8.535157 8.535156-8.535157zm0 0" fill="var(--resa-icon-bg, #e3e7f2)"/><path d="m256.019531 179.203125v140.800781h-213.335937v-140.800781h17.066406l59.734375-128.710937c3.328125-5.542969 33.648437-5.542969 36.976563 0l56.890624 128.710937zm0 0" fill="var(--resa-icon-bg, #e3e7f2)"/><path d="m256.019531 315.734375v59.734375h-240.128906c-1.519531-.007812-2.921875-.824219-3.675781-2.144531-.757813-1.316407-.753906-2.9375.003906-4.253907l30.464844-53.335937zm0 0" fill="var(--resa-icon-secondary, #7facfa)"/><path d="m230.417969 315.734375v59.734375h-214.527344c-1.519531-.007812-2.921875-.824219-3.675781-2.144531-.757813-1.316407-.753906-2.9375.003906-4.253907l30.464844-53.335937zm0 0" fill="var(--resa-icon-bg, #e3e7f2)"/><path d="m17.085938 375.46875h238.933593v128h-238.933593zm0 0" fill="var(--resa-icon-light, #a4c2f7)"/><path d="m17.085938 375.46875h213.332031v128h-213.332031zm0 0" fill="var(--resa-icon-bg, #e3e7f2)"/><path d="m153.617188 230.402344v51.199218c0 4.714844-3.820313 8.535157-8.53125 8.535157h-34.132813v-68.269531h34.132813c4.710937 0 8.53125 3.820312 8.53125 8.535156zm0 0" fill="var(--resa-icon-bg, #e3e7f2)"/><path d="m110.953125 221.867188v68.269531h-25.601563c-4.714843 0-8.535156-3.820313-8.535156-8.535157v-51.199218c0-4.714844 3.820313-8.535156 8.535156-8.535156zm0 0" fill="var(--resa-icon-bg, #e3e7f2)"/><path d="m85.351562 409.601562v68.265626h-25.601562c-4.710938 0-8.53125-3.820313-8.53125-8.53125v-51.199219c0-4.714844 3.820312-8.535157 8.53125-8.535157zm0 0" fill="var(--resa-icon-bg, #e3e7f2)"/><path d="m128.019531 418.136719v51.199219c0 4.710937-3.820312 8.53125-8.535156 8.53125h-34.132813v-68.265626h34.132813c4.714844 0 8.535156 3.820313 8.535156 8.535157zm0 0" fill="var(--resa-icon-bg, #e3e7f2)"/><path d="m153.617188 162.136719v25.597656c0 4.714844-3.820313 8.535156-8.53125 8.535156h-17.066407c-4.714843 0-8.535156-3.820312-8.535156-8.535156v-25.597656zm0 0" fill="var(--resa-icon-bg, #e3e7f2)"/><path d="m153.617188 136.535156v25.601563h-34.132813v-25.601563c0-4.710937 3.820313-8.53125 8.535156-8.53125h17.066407c4.710937 0 8.53125 3.820313 8.53125 8.53125zm0 0" fill="var(--resa-icon-bg, #e3e7f2)"/><path d="m221.882812 230.402344v25.601562h-34.132812v-25.601562c0-4.714844 3.820312-8.535156 8.535156-8.535156h17.066406c4.710938 0 8.53125 3.820312 8.53125 8.535156zm0 0" fill="var(--resa-icon-bg, #e3e7f2)"/><path d="m221.882812 256.003906v25.597656c0 4.714844-3.820312 8.535157-8.53125 8.535157h-17.066406c-4.714844 0-8.535156-3.820313-8.535156-8.535157v-25.597656zm0 0" fill="var(--resa-icon-bg, #e3e7f2)"/><path d="m221.882812 418.136719v85.332031h-59.730468v-85.332031c0-4.714844 3.820312-8.535157 8.53125-8.535157h42.667968c4.710938 0 8.53125 3.820313 8.53125 8.535157zm0 0" fill="var(--resa-icon-secondary, #7facfa)"/><path d="m200.550781 418.136719v85.332031h-38.398437v-85.332031c0-4.714844 3.820312-8.535157 8.53125-8.535157h21.335937c4.710938 0 8.53125 3.820313 8.53125 8.535157zm0 0" fill="var(--resa-icon-bg, #e3e7f2)"/><path d="m426.683594 409.601562v68.265626h-34.132813c-4.710937 0-8.53125-3.820313-8.53125-8.53125v-51.199219c0-4.714844 3.820313-8.535157 8.53125-8.535157zm0 0" fill="var(--resa-icon-bg, #e3e7f2)"/><path d="m460.816406 418.136719v51.199219c0 4.710937-3.820312 8.53125-8.53125 8.53125h-25.601562v-68.265626h25.601562c4.710938 0 8.53125 3.820313 8.53125 8.535157zm0 0" fill="var(--resa-icon-bg, #e3e7f2)"/><path d="m349.882812 418.136719v85.332031h-59.730468v-85.332031c0-4.714844 3.820312-8.535157 8.53125-8.535157h42.667968c4.710938 0 8.53125 3.820313 8.53125 8.535157zm0 0" fill="var(--resa-icon-light, #a4c2f7)"/><path d="m328.550781 418.136719v85.332031h-38.398437v-85.332031c0-4.714844 3.820312-8.535157 8.53125-8.535157h21.335937c4.710938 0 8.53125 3.820313 8.53125 8.535157zm0 0" fill="var(--resa-icon-bg, #d4e1f4)"/><path d="m487.101562 179.203125h-29.867187c3.414063 0-.675781-.386719-2.558594-3.199219l-94.125-158.765625.9375-1.449219c3.21875-4.535156 8.4375-7.230468 13.996094-7.230468 5.5625 0 10.777344 2.695312 13.996094 7.230468l101.203125 156.84375c.84375 1.3125.902344 2.976563.15625 4.347657-.746094 1.367187-2.179688 2.21875-3.738282 2.222656zm0 0" fill="var(--resa-icon-light, #a4c2f7)"/><path d="m466.28125 375.46875h-218.796875v-59.734375h192l30.464844 53.335937c.757812 1.316407.761719 2.9375.007812 4.253907-.757812 1.320312-2.15625 2.136719-3.675781 2.144531zm0 0" fill="var(--resa-icon-bg, #d4e1f4)"/><path d="m457.234375 179.203125h-2.558594c-1.496093-.003906-2.882812-.777344-3.671875-2.050781l-68.179687-113.234375c-1.539063-2.589844-4.328125-4.179688-7.339844-4.179688s-5.800781 1.589844-7.339844 4.179688l-7.59375 12.628906-60.585937 100.605469c-.789063 1.273437-2.175782 2.046875-3.667969 2.050781h-32.429687c-1.558594-.003906-2.992188-.855469-3.738282-2.222656-.746094-1.371094-.6875-3.035157.15625-4.347657l100.265625-155.394531 100.097657 161.964844c1.875 2.816406 0 0-3.414063 0zm0 0" fill="var(--resa-icon-bg, #d4e1f4)"/><path d="m248.167969 179.203125h-29.867188c3.414063 0-3.070312.152344-4.949219-2.664063l-91.734374-159.300781.941406-1.449219c3.214844-4.535156 8.433594-7.230468 13.992187-7.230468 5.5625 0 10.777344 2.695312 13.996094 7.230468l101.203125 156.84375c.84375 1.3125.902344 2.976563.15625 4.347657-.746094 1.367187-2.179688 2.21875-3.738281 2.222656zm0 0" fill="var(--resa-icon-secondary, #7facfa)"/><path d="m218.300781 179.203125h-2.558593c-1.496094-.003906-2.882813-.777344-3.671876-2.050781l-68.179687-113.234375c-1.539063-2.589844-4.328125-4.179688-7.339844-4.179688s-5.800781 1.589844-7.339843 4.179688l-7.59375 12.628906-60.585938 100.605469c-.789062 1.273437-2.175781 2.046875-3.667969 2.050781h-32.429687c-1.558594-.003906-2.992188-.855469-3.738282-2.222656-.746093-1.371094-.6875-3.035157.15625-4.347657l100.265626-155.394531 98.238281 159.113281c1.875 2.851563 1.859375 2.851563-1.554688 2.851563zm0 0" fill="var(--resa-icon-bg, #e3e7f2)"/><path d="m122.558594 15.789062-.941406 1.449219-5.390626 8.363281h25.597657l5.394531-8.363281.9375-1.449219c.375-.449218.773438-.875 1.195312-1.28125-3.429687-3.953124-8.480468-6.113281-13.707031-5.863281-5.226562.25-10.050781 2.882813-13.085937 7.144531zm0 0" fill="#fff"/><path d="m41.488281 375.46875c-1.519531-.007812-2.917969-.824219-3.675781-2.144531-.753906-1.316407-.75-2.9375.007812-4.253907l30.464844-53.335937v-136.53125h-17.75c-1.558594-.003906-2.992187-.855469-3.738281-2.222656-.746094-1.371094-.6875-3.035157.15625-4.347657l12.796875-19.839843v-118.65625c0-4.714844 3.820312-8.535157 8.535156-8.535157h-25.601562c-4.710938 0-8.53125 3.820313-8.53125 8.535157v118.65625l-12.800782 19.839843c-.84375 1.3125-.902343 2.976563-.15625 4.347657.746094 1.367187 2.179688 2.21875 3.738282 2.222656h17.75v136.53125l-30.464844 53.335937c-.757812 1.316407-.761719 2.9375-.003906 4.253907.753906 1.320312 2.15625 2.136719 3.675781 2.144531h1.195313v128h25.597656v-128zm0 0" fill="#fff"/><path d="m256.019531 512.003906c-4.714843 0-8.535156-3.820312-8.535156-8.535156v-315.734375h-34.132813c-2.992187 0-5.761718-1.566406-7.304687-4.128906l-69.496094-115.335938-69.496093 115.335938c-1.542969 2.5625-4.3125 4.128906-7.304688 4.128906h-42.664062c-3.125 0-5.996094-1.707031-7.492188-4.449219-1.492188-2.742187-1.371094-6.082031.324219-8.707031l105.480469-163.390625c4.734374-6.949219 12.582031-11.1328125 20.992187-11.1875s16.3125 4.027344 21.136719 10.917969l98.492187 152.546875 98.3125-152.277344c4.734375-6.949219 12.582031-11.1328125 20.992188-11.1875 8.410156-.0546875 16.3125 4.027344 21.136719 10.917969l105.660156 163.660156c1.691406 2.625 1.816406 5.964844.320312 8.707031-1.492187 2.742188-4.367187 4.449219-7.488281 4.449219h-42.667969c-2.992187 0-5.761718-1.566406-7.304687-4.128906l-69.496094-115.335938-69.496094 115.335938c-1.542969 2.5625-4.3125 4.128906-7.304687 4.128906h-34.132813v315.734375c0 4.714844-3.820312 8.535156-8.53125 8.535156zm201.085938-341.335937h22.1875l-96.980469-150.1875c-1.734375-2.035157-4.289062-3.1875-6.964844-3.132813-2.671875.050782-5.179687 1.296875-6.835937 3.398438l-96.828125 149.921875h22.1875l66.988281-111.195313c3.085937-5.136718 8.636719-8.28125 14.628906-8.28125 5.992188 0 11.546875 3.144532 14.632813 8.28125zm-238.933594 0h22.1875l-96.980469-150.1875c-1.734375-2.035157-4.289062-3.1875-6.960937-3.132813-2.675781.050782-5.183594 1.296875-6.839844 3.398438l-96.828125 149.921875h22.1875l66.988281-111.195313c3.085938-5.136718 8.636719-8.28125 14.628907-8.28125 5.992187 0 11.546874 3.144532 14.632812 8.28125zm0 0" fill="var(--resa-icon-primary, #428dff)"/><path d="m298.683594 187.734375h-85.332032c-4.714843 0-8.535156-3.820313-8.535156-8.53125 0-4.714844 3.820313-8.535156 8.535156-8.535156h85.332032c4.714844 0 8.535156 3.820312 8.535156 8.535156 0 4.710937-3.820312 8.53125-8.535156 8.53125zm0 0" fill="var(--resa-icon-primary, #428dff)"/><path d="m51.21875 179.203125v136.53125h-17.066406v-136.53125zm0 0" fill="#fff"/><g fill="var(--resa-icon-primary, #428dff)"><path d="m42.683594 221.867188c4.714844 0 8.535156-3.820313 8.535156-8.53125v-34.132813h-17.066406v34.132813c0 4.710937 3.820312 8.53125 8.53125 8.53125zm0 0"/><path d="m34.152344 315.734375h17.066406v-34.132813c0-4.710937-3.820312-8.53125-8.535156-8.53125-4.710938 0-8.53125 3.820313-8.53125 8.53125zm0 0"/><path d="m51.21875 247.46875c-.035156-2.257812-.917969-4.421875-2.476562-6.058594l-1.277344-1.023437c-.476563-.324219-.992188-.582031-1.539063-.769531-.480469-.246094-1-.417969-1.535156-.511719-.5625-.09375-1.132813-.152344-1.707031-.167969-2.257813.03125-4.421875.914062-6.058594 2.472656-.769531.816406-1.378906 1.773438-1.792969 2.816406-1.285156 3.183594-.582031 6.824219 1.792969 9.300782.816406.773437 1.773438 1.378906 2.816406 1.792968 1.027344.4375 2.128906.667969 3.242188.683594 2.269531.019532 4.457031-.871094 6.058594-2.476562 1.605468-1.605469 2.5-3.789063 2.476562-6.058594zm0 0"/><path d="m59.75 187.734375h-17.066406c-4.710938 0-8.53125-3.820313-8.53125-8.53125 0-4.714844 3.820312-8.535156 8.53125-8.535156h17.066406c4.714844 0 8.535156 3.820312 8.535156 8.535156 0 4.710937-3.820312 8.53125-8.535156 8.53125zm0 0"/><path d="m469.351562 324.269531h-426.667968c-4.710938 0-8.53125-3.820312-8.53125-8.535156 0-4.710937 3.820312-8.53125 8.53125-8.53125h418.132812v-119.46875h-8.53125c-4.714844 0-8.535156-3.820313-8.535156-8.53125 0-4.714844 3.820312-8.535156 8.535156-8.535156h17.066406c4.710938 0 8.53125 3.820312 8.53125 8.535156v136.53125c0 4.714844-3.820312 8.535156-8.53125 8.535156zm0 0"/><path d="m256.019531 384.003906h-247.46875c-3.050781.003906-5.875-1.621094-7.402343-4.261718-1.527344-2.640626-1.53125-5.898438-.003907-8.539063l34.132813-59.734375c1.472656-2.722656 4.304687-4.4375 7.402344-4.476562 3.097656-.035157 5.96875 1.605468 7.511718 4.292968 1.539063 2.6875 1.5 5.996094-.101562 8.648438l-26.835938 47.003906h232.765625c4.710938 0 8.53125 3.820312 8.53125 8.53125 0 4.714844-3.820312 8.535156-8.53125 8.535156zm0 0"/><path d="m503.484375 384.003906h-247.464844c-4.714843 0-8.535156-3.820312-8.535156-8.535156 0-4.710938 3.820313-8.53125 8.535156-8.53125h232.753907l-26.828126-46.933594c-1.601562-2.652344-1.636718-5.964844-.097656-8.652344 1.539063-2.6875 4.414063-4.328124 7.507813-4.289062 3.097656.039062 5.929687 1.75 7.402343 4.476562l34.132813 59.730469c1.492187 2.640625 1.472656 5.871094-.050781 8.492188-1.527344 2.617187-4.324219 4.234375-7.355469 4.242187zm0 0"/><path d="m494.953125 512.003906h-477.867187c-4.714844 0-8.535157-3.820312-8.535157-8.535156v-128c0-4.710938 3.820313-8.53125 8.535157-8.53125h477.867187c4.710937 0 8.53125 3.820312 8.53125 8.53125v128c0 4.714844-3.820313 8.535156-8.53125 8.535156zm-469.335937-17.066406h460.800781v-110.933594h-460.800781zm0 0"/><path d="m34.152344 161.28125c-4.714844 0-8.535156-3.820312-8.535156-8.53125v-118.613281c0-9.425781 7.640624-17.066407 17.066406-17.066407h73.558594c4.710937 0 8.53125 3.820313 8.53125 8.53125 0 4.714844-3.820313 8.535157-8.53125 8.535157h-73.558594v118.613281c0 4.710938-3.820313 8.53125-8.53125 8.53125zm0 0"/><path d="m477.882812 161.28125c-4.710937 0-8.53125-3.820312-8.53125-8.53125v-118.613281h-73.558593c-4.710938 0-8.53125-3.820313-8.53125-8.535157 0-4.710937 3.820312-8.53125 8.53125-8.53125h73.558593c9.425782 0 17.066407 7.640626 17.066407 17.066407v118.613281c0 4.710938-3.820313 8.53125-8.535157 8.53125zm0 0"/><path d="m59.75 187.734375h-25.597656c-4.714844 0-8.535156-3.820313-8.535156-8.53125 0-4.714844 3.820312-8.535156 8.535156-8.535156h25.597656c4.714844 0 8.535156 3.820312 8.535156 8.535156 0 4.710937-3.820312 8.53125-8.535156 8.53125zm0 0"/><path d="m477.882812 187.734375h-25.597656c-4.714844 0-8.535156-3.820313-8.535156-8.53125 0-4.714844 3.820312-8.535156 8.535156-8.535156h25.597656c4.714844 0 8.535157 3.820312 8.535157 8.535156 0 4.710937-3.820313 8.53125-8.535157 8.53125zm0 0"/><path d="m298.683594 187.734375h-85.332032c-4.714843 0-8.535156-3.820313-8.535156-8.53125 0-4.714844 3.820313-8.535156 8.535156-8.535156h85.332032c4.714844 0 8.535156 3.820312 8.535156 8.535156 0 4.710937-3.820312 8.53125-8.535156 8.53125zm0 0"/><path d="m355.175781 34.136719h-198.316406c-4.710937 0-8.53125-3.820313-8.53125-8.535157 0-4.710937 3.820313-8.53125 8.53125-8.53125h198.316406c4.710938 0 8.53125 3.820313 8.53125 8.53125 0 4.714844-3.820312 8.535157-8.53125 8.535157zm0 0"/><path d="m145.085938 298.667969h-59.734376c-9.425781 0-17.066406-7.640625-17.066406-17.066407v-51.199218c0-9.425782 7.640625-17.066406 17.066406-17.066406h59.734376c9.425781 0 17.066406 7.640624 17.066406 17.066406v51.199218c0 9.425782-7.640625 17.066407-17.066406 17.066407zm-59.734376-68.265625v51.199218h59.734376v-51.199218zm0 0"/><path d="m110.953125 298.667969c-4.714844 0-8.535156-3.820313-8.535156-8.53125v-68.269531c0-4.710938 3.820312-8.53125 8.535156-8.53125 4.710937 0 8.53125 3.820312 8.53125 8.53125v68.269531c0 4.710937-3.820313 8.53125-8.53125 8.53125zm0 0"/><path d="m119.484375 486.402344h-59.734375c-9.425781 0-17.066406-7.640625-17.066406-17.066406v-51.199219c0-9.425781 7.640625-17.066407 17.066406-17.066407h59.734375c9.425781 0 17.066406 7.640626 17.066406 17.066407v51.199219c0 9.425781-7.640625 17.066406-17.066406 17.066406zm-59.734375-68.265625v51.199219h59.734375v-51.199219zm0 0"/><path d="m85.351562 486.402344c-4.714843 0-8.535156-3.820313-8.535156-8.535156v-68.265626c0-4.710937 3.820313-8.53125 8.535156-8.53125 4.710938 0 8.53125 3.820313 8.53125 8.53125v68.265626c0 4.714843-3.820312 8.535156-8.53125 8.535156zm0 0"/><path d="m145.085938 204.800781h-17.066407c-9.425781 0-17.066406-7.640625-17.066406-17.066406v-51.199219c0-9.425781 7.640625-17.066406 17.066406-17.066406h17.066407c9.425781 0 17.066406 7.640625 17.066406 17.066406v51.199219c0 9.425781-7.640625 17.066406-17.066406 17.066406zm-17.066407-68.265625v51.199219h17.066407v-51.199219zm0 0"/><path d="m153.617188 170.667969h-34.132813c-4.710937 0-8.53125-3.820313-8.53125-8.53125 0-4.714844 3.820313-8.535157 8.53125-8.535157h34.132813c4.714843 0 8.535156 3.820313 8.535156 8.535157 0 4.710937-3.820313 8.53125-8.535156 8.53125zm0 0"/><path d="m384.019531 204.800781h-17.066406c-9.425781 0-17.070313-7.640625-17.070313-17.066406v-51.199219c0-9.425781 7.644532-17.066406 17.070313-17.066406h17.066406c9.425781 0 17.066407 7.640625 17.066407 17.066406v51.199219c0 9.425781-7.640626 17.066406-17.066407 17.066406zm-17.066406-68.265625v51.199219h17.066406v-51.199219zm0 0"/><path d="m392.550781 170.667969h-34.132812c-4.710938 0-8.535157-3.820313-8.535157-8.53125 0-4.714844 3.824219-8.535157 8.535157-8.535157h34.132812c4.714844 0 8.535157 3.820313 8.535157 8.535157 0 4.710937-3.820313 8.53125-8.535157 8.53125zm0 0"/><path d="m213.351562 298.667969h-17.066406c-9.425781 0-17.066406-7.640625-17.066406-17.066407v-51.199218c0-9.425782 7.640625-17.066406 17.066406-17.066406h17.066406c9.425782 0 17.066407 7.640624 17.066407 17.066406v51.199218c0 9.425782-7.640625 17.066407-17.066407 17.066407zm-17.066406-68.265625v51.199218h17.066406v-51.199218zm0 0"/><path d="m221.882812 264.535156h-34.132812c-4.710938 0-8.53125-3.820312-8.53125-8.53125 0-4.714844 3.820312-8.535156 8.53125-8.535156h34.132812c4.714844 0 8.535157 3.820312 8.535157 8.535156 0 4.710938-3.820313 8.53125-8.535157 8.53125zm0 0"/><path d="m221.882812 512.003906h-59.730468c-4.714844 0-8.535156-3.820312-8.535156-8.535156v-85.332031c0-9.425781 7.640624-17.066407 17.066406-17.066407h42.667968c9.425782 0 17.066407 7.640626 17.066407 17.066407v85.332031c0 4.714844-3.820313 8.535156-8.535157 8.535156zm-51.199218-17.066406h42.667968v-76.800781h-42.667968zm0 0"/><path d="m196.285156 469.335938c-3.46875.019531-6.601562-2.058594-7.929687-5.261719-1.332031-3.203125-.589844-6.890625 1.871093-9.332031.816407-.769532 1.769532-1.378907 2.816407-1.789063 3.183593-1.289063 6.824219-.585937 9.300781 1.789063 1.558594 1.636718 2.441406 3.800781 2.472656 6.058593-.011718 1.117188-.242187 2.21875-.679687 3.242188-.433594 1.035156-1.039063 1.988281-1.792969 2.816406-1.636719 1.558594-3.800781 2.441406-6.058594 2.476563zm0 0"/><path d="m426.683594 298.667969h-59.730469c-9.425781 0-17.070313-7.640625-17.070313-17.066407v-51.199218c0-9.425782 7.644532-17.066406 17.070313-17.066406h59.730469c9.425781 0 17.066406 7.640624 17.066406 17.066406v51.199218c0 9.425782-7.640625 17.066407-17.066406 17.066407zm-59.730469-68.265625v51.199218h59.730469v-51.199218zm0 0"/><path d="m401.085938 298.667969c-4.714844 0-8.535157-3.820313-8.535157-8.53125v-68.269531c0-4.710938 3.820313-8.53125 8.535157-8.53125 4.710937 0 8.53125 3.820312 8.53125 8.53125v68.269531c0 4.710937-3.820313 8.53125-8.53125 8.53125zm0 0"/><path d="m452.285156 486.402344h-59.734375c-9.425781 0-17.066406-7.640625-17.066406-17.066406v-51.199219c0-9.425781 7.640625-17.066407 17.066406-17.066407h59.734375c9.425782 0 17.066406 7.640626 17.066406 17.066407v51.199219c0 9.425781-7.640624 17.066406-17.066406 17.066406zm-59.734375-68.265625v51.199219h59.734375v-51.199219zm0 0"/><path d="m426.683594 486.402344c-4.710938 0-8.53125-3.820313-8.53125-8.535156v-68.265626c0-4.710937 3.820312-8.53125 8.53125-8.53125 4.714844 0 8.535156 3.820313 8.535156 8.53125v68.265626c0 4.714843-3.820312 8.535156-8.535156 8.535156zm0 0"/><path d="m315.75 298.667969h-17.066406c-9.425782 0-17.066406-7.640625-17.066406-17.066407v-51.199218c0-9.425782 7.640624-17.066406 17.066406-17.066406h17.066406c9.425781 0 17.066406 7.640624 17.066406 17.066406v51.199218c0 9.425782-7.640625 17.066407-17.066406 17.066407zm-17.066406-68.265625v51.199218h17.066406v-51.199218zm0 0"/><path d="m324.285156 264.535156h-34.132812c-4.714844 0-8.535156-3.820312-8.535156-8.53125 0-4.714844 3.820312-8.535156 8.535156-8.535156h34.132812c4.710938 0 8.53125 3.820312 8.53125 8.535156 0 4.710938-3.820312 8.53125-8.53125 8.53125zm0 0"/><path d="m349.882812 512.003906h-59.730468c-4.714844 0-8.535156-3.820312-8.535156-8.535156v-85.332031c0-9.425781 7.640624-17.066407 17.066406-17.066407h42.667968c9.425782 0 17.066407 7.640626 17.066407 17.066407v85.332031c0 4.714844-3.820313 8.535156-8.535157 8.535156zm-51.199218-17.066406h42.667968v-76.800781h-42.667968zm0 0"/><path d="m315.75 469.335938c-3.464844.019531-6.601562-2.058594-7.929688-5.261719-1.328124-3.203125-.589843-6.890625 1.871094-9.332031.816406-.769532 1.773438-1.378907 2.816406-1.789063 3.183594-1.296875 6.828126-.59375 9.300782 1.789063 1.558594 1.636718 2.441406 3.800781 2.476562 6.058593.027344 1.121094-.203125 2.230469-.683594 3.242188-.433593 1.035156-1.039062 1.988281-1.792968 2.816406l-1.277344 1.027344c-.476562.320312-.992188.578125-1.539062.765625-.480469.246094-1 .417968-1.535157.511718-.5625.097657-1.132812.152344-1.707031.171876zm0 0"/></g></svg>