<?xml version="1.0" encoding="iso-8859-1"?>
<!-- Generator: Adobe Illustrator 19.0.0, SVG Export Plug-In . SVG Version: 6.00 Build 0)  -->
<svg version="1.1" id="Capa_1" xmlns="http://www.w3.org/2000/svg" xmlns:xlink="http://www.w3.org/1999/xlink" x="0px" y="0px"
	 viewBox="0 0 512 512" style="enable-background:new 0 0 512 512;" xml:space="preserve"><style>:root{--resa-icon-primary:#428dff;--resa-icon-secondary:#7facfa;--resa-icon-light:#a4c2f7;--resa-icon-bg:#e8edfc;}</style>
<g>
	<g transform="translate(1)">
		<path style="fill:#D4E1F4;" d="M342.158,120.522V86.299l-82.286-47.438V6.737c0-3.721-3.016-6.737-6.737-6.737
			c-3.721,0-6.737,3.016-6.737,6.737v24.356l-10.346-5.965v-0.067l-2.437,1.409V13.303c0-3.721-3.016-6.737-6.737-6.737
			s-6.737,3.016-6.737,6.737v20.956l-52.266,30.213l-29.777,17.246v327.949l165.592,95.596l68.177-39.411V137.971L342.158,120.522z"
			/>
		<g>
			<polygon style="fill:#A4C2F7;" points="273.916,159.865 342.093,120.522 342.16,120.522 371.869,137.971 303.693,177.314 			"/>
			<polygon style="fill:#A4C2F7;" points="138.101,81.718 167.878,64.472 167.878,98.627 			"/>
			<polygon style="fill:#A4C2F7;" points="371.869,137.971 371.869,465.853 303.693,505.263 303.693,177.314 			"/>
		</g>
		<g>
			<polygon style="fill:#D4E1F4;" points="273.916,125.709 273.916,159.865 167.878,98.627 167.878,64.472 			"/>
			<polygon style="fill:#D4E1F4;" points="342.16,86.299 342.16,86.366 342.093,86.366 273.916,125.709 167.878,64.472 
				236.055,25.061 236.055,25.128 			"/>
		</g>
		<g>
			<polygon style="fill:#A4C2F7;" points="342.16,86.366 342.16,120.522 342.093,120.522 273.916,159.865 273.916,125.709 
				342.093,86.366 			"/>
			<path style="fill:#A4C2F7;" d="M226.878,72.546c-1.787,0.001-3.501-0.708-4.765-1.972c-1.264-1.264-1.973-2.978-1.972-4.765
				V13.303c0-3.721,3.016-6.737,6.737-6.737s6.737,3.016,6.737,6.737v52.507c0.001,1.787-0.708,3.501-1.972,4.765
				C230.379,71.838,228.665,72.547,226.878,72.546z"/>
			<path style="fill:#A4C2F7;" d="M253.135,92.237c-1.787,0.001-3.501-0.708-4.765-1.972c-1.264-1.264-1.973-2.978-1.972-4.765
				V6.737c0-3.721,3.016-6.737,6.737-6.737s6.737,3.016,6.737,6.737V85.5c0.001,1.787-0.708,3.501-1.972,4.765
				C256.636,91.528,254.922,92.238,253.135,92.237z"/>
			<path style="fill:#A4C2F7;" d="M279.385,105.368c-1.787,0.001-3.501-0.708-4.765-1.972c-1.264-1.264-1.973-2.978-1.972-4.765
				V78.941c0-3.721,3.016-6.737,6.737-6.737c3.721,0,6.737,3.016,6.737,6.737v19.691c0.001,1.787-0.708,3.501-1.972,4.765
				C282.886,104.66,281.172,105.369,279.385,105.368z"/>
		</g>
		<g>
			<polyline style="fill:#F0F3F4;" points="303.706,230.427 271.41,211.786 271.41,184.482 303.706,203.123 			"/>
			<polygon style="fill:#F0F3F4;" points="193.343,167.229 240.999,194.742 240.999,167.411 193.343,139.897 			"/>
		</g>
		<polyline style="fill:#EBECED;" points="138.101,135.323 169.542,153.499 169.542,126.127 138.101,108.012 		"/>
		<g>
			<polyline style="fill:#F0F3F4;" points="303.706,285.103 271.41,266.462 271.41,239.091 303.706,257.799 			"/>
			<polygon style="fill:#F0F3F4;" points="193.343,221.891 240.999,249.405 240.999,222.073 193.343,194.56 			"/>
			<polyline style="fill:#F0F3F4;" points="138.101,189.992 169.542,208.108 169.542,180.803 138.101,162.688 			"/>
			<polyline style="fill:#F0F3F4;" points="303.706,339.779 271.41,321.071 271.41,293.767 303.706,312.408 			"/>
			<polygon style="fill:#F0F3F4;" points="193.343,276.554 240.999,304.067 240.999,276.736 193.343,249.223 			"/>
			<polyline style="fill:#F0F3F4;" points="138.101,244.669 169.542,262.784 169.542,235.48 138.101,217.364 			"/>
			<polyline style="fill:#F0F3F4;" points="303.706,394.388 271.41,375.747 271.41,348.443 303.706,367.084 			"/>
			<polygon style="fill:#F0F3F4;" points="193.343,331.217 240.999,358.73 240.999,331.399 193.343,303.885 			"/>
			<polyline style="fill:#F0F3F4;" points="138.101,299.345 169.542,317.46 169.542,290.156 138.101,271.973 			"/>
			<polyline style="fill:#F0F3F4;" points="303.706,449.064 271.41,430.424 271.41,403.119 303.706,421.76 			"/>
			<polygon style="fill:#F0F3F4;" points="193.343,385.873 240.999,413.386 240.999,386.055 193.343,358.541 			"/>
			<polygon style="fill:#F0F3F4;" points="169.542,344.765 169.542,372.136 138.101,354.021 138.101,326.649 			"/>
			<polyline style="fill:#F0F3F4;" points="303.706,503.741 271.41,485.1 271.41,457.728 303.706,476.436 			"/>
		</g>
		<g>
			<polygon style="fill:#D4E1F4;" points="322.387,193.799 354.684,175.158 354.684,202.462 322.387,221.103 			"/>
			<polygon style="fill:#D4E1F4;" points="322.387,248.475 354.684,229.767 354.684,257.139 322.387,275.779 			"/>
			<polygon style="fill:#D4E1F4;" points="322.387,303.084 354.684,284.443 354.684,311.747 322.387,330.456 			"/>
			<polygon style="fill:#D4E1F4;" points="322.387,357.76 354.684,339.119 354.684,366.424 322.387,385.064 			"/>
			<polygon style="fill:#D4E1F4;" points="322.387,412.436 354.684,393.795 354.684,421.1 322.387,439.741 			"/>
			<polygon style="fill:#D4E1F4;" points="322.387,467.112 354.684,448.404 354.684,475.776 322.387,494.417 			"/>
		</g>
		<g>
			<polygon style="fill:#F0F3F4;" points="193.343,440.536 240.999,468.049 240.999,440.717 193.343,413.204 			"/>
			<polyline style="fill:#F0F3F4;" points="138.101,408.63 169.542,426.745 169.542,399.441 138.101,381.325 			"/>
		</g>
	</g>
	<path style="fill:#FFFFFF;" d="M159.309,95.192l29.777-17.246l52.266-30.213V26.776c0-0.123,0.063-0.225,0.07-0.347l-0.07,0.04
		V13.303c0-3.721-3.016-6.737-6.737-6.737s-6.737,3.016-6.737,6.737v20.956l-52.266,30.213l-29.777,17.246v327.949l13.474,7.778
		L159.309,95.192z"/>
	<g>
		<path style="fill:#428DFF;" d="M190.97,173.066l47.658,27.513c2.085,1.204,4.653,1.203,6.737,0s3.368-3.428,3.368-5.835v-27.329
			c0.001-2.407-1.283-4.632-3.368-5.836l-47.658-27.513c-2.085-1.204-4.653-1.203-6.737,0c-2.084,1.204-3.368,3.428-3.368,5.835
			v27.329C187.601,169.638,188.886,171.862,190.97,173.066z M201.076,151.572l34.184,19.73v11.77l-34.184-19.73V151.572z"/>
		<path style="fill:#428DFF;" d="M190.97,227.724l47.658,27.52c2.085,1.204,4.653,1.203,6.737,0
			c2.084-1.204,3.368-3.428,3.368-5.835v-27.336c0.001-2.407-1.283-4.632-3.368-5.836l-47.658-27.513
			c-2.085-1.204-4.653-1.203-6.737,0c-2.084,1.204-3.368,3.428-3.368,5.835v27.329C187.601,224.295,188.886,226.52,190.97,227.724z
			 M201.076,206.23l34.184,19.73v11.776L201.076,218V206.23z"/>
		<path style="fill:#428DFF;" d="M190.97,282.388l47.658,27.513c2.085,1.204,4.653,1.203,6.737,0
			c2.084-1.204,3.368-3.428,3.368-5.835v-27.329c0.001-2.407-1.283-4.632-3.368-5.836l-47.658-27.513
			c-2.085-1.204-4.653-1.203-6.737,0c-2.084,1.204-3.368,3.428-3.368,5.835v27.329C187.601,278.96,188.886,281.185,190.97,282.388z
			 M201.076,260.895l34.184,19.73v11.77l-34.184-19.73V260.895z"/>
		<path style="fill:#428DFF;" d="M190.97,337.046l47.658,27.52c2.085,1.204,4.653,1.203,6.737,0
			c2.084-1.204,3.368-3.428,3.368-5.835v-27.336c0.001-2.407-1.283-4.632-3.368-5.836l-47.658-27.513
			c-2.085-1.204-4.653-1.203-6.737,0c-2.084,1.204-3.368,3.428-3.368,5.835v27.329C187.601,333.618,188.886,335.843,190.97,337.046z
			 M201.076,315.553l34.184,19.73v11.776l-34.184-19.737V315.553z"/>
		<path style="fill:#428DFF;" d="M248.734,386.059c0.001-2.407-1.283-4.632-3.368-5.836l-47.658-27.513
			c-2.085-1.204-4.653-1.203-6.737,0c-2.084,1.204-3.368,3.428-3.368,5.835v27.329c-0.001,2.407,1.283,4.632,3.368,5.836
			l47.658,27.513c2.085,1.204,4.653,1.203,6.737,0c2.084-1.204,3.368-3.428,3.368-5.835V386.059z M235.26,401.717l-34.184-19.73
			v-11.77l34.184,19.73V401.717z"/>
		<path style="fill:#428DFF;" d="M320.017,226.941c2.085,1.202,4.652,1.202,6.737,0l32.296-18.645
			c2.085-1.203,3.369-3.428,3.368-5.836v-27.303c0-2.407-1.283-4.631-3.368-5.835c-2.084-1.204-4.653-1.204-6.737,0l-32.296,18.638
			c-2.085,1.203-3.369,3.428-3.368,5.836v27.309C316.648,223.513,317.932,225.737,320.017,226.941z M330.122,197.684l18.822-10.862
			v11.75l-18.822,10.862V197.684z"/>
		<path style="fill:#428DFF;" d="M320.017,281.612c2.085,1.202,4.652,1.202,6.737,0l32.296-18.638
			c2.085-1.203,3.369-3.428,3.368-5.836V229.77c-0.001-2.408-1.287-4.632-3.373-5.834c-2.086-1.202-4.655-1.2-6.739,0.005
			l-32.296,18.704c-2.08,1.205-3.36,3.426-3.362,5.829v27.303C316.648,278.184,317.932,280.408,320.017,281.612z M330.122,252.355
			l18.822-10.901v11.796l-18.822,10.862V252.355z"/>
		<path style="fill:#428DFF;" d="M320.023,336.29c2.085,1.204,4.654,1.201,6.737-0.007l32.296-18.704
			c2.079-1.205,3.36-3.426,3.362-5.829v-27.309c0-2.407-1.283-4.631-3.368-5.835c-2.084-1.204-4.653-1.204-6.737,0l-32.296,18.644
			c-2.085,1.203-3.369,3.428-3.368,5.836v27.368C316.647,332.863,317.934,335.089,320.023,336.29z M330.122,306.974l18.822-10.862
			v11.757l-18.822,10.901V306.974z"/>
		<path style="fill:#428DFF;" d="M320.017,390.901c2.085,1.202,4.652,1.202,6.737,0l32.296-18.645
			c2.085-1.203,3.369-3.428,3.368-5.836v-27.303c0-2.407-1.283-4.632-3.368-5.835c-2.084-1.204-4.653-1.204-6.737,0l-32.296,18.645
			c-2.085,1.203-3.369,3.428-3.368,5.835v27.303C316.648,387.473,317.932,389.698,320.017,390.901z M330.122,361.651l18.822-10.862
			v11.743l-18.822,10.862V361.651z"/>
		<path style="fill:#428DFF;" d="M320.017,445.579c2.085,1.202,4.652,1.202,6.737,0l32.296-18.645
			c2.085-1.203,3.369-3.428,3.368-5.836v-27.302c0-2.407-1.283-4.632-3.368-5.835c-2.084-1.204-4.653-1.204-6.737,0l-32.296,18.638
			c-2.085,1.204-3.369,3.428-3.368,5.836v27.309C316.647,442.151,317.932,444.376,320.017,445.579z M330.122,416.322l18.822-10.862
			v11.75l-18.822,10.862V416.322z"/>
		<path style="fill:#428DFF;" d="M227.878,6.566c-1.787-0.001-3.501,0.708-4.765,1.972s-1.973,2.978-1.972,4.765v13.204
			l-55.437,32.034c-0.071,0.038-0.151,0.051-0.221,0.091c-0.072,0.041-0.123,0.105-0.193,0.148L135.74,75.855l-0.013,0.012
			c-0.68,0.411-1.281,0.941-1.773,1.565c-0.124,0.15-0.236,0.294-0.346,0.453c-0.794,1.114-1.228,2.445-1.242,3.813v327.987
			c-0.001,2.407,1.283,4.632,3.368,5.836l165.571,95.55c1.032,0.605,2.206,0.926,3.402,0.93c1.18,0.001,2.34-0.31,3.362-0.901
			l68.211-39.382c0.259-0.196,0.503-0.411,0.73-0.643c0.729-0.509,1.315-1.197,1.702-1.997c0.184-0.308,0.341-0.63,0.471-0.964
			c0.166-0.501,0.27-1.02,0.312-1.546c0.06-0.23,0.107-0.463,0.141-0.699V137.947c0-0.162-0.051-0.313-0.063-0.472
			c-0.018-0.262-0.053-0.522-0.103-0.78c-0.116-0.636-0.323-1.252-0.615-1.828c-0.053-0.104-0.049-0.219-0.108-0.321
			c-0.079-0.136-0.213-0.211-0.299-0.34c-0.322-0.479-0.705-0.914-1.139-1.294c-0.232-0.21-0.479-0.402-0.738-0.576
			c-0.094-0.062-0.166-0.148-0.264-0.205l-26.428-15.478V86.322c0-0.222-0.065-0.431-0.086-0.65
			c-0.011-0.115-0.027-0.222-0.044-0.337c-0.247-1.676-1.125-3.195-2.454-4.246c-0.09-0.072-0.177-0.14-0.271-0.208
			c-0.176-0.126-0.323-0.285-0.513-0.395l-85.638-49.409V6.737c0-3.721-3.016-6.737-6.737-6.737c-3.721,0-6.737,3.016-6.737,6.737
			v16.568l-6.993-4.035c-0.178-0.103-0.377-0.104-0.56-0.189c-0.516-0.253-1.063-0.437-1.627-0.548
			c-0.829-0.105-1.668-0.094-2.494,0.033c-0.379,0.087-0.75,0.208-1.108,0.36v-5.624c0.001-1.787-0.708-3.501-1.972-4.765
			S229.665,6.565,227.878,6.566z M366.161,461.998l-3.743,2.161v-15.752c-0.001-2.408-1.287-4.632-3.373-5.834
			c-2.086-1.202-4.655-1.2-6.739,0.005l-32.296,18.704c-2.079,1.205-3.36,3.426-3.362,5.829v23.473l-5.211,3.008V181.187
			l54.724-31.595V461.998z M330.122,482.75v-11.757l18.822-10.901v11.796L330.122,482.75z M201.076,436.645v-11.77l34.184,19.73
			v11.776L201.076,436.645z M245.365,434.882l-47.658-27.513c-2.085-1.204-4.653-1.203-6.737,0
			c-2.084,1.204-3.368,3.428-3.368,5.835v16.693l-10.322-5.957v-24.499c0-2.409-1.287-4.634-3.375-5.836l-28.066-16.168v-11.763
			l21.342,12.299c2.084,1.202,4.651,1.201,6.734-0.002c2.083-1.204,3.366-3.427,3.365-5.833V344.77
			c0.001-2.409-1.286-4.635-3.375-5.836l-28.066-16.174v-11.759l21.342,12.295c2.084,1.202,4.651,1.201,6.734-0.002
			c2.083-1.204,3.366-3.427,3.365-5.833v-27.303c0-2.404-1.281-4.625-3.362-5.829l-28.079-16.24v-11.763l21.342,12.299
			c2.084,1.202,4.651,1.201,6.734-0.002c2.083-1.204,3.366-3.427,3.365-5.833V235.48c0-2.409-1.287-4.634-3.375-5.836
			l-28.066-16.168v-11.829l21.342,12.299c2.084,1.202,4.651,1.201,6.734-0.002c2.083-1.204,3.366-3.427,3.365-5.833v-27.303
			c0.001-2.409-1.286-4.635-3.375-5.836L145.839,158.8v-11.796l21.329,12.331c2.085,1.205,4.655,1.205,6.741,0.002
			c2.086-1.204,3.371-3.429,3.371-5.837v-27.368c0.001-2.409-1.286-4.635-3.375-5.836l-28.066-16.174V93.368l152.125,87.848v10.237
			l-22.184-12.81c-2.085-1.204-4.653-1.203-6.737,0c-2.084,1.204-3.368,3.428-3.368,5.835v27.309
			c-0.001,2.407,1.284,4.632,3.368,5.836l28.921,16.694v11.791l-22.178-12.847c-2.084-1.206-4.653-1.208-6.739-0.005
			c-2.086,1.202-3.372,3.427-3.373,5.834v27.368c-0.001,2.407,1.284,4.632,3.368,5.836l28.921,16.7v11.743l-22.184-12.805
			c-2.085-1.204-4.653-1.203-6.737,0c-2.084,1.204-3.368,3.428-3.368,5.835v27.303c0.001,2.403,1.282,4.624,3.362,5.829
			l28.928,16.757v11.757l-22.184-12.81c-2.085-1.204-4.653-1.203-6.737,0c-2.084,1.204-3.368,3.428-3.368,5.835v27.309
			c-0.001,2.407,1.284,4.632,3.368,5.836l28.921,16.694v11.809l-22.184-12.805c-2.085-1.204-4.653-1.203-6.737,0
			c-2.084,1.204-3.368,3.428-3.368,5.835v27.303c-0.001,2.407,1.284,4.632,3.368,5.836l28.921,16.7v11.791l-22.178-12.847
			c-2.084-1.206-4.653-1.208-6.739-0.005c-2.086,1.202-3.372,3.427-3.373,5.834v17.221l-16.94-9.776v-24.458
			C248.734,438.31,247.45,436.085,245.365,434.882z M145.839,338.309l17.967,10.355v11.816l-17.967-10.355V338.309z
			 M145.839,392.983l17.967,10.352v11.757l-17.967-10.352V392.983z M145.839,283.652l17.967,10.394v11.757l-17.967-10.346V283.652z
			 M145.839,229.022l17.967,10.352v11.757l-17.967-10.352V229.022z M145.839,174.347l17.967,10.356v11.75l-17.967-10.352V174.347z
			 M145.839,119.67l17.967,10.356v11.796l-17.967-10.391V119.67z M297.964,218.76l-18.816-10.859v-11.75l18.816,10.864V218.76z
			 M297.964,273.435l-18.816-10.863v-11.789l18.816,10.896V273.435z M297.964,328.09l-18.816-10.899v-11.757l18.816,10.864V328.09z
			 M297.964,382.721l-18.816-10.859v-11.75l18.816,10.864V382.721z M297.964,437.396l-18.816-10.863v-11.75l18.816,10.864V437.396z
			 M297.964,492.069l-18.816-10.859v-11.789l18.816,10.896V492.069z M304.673,169.532l-16.502-9.529l54.914-31.705l16.388,9.595
			L304.673,169.532z M336.405,116.594l-54.763,31.618v-18.604l54.763-31.618V116.594z M268.168,148.211l-92.579-53.467V76.138
			l92.579,53.467V148.211z M162.115,87.206l-9.545-5.512l9.545-5.516V87.206z M254.135,92.237c1.787,0.001,3.501-0.708,4.765-1.972
			c1.264-1.264,1.973-2.978,1.972-4.765V46.635l68.792,39.687l-54.759,31.615l-92.551-53.453l38.788-22.413v23.738
			c0,3.721,3.016,6.737,6.737,6.737c3.721,0,6.737-3.016,6.737-6.737V34.285l2.423-1.4l10.36,5.977V85.5
			c-0.001,1.787,0.708,3.501,1.972,4.765C250.634,91.528,252.348,92.238,254.135,92.237L254.135,92.237z"/>
		<path style="fill:#428DFF;" d="M280.385,105.368c1.787,0.001,3.501-0.708,4.765-1.972c1.264-1.264,1.973-2.978,1.972-4.765V78.941
			c0-3.721-3.016-6.737-6.737-6.737c-3.721,0-6.737,3.016-6.737,6.737v19.691c-0.001,1.787,0.708,3.501,1.972,4.765
			S278.598,105.369,280.385,105.368z"/>
	</g>
</g>
<g>
</g>
<g>
</g>
<g>
</g>
<g>
</g>
<g>
</g>
<g>
</g>
<g>
</g>
<g>
</g>
<g>
</g>
<g>
</g>
<g>
</g>
<g>
</g>
<g>
</g>
<g>
</g>
<g>
</g>
</svg>
