<svg height="512" viewBox="0 0 60 54" width="512" xmlns="http://www.w3.org/2000/svg"><style>:root{--resa-icon-primary:#428dff;--resa-icon-secondary:#7facfa;--resa-icon-light:#a4c2f7;--resa-icon-bg:#e8edfc;}</style><g id="Page-1" fill="none" fill-rule="evenodd"><g id="014---House-Extension" fill-rule="nonzero" transform="translate(0 -1)"><path id="Shape" d="m39 18.72v30.28h-34v-30.29l17-12.27z" fill="var(--resa-icon-bg, #e8edfc)"/><path id="Shape" d="m22 6.44-1.5 1.08 15.5 11.2v30.28h3v-30.28z" fill="var(--resa-icon-bg, #e8edfc)"/><path id="Shape" d="m9 49v-17c0-.5522847.44771525-1 1-1h8c.5522847 0 1 .4477153 1 1v17z" fill="var(--resa-icon-light, #a4c2f7)"/><path id="Shape" d="m18 31h-3c.5522847 0 1 .4477153 1 1v17h3v-17c0-.5522847-.4477153-1-1-1z" fill="var(--resa-icon-secondary, #7facfa)"/><path id="Shape" d="m34 32v9h-10v-9c0-.5522847.4477153-1 1-1h8c.5522847 0 1 .4477153 1 1z" fill="var(--resa-icon-light, #a4c2f7)"/><path id="Shape" d="m33 31h-3c.5522847 0 1 .4477153 1 1v9h3v-9c0-.5522847-.4477153-1-1-1z" fill="var(--resa-icon-secondary, #7facfa)"/><path id="Shape" d="m42.78 18.62c-.2650299.5113721-.7376566.8836599-1.296878 1.0215501-.5592215.1378903-1.1507426.0279951-1.623122-.3015501l-.86-.62-17-12.28-17 12.27-.87.63c-.46278973.3235807-1.04080319.4364422-1.59132312.3107179-.55051992-.1257243-1.02223601-.4783164-1.29867688-.9707179-.47907953-.9394761-.18320093-2.0886857.69-2.68l18.92-13.64c.6899868-.48492424 1.6100132-.48492424 2.3 0l7.85 5.5v-3.86c0-.55228475.4477153-1 1-1h3c.5522847 0 1 .44771525 1 1v7.36l6.07 4.64c.856181.5746039 1.1589124 1.6917257.71 2.62z" fill="var(--resa-icon-bg, #e8edfc)"/><circle id="Oval" cx="22" cy="20" fill="var(--resa-icon-light, #a4c2f7)" r="6"/><path id="Shape" d="m22 14c-.5066588-.0001775-1.0110876.0670797-1.5.2 2.6313194.6969499 4.4637709 3.0779454 4.4637709 5.8s-1.8324515 5.1030501-4.4637709 5.8c.4889124.1329203.9933412.2001775 1.5.2 3.3137085 0 6-2.6862915 6-6s-2.6862915-6-6-6z" fill="var(--resa-icon-secondary, #7facfa)"/><path id="Shape" d="m59 51v2c0 .5522847-.4477153 1-1 1h-56c-.55228475 0-1-.4477153-1-1v-2c0-1.1045695.8954305-2 2-2h54c1.1045695 0 2 .8954305 2 2z" fill="var(--resa-icon-bg, #e8edfc)"/><path id="Shape" d="m57 49h-3c1.1045695 0 2 .8954305 2 2v2c0 .5522847-.4477153 1-1 1h3c.5522847 0 1-.4477153 1-1v-2c0-1.1045695-.8954305-2-2-2z" fill="var(--resa-icon-bg, #e8edfc)"/><path id="Shape" d="m59 25v2c0 .5522847-.4477153 1-1 1h-19v-4h19c.5522847 0 1 .4477153 1 1z" fill="var(--resa-icon-bg, #e8edfc)"/><path id="Rectangle-path" d="m39 28h18v21h-18z" fill="var(--resa-icon-light, #a4c2f7)"/><path id="Rectangle-path" d="m54 28h3v21h-3z" fill="var(--resa-icon-secondary, #7facfa)"/><path id="Shape" d="m2 54h3c-.55228475 0-1-.4477153-1-1v-2c0-1.1045695.8954305-2 2-2h2v-30.29l-.87.63c-.63154322.4406068-1.45995415.4794993-2.13.1v29.56h-2c-1.1045695 0-2 .8954305-2 2v2c0 .5522847.44771525 1 1 1z" fill="#fff"/><path id="Shape" d="m23.15 2.36c-.6899868-.48492424-1.6100132-.48492424-2.3 0l-18.92 13.64c-.87320093.5913143-1.16907953 1.7405239-.69 2.68.27644087.4924015.74815696.8449936 1.29867688.9707179.55051993.1257243 1.12853339.0128628 1.59132312-.3107179l.39-.28c-.10978857-.1136752-.20394959-.2414651-.28-.38-.47907953-.9394761-.18320093-2.0886857.69-2.68l18.58-13.39z" fill="#fff"/><path id="Rectangle-path" d="m4 41h2v8h-2z" fill="#fff"/><g fill="var(--resa-icon-primary, #428dff)"><circle id="Oval" cx="5" cy="45" r="1"/><circle id="Oval" cx="13" cy="40" r="1"/><path id="Shape" d="m33 30h-8c-1.1045695 0-2 .8954305-2 2v8c-.5522847 0-1 .4477153-1 1s.4477153 1 1 1h12c.5522847 0 1-.4477153 1-1s-.4477153-1-1-1v-8c0-1.1045695-.8954305-2-2-2zm-8 10v-8h8v8z"/><path id="Shape" d="m30.71 34.29c-.1877666-.1893127-.4433625-.2957983-.71-.2957983s-.5222334.1064856-.71.2957983l-2 2c-.1893127.1877666-.2957983.4433625-.2957983.71s.1064856.5222334.2957983.71c.1877666.1893127.4433625.2957983.71.2957983s.5222334-.1064856.71-.2957983l2-2c.1893127-.1877666.2957983-.4433625.2957983-.71s-.1064856-.5222334-.2957983-.71z"/><path id="Shape" d="m22 13c-3.8659932 0-7 3.1340068-7 7s3.1340068 7 7 7 7-3.1340068 7-7-3.1340068-7-7-7zm4.9 6h-3.9v-3.9c1.9642887.4006048 3.4993952 1.9357113 3.9 3.9zm-5.9-3.9v3.9h-3.9c.4006048-1.9642887 1.9357113-3.4993952 3.9-3.9zm-3.9 5.9h3.9v3.9c-1.9642887-.4006048-3.4993952-1.9357113-3.9-3.9zm5.9 3.9v-3.9h3.9c-.4006048 1.9642887-1.9357113 3.4993952-3.9 3.9z"/><path id="Shape" d="m58 23h-18v-2.49c1.4250029.5026816 3.0014631-.1329401 3.6792627-1.4834621.6777996-1.3505221.245359-2.9943702-1.0092627-3.8365379l-5.67-4.33v-6.86c0-1.1045695-.8954305-2-2-2h-3c-1.1045695 0-2 .8954305-2 2v1.94l-6.28-4.4c-1.0349802-.72738637-2.4150198-.72738637-3.45 0l-18.91 13.64c-1.30823461.880688-1.73988326 2.6072826-1 4 .72259356 1.2764612 2.26223692 1.843253 3.64 1.34v20.48c0 .5522847.44771525 1 1 1s1-.4477153 1-1v-21.77l16-11.56 16 11.55v28.78h-18v-16c0-1.1045695-.8954305-2-2-2h-8c-1.1045695 0-2 .8954305-2 2v16h-5c-1.65685425 0-3 1.3431458-3 3v2c0 1.1045695.8954305 2 2 2h56c1.1045695 0 2-.8954305 2-2v-2c-.0035644-1.2682549-.8042713-2.3972517-2-2.82v-19.18c1.1045695 0 2-.8954305 2-2v-2c0-1.1045695-.8954305-2-2-2zm-36.59-17.37-17.85 12.89c-.23171831.1635344-.52197842.220984-.79852097.1580467s-.51335333-.2403409-.65147903-.4880467c-.22511154-.497981-.05049528-1.0857138.41-1.38l18.91-13.63c.3427946-.23780708.7972054-.23780708 1.14 0l7.86 5.5c.2967259.20078642.6781948.22748925 1 .07.3440566-.16382882.5650963-.50896093.57-.89v-3.86h3v7.36c.0007439.3094966.144753.6012074.39.79l6.08 4.64c.4435519.2883968.6128821.8556527.4 1.34-.1417785.2588452-.3906562.4418435-.68.5-.2636779.0628143-.5415595.0158992-.77-.13l-17.83-12.87c-.3514198-.25679567-.8285802-.25679567-1.18 0zm-11.41 26.37h8v16h-8zm-8 21v-2c0-.5522847.44771525-1 1-1h54c.5522847 0 1 .4477153 1 1v2zm54-5h-16v-19h16zm-16-21v-2h18v2z"/><path id="Shape" d="m44 40h3v3c0 .5522847.4477153 1 1 1s1-.4477153 1-1v-3h3c.5522847 0 1-.4477153 1-1s-.4477153-1-1-1h-3v-3c0-.5522847-.4477153-1-1-1s-1 .4477153-1 1v3h-3c-.5522847 0-1 .4477153-1 1s.4477153 1 1 1z"/></g></g></g></svg>