<?xml version="1.0" encoding="UTF-8"?>
<svg xmlns="http://www.w3.org/2000/svg" xmlns:xlink="http://www.w3.org/1999/xlink" width="512" height="512" viewBox="0 0 60 60" version="1.1"><style>:root{--resa-icon-primary:#428dff;--resa-icon-secondary:#7facfa;--resa-icon-light:#a4c2f7;--resa-icon-bg:#e8edfc;}</style><!-- Generator: Sketch 51.3 (57544) - http://www.bohemiancoding.com/sketch --><title>019 - Home Insurance</title><desc>Created with Sketch.</desc><defs/><g id="Page-1" stroke="none" stroke-width="1" fill="none" fill-rule="evenodd"><g id="019---Home-Insurance" fill-rule="nonzero"><path d="M9,17 L9,5.1 C8.97506839,4.52106887 9.4213194,4.03019276 10,4 L16,4 C16.5786806,4.03019276 17.0249316,4.52106887 17,5.1 L17,10.132" id="Shape" fill="var(--resa-icon-bg, #e8edfc)"/><path d="M44,59 L9,59 C7.89679813,58.9967052 7.0032948,58.1032019 7,57 L7,25.33 L30,7 L53,27 L44,59 Z" id="Shape" fill="var(--resa-icon-bg, #e8edfc)"/><path d="M55,22.49 L55,27.96 C55.0007498,28.3412998 54.7830995,28.6893534 54.4399491,28.8556001 C54.0967988,29.0218469 53.6887612,28.9769216 53.39,28.74 L52,27.66 L49,25.33 L28.31,9.24 C28.127057,9.09995885 27.872943,9.09995885 27.69,9.24 L25.94,10.6 L7,25.33 L2.61,28.74 C2.3811349,28.9237323 2.08254538,28.9964475 1.7948286,28.938518 C1.50711181,28.8805884 1.25992853,28.697986 1.12,28.44 C1.03830571,28.2934076 0.996901442,28.1277906 1,27.96 L1,22.49 C0.998424214,22.1799636 1.14291393,21.8872793 1.39,21.7 L7,17.34 L25.94,2.6 L27.69,1.24 C27.872943,1.09995885 28.127057,1.09995885 28.31,1.24 L49,17.34 L54.61,21.7 C54.8570861,21.8872793 55.0015758,22.1799636 55,22.49 Z" id="Shape" fill="var(--resa-icon-secondary, #7facfa)"/><path d="M52,23.36 L52,27.66 L49,25.33 L28.31,9.24 C28.127057,9.09995885 27.872943,9.09995885 27.69,9.24 L25.94,10.6 L25.31,10.11 C25.1306042,9.95985378 24.8693958,9.95985378 24.69,10.11 L4,26.2 L1.12,28.44 C1.03830571,28.2934076 0.996901442,28.1277906 1,27.96 L1,22.49 C0.998424214,22.1799636 1.14291393,21.8872793 1.39,21.7 L7,17.34 L25.94,2.6 L46,18.21 L51.61,22.57 C51.8570861,22.7572793 52.0015758,23.0499636 52,23.36 Z" id="Shape" fill="var(--resa-icon-light, #a4c2f7)"/><path d="M37,37 L37,59 L19,59 L19,39 C19.0032948,37.8967981 19.8967981,37.0032948 21,37 L37,37 Z" id="Shape" fill="var(--resa-icon-secondary, #7facfa)"/><path d="M34,37 L34,59 L19,59 L19,39 C19.0032948,37.8967981 19.8967981,37.0032948 21,37 L34,37 Z" id="Shape" fill="var(--resa-icon-light, #a4c2f7)"/><path d="M59.15,27.92 L59.15,43.26 C59.1411189,46.4667018 57.5795998,49.4704832 54.96,51.32 L44.49,58.78 C44.1970806,58.9899915 43.8029194,58.9899915 43.51,58.78 L42.5,58.06 L33.04,51.32 C30.4204002,49.4704832 28.8588811,46.4667018 28.85,43.26 L28.85,27.92 C28.8516741,27.7314757 28.9658394,27.5621962 29.14,27.49 L42.5,21.72 L43.81,21.15 C43.9317307,21.099991 44.0682693,21.099991 44.19,21.15 L58.86,27.49 C59.0341606,27.5621962 59.1483259,27.7314757 59.15,27.92 Z" id="Shape" fill="var(--resa-icon-bg, #e8edfc)"/><path d="M56,27.92 L56,43.26 C55.9939105,46.4618984 54.4419486,49.4637733 51.833,51.32 L42.425,58.06 L33.017,51.32 C30.4080514,49.4637733 28.8560895,46.4618984 28.85,43.26 L28.85,27.92 C28.8513348,27.7319589 28.9646233,27.562813 29.138,27.49 L42.425,21.72 L55.712,27.49 C55.8853767,27.562813 55.9986652,27.7319589 56,27.92 Z" id="Shape" fill="#FFFFFF"/><path d="M35.126,48.334 C33.4876641,47.1747755 32.509707,45.2959508 32.5,43.289 L32.5,32.489 C32.4998939,30.9595927 33.4089881,29.576496 34.813,28.97 L44,25 L53.188,28.969 C54.5914444,29.5760097 55.5000164,30.9589098 55.5,32.488 L55.5,43.288 C55.4901648,45.2953973 54.511351,47.1744367 52.872,48.333 L44,54.651 L35.126,48.334 Z" id="Shape" fill="var(--resa-icon-light, #a4c2f7)"/><path d="M7,27.66 L7,57 C7.0032948,58.1032019 7.89679813,58.9967052 9,59 L12,59 C10.8967981,58.9967052 10.0032948,58.1032019 10,57 L10,25.33 L7,27.66 Z" id="Shape" fill="#FFFFFF"/><path d="M2.61,28.74 L4,27.66 L4,22.49 C3.99842421,22.1799636 4.14291393,21.8872793 4.39,21.7 L10,17.34 L12,15.783 L12,5.1 C11.9750684,4.52106887 12.4213194,4.03019276 13,4 L10,4 C9.4213194,4.03019276 8.97506839,4.52106887 9,5.1 L9,15.783 L7,17.34 L1.39,21.7 C1.14291393,21.8872793 0.998424214,22.1799636 1,22.49 L1,27.96 C0.996901442,28.1277906 1.03830571,28.2934076 1.12,28.44 C1.25992853,28.697986 1.50711181,28.8805884 1.7948286,28.938518 C2.08254538,28.9964475 2.3811349,28.9237323 2.61,28.74 Z" id="Shape" fill="#FFFFFF"/><polygon id="Shape" fill="#FFFFFF" points="8 25.33 8 38.33 8 57 6 57 6 38.33 6 25.33"/><path d="M7,30.33 C7.55228475,30.33 8,29.8822847 8,29.33 L8,25.33 L6,25.33 L6,29.33 C6,29.8822847 6.44771525,30.33 7,30.33 Z" id="Shape" fill="var(--resa-icon-primary, #428dff)"/><path d="M6,57 L8,57 L8,37.33 C8,36.7777153 7.55228475,36.33 7,36.33 C6.44771525,36.33 6,36.7777153 6,37.33 L6,57 Z" id="Shape" fill="var(--resa-icon-primary, #428dff)"/><path d="M8,33.33 C7.99611961,33.0652731 7.89256504,32.811743 7.71,32.62 L7.56,32.5 C7.50427287,32.4621227 7.44373808,32.4318554 7.38,32.41 C7.32333758,32.3811123 7.26266255,32.3608873 7.2,32.35 C7.13385548,32.3388692 7.06703885,32.3321875 7,32.33 C6.73527314,32.3338804 6.48174298,32.437435 6.29,32.62 C6.19960316,32.7156071 6.12832305,32.8276187 6.08,32.95 C5.92912342,33.3229737 6.01135194,33.7497788 6.29,34.04 C6.38560709,34.1303968 6.49761868,34.201677 6.62,34.25 C6.74022231,34.301241 6.86932274,34.32842 7,34.33 C7.26603534,34.3327011 7.52196165,34.2282118 7.71008674,34.0400867 C7.89821183,33.8519616 8.00270108,33.5960353 8,33.33 Z" id="Shape" fill="var(--resa-icon-primary, #428dff)"/><path d="M44,60 L9,60 C7.34314575,60 6,58.6568542 6,57 C6,56.4477153 6.44771525,56 7,56 C7.55228475,56 8,56.4477153 8,57 C8,57.5522847 8.44771525,58 9,58 L44,58 C44.5522847,58 45,58.4477153 45,59 C45,59.5522847 44.5522847,60 44,60 Z" id="Shape" fill="var(--resa-icon-primary, #428dff)"/><path d="M49,18.34 C48.7778152,18.3402271 48.5619733,18.2659324 48.387,18.129 L28,2.267 L7.614,18.129 C7.33287588,18.3578659 6.94990724,18.4166708 6.61306843,18.2826933 C6.27622962,18.1487158 6.03827349,17.8429383 5.99114335,17.4835094 C5.94401321,17.1240806 6.09509019,16.7672911 6.386,16.551 L27.386,0.211 C27.7471336,-0.0699253009 28.2528664,-0.0699253009 28.614,0.211 L49.614,16.551 C49.9509241,16.8133623 50.084073,17.2607211 49.9454508,17.6646218 C49.8068287,18.0685224 49.4270267,18.3398321 49,18.34 Z" id="Shape" fill="var(--resa-icon-primary, #428dff)"/><path d="M2,29.959 C0.8954305,29.959 5.07040698e-16,29.0635695 3.71772925e-16,27.959 L3.71772925e-16,22.49 C-0.00433889651,21.8657193 0.286741321,21.2761429 0.785,20.9 L27.386,0.211 C27.7471336,-0.0699253009 28.2528664,-0.0699253009 28.614,0.211 L55.224,20.911 C55.7165089,21.2860764 56.0039416,21.8709428 56,22.49 L56,25.38 C56,25.9322847 55.5522847,26.38 55,26.38 C54.4477153,26.38 54,25.9322847 54,25.38 L54,22.49 L28,2.267 L2,22.49 L2,27.96 L27.386,8.21 C27.7471336,7.9290747 28.2528664,7.9290747 28.614,8.21 L44.254,20.371 C44.5360612,20.5905397 44.6795734,20.9438806 44.6304771,21.2979226 C44.5813807,21.6519646 44.3471346,21.9529203 44.0159771,22.0874226 C43.6848195,22.2219249 43.3070612,22.1695397 43.025,21.95 L28,10.267 L3.224,29.53 C2.87666486,29.8080453 2.44491657,29.9593688 2,29.959 Z" id="Shape" fill="var(--resa-icon-primary, #428dff)"/><path d="M37,60 L19,60 C18.4477153,60 18,59.5522847 18,59 L18,39 C18,37.3431458 19.3431458,36 21,36 L29,36 C29.5522847,36 30,36.4477153 30,37 C30,37.5522847 29.5522847,38 29,38 L21,38 C20.4477153,38 20,38.4477153 20,39 L20,58 L36,58 L36,54.14 C36,53.5877153 36.4477153,53.14 37,53.14 C37.5522847,53.14 38,53.5877153 38,54.14 L38,59 C38,59.5522847 37.5522847,60 37,60 Z" id="Shape" fill="var(--resa-icon-primary, #428dff)"/><path d="M9,16.78 C8.44771525,16.78 8,16.3322847 8,15.78 L8,5 C8,3.8954305 8.8954305,3 10,3 L16,3 C17.1045695,3 18,3.8954305 18,5 L18,9.56 C18,10.1122847 17.5522847,10.56 17,10.56 C16.4477153,10.56 16,10.1122847 16,9.56 L16,5 L10,5 L10,15.78 C10,16.0452165 9.89464316,16.2995704 9.70710678,16.4871068 C9.5195704,16.6746432 9.26521649,16.78 9,16.78 Z" id="Shape" fill="var(--resa-icon-primary, #428dff)"/><path d="M44,60 C43.6142925,59.9999518 43.2384399,59.8781671 42.926,59.652 L32.561,52.175 C29.7010192,50.108123 28.0049998,46.7956606 28,43.267 L28,27.567 C28.0002048,27.1695648 28.2357446,26.809974 28.6,26.651 L43.6,20.085 C43.8550505,19.9736869 44.1449495,19.9736869 44.4,20.085 L59.4,26.651 C59.7642554,26.809974 59.9997952,27.1695648 60,27.567 L60,43.267 C59.9950002,46.7956606 58.2989808,50.108123 55.439,52.175 L45.073,59.653 C44.7606229,59.8784272 44.3852231,59.9998286 44,60 Z M30,28.22 L30,43.267 C30.0045804,46.1529088 31.3914472,48.8619467 33.73,50.553 L44,57.961 L54.27,50.553 C56.6085528,48.8619467 57.9954196,46.1529088 58,43.267 L58,28.22 L44,22.092 L30,28.22 Z" id="Shape" fill="var(--resa-icon-primary, #428dff)"/><path d="M44,55.262 C43.7899918,55.2619903 43.5853166,55.1958645 43.415,55.073 L34.9,48.931 C33.0814764,47.6168612 32.003086,45.5106532 32,43.267 L32,30.182 C32.0002048,29.7845648 32.2357446,29.424974 32.6,29.266 L43.6,24.45 C43.8550505,24.3386869 44.1449495,24.3386869 44.4,24.45 L55.4,29.266 C55.7642554,29.424974 55.9997952,29.7845648 56,30.182 L56,43.267 C55.9965937,45.5103004 54.9182384,47.616068 53.1,48.93 L44.585,55.073 C44.4146834,55.1958645 44.2100082,55.2619903 44,55.262 Z M34,30.835 L34,43.267 C34.0030618,44.8680418 34.7726536,46.3707907 36.07,47.309 L44,53.029 L51.93,47.308 C53.228082,46.3708736 53.9979253,44.8680054 54,43.267 L54,30.835 L44,26.458 L34,30.835 Z" id="Shape" fill="var(--resa-icon-primary, #428dff)"/><path d="M42,46 C41.7529071,45.999928 41.51459,45.9083772 41.331,45.743 L37.331,42.143 C37.0572703,41.9061519 36.9329029,41.5398695 37.0058289,41.185318 C37.0787549,40.8307666 37.3375883,40.5433029 37.6825746,40.4337156 C38.0275609,40.3241282 38.4048368,40.4095273 38.669,40.657 L41.81,43.483 L49.168,32.445 C49.474518,31.9854991 50.0954991,31.861482 50.555,32.168 C51.0145009,32.474518 51.138518,33.0954991 50.832,33.555 L42.832,45.555 C42.6708981,45.7963438 42.4129077,45.9558089 42.125,45.992 C42.0835749,45.9976189 42.0418034,46.0002923 42,46 Z" id="Shape" fill="var(--resa-icon-primary, #428dff)"/></g></g></svg>
