<svg height="512" viewBox="0 0 60 60" width="512" xmlns="http://www.w3.org/2000/svg"><style>:root{--resa-icon-primary:#428dff;--resa-icon-secondary:#7facfa;--resa-icon-light:#a4c2f7;--resa-icon-bg:#e8edfc;}</style><g id="Page-1" fill="none" fill-rule="evenodd"><g id="032---Attic-Conversion" fill-rule="nonzero"><g id="Icons_copy_2" transform="translate(1 1)"><path id="Shape" d="m58 48.14v8.86c0 .5522847-.4477153 1-1 1h-56c-.55228475 0-1-.4477153-1-1v-56c0-.55228475.44771525-1 1-1h10z" fill="var(--resa-icon-bg, #e8edfc)"/><path id="Shape" d="m11 0h-3l47 48.14v8.86c0 .5522847-.4477153 1-1 1h3c.5522847 0 1-.4477153 1-1v-8.86z" fill="var(--resa-icon-bg, #e8edfc)"/><path id="Shape" d="m58 42.41v5.73l-47-48.14000608 5.58.00000608c.2676617-.00094126.5241092.10741684.71.3l40.43 41.41c.1795679.1888435.279795.4394113.28.7z" fill="var(--resa-icon-bg, #e8edfc)"/><path id="Shape" d="m57.72 41.71-40.43-41.41c-.1858908-.19258316-.4423383-.30094126-.71-.3l-3-.00000608c.2676617-.00093518.5241092.10742292.71.30000608l40.43 41.41c.1795679.1888435.279795.4394113.28.7v2.657l3 3.073v-5.73c-.000205-.2605887-.1004321-.5111565-.28-.7z" fill="var(--resa-icon-bg, #e8edfc)"/><rect id="Rectangle-path" fill="var(--resa-icon-bg, #e8edfc)" height="6" rx="1" width="20" x="32"/><path id="Shape" d="m51 0h-3c.5522847 0 1 .44771525 1 1v4c0 .55228475-.4477153 1-1 1h3c.5522847 0 1-.44771525 1-1v-4c0-.55228475-.4477153-1-1-1z" fill="var(--resa-icon-bg, #e8edfc)"/><path id="Shape" d="m34 17.41v-11.41h16v27.8z" fill="var(--resa-icon-light, #a4c2f7)"/><path id="Shape" d="m47 6v24.727l3 3.073v-27.8z" fill="var(--resa-icon-secondary, #7facfa)"/><path id="Shape" d="m15.88 5h-15.88v4h19.79z" fill="var(--resa-icon-bg, #e8edfc)"/><path id="Shape" d="m15.88 5h-3l3.91 4h3z" fill="var(--resa-icon-bg, #e8edfc)"/><path id="Shape" d="m4 46h26c1.1045695 0 2 .8954305 2 2v3c0 .5522847-.4477153 1-1 1h-27z" fill="var(--resa-icon-light, #a4c2f7)"/><path id="Shape" d="m30 46h-3c1.1045695 0 2 .8954305 2 2v3c0 .5522847-.4477153 1-1 1h3c.5522847 0 1-.4477153 1-1v-3c0-1.1045695-.8954305-2-2-2z" fill="var(--resa-icon-secondary, #7facfa)"/><path id="Shape" d="m7 42h2c1.6568542 0 3 1.3431458 3 3v1h-8v-1c0-1.6568542 1.34314575-3 3-3z" fill="var(--resa-icon-bg, #e8edfc)"/><rect id="Rectangle-path" fill="var(--resa-icon-light, #a4c2f7)" height="12" rx="1" width="22" x="4" y="20"/><path id="Shape" d="m37 49h16c.5522847 0 1 .4477153 1 1v8h-18v-8c0-.5522847.4477153-1 1-1z" fill="var(--resa-icon-light, #a4c2f7)"/><path id="Shape" d="m53 49h-3c.5522847 0 1 .4477153 1 1v8h3v-8c0-.5522847-.4477153-1-1-1z" fill="var(--resa-icon-secondary, #7facfa)"/></g><g id="Icons" fill="#fff" transform="translate(1 1)"><path id="Shape" d="m3 57v-56c0-.55228475.44771525-1 1-1h-3c-.55228475 0-1 .44771525-1 1v56c0 .5522847.44771525 1 1 1h3c-.55228475 0-1-.4477153-1-1z"/></g><g id="Icons_copy"><path id="Rectangle-path" d="m0 50h2v8h-2z" fill="#fff"/><g fill="var(--resa-icon-primary, #428dff)"><path id="Shape" d="m1.02 55c-.55228473.0027614-1.00223852-.4427153-1.00499994-.995-.00276143-.5522847.44271521-1.0022385.99499994-1.005h.01c.55228475 0 1 .4477153 1 1s-.44771525 1-1 1z"/><path id="Shape" d="m52 34.4v-26.4c1.1045695 0 2-.8954305 2-2v-4c0-1.1045695-.8954305-2-2-2h-18c-1.1045695 0-2 .8954305-2 2v4c0 1.1045695.8954305 2 2 2v7.958l-14.991-15.358c-.3774088-.38294928-.8923323-.59900111-1.43-.6h-15.579c-1.1045695 0-2 .8954305-2 2v48c0 .5522847.44771525 1 1 1s1-.4477153 1-1v-39h18.364l37.636 38.554v8.446h-2v-7c0-1.1045695-.8954305-2-2-2h-16c-1.1045695 0-2 .8954305-2 2v7h-3v-4.278c.6167513-.3544126.997855-1.0106732 1-1.722v-3c0-1.6568542-1.3431458-3-3-3h-17c0-2.209139-1.790861-4-4-4h-2c-.70425323.0041446-1.39465346.1960759-2 .556v-5.556c0-.5522847-.44771525-1-1-1s-1 .4477153-1 1v21h-2c0-.5522847-.44771525-1-1-1s-1 .4477153-1 1c0 1.1045695.8954305 2 2 2h56c1.1045695 0 2-.8954305 2-2v-14.593c.0019071-.5233516-.2025325-1.0263664-.569-1.4zm-21 13.6c.5522847 0 1 .4477153 1 1v3h-26v-4zm-23-4h2c1.1045695 0 2 .8954305 2 2h-6c0-1.1045695.8954305-2 2-2zm-2 10h25v4h-25zm32 4v-7h16v7zm-4-56h18v4h-18zm2 10h5c.5522847 0 1-.4477153 1-1s-.4477153-1-1-1h-5v-2h14v2h-5c-.5522847 0-1 .4477153-1 1s.4477153 1 1 1h5v20.349l-14-14.342zm-24.421-10 2.928 3h-12.507v-3zm-9.579 7v-2h14.46l1.952 2zm19.507.307-.022-.022-7.111-7.285h3.205l40.421 41.407v3.283z"/><path id="Shape" d="m6 34h20c1.1045695 0 2-.8954305 2-2v-10c0-1.1045695-.8954305-2-2-2h-20c-1.1045695 0-2 .8954305-2 2v10c0 1.1045695.8954305 2 2 2zm20-2h-9v-10h9zm-20-10h9v10h-9z"/></g></g></g></g></svg>