<svg height="512" viewBox="0 0 60 60" width="512" xmlns="http://www.w3.org/2000/svg"><style>:root{--resa-icon-primary:#428dff;--resa-icon-secondary:#7facfa;--resa-icon-light:#a4c2f7;--resa-icon-bg:#e8edfc;}</style><g id="Page-1" fill="none" fill-rule="evenodd"><g id="030---House-Upgrade" fill-rule="nonzero" transform="translate(0 -1)"><path id="Shape" d="m19 31v14h-10v-14c0-.5522847.44771525-1 1-1h8c.5522847 0 1 .4477153 1 1z" fill="var(--resa-icon-light, #a4c2f7)"/><path id="Shape" d="m18 30h-3c.5522847 0 1 .4477153 1 1v14h3v-14c0-.5522847-.4477153-1-1-1z" fill="var(--resa-icon-secondary, #7facfa)"/><path id="Shape" d="m22 6.44-17 12.27v24.29c0 1.1045695.8954305 2 2 2h2v-14c0-.5522847.44771525-1 1-1h8c.5522847 0 1 .4477153 1 1v14h8c0-.33 0-.66 0-1-.0026352-1.3490807.1653644-2.6930782.5-4h-3.5v-9c0-.5522847.4477153-1 1-1h8c.4766599-.0116496.8952458.3148474 1 .78 1.5231986-1.0417925 3.2146525-1.8130955 5-2.28v-9.78zm0 19.56c-2.4267735 0-4.6145912-1.4618531-5.5432772-3.7038994s-.4153515-4.8227533 1.3006365-6.5387413 4.296695-2.2293225 6.5387413-1.3006365 3.7038994 3.1165037 3.7038994 5.5432772c0 1.5912989-.632141 3.1174224-1.7573593 4.2426407s-2.6513418 1.7573593-4.2426407 1.7573593z" fill="var(--resa-icon-bg, #e8edfc)"/><path id="Shape" d="m22 6.44-1.5 1.08 15.5 11.2v9.78c-1.3087144.3384572-2.5688915.842528-3.75 1.5h.75c.4766599-.0116496.8952458.3148474 1 .78 1.5231986-1.0417925 3.2146525-1.8130955 5-2.28v-9.78z" fill="var(--resa-icon-bg, #e8edfc)"/><path id="Shape" d="m42.78 18.62c-.2650299.5113721-.7376566.8836599-1.296878 1.0215501-.5592215.1378903-1.1507426.0279951-1.623122-.3015501l-.86-.62-17-12.28-17 12.27-.87.63c-.46278973.3235807-1.04080319.4364422-1.59132312.3107179-.55051992-.1257243-1.02223601-.4783164-1.29867688-.9707179-.47907953-.9394761-.18320093-2.0886857.69-2.68l18.92-13.64c.6899868-.48492424 1.6100132-.48492424 2.3 0l7.85 5.5v-3.86c0-.55228475.4477153-1 1-1h3c.5522847 0 1 .44771525 1 1v7.36l6.07 4.64c.856181.5746039 1.1589124 1.6917257.71 2.62z" fill="var(--resa-icon-bg, #e8edfc)"/><path id="Shape" d="m42.07 16-6.07-4.64v-7.36c0-.55228475-.4477153-1-1-1h-3c.5522847 0 1 .44771525 1 1v7.36l6.07 4.64c.856181.5746039 1.1589124 1.6917257.71 2.62-.0860365.1575905-.1937525.302334-.32.43l.4.29c.4723794.3295452 1.0639005.4394404 1.623122.3015501.5592214-.1378902 1.0318481-.510178 1.296878-1.0215501.4489124-.9282743.146181-2.0453961-.71-2.62z" fill="var(--resa-icon-bg, #e8edfc)"/><circle id="Oval" cx="22" cy="20" fill="var(--resa-icon-light, #a4c2f7)" r="6"/><path id="Shape" d="m22 14c-.5066588-.0001775-1.0110876.0670797-1.5.2 2.6313194.6969499 4.4637709 3.0779454 4.4637709 5.8s-1.8324515 5.1030501-4.4637709 5.8c.4889124.1329203.9933412.2001775 1.5.2 3.3137084-.0000001 5.9999999-2.6862916 5.9999999-6s-2.6862915-5.9999999-5.9999999-6z" fill="var(--resa-icon-secondary, #7facfa)"/><path id="Shape" d="m34 30.78c-3.2096367 2.1868867-5.5186793 5.4621747-6.5 9.22h-3.5v-9c0-.5522847.4477153-1 1-1h8c.4766599-.0116496.8952458.3148474 1 .78z" fill="var(--resa-icon-light, #a4c2f7)"/><path id="Shape" d="m59 44c.1786328 5.7162494-2.7058865 11.0935812-7.5669873 14.1064065-4.8611008 3.0128252-10.9602664 3.2034241-16 .5-5.0397336-2.7034242-8.2543799-7.8901571-8.4330127-13.6064065 0-.33 0-.66 0-1 0-8.836556 7.163444-16 16-16s16 7.163444 16 16z" fill="var(--resa-icon-bg, #e8edfc)"/><path id="Shape" d="m43 28c-.5010266.0014471-1.0016617.0281476-1.5.08 8.1986043.7966298 14.4526232 7.6877837 14.4526232 15.925s-6.2540189 15.1283702-14.4526232 15.925c.5 0 1 .07 1.53.07 8.836556 0 16-7.163444 16-16s-7.163444-16-16-16z" fill="var(--resa-icon-bg, #e8edfc)"/><path id="Shape" d="m47.92 41c.433467.0045566.826027-.2552819.9911893-.6560758.1651624-.400794.0696395-.8617655-.2411893-1.1639242l-4.91-4.87c-.4230983-.41154-1.0969017-.41154-1.52 0l-4.91 4.87c-.3108288.3021587-.4063517.7631302-.2411893 1.1639242.1651623.4007939.5577223.6606324.9911893.6560758h1.92v4c0 .5522847.4477153 1 1 1h4c.5522847 0 1-.4477153 1-1v-4z" fill="var(--resa-icon-light, #a4c2f7)"/><path id="Shape" d="m48.67 39.18-4.91-4.87c-.4230983-.41154-1.0969017-.41154-1.52 0l-.74.74 4.17 4.13c.3108288.3021587.4063517.7631302.2411893 1.1639242-.1651623.4007939-.5577223.6606324-.9911893.6560758h-1.92v4c0 .5522847-.4477153 1-1 1h3c.5522847 0 1-.4477153 1-1v-4h1.92c.433467.0045566.826027-.2552819.9911893-.6560758.1651624-.400794.0696395-.8617655-.2411893-1.1639242z" fill="var(--resa-icon-secondary, #7facfa)"/><path id="Shape" d="m1.24 18.68c.27644087.4924015.74815696.8449936 1.29867688.9707179.55051993.1257243 1.12853339.0128628 1.59132312-.3107179l.39-.28c-.10978857-.1136752-.20394959-.2414651-.28-.38-.47907953-.9394761-.18320093-2.0886857.69-2.68l18.58-13.39-.36-.25c-.6899868-.48492424-1.6100132-.48492424-2.3 0l-18.92 13.64c-.87320093.5913143-1.16907953 1.7405239-.69 2.68z" fill="#fff"/><path id="Shape" d="m7 45h3c-1.1045695 0-2-.8954305-2-2v-24.29l-.87.63c-.63154322.4406068-1.45995415.4794993-2.13.1v23.56c0 1.1045695.8954305 2 2 2z" fill="#fff"/><path id="Rectangle-path" d="m4 18.71h2v8h-2z" fill="#fff"/><g fill="var(--resa-icon-primary, #428dff)"><circle id="Oval" cx="5" cy="22.71" r="1"/><circle id="Oval" cx="13" cy="37" r="1"/><path id="Shape" d="m29 20c0-3.8659932-3.1340068-7-7-7s-7 3.1340068-7 7 3.1340068 7 7 7 7-3.1340068 7-7zm-6 4.9v-3.9h3.9c-.4006048 1.9642887-1.9357113 3.4993952-3.9 3.9zm3.9-5.9h-3.9v-3.9c1.9642887.4006048 3.4993952 1.9357113 3.9 3.9zm-5.9-3.9v3.9h-3.9c.4006048-1.9642887 1.9357113-3.4993952 3.9-3.9zm-3.9 5.9h3.9v3.9c-1.9642887-.4006048-3.4993952-1.9357113-3.9-3.9z"/><path id="Shape" d="m43 27c-1.0062075.0065638-2.0099568.1002471-3 .28v-6.77c1.4223695.490093 2.9877737-.1491032 3.6605777-1.4947111.672804-1.345608.2449184-2.9814491-1.0005777-3.8252889l-5.66-4.33v-6.86c0-1.1045695-.8954305-2-2-2h-3c-1.1045695 0-2 .8954305-2 2v1.94l-6.28-4.4c-1.0349802-.72738637-2.4150198-.72738637-3.45 0l-18.91 13.64c-1.30823461.880688-1.73988326 2.6072826-1 4 .41262065.7447586 1.12226305 1.2791108 1.95204259 1.4698647s1.70152909.0199401 2.39795741-.4698647l17.29-12.51 16 11.55v8.53c-1.3152642.410007-2.5748118.9810019-3.75 1.7-.3532192-.2880497-.79423-.4468135-1.25-.45h-8c-1.1045695 0-2 .8954305-2 2v8c-.5522847 0-1 .4477153-1 1s.4477153 1 1 1h3.28c-.1797529.9900432-.2734362 1.9937925-.28 3h-6v-13c0-1.1045695-.8954305-2-2-2h-8c-1.1045695 0-2 .8954305-2 2v13h-1c-.55228475 0-1-.4477153-1-1v-16.29c0-.5522847-.44771525-1-1-1s-1 .4477153-1 1v16.29c0 1.6568542 1.34314575 3 3 3h19.13c1.0741761 9.0670709 9.1188553 15.666351 18.2209661 14.9471789s16.0106009-8.4999256 15.6475307-17.6231821c-.3630703-9.1232565-7.868021-16.330411-16.9984968-16.3239968zm-21.58-21.37-17.86 12.89c-.23171831.1635344-.52197842.220984-.79852097.1580467s-.51335333-.2403409-.65147903-.4880467c-.22511154-.497981-.05049528-1.0857138.41-1.38l18.91-13.63c.3427946-.23780708.7972054-.23780708 1.14 0l7.86 5.5c.2967259.20078642.6781948.22748925 1 .07.3440566-.16382882.5650963-.50896093.57-.89v-3.86h3v7.36c.0007439.3094966.144753.6012074.39.79l6.07 4.64c.4435519.2883968.6128821.8556527.4 1.34-.1417785.2588452-.3906562.4418435-.68.5-.2645856.0732127-.5481187.0216613-.77-.14l-17.83-12.86c-.3471643-.24717803-.8128357-.24717803-1.16 0zm-11.42 25.37h8v13h-8zm15 8v-8h7.07c-2.5022478 2.1027197-4.3486356 4.8792428-5.32 8zm18 20c-8.2842712 0-15-6.7157288-15-15s6.7157288-15 15-15 15 6.7157288 15 15-6.7157288 15-15 15z"/><path id="Shape" d="m44.46 33.6c-.8097629-.798019-2.1102371-.798019-2.92 0l-4.92 4.87c-.5889002.5918795-.7645594 1.4796104-.4454473 2.2511623.3191121.771552 1.0705126 1.2758531 1.9054473 1.2788377h.92v3c0 1.1045695.8954305 2 2 2h4c1.1045695 0 2-.8954305 2-2v-3h.92c.8349347-.0029846 1.5863352-.5072857 1.9054473-1.2788377.3191121-.7715519.1434529-1.6592828-.4454473-2.2511623zm3.46 6.4h-1.92c-.5522847 0-1 .4477153-1 1v4h-4v-4c0-.5522847-.4477153-1-1-1h-1.92v-.11l4.86-4.89h.06.06l4.94 5s0 0-.08 0z"/><path id="Shape" d="m46 49h-6c-.5522847 0-1 .4477153-1 1s.4477153 1 1 1h6c.5522847 0 1-.4477153 1-1s-.4477153-1-1-1z"/><path id="Shape" d="m45 53h-4c-.5522847 0-1 .4477153-1 1s.4477153 1 1 1h4c.5522847 0 1-.4477153 1-1s-.4477153-1-1-1z"/></g></g></g></svg>