<?xml version="1.0" encoding="UTF-8"?>
<svg xmlns="http://www.w3.org/2000/svg" xmlns:xlink="http://www.w3.org/1999/xlink" width="512" height="512" viewBox="0 0 60 60" version="1.1"><style>:root{--resa-icon-primary:#428dff;--resa-icon-secondary:#7facfa;--resa-icon-light:#a4c2f7;--resa-icon-bg:#e8edfc;}</style><!-- Generator: Sketch 51.3 (57544) - http://www.bohemiancoding.com/sketch --><title>019 - Garage</title><desc>Created with Sketch.</desc><defs/><g id="Page-1" stroke="none" stroke-width="1" fill="none" fill-rule="evenodd"><g id="019---Garage" transform="translate(-1.000000, 0.000000)" fill-rule="nonzero"><polygon id="Shape" fill="var(--resa-icon-bg, #e8edfc)" points="56 22.51 56 53 6 53 6 23.51 6 19 30.863 3.889 56 18.889 56.107 22.584"/><polygon id="Shape" fill="var(--resa-icon-bg, #e8edfc)" points="52.9 22.51 52.9 53 6 53 6 23.51 6 19 29.322 3.889 52.9 18.889 53 20"/><path d="M56.107,22.584 L31,7 L5.893,22.584 C5.106877,23.0718138 4.11815315,23.0953738 3.30968759,22.6455571 C2.50122202,22.1957404 1.99995886,21.3431765 2,20.418 C2.00015317,19.5362203 2.45585273,18.7170956 3.205,18.252 L31,1 L58.8,18.252 C59.5472335,18.7183012 60.0009217,19.5372084 60,20.418 C60.0000411,21.3431765 59.498778,22.1957404 58.6903124,22.6455571 C57.8818468,23.0953738 56.893123,23.0718138 56.107,22.584 Z" id="Shape" fill="var(--resa-icon-bg, #e8edfc)"/><rect id="Rectangle-path" fill="#FFFFFF" x="10" y="36" width="42" height="4"/><rect id="Rectangle-path" fill="var(--resa-icon-bg, #e8edfc)" x="10" y="32" width="42" height="4"/><rect id="Rectangle-path" fill="#FFFFFF" x="10" y="28" width="42" height="4"/><path d="M52,26 L52,28 L10,28 L10,26 C10.0032948,24.8967981 10.8967981,24.0032948 12,24 L50,24 C51.1032019,24.0032948 51.9967052,24.8967981 52,26 Z" id="Shape" fill="var(--resa-icon-bg, #e8edfc)"/><rect id="Rectangle-path" fill="var(--resa-icon-secondary, #7facfa)" x="10" y="44" width="42" height="9.481"/><rect id="Rectangle-path" fill="var(--resa-icon-secondary, #7facfa)" x="10" y="47" width="42" height="6.481"/><rect id="Rectangle-path" fill="var(--resa-icon-bg, #e8edfc)" x="10" y="40" width="42" height="4"/><rect id="Rectangle-path" fill="var(--resa-icon-bg, #e8edfc)" x="2" y="53" width="58" height="6" rx="2"/><rect id="Rectangle-path" fill="var(--resa-icon-bg, #e8edfc)" x="2" y="53" width="55" height="6" rx="2"/><path d="M3.205,18.252 C2.00875123,18.9942707 1.6407293,20.5657512 2.383,21.762 C3.1252707,22.9582488 4.69675123,23.3262707 5.893,22.584 L6,22.517 L6,53 L4,53 C2.89679813,53.0032948 2.0032948,53.8967981 2,55 L2,57 C2.0032948,58.1032019 2.89679813,58.9967052 4,59 L7,59 C5.89679813,58.9967052 5.0032948,58.1032019 5,57 L5,55 C5.0032948,53.8967981 5.89679813,53.0032948 7,53 L9,53 L9,21.007 L8.893,21.074 C7.2,22.127 6,25 6,23 C6,22.118 5.456,16.465 6.205,16" id="Shape" fill="#FFFFFF"/><polygon id="Shape" fill="#FFFFFF" points="7 22.51 7 35.51 7 53 5 53 5 35.51 5 22.51"/><path d="M6,31.51 C6.40626507,31.5123626 6.77358004,31.2686962 6.92937095,30.8934815 C7.08516186,30.5182668 6.99845995,30.0860905 6.71,29.8 L6.56,29.68 C6.50427287,29.6421227 6.44373808,29.6118554 6.38,29.59 C6.32333758,29.5611123 6.26266255,29.5408873 6.2,29.53 C6.13385548,29.5188692 6.06703885,29.5121875 6,29.51 C5.73527314,29.5138804 5.48174298,29.617435 5.29,29.8 C5.19960316,29.8956071 5.12832305,30.0076187 5.08,30.13 C4.92912342,30.5029737 5.01135194,30.9297788 5.29,31.22 C5.38560709,31.3103968 5.49761868,31.381677 5.62,31.43 C5.74022231,31.481241 5.86932274,31.50842 6,31.51 Z" id="Shape" fill="var(--resa-icon-primary, #428dff)"/><path d="M59.176,23.52 C60.2752584,22.9084973 60.9686957,21.7608006 60.9987105,20.5032619 C61.0287253,19.2457232 60.3908327,18.0662505 59.322,17.403 L31.527,0.15 C31.2041808,-0.0501796221 30.7958192,-0.0501796221 30.473,0.15 L2.678,17.4 C1.24539395,18.2741025 0.621441335,20.0325932 1.18271625,21.6141702 C1.74399116,23.1957471 3.3368689,24.1675222 5,23.943 L5,26.51 C5,27.0622847 5.44771525,27.51 6,27.51 C6.55228475,27.51 7,27.0622847 7,26.51 L7,23.074 L31,8.174 L55,23.074 L55,52 L53,52 L53,26 C53,24.3431458 51.6568542,23 50,23 L12,23 C10.3431458,23 9,24.3431458 9,26 L9,52 L7,52 L7,34.51 C7,33.9577153 6.55228475,33.51 6,33.51 C5.44771525,33.51 5,33.9577153 5,34.51 L5,52 L4,52 C2.34314575,52 1,53.3431458 1,55 L1,57 C1,58.6568542 2.34314575,60 4,60 L58,60 C59.6568542,60 61,58.6568542 61,57 L61,55 C61,53.3431458 59.6568542,52 58,52 L57,52 L57,23.94 C57.7516374,24.0380115 58.5148316,23.8907038 59.176,23.52 Z M11,43 L11,41 L51,41 L51,43 L11,43 Z M51,37 L51,39 L11,39 L11,37 L51,37 Z M11,35 L11,33 L51,33 L51,35 L11,35 Z M51,31 L11,31 L11,29 L51,29 L51,31 Z M12,25 L50,25 C50.5522847,25 51,25.4477153 51,26 L51,27 L11,27 L11,26 C11,25.4477153 11.4477153,25 12,25 Z M11,45 L30,45 L30,47 C30,47.5522847 30.4477153,48 31,48 C31.5522847,48 32,47.5522847 32,47 L32,45 L51,45 L51,52 L11,52 L11,45 Z M59,55 L59,57 C59,57.5522847 58.5522847,58 58,58 L4,58 C3.44771525,58 3,57.5522847 3,57 L3,55 C3,54.4477153 3.44771525,54 4,54 L58,54 C58.5522847,54 59,54.4477153 59,55 Z M31,6 C30.813794,5.99995954 30.6312751,6.05190988 30.473,6.15 L5.366,21.734 C4.63864098,22.1852166 3.68321664,21.961359 3.232,21.234 C2.78078336,20.506641 3.00464098,19.5512166 3.732,19.1 L31,2.177 L58.268,19.1 C58.9901527,19.5531753 59.2103389,20.5047289 58.7606576,21.2290625 C58.3109763,21.9533961 57.3604976,22.1781767 56.634,21.732 L31.527,6.15 C31.3687249,6.05190988 31.186206,5.99995954 31,6 Z" id="Shape" fill="var(--resa-icon-primary, #428dff)"/></g></g></svg>
