<?xml version="1.0" encoding="iso-8859-1"?>
<!-- Generator: Adobe Illustrator 19.0.0, SVG Export Plug-In . SVG Version: 6.00 Build 0)  -->
<svg version="1.1" id="Capa_1" xmlns="http://www.w3.org/2000/svg" xmlns:xlink="http://www.w3.org/1999/xlink" x="0px" y="0px"
	 viewBox="0 0 512.036 512.036" style="enable-background:new 0 0 512.036 512.036;" xml:space="preserve"><style>:root{--resa-icon-primary:#428dff;--resa-icon-secondary:#7facfa;--resa-icon-light:#a4c2f7;--resa-icon-bg:#e8edfc;}</style>
<g>
	<g transform="translate(1 1)">
		
			<linearGradient id="SVGID_1_" gradientUnits="userSpaceOnUse" x1="-49.5587" y1="653.8662" x2="-49.2704" y2="653.1268" gradientTransform="matrix(498.5263 0 0 -336.7747 24888.5977 220366.3438)">
			<stop  offset="0" style="stop-color:#D4E1F4"/>
			<stop  offset="0.1717" style="stop-color:#D4E1F4"/>
			<stop  offset="0.2" style="stop-color:#D4E1F4"/>
			<stop  offset="0.2001" style="stop-color:#DAE4F4"/>
			<stop  offset="0.2007" style="stop-color:#EBEBF4"/>
			<stop  offset="0.2014" style="stop-color:#F6F1F4"/>
			<stop  offset="0.2023" style="stop-color:#FDF4F4"/>
			<stop  offset="0.205" style="stop-color:#FFF5F4"/>
			<stop  offset="0.2522" style="stop-color:#FFF5F4"/>
			<stop  offset="0.26" style="stop-color:#FFF5F4"/>
			<stop  offset="0.26" style="stop-color:#D4E1F4"/>
			<stop  offset="0.3974" style="stop-color:#D4E1F4"/>
			<stop  offset="0.42" style="stop-color:#D4E1F4"/>
			<stop  offset="0.4201" style="stop-color:#DAE4F4"/>
			<stop  offset="0.4207" style="stop-color:#EBEBF4"/>
			<stop  offset="0.4214" style="stop-color:#F6F1F4"/>
			<stop  offset="0.4223" style="stop-color:#FDF4F4"/>
			<stop  offset="0.425" style="stop-color:#FFF5F4"/>
			<stop  offset="0.4894" style="stop-color:#FFF5F4"/>
			<stop  offset="0.5" style="stop-color:#FFF5F4"/>
			<stop  offset="0.5" style="stop-color:#F9F2F4"/>
			<stop  offset="0.5001" style="stop-color:#E8EBF4"/>
			<stop  offset="0.5003" style="stop-color:#DDE5F4"/>
			<stop  offset="0.5005" style="stop-color:#D6E2F4"/>
			<stop  offset="0.501" style="stop-color:#D4E1F4"/>
			<stop  offset="0.7062" style="stop-color:#D4E1F4"/>
			<stop  offset="0.74" style="stop-color:#D4E1F4"/>
			<stop  offset="0.741" style="stop-color:#FFF5F4"/>
			<stop  offset="0.8346" style="stop-color:#FFF5F4"/>
			<stop  offset="0.85" style="stop-color:#FFF5F4"/>
			<stop  offset="0.851" style="stop-color:#D4E1F4"/>
		</linearGradient>
		<polygon style="fill:url(#SVGID_1_);" points="504.299,260.641 504.299,301.062 249.108,454.124 5.773,312.852 5.773,272.431 
			145.293,188.759 257.394,117.349 		"/>
		<polygon style="fill:var(--resa-icon-bg, #e3e7f2);" points="249.108,413.702 249.108,454.124 5.773,312.852 5.773,272.431 		"/>
		<polygon style="fill:var(--resa-icon-light, #a4c2f7);" points="504.299,260.641 504.299,301.062 249.108,454.124 249.108,413.702 		"/>
		<g>
			<polygon style="fill:var(--resa-icon-bg, #d4e1f4);" points="375.828,204.995 342.48,224.262 342.48,278.359 261.099,325.315 156.813,265.088 
				156.813,185.526 156.341,184.717 146.236,190.443 126.43,154.873 209.765,102.797 291.146,55.841 			"/>
			<polygon style="fill:var(--resa-icon-bg, #d4e1f4);" points="262.649,244.136 261.099,245.012 261.099,325.315 156.813,265.088 156.813,185.526 
				156.341,184.717 209.765,154.401 			"/>
		</g>
		<polygon style="fill:var(--resa-icon-light, #a4c2f7);" points="294.514,251.951 274.708,264.616 262.649,244.136 209.765,154.401 156.341,184.717 
			146.236,190.443 126.43,154.873 209.765,102.797 		"/>
		<g>
			<polygon style="fill:var(--resa-icon-bg, #d4e1f4);" points="375.828,204.995 342.48,224.262 294.514,251.951 209.765,102.797 291.146,55.841 			"/>
			<polygon style="fill:var(--resa-icon-bg, #d4e1f4);" points="342.48,224.262 342.48,278.359 261.099,325.315 261.099,245.012 262.649,244.136 
				274.708,264.616 294.514,251.951 			"/>
		</g>
		<g>
			<polygon style="fill:var(--resa-icon-light, #a4c2f7);" points="222.005,302.747 195.927,287.69 195.927,242.829 222.005,257.879 			"/>
			<polygon style="fill:var(--resa-icon-light, #a4c2f7);" points="294.514,251.951 274.708,264.616 262.649,244.136 209.765,154.401 156.341,184.717 
				146.236,190.443 126.43,154.873 209.765,102.797 			"/>
		</g>
		<g>
			<polygon style="fill:var(--resa-icon-bg, #d4e1f4);" points="375.828,204.995 342.48,224.262 294.514,251.951 209.765,102.797 291.146,55.841 			"/>
			<polygon style="fill:var(--resa-icon-bg, #d4e1f4);" points="342.48,224.262 342.48,278.359 261.099,325.315 261.099,245.012 262.649,244.136 
				274.708,264.616 294.514,251.951 			"/>
		</g>
	</g>
	<g transform="translate(2 1)">
		<polygon style="fill:#FFFFFF;" points="379.025,190.262 510.036,266.294 510.036,260.641 374.235,181.827 		"/>
		<polygon style="fill:#FFFFFF;" points="24.983,285.905 164.503,202.233 164.503,202.233 145.64,168.347 228.975,116.271 
			305.964,71.848 296.882,55.841 215.501,102.797 132.167,154.873 151.03,188.759 151.03,188.759 11.51,272.431 11.51,312.852 
			24.983,320.673 		"/>
	</g>
	<g>
		<polygon style="fill:#FFFFFF;" points="149.756,195.539 74.647,240.582 10.236,279.211 3.303,267.651 67.721,229.022 
			142.823,183.979 		"/>
		<g>
			<path style="fill:var(--resa-icon-primary, #428dff);" d="M238.961,351.618l-3.289-1.908c-2.083-1.208-4.651-1.213-6.739-0.014
				c-2.087,1.199-3.377,3.421-3.382,5.829c-0.005,2.408,1.275,4.635,3.357,5.843l3.289,1.908c3.219,1.868,7.343,0.772,9.211-2.447
				S242.18,353.486,238.961,351.618z"/>
			<path style="fill:var(--resa-icon-primary, #428dff);" d="M222.52,342.072l-3.289-1.908c-2.082-1.208-4.651-1.213-6.739-0.014
				c-2.088,1.199-3.377,3.421-3.382,5.829c-0.005,2.408,1.275,4.635,3.357,5.843l3.289,1.908c3.219,1.868,7.343,0.772,9.211-2.447
				S225.739,343.94,222.52,342.072z"/>
			<path style="fill:var(--resa-icon-primary, #428dff);" d="M206.072,332.526l-3.289-1.908c-2.082-1.208-4.651-1.213-6.739-0.014
				c-2.088,1.199-3.377,3.421-3.382,5.829c-0.005,2.408,1.275,4.635,3.357,5.843l3.289,1.908c3.219,1.868,7.343,0.772,9.211-2.447
				S209.292,334.394,206.072,332.526z"/>
			<path style="fill:var(--resa-icon-primary, #428dff);" d="M189.632,322.98l-3.289-1.908c-3.219-1.868-7.343-0.772-9.211,2.447s-0.772,7.343,2.447,9.211
				l3.289,1.908c3.219,1.868,7.343,0.772,9.211-2.447S192.851,324.848,189.632,322.98z"/>
			<path style="fill:var(--resa-icon-primary, #428dff);" d="M173.184,313.434l-3.289-1.908c-2.082-1.208-4.651-1.214-6.739-0.014
				c-2.088,1.199-3.377,3.421-3.382,5.829c-0.005,2.408,1.275,4.635,3.357,5.843l3.289,1.908c3.219,1.868,7.343,0.772,9.211-2.447
				S176.404,315.302,173.184,313.434z"/>
			<path style="fill:var(--resa-icon-primary, #428dff);" d="M156.744,303.888l-3.289-1.908c-3.219-1.868-7.343-0.772-9.211,2.447s-0.772,7.343,2.447,9.211
				l3.289,1.908c3.219,1.868,7.343,0.772,9.211-2.447S159.963,305.756,156.744,303.888z"/>
			<path style="fill:var(--resa-icon-primary, #428dff);" d="M127.796,294.881c-1.867,3.219-0.771,7.342,2.447,9.211l3.289,1.908
				c3.218,1.856,7.331,0.757,9.195-2.456c1.864-3.213,0.776-7.329-2.432-9.202l-3.289-1.908c-1.545-0.9-3.385-1.147-5.113-0.688
				C130.165,292.205,128.691,293.333,127.796,294.881z"/>
			<path style="fill:var(--resa-icon-primary, #428dff);" d="M113.796,294.539l3.283,1.908c2.081,1.227,4.659,1.245,6.758,0.048
				c2.098-1.197,3.395-3.425,3.399-5.841c0.004-2.416-1.286-4.648-3.381-5.852l-3.283-1.908c-2.08-1.21-4.648-1.219-6.736-0.023
				c-2.088,1.196-3.38,3.416-3.388,5.822C110.44,291.101,111.716,293.329,113.796,294.539L113.796,294.539z"/>
			<path style="fill:var(--resa-icon-primary, #428dff);" d="M97.349,284.993l3.289,1.914c3.213,1.845,7.313,0.748,9.176-2.454s0.791-7.308-2.4-9.191
				l-3.289-1.914c-3.216-1.871-7.339-0.781-9.211,2.434C93.043,278.999,94.133,283.122,97.349,284.993L97.349,284.993z"/>
			<path style="fill:var(--resa-icon-primary, #428dff);" d="M68.013,283.276c1.915,3.19,6.053,4.224,9.243,2.309l13.79-8.27
				c2.044-1.226,3.287-3.441,3.27-5.824c-0.018-2.383-1.294-4.579-3.355-5.775l-13.151-7.638c-2.08-1.208-4.647-1.215-6.733-0.017
				s-3.375,3.417-3.382,5.822c-0.006,2.405,1.271,4.632,3.352,5.84l3.276,1.908l-4,2.401c-1.532,0.919-2.636,2.41-3.069,4.143
				C66.82,279.91,67.094,281.744,68.013,283.276z"/>
			<path style="fill:var(--resa-icon-primary, #428dff);" d="M378.474,229.085l-3.289-1.908c-3.219-1.868-7.343-0.772-9.211,2.447
				c-1.868,3.219-0.772,7.343,2.447,9.211l3.289,1.908c2.083,1.208,4.651,1.213,6.739,0.014c2.087-1.199,3.377-3.421,3.382-5.829
				S380.556,230.293,378.474,229.085z"/>
			<path style="fill:var(--resa-icon-primary, #428dff);" d="M398.204,240.539l-6.579-3.816c-3.219-1.868-7.343-0.772-9.211,2.447
				c-1.868,3.219-0.772,7.343,2.447,9.211l6.579,3.816c2.082,1.208,4.651,1.213,6.739,0.014c2.088-1.199,3.377-3.421,3.382-5.829
				C401.566,243.975,400.287,241.747,398.204,240.539z"/>
			<path style="fill:var(--resa-icon-primary, #428dff);" d="M414.651,250.085l-3.289-1.908c-3.219-1.868-7.343-0.772-9.211,2.447
				c-1.868,3.219-0.772,7.343,2.447,9.211l3.289,1.908c2.082,1.208,4.651,1.213,6.739,0.014c2.087-1.199,3.377-3.421,3.382-5.829
				C418.014,253.521,416.734,251.293,414.651,250.085z"/>
			<path style="fill:var(--resa-icon-primary, #428dff);" d="M443.994,251.809c-0.92-1.532-2.41-2.636-4.143-3.069c-1.733-0.433-3.568-0.16-5.1,0.76
				l-13.796,8.276c-2.044,1.227-3.287,3.443-3.27,5.827c0.018,2.384,1.293,4.581,3.355,5.778l13.158,7.632
				c2.082,1.208,4.651,1.214,6.739,0.014c2.088-1.199,3.377-3.421,3.382-5.829c0.005-2.408-1.275-4.635-3.357-5.843l-3.283-1.901
				l4.007-2.401c1.532-0.92,2.636-2.41,3.069-4.143C445.186,255.176,444.913,253.341,443.994,251.809z"/>
			<path style="fill:var(--resa-icon-primary, #428dff);" d="M403.724,268.118l-3.447,2.066c-2.075,1.231-3.333,3.478-3.298,5.89
				c0.035,2.413,1.359,4.622,3.469,5.791c2.11,1.169,4.685,1.12,6.75-0.129l3.447-2.066c3.174-1.918,4.2-6.042,2.294-9.224
				C411.033,267.265,406.913,266.224,403.724,268.118L403.724,268.118z"/>
			<path style="fill:var(--resa-icon-primary, #428dff);" d="M386.467,278.46l-3.447,2.072c-3.172,1.926-4.19,6.054-2.277,9.235
				c1.913,3.18,6.036,4.216,9.225,2.318l3.447-2.072c3.184-1.921,4.211-6.058,2.294-9.245
				C393.792,277.581,389.657,276.548,386.467,278.46L386.467,278.46z"/>
			<path style="fill:var(--resa-icon-primary, #428dff);" d="M363.48,300.112c0.916,1.534,2.405,2.64,4.138,3.074c1.733,0.434,3.568,0.161,5.099-0.759
				l3.447-2.066c3.174-1.918,4.2-6.042,2.294-9.224s-6.026-4.223-9.215-2.329l-3.447,2.066c-1.533,0.917-2.638,2.406-3.073,4.138
				S362.561,298.58,363.48,300.112z"/>
			<path style="fill:var(--resa-icon-primary, #428dff);" d="M352.02,313.73c1.216-0.001,2.41-0.33,3.454-0.954l3.454-2.066
				c3.194-1.911,4.234-6.05,2.322-9.243c-1.911-3.194-6.05-4.234-9.243-2.322l-3.454,2.066c-2.602,1.556-3.844,4.659-3.035,7.58
				C346.327,311.713,348.988,313.734,352.02,313.73L352.02,313.73z"/>
			<path style="fill:var(--resa-icon-primary, #428dff);" d="M334.783,324.078c1.221,0,2.42-0.332,3.467-0.961l3.447-2.072
				c2.078-1.234,3.337-3.487,3.298-5.903c-0.039-2.417-1.368-4.628-3.485-5.795c-2.117-1.167-4.696-1.111-6.76,0.146l-3.447,2.072
				c-2.597,1.56-3.833,4.662-3.021,7.581C329.094,322.065,331.754,324.083,334.783,324.078z"/>
			<path style="fill:var(--resa-icon-primary, #428dff);" d="M317.546,334.421c1.217,0.001,2.412-0.331,3.454-0.961l3.447-2.066
				c2.074-1.232,3.33-3.478,3.294-5.89s-1.359-4.62-3.468-5.789c-2.109-1.169-4.683-1.121-6.747,0.126l-3.447,2.066
				c-2.598,1.557-3.836,4.657-3.027,7.576C311.86,332.402,314.518,334.422,317.546,334.421L317.546,334.421z"/>
			<path style="fill:var(--resa-icon-primary, #428dff);" d="M300.303,344.763c1.217,0.001,2.412-0.331,3.454-0.961l3.447-2.066
				c2.072-1.233,3.326-3.478,3.29-5.889c-0.036-2.41-1.359-4.617-3.467-5.786c-2.108-1.169-4.68-1.122-6.744,0.123l-3.447,2.066
				c-2.598,1.557-3.836,4.657-3.027,7.576C294.617,342.744,297.274,344.764,300.303,344.763z"/>
			<path style="fill:var(--resa-icon-primary, #428dff);" d="M283.066,355.112c1.221,0,2.42-0.332,3.467-0.961l3.447-2.072
				c2.067-1.239,3.316-3.488,3.274-5.898c-0.042-2.41-1.367-4.614-3.477-5.781c-2.109-1.167-4.681-1.118-6.745,0.127l-3.447,2.072
				c-2.597,1.56-3.833,4.662-3.021,7.581S280.036,355.116,283.066,355.112z"/>
			<path style="fill:var(--resa-icon-primary, #428dff);" d="M265.822,365.454c1.221,0,2.42-0.332,3.467-0.961l3.447-2.072
				c3.184-1.921,4.211-6.058,2.294-9.245c-1.917-3.187-6.052-4.22-9.242-2.308l-3.447,2.072c-2.597,1.56-3.833,4.662-3.021,7.581
				C260.133,363.44,262.793,365.458,265.822,365.454z"/>
			<path style="fill:var(--resa-icon-primary, #428dff);" d="M139.276,232.658l-3.447,2.072c-3.19,1.918-4.221,6.06-2.303,9.25s6.06,4.221,9.25,2.303
				l3.447-2.072c2.067-1.239,3.316-3.488,3.274-5.898c-0.042-2.41-1.367-4.614-3.477-5.781
				C143.912,231.364,141.34,231.413,139.276,232.658L139.276,232.658z"/>
			<path style="fill:var(--resa-icon-primary, #428dff);" d="M122.046,243.006l-6.895,4.132c-2.07,1.233-3.323,3.479-3.286,5.888
				c0.037,2.409,1.358,4.615,3.465,5.784c2.107,1.169,4.678,1.124,6.742-0.12l6.895-4.132c2.074-1.232,3.33-3.478,3.294-5.89
				c-0.036-2.411-1.359-4.62-3.468-5.789C126.684,241.711,124.11,241.759,122.046,243.006L122.046,243.006z"/>
			<path style="fill:var(--resa-icon-primary, #428dff);" d="M101.349,255.414l-3.447,2.072c-3.184,1.921-4.211,6.058-2.294,9.245s6.052,4.22,9.242,2.308
				l3.447-2.072c2.067-1.239,3.316-3.488,3.274-5.898c-0.042-2.41-1.367-4.614-3.477-5.781S103.413,254.169,101.349,255.414z"/>
			<path style="fill:var(--resa-icon-primary, #428dff);" d="M248.559,361.217l-13.789,8.276c-3.19,1.915-4.224,6.053-2.309,9.243
				c1.915,3.19,6.053,4.224,9.243,2.309l10.381-6.23l9.717,5.638c2.082,1.208,4.651,1.213,6.739,0.014
				c2.088-1.199,3.377-3.421,3.382-5.829c0.005-2.408-1.275-4.635-3.357-5.843l-13.158-7.632
				C253.285,359.937,250.663,359.957,248.559,361.217z"/>
			<path style="fill:var(--resa-icon-primary, #428dff);" d="M511.506,259.179c-0.043-0.109-0.086-0.212-0.134-0.319c-0.561-1.27-1.502-2.333-2.694-3.044
				l-142.892-82.938L297.987,53.513l-0.032-0.037l-0.001-0.002l-0.076-0.086c-0.436-0.742-1.011-1.393-1.693-1.917
				c-0.094-0.072-0.215-0.089-0.313-0.155c-0.606-0.432-1.28-0.76-1.994-0.971c-0.407-0.069-0.82-0.1-1.233-0.094
				c-0.435-0.074-0.877-0.105-1.318-0.091c-0.799,0.111-1.572,0.365-2.281,0.749c-0.079,0.04-0.166,0.035-0.243,0.08l-0.004,0.003
				l-0.049,0.016L207.388,97.98c-0.039,0.022-0.058,0.062-0.096,0.085l-0.108,0.04l-83.355,52.086
				c-3.043,1.904-4.058,5.859-2.309,8.994l15.701,28.159l-17.506,10.498c-2.064,1.238-3.311,3.483-3.271,5.889
				c0.04,2.407,1.361,4.609,3.465,5.778c2.104,1.169,4.672,1.126,6.736-0.112l19.121-11.467c1.613,0.373,3.307,0.14,4.76-0.653
				l0.533-0.303v69.125c-0.001,2.407,1.284,4.632,3.368,5.835l39.13,22.591l0.001,0.001l1.808,1.044l63.363,36.581l0.025,0.01
				c0.375,0.199,0.768,0.361,1.174,0.484c0.153,0.053,0.295,0.141,0.45,0.183c0.381,0.083,0.769,0.134,1.159,0.151
				c0.188,0.016,0.372,0.073,0.56,0.073h0.007c1.18,0.001,2.34-0.31,3.362-0.901l81.355-46.974c0.18-0.143,0.353-0.295,0.517-0.456
				c0.453-0.308,0.865-0.672,1.227-1.082c0.515-0.685,0.933-1.437,1.242-2.237c0.094-0.33,0.162-0.666,0.203-1.007
				c0.1-0.345,0.172-0.697,0.213-1.054v-50.194l0.963-0.556c0.243,0.254,0.506,0.487,0.787,0.697l3.289,1.908
				c2.789,1.626,6.34,1.041,8.46-1.395c2.119-2.436,2.208-6.034,0.212-8.571l16.296-9.408c1.548-0.893,2.678-2.365,3.14-4.091
				c0.463-1.726,0.22-3.566-0.673-5.113l-0.052-0.059l-3.655-6.434l113.049,65.612L250.053,406.881L20.026,273.337l60.4-36.222
				c2.064-1.238,3.311-3.483,3.271-5.889c-0.04-2.407-1.361-4.609-3.465-5.778c-2.104-1.169-4.672-1.126-6.736,0.112l-70.19,42.094
				l0.05,0.083c-0.335,0.191-0.653,0.412-0.949,0.66c-0.374,0.335-0.708,0.712-0.995,1.123c-0.167,0.169-0.324,0.347-0.471,0.533
				c-0.062,0.107-0.058,0.227-0.114,0.336c-0.234,0.485-0.408,0.997-0.516,1.525c-0.095,0.333-0.164,0.673-0.205,1.016
				C0.091,273.112,0,273.268,0,273.454v40.421c0.041,0.357,0.112,0.711,0.213,1.056c0.041,0.325,0.105,0.647,0.194,0.962
				c0.178,0.535,0.426,1.045,0.736,1.516c0.143,0.246,0.302,0.482,0.476,0.706c0.391,0.457,0.844,0.858,1.345,1.192
				c0.158,0.112,0.254,0.278,0.424,0.377l243.336,141.27c0.149,0.086,0.314,0.12,0.468,0.194c0.22,0.106,0.445,0.199,0.675,0.28
				c0.642,0.235,1.316,0.371,1.999,0.403c0.089,0.003,0.163,0.051,0.253,0.051c0.115,0,0.21-0.059,0.323-0.066
				c0.639-0.035,1.27-0.162,1.873-0.377c0.28-0.098,0.554-0.215,0.818-0.35c0.143-0.072,0.301-0.104,0.44-0.188l255.191-153.059
				c0.257-0.201,0.499-0.421,0.722-0.659c0.914-0.769,1.621-1.754,2.058-2.866c0.192-0.555,0.309-1.134,0.347-1.72
				c0.016-0.189,0.11-0.351,0.11-0.544v-40.188c0.003-0.09,0.034-0.175,0.033-0.266C512.01,260.766,511.831,259.946,511.506,259.179
				z M298.011,243.734l-78.092-137.428l69.704-40.243l78.066,137.441L298.011,243.734z M149.783,182.21l-13.375-23.993
				l71.961-44.967l78.118,137.474l-8.526,5.441L216.559,151.96c-1.867-3.166-5.927-4.252-9.125-2.441L149.783,182.21z
				 M216.27,292.077l-12.605-7.276v-29.308l12.605,7.276V292.077z M255.362,314.645l-25.618-14.789v-40.973
				c0.001-2.407-1.284-4.632-3.368-5.836l-26.079-15.053c-2.085-1.204-4.653-1.203-6.737,0c-2.084,1.204-3.368,3.428-3.368,5.835
				v33.194l-25.658-14.813v-72.877l43.783-24.827l47.294,80.269c-0.123,0.401-0.206,0.814-0.248,1.231L255.362,314.645z
				 M336.75,275.432l-67.915,39.213v-47.424l1.059,1.798c0.928,1.575,2.456,2.705,4.234,3.131c1.778,0.426,3.653,0.11,5.193-0.874
				l19.648-12.535l37.779-21.814V275.432z M498.527,273.561v24.71L256.856,443.222v-24.711L498.527,273.561z M13.474,285.118
				l229.908,133.474v24.837L13.474,309.955V285.118z"/>
			<path style="fill:var(--resa-icon-primary, #428dff);" d="M106.424,215.237c-0.164-0.421-0.356-0.83-0.576-1.224c-0.939-1.517-2.416-2.623-4.136-3.097
				c-2.191-0.592-4.533-0.024-6.209,1.506c-1.676,1.53-2.455,3.81-2.066,6.046c0.121,0.873,0.411,1.714,0.856,2.475
				c1.41,2.331,4.081,3.588,6.776,3.19c2.695-0.398,4.888-2.374,5.564-5.013l0.175-1.282c0.026-0.454-0.008-0.909-0.102-1.354
				C106.674,216.056,106.58,215.636,106.424,215.237z"/>
		</g>
	</g>
</g>
<g>
</g>
<g>
</g>
<g>
</g>
<g>
</g>
<g>
</g>
<g>
</g>
<g>
</g>
<g>
</g>
<g>
</g>
<g>
</g>
<g>
</g>
<g>
</g>
<g>
</g>
<g>
</g>
<g>
</g>
</svg>
