<svg id="Icons" height="512" viewBox="0 0 60 60" width="512" xmlns="http://www.w3.org/2000/svg"><style>:root{--resa-icon-primary:#428dff;--resa-icon-secondary:#7facfa;--resa-icon-light:#a4c2f7;--resa-icon-bg:#e8edfc;}</style><path d="m59 15v42a2.006 2.006 0 0 1 -2 2h-52a3.99 3.99 0 0 1 -3.98-3.61c-.01-.13-.02-.26-.02-.39v-.01a4 4 0 0 1 4-3.99h2a1 1 0 0 0 1-1v-37h49a2.006 2.006 0 0 1 2 2z" fill="var(--resa-icon-bg, #e8edfc)"/><path d="m57 13h-3a2.006 2.006 0 0 1 2 2v42a2.006 2.006 0 0 1 -2 2h3a2.006 2.006 0 0 0 2-2v-42a2.006 2.006 0 0 0 -2-2z" fill="var(--resa-icon-bg, #e8edfc)"/><path d="m8 6v44a1 1 0 0 1 -1 1h-2a4 4 0 0 0 -4 3.99v-45.99a4 4 0 0 1 4-4h2a1 1 0 0 1 1 1z" fill="var(--resa-icon-bg, #e8edfc)"/><path d="m5 59h3a3.99 3.99 0 0 1 -3.98-3.61c-.01-.13-.02-.26-.02-.39v-46a3.992 3.992 0 0 1 3.331-3.933.986.986 0 0 0 -.331-.067h-2a4 4 0 0 0 -4 4v46c0 .13.01.26.02.39a3.99 3.99 0 0 0 3.98 3.61z" fill="#fff"/><path d="m0 9h2v8h-2z" fill="#fff"/><g fill="var(--resa-icon-primary, #428dff)"><path d="m57 12h-48v-6a2 2 0 0 0 -2-2h-2a5.006 5.006 0 0 0 -5 5 1 1 0 0 0 2 0 3 3 0 0 1 3-3h2v44h-2a4.948 4.948 0 0 0 -3 1.026v-34.026a1 1 0 0 0 -2 0v38c0 .151.01.312.022.48a4.97 4.97 0 0 0 4.978 4.52h52a3 3 0 0 0 3-3v-42a3 3 0 0 0 -3-3zm1 45a1 1 0 0 1 -1 1h-52a2.973 2.973 0 0 1 -2.983-2.686c-.008-.103-.017-.214-.017-.314a3 3 0 0 1 3-3h2a2 2 0 0 0 2-2v-36h48a1 1 0 0 1 1 1z"/><circle cx="1" cy="13" r="1"/><path d="m53 21h-39a3 3 0 0 0 -3 3v25a3 3 0 0 0 3 3h4.382l1.723 3.447a1 1 0 0 0 1.79-.894l-2-4a1 1 0 0 0 -.895-.553h-5a1 1 0 0 1 -1-1v-12h7a2 2 0 0 0 2-2v-12h15v12h-11a1 1 0 0 0 0 2h5v13h-6a1 1 0 0 0 0 2h28a3 3 0 0 0 3-3v-25a3 3 0 0 0 -3-3zm-33 14h-7v-11a1 1 0 0 1 1-1h6zm34 14a1 1 0 0 1 -1 1h-6v-12h7zm0-13h-7a2 2 0 0 0 -2 2v12h-12v-13h4a2 2 0 0 0 2-2v-12h6v9a1 1 0 0 0 2 0v-9h6a1 1 0 0 1 1 1z"/></g></svg>