<svg height="512" viewBox="0 0 60 60" width="512" xmlns="http://www.w3.org/2000/svg"><style>:root{--resa-icon-primary:#428dff;--resa-icon-secondary:#7facfa;--resa-icon-light:#a4c2f7;--resa-icon-bg:#e8edfc;}</style><g id="Page-1" fill="none" fill-rule="evenodd"><g id="058---Clipboard"><path id="Path" d="m41 29.34v-17.34c0-2.209139-1.790861-4-4-4h-32c-2.209139 0-4 1.790861-4 4v43c0 2.209139 1.790861 4 4 4h32z" fill="var(--resa-icon-bg, #e8edfc)"/><path id="Path" d="m41 29.34v-17.34c0-2.209139-1.790861-4-4-4h-3c2.209139 0 4 1.790861 4 4v20z" fill="var(--resa-icon-bg, #e8edfc)"/><path id="Path" d="m31 8v3c0 .5522847-.4477153 1-1 1h-18c-.5522847 0-1-.4477153-1-1v-3c0-1.65685425 1.3431458-3 3-3h2v-1c0-.79564947.3160705-1.55871121.8786797-2.12132034.5626091-.56260914 1.3256708-.87867966 2.1213203-.87867966h4c1.6568542 0 3 1.34314575 3 3v1h2c1.6568542 0 3 1.34314575 3 3z" fill="var(--resa-icon-bg, #e8edfc)"/><path id="Path" d="m28 5h-2v-1c0-1.65685425-1.3431458-3-3-3h-3c1.6568542 0 3 1.34314575 3 3v1h2c1.6568542 0 3 1.34314575 3 3v3c0 .5522847-.4477153 1-1 1h3c.5522847 0 1-.4477153 1-1v-3c0-1.65685425-1.3431458-3-3-3z" fill="var(--resa-icon-bg, #e8edfc)"/><rect id="Rectangle" fill="var(--resa-icon-bg, #e8edfc)" height="10" rx="2" width="10" x="7" y="17"/><rect id="Rectangle" fill="var(--resa-icon-bg, #e8edfc)" height="10" rx="2" width="10" x="7" y="31"/><rect id="Rectangle" fill="var(--resa-icon-bg, #e8edfc)" height="10" rx="2" width="10" x="7" y="45"/><path id="Path" d="m44 43h13.559c.606829-.0270432 1.1386537-.4143791 1.3505745-.9836438.2119209-.5692648.0628471-1.2100795-.3785745-1.6273562l-13.559-12.989c-.5408949-.5268931-1.4031051-.5268931-1.944 0l-13.559 12.989c-.4414216.4172767-.5904954 1.0580914-.3785745 1.6273562.2119208.5692647.7437455.9566006 1.3505745.9836438z" fill="var(--resa-icon-bg, #e8edfc)"/><path id="Path" d="m58.531 40.389-13.559-12.989c-.5408949-.5268931-1.4031051-.5268931-1.944 0l-.528.5 13.031 12.489c.4414216.4172767.5904954 1.0580914.3785745 1.6273562-.2119208.5692647-.7437455.9566006-1.3505745.9836438h3c.606829-.0270432 1.1386537-.4143791 1.3505745-.9836438.2119209-.5692648.0628471-1.2100795-.3785745-1.6273562z" fill="var(--resa-icon-light, #a4c2f7)"/><path id="Path" d="m51 33.18v-3.18c0-.5522847.4477153-1 1-1h3c.5522847 0 1 .4477153 1 1v7.97" fill="var(--resa-icon-light, #a4c2f7)"/><path id="Path" d="m32 43h24v14c0 1.1045695-.8954305 2-2 2h-20c-1.1045695 0-2-.8954305-2-2z" fill="var(--resa-icon-bg, #e8edfc)"/><path id="Path" d="m53 43v14c0 1.1045695-.8954305 2-2 2h3c1.1045695 0 2-.8954305 2-2v-14z" fill="var(--resa-icon-bg, #e8edfc)"/><path id="Path" d="m44 48c2.209139 0 4 1.790861 4 4v7h-8v-7c0-2.209139 1.790861-4 4-4z" fill="var(--resa-icon-light, #a4c2f7)"/><path id="Path" d="m44 48c-.5146843.0021695-1.0240724.1040471-1.5.3 1.5082666.61012 2.4967043 2.0730078 2.5 3.7v7h3v-7c0-2.209139-1.790861-4-4-4z" fill="var(--resa-icon-secondary, #7facfa)"/><path id="Path" d="m5 59h3c-2.209139 0-4-1.790861-4-4v-43c0-2.209139 1.790861-4 4-4h-3c-2.209139 0-4 1.790861-4 4v43c0 2.209139 1.790861 4 4 4z" fill="#fff"/><path id="Path" d="m17 5h2v-1c0-1.65685425 1.3431458-3 3-3h-3c-1.6568542 0-3 1.34314575-3 3v1h-2c-1.6568542 0-3 1.34314575-3 3h3c0-1.65685425 1.3431458-3 3-3z" fill="#fff"/><path id="Rectangle" d="m0 12h2v8h-2z" fill="#fff"/><g fill="var(--resa-icon-primary, #428dff)"><circle id="Oval" cx="1" cy="16" r="1"/><path id="Shape" d="m5 60h49c1.6568542 0 3-1.3431458 3-3v-13h.56c.9993256.0037787 1.8964112-.6120714 2.252-1.546.3944046-.9618264.1608398-2.0669964-.589-2.787l-2.223-2.13v-7.537c0-1.1045695-.8954305-2-2-2h-3c-1.1045695 0-2 .8954305-2 2v.829l-4.336-4.155c-.9290777-.8933843-2.3979223-.8933843-3.327 0l-.337.326v-15c-.0033061-2.76005315-2.2399468-4.99669388-5-5h-5.142c-.4545933-1.76068514-2.0395884-2.99318518-3.858-3h-1c0-2.209139-1.790861-4-4-4h-4c-2.209139 0-4 1.790861-4 4h-1c-1.8184116.00681482-3.4034067 1.23931486-3.858 3h-5.142c-2.76005315.00330612-4.99669388 2.23994685-5 5 0 .5522847.44771525 1 1 1s1-.4477153 1-1c0-1.6568542 1.34314575-3 3-3h5v2c0 1.1045695.8954305 2 2 2h18c1.1045695 0 2-.8954305 2-2v-2h5c1.6568542 0 3 1.3431458 3 3v16.913l-11.224 10.754c-.7489807.7205182-.9820715 1.8253212-.588 2.787.3555888.9339286 1.2526744 1.5497787 2.252 1.546h.56v13c.0033144.3414397.0655622.679743.184 1h-26.184c-1.65685425 0-3-1.3431458-3-3v-35c0-.5522847-.44771525-1-1-1s-1 .4477153-1 1v35c.00330612 2.7600532 2.23994685 4.9966939 5 5zm25-49h-18v-3c0-1.1045695.8954305-2 2-2h2c.5522847 0 1-.44771525 1-1v-1c0-1.1045695.8954305-2 2-2h4c1.1045695 0 2 .8954305 2 2v1c0 .55228475.4477153 1 1 1h2c1.1045695 0 2 .8954305 2 2zm11 47v-6c0-1.6568542 1.3431458-3 3-3s3 1.3431458 3 3v6zm11-28h3v5.62l-3-2.874zm-21.956 11.708c-.089402-.2047144-.0432636-.443361.116-.6l11.545-11.059 2.012-1.928c.0744192-.0764643.1763039-.1200263.283-.121.1047865.001178.2050808.0427284.28.116l6 5.747.044.042 4.959 4.752c.012.013.024.023.036.035l2.523 2.417c.1598728.1562658.2064487.3951165.117.6-.0567287.1731789-.2177708.2907396-.4.292h-27.119c-.1810167-.0031067-.3400911-.1208057-.396-.293zm2.956 15.292v-13h22v13c0 .5522847-.4477153 1-1 1h-5v-6c0-2.7614237-2.2385763-5-5-5s-5 2.2385763-5 5v6h-5c-.5522847 0-1-.4477153-1-1z" fill-rule="nonzero"/><path id="Path" d="m24 7h-6c-.5522847 0-1 .44771525-1 1s.4477153 1 1 1h6c.5522847 0 1-.44771525 1-1s-.4477153-1-1-1z"/><path id="Shape" d="m9 28h6c1.6568542 0 3-1.3431458 3-3v-5.586l1.707-1.707c.3789722-.3923789.3735524-1.0160848-.0121814-1.4018186s-1.0094397-.3911536-1.4018186-.0121814l-.908.908c-.5616312-.753435-1.4452728-1.1984051-2.385-1.201h-6c-1.65685425 0-3 1.3431458-3 3v6c0 1.6568542 1.34314575 3 3 3zm-1-9c0-.5522847.44771525-1 1-1h6c.4169877.0017089.7884869.2637556.93.656l-3.93 3.93-1.293-1.293c-.3923789-.3789722-1.01608478-.3735524-1.40181858.0121814-.38573379.3857338-.39115363 1.0094397-.01218142 1.4018186l2 2c.3904999.3903819 1.0235001.3903819 1.414 0l3.293-3.293v3.586c0 .5522847-.4477153 1-1 1h-6c-.55228475 0-1-.4477153-1-1z" fill-rule="nonzero"/><path id="Shape" d="m6 39c0 1.6568542 1.34314575 3 3 3h6c1.6568542 0 3-1.3431458 3-3v-5.586l1.707-1.707c.3789722-.3923789.3735524-1.0160848-.0121814-1.4018186s-1.0094397-.3911536-1.4018186-.0121814l-.908.908c-.5616312-.753435-1.4452728-1.1984051-2.385-1.201h-6c-1.65685425 0-3 1.3431458-3 3zm2-6c0-.5522847.44771525-1 1-1h6c.4169877.0017089.7884869.2637556.93.656l-3.93 3.93-1.293-1.293c-.3923789-.3789722-1.01608478-.3735524-1.40181858.0121814-.38573379.3857338-.39115363 1.0094397-.01218142 1.4018186l2 2c.3904999.3903819 1.0235001.3903819 1.414 0l3.293-3.293v3.586c0 .5522847-.4477153 1-1 1h-6c-.55228475 0-1-.4477153-1-1z" fill-rule="nonzero"/><path id="Shape" d="m6 53c0 1.6568542 1.34314575 3 3 3h6c1.6568542 0 3-1.3431458 3-3v-5.586l1.707-1.707c.3789722-.3923789.3735524-1.0160848-.0121814-1.4018186s-1.0094397-.3911536-1.4018186-.0121814l-.908.908c-.5616312-.753435-1.4452728-1.1984051-2.385-1.201h-6c-1.65685425 0-3 1.3431458-3 3zm2-6c0-.5522847.44771525-1 1-1h6c.4169877.0017089.7884869.2637556.93.656l-3.93 3.93-1.293-1.293c-.3923789-.3789722-1.01608478-.3735524-1.40181858.0121814-.38573379.3857338-.39115363 1.0094397-.01218142 1.4018186l2 2c.3904999.3903819 1.0235001.3903819 1.414 0l3.293-3.293v3.586c0 .5522847-.4477153 1-1 1h-6c-.55228475 0-1-.4477153-1-1z" fill-rule="nonzero"/><path id="Path" d="m23 21h13c.5522847 0 1-.4477153 1-1s-.4477153-1-1-1h-13c-.5522847 0-1 .4477153-1 1s.4477153 1 1 1z"/><path id="Path" d="m23 25h8c.5522847 0 1-.4477153 1-1s-.4477153-1-1-1h-8c-.5522847 0-1 .4477153-1 1s.4477153 1 1 1z"/><path id="Path" d="m23 35h7.35c.5522847 0 1-.4477153 1-1s-.4477153-1-1-1h-7.35c-.5522847 0-1 .4477153-1 1s.4477153 1 1 1z"/><path id="Path" d="m23 39h3.24c.5522847 0 1-.4477153 1-1s-.4477153-1-1-1h-3.24c-.5522847 0-1 .4477153-1 1s.4477153 1 1 1z"/><path id="Path" d="m23 49h5c.5522847 0 1-.4477153 1-1s-.4477153-1-1-1h-5c-.5522847 0-1 .4477153-1 1s.4477153 1 1 1z"/><path id="Path" d="m23 53h5c.5522847 0 1-.4477153 1-1s-.4477153-1-1-1h-5c-.5522847 0-1 .4477153-1 1s.4477153 1 1 1z"/></g></g></g></svg>