<svg height="512pt" viewBox="0 0 512 512" width="512pt" xmlns="http://www.w3.org/2000/svg"><style>:root{--resa-icon-primary:#428dff;--resa-icon-secondary:#7facfa;--resa-icon-light:#a4c2f7;--resa-icon-bg:#e8edfc;}</style><path d="m128 145.066406h128v358.398438h-128zm0 0" fill="var(--resa-icon-bg, #e8edfc)"/><path d="m128 8.535156v358.398438h-119.464844v-349.867188c.011719-4.707031 3.824219-8.519531 8.53125-8.53125zm0 0" fill="var(--resa-icon-bg, #e8edfc)"/><path d="m128 366.933594v136.53125h-110.933594c-4.707031-.011719-8.519531-3.824219-8.53125-8.53125v-128zm0 0" fill="var(--resa-icon-bg, #e8edfc)"/><path d="m128 8.535156h128v136.53125h-128zm0 0" fill="var(--resa-icon-bg, #e8edfc)"/><path d="m256 366.933594h128v136.53125h-128zm0 0" fill="var(--resa-icon-bg, #e8edfc)"/><path d="m503.464844 145.066406v349.867188c-.011719 4.707031-3.824219 8.519531-8.53125 8.53125h-110.933594v-358.398438zm0 0" fill="var(--resa-icon-bg, #e8edfc)"/><path d="m503.464844 17.066406v128h-119.464844v-136.53125h110.933594c4.707031.011719 8.519531 3.824219 8.53125 8.53125zm0 0" fill="var(--resa-icon-bg, #e8edfc)"/><path d="m477.867188 145.066406v349.867188c-.015626 4.707031-3.828126 8.519531-8.535157 8.53125h-85.332031v-358.398438zm0 0" fill="var(--resa-icon-bg, #e8edfc)"/><path d="m477.867188 17.066406v128h-93.867188v-136.53125h85.332031c4.707031.011719 8.519531 3.824219 8.535157 8.53125zm0 0" fill="var(--resa-icon-bg, #e8edfc)"/><path d="m256 8.535156h128v358.398438h-128zm0 0" fill="var(--resa-icon-bg, #e8edfc)"/><path d="m17.066406 503.464844h25.601563c-4.707031-.011719-8.519531-3.824219-8.535157-8.53125v-477.867188c.015626-4.707031 3.828126-8.519531 8.535157-8.53125h-25.601563c-4.707031.011719-8.519531 3.824219-8.53125 8.53125v477.867188c.011719 4.707031 3.824219 8.519531 8.53125 8.53125zm0 0" fill="#fffdfd"/><path d="m17.066406 17.066406v477.867188h-17.066406v-477.867188zm0 0" fill="#fff"/><g fill="var(--resa-icon-primary, #428dff)"><path d="m8.535156 59.734375c4.707032-.015625 8.519532-3.828125 8.53125-8.535156v-34.132813h-17.066406v34.132813c.015625 4.707031 3.828125 8.519531 8.535156 8.535156zm0 0"/><path d="m0 494.933594h17.066406v-375.46875c0-4.710938-3.820312-8.53125-8.53125-8.53125-4.714844 0-8.535156 3.820312-8.535156 8.53125zm0 0"/><path d="m17.066406 85.332031c-.035156-2.257812-.917968-4.421875-2.472656-6.058593l-1.28125-1.023438c-.476562-.320312-.992188-.582031-1.535156-.765625-.484375-.25-1.003906-.421875-1.539063-.515625-.5625-.09375-1.132812-.152344-1.703125-.167969-2.261718.03125-4.425781.914063-6.058594 2.472657-3.222656 3.398437-3.222656 8.722656 0 12.117187.8125.773437 1.769532 1.378906 2.8125 1.792969 1.027344.4375 2.128907.667968 3.246094.683594 2.257813-.035157 4.417969-.917969 6.058594-2.476563 1.554688-1.636719 2.4375-3.796875 2.472656-6.058594zm0 0"/><path d="m128 512h-110.933594c-9.421875-.011719-17.0546872-7.644531-17.066406-17.066406 0-4.714844 3.820312-8.535156 8.535156-8.535156 4.710938 0 8.53125 3.820312 8.53125 8.535156h102.398438v-477.867188h-102.398438c0 4.714844-3.820312 8.535156-8.53125 8.535156-4.714844 0-8.535156-3.820312-8.535156-8.535156.0117188-9.421875 7.644531-17.0546872 17.066406-17.066406h110.933594c4.710938 0 8.535156 3.820312 8.535156 8.535156v494.929688c0 4.714844-3.824218 8.535156-8.535156 8.535156zm0 0"/><path d="m256 512h-128c-4.710938 0-8.535156-3.820312-8.535156-8.535156v-494.929688c0-4.714844 3.824218-8.535156 8.535156-8.535156h128c4.710938 0 8.535156 3.820312 8.535156 8.535156v494.929688c0 4.714844-3.824218 8.535156-8.535156 8.535156zm-119.464844-17.066406h110.929688v-477.867188h-110.929688zm0 0"/><path d="m384 512h-128c-4.710938 0-8.535156-3.820312-8.535156-8.535156v-494.929688c0-4.714844 3.824218-8.535156 8.535156-8.535156h128c4.710938 0 8.535156 3.820312 8.535156 8.535156v494.929688c0 4.714844-3.824218 8.535156-8.535156 8.535156zm-119.464844-17.066406h110.929688v-477.867188h-110.929688zm0 0"/><path d="m494.933594 512h-110.933594c-4.710938 0-8.535156-3.820312-8.535156-8.535156v-494.929688c0-4.714844 3.824218-8.535156 8.535156-8.535156h110.933594c9.421875.0117188 17.054687 7.644531 17.066406 17.066406v477.867188c-.011719 9.421875-7.644531 17.054687-17.066406 17.066406zm-102.398438-17.066406h102.40625l-.007812-477.867188h-102.398438zm0 0"/><path d="m256 153.601562h-128c-4.710938 0-8.535156-3.820312-8.535156-8.535156 0-4.710937 3.824218-8.53125 8.535156-8.53125h128c4.710938 0 8.535156 3.820313 8.535156 8.53125 0 4.714844-3.824218 8.535156-8.535156 8.535156zm0 0"/><path d="m384 375.464844h-128c-4.710938 0-8.535156-3.820313-8.535156-8.53125 0-4.714844 3.824218-8.535156 8.535156-8.535156h128c4.710938 0 8.535156 3.820312 8.535156 8.535156 0 4.710937-3.824218 8.53125-8.535156 8.53125zm0 0"/><path d="m503.464844 153.601562h-119.464844c-4.710938 0-8.535156-3.820312-8.535156-8.535156 0-4.710937 3.824218-8.53125 8.535156-8.53125h119.464844c4.714844 0 8.535156 3.820313 8.535156 8.53125 0 4.714844-3.820312 8.535156-8.535156 8.535156zm0 0"/><path d="m128 375.464844h-119.464844c-4.714844 0-8.535156-3.820313-8.535156-8.53125 0-4.714844 3.820312-8.535156 8.535156-8.535156h119.464844c4.710938 0 8.535156 3.820312 8.535156 8.535156 0 4.710937-3.824218 8.53125-8.535156 8.53125zm0 0"/><path d="m51.199219 153.601562c-4.710938 0-8.53125-3.820312-8.53125-8.535156v-136.53125c0-4.714844 3.820312-8.535156 8.53125-8.535156 4.714843 0 8.535156 3.820312 8.535156 8.535156v136.53125c0 4.714844-3.820313 8.535156-8.535156 8.535156zm0 0"/><path d="m51.199219 204.800781c-4.710938 0-8.53125-3.820312-8.53125-8.535156v-8.53125c0-4.714844 3.820312-8.535156 8.53125-8.535156 4.714843 0 8.535156 3.820312 8.535156 8.535156v8.53125c0 4.714844-3.820313 8.535156-8.535156 8.535156zm0 0"/><path d="m51.199219 375.464844c-4.710938 0-8.53125-3.820313-8.53125-8.53125v-136.535156c0-4.710938 3.820312-8.53125 8.53125-8.53125 4.714843 0 8.535156 3.820312 8.535156 8.53125v136.535156c0 4.710937-3.820313 8.53125-8.535156 8.53125zm0 0"/><path d="m85.332031 298.667969c-4.710937 0-8.53125-3.820313-8.53125-8.535157v-230.398437c0-4.714844 3.820313-8.535156 8.53125-8.535156 4.714844 0 8.535157 3.820312 8.535157 8.535156v230.398437c0 4.714844-3.820313 8.535157-8.535157 8.535157zm0 0"/><path d="m85.332031 375.464844c-4.710937 0-8.53125-3.820313-8.53125-8.53125v-25.601563c0-4.710937 3.820313-8.53125 8.53125-8.53125 4.714844 0 8.535157 3.820313 8.535157 8.53125v25.601563c0 4.710937-3.820313 8.53125-8.535157 8.53125zm0 0"/><path d="m85.332031 34.132812c-4.710937 0-8.53125-3.820312-8.53125-8.53125v-17.066406c0-4.714844 3.820313-8.535156 8.53125-8.535156 4.714844 0 8.535157 3.820312 8.535157 8.535156v17.066406c0 4.710938-3.820313 8.53125-8.535157 8.53125zm0 0"/><path d="m42.667969 443.734375c-4.714844 0-8.535157-3.820313-8.535157-8.535156v-68.265625c0-4.714844 3.820313-8.535156 8.535157-8.535156 4.710937 0 8.53125 3.820312 8.53125 8.535156v68.265625c0 4.714843-3.820313 8.535156-8.53125 8.535156zm0 0"/><path d="m42.667969 512c-4.714844 0-8.535157-3.820312-8.535157-8.535156v-25.597656c0-4.714844 3.820313-8.535157 8.535157-8.535157 4.710937 0 8.53125 3.820313 8.53125 8.535157v25.597656c0 4.714844-3.820313 8.535156-8.53125 8.535156zm0 0"/><path d="m76.800781 512c-4.714843 0-8.535156-3.820312-8.535156-8.535156v-136.53125c0-4.714844 3.820313-8.535156 8.535156-8.535156 4.710938 0 8.53125 3.820312 8.53125 8.535156v136.53125c0 4.714844-3.820312 8.535156-8.53125 8.535156zm0 0"/><path d="m170.667969 366.933594c-4.714844 0-8.535157-3.820313-8.535157-8.535156v-213.332032c0-4.710937 3.820313-8.53125 8.535157-8.53125 4.710937 0 8.53125 3.820313 8.53125 8.53125v213.332032c0 4.714843-3.820313 8.535156-8.53125 8.535156zm0 0"/><path d="m170.667969 409.601562c-4.714844 0-8.535157-3.820312-8.535157-8.535156v-8.53125c0-4.714844 3.820313-8.535156 8.535157-8.535156 4.710937 0 8.53125 3.820312 8.53125 8.535156v8.53125c0 4.714844-3.820313 8.535156-8.53125 8.535156zm0 0"/><path d="m170.667969 512c-4.714844 0-8.535157-3.820312-8.535157-8.535156v-68.265625c0-4.710938 3.820313-8.53125 8.535157-8.53125 4.710937 0 8.53125 3.820312 8.53125 8.53125v68.265625c0 4.714844-3.820313 8.535156-8.53125 8.535156zm0 0"/><path d="m213.332031 512c-4.710937 0-8.53125-3.820312-8.53125-8.535156v-204.796875c0-4.714844 3.820313-8.535157 8.53125-8.535157 4.714844 0 8.535157 3.820313 8.535157 8.535157v204.796875c0 4.714844-3.820313 8.535156-8.535157 8.535156zm0 0"/><path d="m213.332031 273.066406c-4.710937 0-8.53125-3.820312-8.53125-8.53125v-119.46875c0-4.710937 3.820313-8.53125 8.53125-8.53125 4.714844 0 8.535157 3.820313 8.535157 8.53125v119.46875c0 4.710938-3.820313 8.53125-8.535157 8.53125zm0 0"/><path d="m162.132812 153.601562c-4.710937 0-8.53125-3.820312-8.53125-8.535156v-76.800781c0-4.710937 3.820313-8.53125 8.53125-8.53125 4.714844 0 8.535157 3.820313 8.535157 8.53125v76.800781c0 4.714844-3.820313 8.535156-8.535157 8.535156zm0 0"/><path d="m162.132812 42.667969c-4.710937 0-8.53125-3.820313-8.53125-8.535157v-25.597656c0-4.714844 3.820313-8.535156 8.53125-8.535156 4.714844 0 8.535157 3.820312 8.535157 8.535156v25.597656c0 4.714844-3.820313 8.535157-8.535157 8.535157zm0 0"/><path d="m213.332031 51.199219c-4.710937 0-8.53125-3.820313-8.53125-8.53125v-34.132813c0-4.714844 3.820313-8.535156 8.53125-8.535156 4.714844 0 8.535157 3.820312 8.535157 8.535156v34.132813c0 4.710937-3.820313 8.53125-8.535157 8.53125zm0 0"/><path d="m213.332031 93.867188c-4.710937 0-8.53125-3.820313-8.53125-8.535157v-8.53125c0-4.714843 3.820313-8.535156 8.53125-8.535156 4.714844 0 8.535157 3.820313 8.535157 8.535156v8.53125c0 4.714844-3.820313 8.535157-8.535157 8.535157zm0 0"/><path d="m213.332031 153.601562c-4.710937 0-8.53125-3.820312-8.53125-8.535156v-25.601562c0-4.710938 3.820313-8.53125 8.53125-8.53125 4.714844 0 8.535157 3.820312 8.535157 8.53125v25.601562c0 4.714844-3.820313 8.535156-8.535157 8.535156zm0 0"/><path d="m298.667969 460.800781c-4.714844 0-8.535157-3.820312-8.535157-8.535156v-85.332031c0-4.714844 3.820313-8.535156 8.535157-8.535156 4.710937 0 8.53125 3.820312 8.53125 8.535156v85.332031c0 4.714844-3.820313 8.535156-8.53125 8.535156zm0 0"/><path d="m298.667969 512c-4.714844 0-8.535157-3.820312-8.535157-8.535156v-17.066406c0-4.710938 3.820313-8.53125 8.535157-8.53125 4.710937 0 8.53125 3.820312 8.53125 8.53125v17.066406c0 4.714844-3.820313 8.535156-8.53125 8.535156zm0 0"/><path d="m341.332031 418.132812c-4.710937 0-8.53125-3.820312-8.53125-8.53125v-42.667968c0-4.714844 3.820313-8.535156 8.53125-8.535156 4.714844 0 8.535157 3.820312 8.535157 8.535156v42.667968c0 4.710938-3.820313 8.53125-8.535157 8.53125zm0 0"/><path d="m341.332031 512c-4.710937 0-8.53125-3.820312-8.53125-8.535156v-59.730469c0-4.714844 3.820313-8.535156 8.53125-8.535156 4.714844 0 8.535157 3.820312 8.535157 8.535156v59.730469c0 4.714844-3.820313 8.535156-8.535157 8.535156zm0 0"/><path d="m298.667969 341.332031c-4.714844 0-8.535157-3.820312-8.535157-8.53125v-324.265625c0-4.714844 3.820313-8.535156 8.535157-8.535156 4.710937 0 8.53125 3.820312 8.53125 8.535156v324.265625c0 4.710938-3.820313 8.53125-8.53125 8.53125zm0 0"/><path d="m341.332031 375.464844c-4.710937 0-8.53125-3.820313-8.53125-8.53125v-162.132813c0-4.714843 3.820313-8.535156 8.53125-8.535156 4.714844 0 8.535157 3.820313 8.535157 8.535156v162.132813c0 4.710937-3.820313 8.53125-8.535157 8.53125zm0 0"/><path d="m341.332031 179.199219c-4.710937 0-8.53125-3.820313-8.53125-8.53125v-8.535157c0-4.710937 3.820313-8.53125 8.53125-8.53125 4.714844 0 8.535157 3.820313 8.535157 8.53125v8.535157c0 4.710937-3.820313 8.53125-8.535157 8.53125zm0 0"/><path d="m341.332031 136.535156c-4.710937 0-8.53125-3.824218-8.53125-8.535156v-119.464844c0-4.714844 3.820313-8.535156 8.53125-8.535156 4.714844 0 8.535157 3.820312 8.535157 8.535156v119.464844c0 4.710938-3.820313 8.535156-8.535157 8.535156zm0 0"/><path d="m426.667969 512c-4.714844 0-8.535157-3.820312-8.535157-8.535156v-221.863282c0-4.714843 3.820313-8.535156 8.535157-8.535156 4.710937 0 8.53125 3.820313 8.53125 8.535156v221.863282c0 4.714844-3.820313 8.535156-8.53125 8.535156zm0 0"/><path d="m426.667969 256c-4.714844 0-8.535157-3.820312-8.535157-8.535156v-8.53125c0-4.714844 3.820313-8.535156 8.535157-8.535156 4.710937 0 8.53125 3.820312 8.53125 8.535156v8.53125c0 4.714844-3.820313 8.535156-8.53125 8.535156zm0 0"/><path d="m426.667969 213.332031c-4.714844 0-8.535157-3.820312-8.535157-8.53125v-59.734375c0-4.710937 3.820313-8.53125 8.535157-8.53125 4.710937 0 8.53125 3.820313 8.53125 8.53125v59.734375c0 4.710938-3.820313 8.53125-8.53125 8.53125zm0 0"/><path d="m460.800781 418.132812c-4.714843 0-8.535156-3.820312-8.535156-8.53125v-264.535156c0-4.710937 3.820313-8.53125 8.535156-8.53125 4.710938 0 8.53125 3.820313 8.53125 8.53125v264.535156c0 4.710938-3.820312 8.53125-8.53125 8.53125zm0 0"/><path d="m460.800781 512c-4.714843 0-8.535156-3.820312-8.535156-8.535156v-59.730469c0-4.714844 3.820313-8.535156 8.535156-8.535156 4.710938 0 8.53125 3.820312 8.53125 8.535156v59.730469c0 4.714844-3.820312 8.535156-8.53125 8.535156zm0 0"/><path d="m426.667969 153.601562c-4.714844 0-8.535157-3.820312-8.535157-8.535156v-76.800781c0-4.710937 3.820313-8.53125 8.535157-8.53125 4.710937 0 8.53125 3.820313 8.53125 8.53125v76.800781c0 4.714844-3.820313 8.535156-8.53125 8.535156zm0 0"/><path d="m426.667969 42.667969c-4.714844 0-8.535157-3.820313-8.535157-8.535157v-25.597656c0-4.714844 3.820313-8.535156 8.535157-8.535156 4.710937 0 8.53125 3.820312 8.53125 8.535156v25.597656c0 4.714844-3.820313 8.535157-8.53125 8.535157zm0 0"/><path d="m460.800781 153.601562c-4.714843 0-8.535156-3.820312-8.535156-8.535156v-136.53125c0-4.714844 3.820313-8.535156 8.535156-8.535156 4.710938 0 8.53125 3.820312 8.53125 8.535156v136.53125c0 4.714844-3.820312 8.535156-8.53125 8.535156zm0 0"/></g></svg>