<svg height="512" viewBox="0 0 60 60" width="512" xmlns="http://www.w3.org/2000/svg"><style>:root{--resa-icon-primary:#428dff;--resa-icon-secondary:#7facfa;--resa-icon-light:#a4c2f7;--resa-icon-bg:#e8edfc;}</style><g id="Icons"><path d="m48 34v14.99l-.07.07a3.583 3.583 0 0 0 -3.43-3.06 2.737 2.737 0 0 0 -.5.04v-6.04a2.006 2.006 0 0 0 -2-2h-14a2.006 2.006 0 0 0 -2 2v10h10.12a4.921 4.921 0 0 0 -2.12 4.13 4.693 4.693 0 0 0 4.5 4.87h-34.5v-25z" fill="var(--resa-icon-bg, #e8edfc)"/><path d="m44 40v6.04a3.708 3.708 0 0 0 -3 3.75c0 .1.01.2.01.29a4.244 4.244 0 0 0 -2.51-.83 4.15 4.15 0 0 0 -2.38.75h-10.12v-10a2.006 2.006 0 0 1 2-2h14a2.006 2.006 0 0 1 2 2z" fill="var(--resa-icon-bg, #e8edfc)"/><path d="m56 55.75a3.134 3.134 0 0 1 -3 3.25h-14.5a4.693 4.693 0 0 1 -4.5-4.87 4.921 4.921 0 0 1 2.12-4.13 4.15 4.15 0 0 1 2.38-.75 4.244 4.244 0 0 1 2.51.83c0-.09-.01-.19-.01-.29a3.708 3.708 0 0 1 3-3.75 2.737 2.737 0 0 1 .5-.04 3.583 3.583 0 0 1 3.43 3.06l.07-.07a2.872 2.872 0 0 1 2-.82 3.127 3.127 0 0 1 3 3.25 3.28 3.28 0 0 1 -.18 1.09c.06 0 .12-.01.18-.01a3.134 3.134 0 0 1 3 3.25z" fill="var(--resa-icon-bg, #e8edfc)"/><g fill="var(--resa-icon-bg, #e8edfc)"><path d="m44.93 49.06.07-.07a2.872 2.872 0 0 1 2-.82 2.76 2.76 0 0 1 .689.094 3.494 3.494 0 0 0 -3.189-2.264 2.737 2.737 0 0 0 -.5.04 3.268 3.268 0 0 0 -1 .341 3.745 3.745 0 0 1 1.93 2.679z"/><path d="m37.005 49.541a4.321 4.321 0 0 1 1 .539c0-.09-.01-.19-.01-.29a4.015 4.015 0 0 1 .043-.505 4.141 4.141 0 0 0 -1.033.256z"/><path d="m53 52.5c-.06 0-.12.01-.18.01a3.28 3.28 0 0 0 .18-1.09 3.127 3.127 0 0 0 -3-3.25 2.833 2.833 0 0 0 -1.51.443 3.37 3.37 0 0 1 1.33 3.9c.06 0 .12-.01.18-.01a3.26 3.26 0 0 1 0 6.497h3a3.26 3.26 0 0 0 0-6.5z"/></g><path d="m10 38h8a2 2 0 0 1 2 2v19a0 0 0 0 1 0 0h-12a0 0 0 0 1 0 0v-19a2 2 0 0 1 2-2z" fill="var(--resa-icon-bg, #e8edfc)"/><path d="m18 38h-3a2 2 0 0 1 2 2v19h3v-19a2 2 0 0 0 -2-2z" fill="var(--resa-icon-light, #a4c2f7)"/><path d="m49.28 34h-46.56a1.006 1.006 0 0 1 -.87-1.5l6.86-12a1 1 0 0 1 .87-.5h32.84a1 1 0 0 1 .87.5l6.86 12a1.006 1.006 0 0 1 -.87 1.5z" fill="var(--resa-icon-bg, #e8edfc)"/><path d="m50.15 32.5-6.86-12a1 1 0 0 0 -.87-.5h-3a1 1 0 0 1 .87.5l6.86 12a1.006 1.006 0 0 1 -.87 1.5h3a1.006 1.006 0 0 0 .87-1.5z" fill="var(--resa-icon-bg, #e8edfc)"/><circle cx="48" cy="12" fill="var(--resa-icon-bg, #e8edfc)" r="5"/><path d="m35.5 49.25a4.15 4.15 0 0 0 -2.38.75h3a4.2 4.2 0 0 1 .885-.459 4.168 4.168 0 0 0 -1.505-.291z" fill="var(--resa-icon-bg, #e8edfc)"/><path d="m42 38h-3a2.006 2.006 0 0 1 2 2v6.04a3.656 3.656 0 0 0 -2.957 3.245 4.31 4.31 0 0 1 .457-.035 4.244 4.244 0 0 1 2.51.83c0-.09-.01-.19-.01-.29a3.708 3.708 0 0 1 3-3.75v-6.04a2.006 2.006 0 0 0 -2-2z" fill="var(--resa-icon-light, #a4c2f7)"/><path d="m48 7a4.966 4.966 0 0 0 -1.5.254 4.968 4.968 0 0 1 0 9.492 4.99 4.99 0 1 0 1.5-9.746z" fill="var(--resa-icon-bg, #e8edfc)"/><path d="m20 24v6h-9.38a1 1 0 0 1 -.9-1.45l2-4a1 1 0 0 1 .9-.55z" fill="var(--resa-icon-bg, #e8edfc)"/><path d="m17 24h3v6h-3z" fill="var(--resa-icon-light, #a4c2f7)"/><path d="m41.38 30h-9.38v-6h7.38a1 1 0 0 1 .9.55l2 4a1 1 0 0 1 -.9 1.45z" fill="var(--resa-icon-bg, #e8edfc)"/><path d="m41.38 30h-9.38v-6h7.38a1 1 0 0 1 .9.55l2 4a1 1 0 0 1 -.9 1.45z" fill="var(--resa-icon-bg, #e8edfc)"/><path d="m42.28 28.55-2-4a1 1 0 0 0 -.9-.55h-3a1 1 0 0 1 .9.55l2 4a1 1 0 0 1 -.9 1.45h3a1 1 0 0 0 .9-1.45z" fill="var(--resa-icon-light, #a4c2f7)"/><path d="m20 24h12v6h-12z" fill="var(--resa-icon-bg, #e8edfc)"/><path d="m29 24h3v6h-3z" fill="var(--resa-icon-bg, #e8edfc)"/></g><g id="Icons_copy_2" data-name="Icons copy 2"><path d="m2.72 34h1.28v25h3v-25h-1.28a1.006 1.006 0 0 1 -.87-1.5l6.86-12a1 1 0 0 1 .87-.5h-3a1 1 0 0 0 -.87.5l-6.86 12a1.006 1.006 0 0 0 .87 1.5z" fill="#fff"/></g><g id="Icons_copy" data-name="Icons copy"><path d="m3 51h2v8h-2z" fill="#fff"/><g fill="var(--resa-icon-primary, #428dff)"><circle cx="4" cy="55" r="1"/><path d="m59 58h-2.62a4.407 4.407 0 0 0 .62-2.25 4.218 4.218 0 0 0 -3-4.117c0-.072.005-.144.005-.216a4.135 4.135 0 0 0 -4-4.25 3.736 3.736 0 0 0 -1 .151v-12.318h.277a2 2 0 0 0 1.736-2.992l-6.857-12a2.005 2.005 0 0 0 -1.742-1.008h-32.838a2 2 0 0 0 -1.737 1.008l-6.857 12a2 2 0 0 0 1.736 2.992h.277v16a1 1 0 0 0 2 0v-16h42v10.821a4.3 4.3 0 0 0 -2-.784v-5.037a3 3 0 0 0 -3-3h-14a3 3 0 0 0 -3 3v9h-1a1 1 0 0 0 0 2h9.851a6.151 6.151 0 0 0 .526 7h-13.377v-18a3 3 0 0 0 -3-3h-8a3 3 0 0 0 -3 3v18h-6a1 1 0 0 0 0 2h58a1 1 0 0 0 0-2zm-49.419-37h32.839l6.862 12h-46.559zm26.419 27.9v-3.9h7v.276a4.7 4.7 0 0 0 -2.84 3.246 5.164 5.164 0 0 0 -4.16.378zm7-8.9v3h-7v-4h6a1 1 0 0 1 1 1zm-15-1h6v4h-7v-3a1 1 0 0 1 1-1zm-1 6h7v4h-7zm-18 13v-18a1 1 0 0 1 1-1h8a1 1 0 0 1 1 1v18zm39 0h-9.5a3.9 3.9 0 0 1 0-7.75 3.242 3.242 0 0 1 1.923.638 1 1 0 0 0 1.588-.879c-.005-.072-.011-.144-.011-.217a2.661 2.661 0 0 1 2.5-2.792 2.591 2.591 0 0 1 2.45 2.241 1 1 0 0 0 1.7.519 1.874 1.874 0 0 1 1.35-.593 2.138 2.138 0 0 1 2 2.25 2.507 2.507 0 0 1 -.127.78 1 1 0 0 0 .159.925.986.986 0 0 0 .856.386l.112-.008a2.266 2.266 0 0 1 0 4.5z"/><path d="m12 49a1 1 0 0 0 -1 1v1a1 1 0 0 0 2 0v-1a1 1 0 0 0 -1-1z"/><path d="m54 12a6 6 0 1 0 -6 6 6.006 6.006 0 0 0 6-6zm-6 4a4 4 0 1 1 4-4 4 4 0 0 1 -4 4z"/><path d="m48 4a1 1 0 0 0 1-1v-2a1 1 0 0 0 -2 0v2a1 1 0 0 0 1 1z"/><path d="m42.634 4.706a1 1 0 0 0 1.732-1l-1-1.732a1 1 0 1 0 -1.732 1z"/><path d="m52.634 22.026a1 1 0 1 0 1.732-1l-1-1.732a1 1 0 1 0 -1.732 1z"/><path d="m37.974 7.366 1.732 1a1 1 0 0 0 1-1.732l-1.732-1a1 1 0 1 0 -1 1.732z"/><path d="m55.294 17.366 1.732 1a1 1 0 1 0 1-1.732l-1.732-1a1 1 0 1 0 -1 1.732z"/><path d="m37 13h2a1 1 0 0 0 0-2h-2a1 1 0 0 0 0 2z"/><path d="m59 11h-2a1 1 0 0 0 0 2h2a1 1 0 0 0 0-2z"/><path d="m55.8 8.5a.992.992 0 0 0 .5-.134l1.732-1a1 1 0 1 0 -1-1.732l-1.732 1a1 1 0 0 0 .5 1.866z"/><path d="m52 5.072a1 1 0 0 0 1.366-.366l1-1.732a1 1 0 1 0 -1.732-1l-1 1.732a1 1 0 0 0 .366 1.366z"/><path d="m43.171 28.105-2-4a1.99 1.99 0 0 0 -1.789-1.105h-26.764a1.99 1.99 0 0 0 -1.789 1.105l-2 4a2 2 0 0 0 1.789 2.895h30.764a2 2 0 0 0 1.789-2.895zm-30.553-3.105h6.382v4h-8.382zm8.382 0h10v4h-10zm12 4v-4h6.382l2 4z"/></g></g></svg>