<?xml version="1.0" encoding="UTF-8"?>
<svg xmlns="http://www.w3.org/2000/svg" xmlns:xlink="http://www.w3.org/1999/xlink" width="512" height="512" viewBox="0 0 60 60" version="1.1"><style>:root{--resa-icon-primary:#428dff;--resa-icon-secondary:#7facfa;--resa-icon-light:#a4c2f7;--resa-icon-bg:#e8edfc;}</style><!-- Generator: Sketch 51.3 (57544) - http://www.bohemiancoding.com/sketch --><title>021 - Moving Van Delivery</title><desc>Created with Sketch.</desc><defs><linearGradient x1="12.5%" y1="-25%" x2="87.5%" y2="125%" id="linearGradient-1"><stop stop-color="#D3DFF2" offset="0%"/><stop stop-color="#D3DFF2" offset="17.2%"/><stop stop-color="#D3DFF2" offset="20%"/><stop stop-color="#DAE2F2" offset="20%"/><stop stop-color="#EBEAF2" offset="20.1%"/><stop stop-color="#F6EFF2" offset="20.1%"/><stop stop-color="#FDF2F2" offset="20.2%"/><stop stop-color="#FFF3F2" offset="20.5%"/><stop stop-color="#FFF3F2" offset="25.2%"/><stop stop-color="#FFF3F2" offset="26%"/><stop stop-color="#D3DFF2" offset="26%"/><stop stop-color="#D3DFF2" offset="39.7%"/><stop stop-color="#D3DFF2" offset="42%"/><stop stop-color="#DAE2F2" offset="42%"/><stop stop-color="#EBEAF2" offset="42.1%"/><stop stop-color="#F6EFF2" offset="42.1%"/><stop stop-color="#FDF2F2" offset="42.2%"/><stop stop-color="#FFF3F2" offset="42.5%"/><stop stop-color="#FFF3F2" offset="48.9%"/><stop stop-color="#FFF3F2" offset="50%"/><stop stop-color="#F8F0F2" offset="50%"/><stop stop-color="#E7E8F2" offset="50%"/><stop stop-color="#DCE3F2" offset="50%"/><stop stop-color="#D5E0F2" offset="50%"/><stop stop-color="#D3DFF2" offset="50.1%"/><stop stop-color="#D3DFF2" offset="70.6%"/><stop stop-color="#D3DFF2" offset="74%"/><stop stop-color="#FFF3F2" offset="74.1%"/><stop stop-color="#FFF3F2" offset="83.5%"/><stop stop-color="#FFF3F2" offset="85%"/><stop stop-color="#D3DFF2" offset="85.1%"/></linearGradient></defs><g id="Page-1" stroke="none" stroke-width="1" fill="none" fill-rule="evenodd"><g id="021---Moving-Van-Delivery" fill-rule="nonzero"><path d="M58.038,20.129 L38.338,1.129 C38.1476904,0.957240732 37.8583096,0.957240732 37.668,1.129 L17.968,20.129 C17.8149437,20.2672785 17.762511,20.4853546 17.8359788,20.6780971 C17.9094467,20.8708395 18.0937346,20.9986845 18.3,21 L20,21 L20,27 L3,27 C1.89679813,27.0032948 1.0032948,27.8967981 1,29 L1,58 C1,58.5522847 1.44771525,59 2,59 L4,59 C4.55228475,59 5,58.5522847 5,58 L5,55 L21,55 L21,58 C21,58.5522847 21.4477153,59 22,59 L24,59 C24.5522847,59 25,58.5522847 25,58 L25,49 L55,49 C55.5522847,49 56,48.5522847 56,48 L56,21 L57.7,21 C57.9073615,21.0011649 58.0939222,20.8742143 58.1689416,20.6808952 C58.2439609,20.4875762 58.191868,20.2680137 58.038,20.129 Z" id="Shape" fill="#F0C419"/><path d="M25,49 L55,49 C55.5522847,49 56,48.5522847 56,48 L56,21 L20,21 L20,27 L25,49 Z" id="Shape" fill="var(--resa-icon-bg, #e8edfc)"/><path d="M20,49 L52.083,49 C52.6112103,48.9746093 53.0203584,48.5284281 53,48 L53,21 L20,21 L20,49 Z" id="Shape" fill="var(--resa-icon-bg, #e8edfc)"/><path d="M25.2,44 L28.8,44 C29.4058447,44.049913 29.9398441,43.6049136 30,43 L30,36 C29.9398441,35.3950864 29.4058447,34.950087 28.8,35 L25.2,35 C24.5941553,34.950087 24.0601559,35.3950864 24,36 L24,43 C24.0601559,43.6049136 24.5941553,44.049913 25.2,44 Z" id="Shape" fill="var(--resa-icon-light, #a4c2f7)"/><rect id="Rectangle-path" fill="url(#linearGradient-1)" x="1" y="33" width="24" height="12"/><path d="M57.7,21 L18.3,21 C18.0927465,21.0015386 17.9060294,20.875053 17.830588,20.6820116 C17.7551465,20.4889702 17.8066225,20.2693977 17.96,20.13 L36.1,2.63 L37.66,1.13 C37.854778,0.959963627 38.145222,0.959963627 38.34,1.13 L58.04,20.13 C58.1933775,20.2693977 58.2448535,20.4889702 58.169412,20.6820116 C58.0939706,20.875053 57.9072535,21.0015386 57.7,21 Z" id="Shape" fill="var(--resa-icon-bg, #e8edfc)"/><path d="M53.94,21 L18.3,21 C18.0927465,21.0015386 17.9060294,20.875053 17.830588,20.6820116 C17.7551465,20.4889702 17.8066225,20.2693977 17.96,20.13 L36.1,2.63 L54.24,20.13 C54.3888869,20.2643398 54.4431065,20.4746377 54.3777337,20.6642185 C54.312361,20.8537994 54.1400449,20.9859815 53.94,21 Z" id="Shape" fill="var(--resa-icon-bg, #e8edfc)"/><path d="M41,27 L35,27 C34.4477153,27 34,26.5522847 34,26 L34,14.414 C34.0000566,14.1488052 34.1054506,13.8944927 34.293,13.707 L37.293,10.707 C37.6834999,10.3166181 38.3165001,10.3166181 38.707,10.707 L41.707,13.707 C41.8945494,13.8944927 41.9999434,14.1488052 42,14.414 L42,26 C42,26.5522847 41.5522847,27 41,27 Z" id="Shape" fill="var(--resa-icon-light, #a4c2f7)"/><path d="M35,49 L42,49 L42,35.5 C42,35.2238576 41.7761424,35 41.5,35 L34.5,35 C34.2238576,35 34,35.2238576 34,35.5 L34,47 L35,49 Z" id="Shape" fill="var(--resa-icon-light, #a4c2f7)"/><rect id="Rectangle-path" fill="var(--resa-icon-secondary, #7facfa)" x="46" y="35" width="6" height="9" rx="1"/><path d="M25,31 L29,31 C29.5522847,31 30,30.5522847 30,30 L30,26 C30,25.4477153 29.5522847,25 29,25 L25,25 C24.4477153,25 24,25.4477153 24,26 L24,26.877 C23.9999274,26.9585985 24.0100047,27.0398892 24.03,27.119 L24.03,30.243 C24.1414591,30.6879311 24.5413206,30.9999879 25,31 Z" id="Shape" fill="var(--resa-icon-light, #a4c2f7)"/><rect id="Rectangle-path" fill="var(--resa-icon-secondary, #7facfa)" x="46" y="25" width="6" height="6" rx="1"/><rect id="Rectangle-path" fill="var(--resa-icon-light, #a4c2f7)" x="46" y="35" width="3" height="9" rx="1"/><rect id="Rectangle-path" fill="var(--resa-icon-light, #a4c2f7)" x="46" y="25" width="3" height="6" rx="1"/><path d="M25,29 L25,33 L1,33 L1,29 C1.0032948,27.8967981 1.89679813,27.0032948 3,27 L23,27 C24.1032019,27.0032948 24.9967052,27.8967981 25,29 Z" id="Shape" fill="var(--resa-icon-bg, #e8edfc)"/><rect id="Rectangle-path" fill="#AF8066" x="29" y="53" width="6" height="6" rx="1"/><rect id="Rectangle-path" fill="var(--resa-icon-bg, #e8edfc)" x="29" y="53" width="6" height="5" rx="1"/><rect id="Rectangle-path" fill="var(--resa-icon-bg, #e8edfc)" x="29" y="47" width="6" height="6" rx="1"/><rect id="Rectangle-path" fill="#59474E" x="35" y="53" width="6" height="6" rx="1"/><rect id="Rectangle-path" fill="var(--resa-icon-bg, #e8edfc)" x="35" y="53" width="6" height="5" rx="1"/><rect id="Rectangle-path" fill="var(--resa-icon-bg, #e8edfc)" x="51" y="53" width="6" height="6" rx="1"/><rect id="Rectangle-path" fill="var(--resa-icon-bg, #e8edfc)" x="51" y="53" width="3" height="6" rx="1"/><path d="M5,49 L5,58 C5,58.5522847 4.55228475,59 4,59 L2,59 C1.44771525,59 1,58.5522847 1,58 L1,49 L5,49 Z" id="Shape" fill="var(--resa-icon-bg, #e8edfc)"/><path d="M21,49 L21,58 C21,58.5522847 21.4477153,59 22,59 L24,59 C24.5522847,59 25,58.5522847 25,58 L25,49 L21,49 Z" id="Shape" fill="var(--resa-icon-secondary, #7facfa)"/><rect id="Rectangle-path" fill="var(--resa-icon-bg, #e8edfc)" x="21" y="45" width="4" height="5"/><rect id="Rectangle-path" fill="var(--resa-icon-bg, #e8edfc)" x="21" y="45" width="4" height="3"/><rect id="Rectangle-path" fill="var(--resa-icon-bg, #e8edfc)" x="1" y="45" width="4" height="5"/><rect id="Rectangle-path" fill="var(--resa-icon-bg, #e8edfc)" x="1" y="45" width="4" height="3"/><rect id="Rectangle-path" fill="var(--resa-icon-bg, #e8edfc)" x="5" y="51" width="16" height="4"/><rect id="Rectangle-path" fill="var(--resa-icon-light, #a4c2f7)" x="5" y="45" width="16" height="6"/><path d="M23,27 L23,21 L21.3,21 C21.2392357,20.9934197 21.1804086,20.9747175 21.127,20.945 C20.9661046,20.8885044 20.8468115,20.7515083 20.8129743,20.5843733 C20.7791372,20.4172383 20.8357496,20.2446294 20.962,20.13 L39.1,2.63 L39.5,2.247 L38.34,1.13 C38.2945066,1.08971214 38.2419568,1.05818227 38.185,1.037 C38.066204,0.989687836 37.933796,0.989687836 37.815,1.037 C37.7580432,1.05818227 37.7054934,1.08971214 37.66,1.13 L36.1,2.63 L17.96,20.13 C17.8337496,20.2446294 17.7771372,20.4172383 17.8109743,20.5843733 C17.8448115,20.7515083 17.9641046,20.8885044 18.125,20.945 C18.1790165,20.9749727 18.2385489,20.9936829 18.3,21 L20,21 L20,27 L23,27 Z" id="Shape" fill="#FFFFFF"/><path d="M4,58 L4,29 C4.0032948,27.8967981 4.89679813,27.0032948 6,27 L3,27 C1.89679813,27.0032948 1.0032948,27.8967981 1,29 L1,58 C1,58.5522847 1.44771525,59 2,59 L4,59 C4.17763412,58.9954817 4.35060582,58.9422064 4.5,58.846 C4.19510961,58.6726121 4.00486045,58.3507105 4,58 Z" id="Shape" fill="#FFFFFF"/><polygon id="Shape" fill="#FFFFFF" points="17.268 19.409 26.626 10.385 36.97 0.409 38.359 1.849 28.014 11.825 18.657 20.849"/><path d="M22.877,15.112 C22.9139961,15.1676649 22.9551112,15.2204794 23,15.27 C23.1862314,15.4574169 23.4360596,15.5680551 23.7,15.58 C24.2481836,15.5742273 24.6965814,15.1416244 24.722,14.594 C24.720248,14.4625716 24.6937879,14.3326457 24.644,14.211 C24.5974815,14.0889309 24.5274966,13.9771588 24.438,13.882 C24.1577082,13.5877313 23.7272048,13.4923587 23.3488553,13.6407138 C22.9705058,13.789069 22.7195682,14.1516423 22.714,14.558 L22.732,14.749 C22.7430691,14.8154562 22.7632597,14.8800661 22.792,14.941 C22.8112723,15.0020718 22.8399502,15.0597649 22.877,15.112 Z" id="Shape" fill="var(--resa-icon-primary, #428dff)"/><path d="M39.006,0.388 C38.4347694,-0.128482259 37.5652306,-0.128482259 36.994,0.388 C36.985,0.396 36.983,0.406 36.975,0.414 L36.97,0.409 L25.906,11.079 C25.6487688,11.3269423 25.5433529,11.6932817 25.6294617,12.0400216 C25.7155704,12.3867616 25.9801217,12.661224 26.3234617,12.7600217 C26.6668017,12.8588193 27.0367688,12.7669423 27.294,12.519 L38,2.195 L56.463,20 L43,20 L43,14 C42.9999434,13.7348052 42.8945494,13.4804927 42.707,13.293 L38.707,9.293 C38.3165001,8.90261806 37.6834999,8.90261806 37.293,9.293 L33.293,13.293 C33.1054506,13.4804927 33.0000566,13.7348052 33,14 L33,20 L19.537,20 L21.537,18.072 C21.8051382,17.8265711 21.9189788,17.4549679 21.8343245,17.1014611 C21.7496702,16.7479542 21.479855,16.4682251 21.1296316,16.3708753 C20.7794082,16.2735254 20.4039406,16.3738886 20.149,16.633 L17.269,19.409 C16.8217516,19.8310061 16.6773645,20.4832381 16.9047113,21.0545819 C17.132058,21.6259257 17.6850854,22.0006454 18.3,22 L19,22 L19,26 L3,26 C1.34314575,26 2.02906125e-16,27.3431458 0,29 L0,58 C1.3527075e-16,59.1045695 0.8954305,60 2,60 L4,60 C5.1045695,60 6,59.1045695 6,58 L6,56 L20,56 L20,58 C20,59.1045695 20.8954305,60 22,60 L24,60 C25.1045695,60 26,59.1045695 26,58 L26,50 L28,50 L28,52 C28.0019998,52.3521367 28.0979706,52.6973555 28.278,53 C28.0979706,53.3026445 28.0019998,53.6478633 28,54 L28,58 C28,59.1045695 28.8954305,60 30,60 L34,60 C34.3521367,59.9980002 34.6973555,59.9020294 35,59.722 C35.3026445,59.9020294 35.6478633,59.9980002 36,60 L40,60 C41.1045695,60 42,59.1045695 42,58 L42,54 C42,52.8954305 41.1045695,52 40,52 L36,52 L36,50 L55,50 C56.1045695,50 57,49.1045695 57,48 L57,22 L57.7,22 C58.3142733,21.9998013 58.8663454,21.6250947 59.0933404,21.0543014 C59.3203355,20.4835081 59.176372,19.8319998 58.73,19.41 L39.006,0.388 Z M35,14.414 L38,11.414 L41,14.414 L41,26 L35,26 L35,14.414 Z M2,29 C2,28.4477153 2.44771525,28 3,28 L23,28 C23.5522847,28 24,28.4477153 24,29 L24,32 L2,32 L2,29 Z M5,34 L24,34 L24,44 L17,44 L17,43 L21,43 C21.5522847,43 22,42.5522847 22,42 C22,41.4477153 21.5522847,41 21,41 L17,41 C15.8954305,41 15,41.8954305 15,43 L15,44 L6,44 L6,43 L10,43 C10.5522847,43 11,42.5522847 11,42 C11,41.4477153 10.5522847,41 10,41 L6,41 C4.8954305,41 4,41.8954305 4,43 L4,44 L2,44 L2,34 L5,34 Z M2,46 L4,46 L4,49 L2,49 L2,46 Z M6,49 L6,46 L20,46 L20,50 L6,50 L6,49 Z M22,46 L24,46 L24,49 L22,49 L22,46 Z M26,36 L29,36 L29,43 L26,43 L26,36 Z M25,26.78 L25,26 L29,26 L29,30 L26,30 L26,29 C25.9973386,28.1515062 25.6337052,27.3442399 25,26.78 Z M4,58 L2,58 L2,51 L4,51 L4,58 Z M6,54 L6,52 L20,52 L20,54 L6,54 Z M24,58 L22,58 L22,51 L24,51 L24,58 Z M34,48 L34,52 L30,52 L30,48 L34,48 Z M30,58 L30,54 L34,54 L34,58 L30,58 Z M40,54 L40,58 L36,58 L36,54 L40,54 Z M36,48 C35.997855,47.2886732 35.6167513,46.6324126 35,46.278 L35,36 L41,36 L41,48 L36,48 Z M55,48 L43,48 L43,35.5 C43,34.6715729 42.3284271,34 41.5,34 L34.5,34 C33.6715729,34 33,34.6715729 33,35.5 L33,46 L30,46 C28.8954305,46 28,46.8954305 28,48 L26,48 L26,45 L30,45 C30.5522847,45 31,44.5522847 31,44 L31,35 C31,34.4477153 30.5522847,34 30,34 L26,34 L26,32 L30,32 C30.5522847,32 31,31.5522847 31,31 L31,25 C31,24.4477153 30.5522847,24 30,24 L24,24 C23.4477153,24 23,24.4477153 23,25 L23,26 L21,26 L21,22 L33,22 L33,27 C33,27.5522847 33.4477153,28 34,28 L42,28 C42.5522847,28 43,27.5522847 43,27 L43,22 L55,22 L55,48 Z" id="Shape" fill="var(--resa-icon-primary, #428dff)"/><path d="M38.38,22.08 C38.1365386,21.979982 37.8634614,21.979982 37.62,22.08 C37.4988607,22.1307291 37.3872607,22.2017473 37.29,22.29 C36.9032597,22.6843361 36.9032597,23.3156639 37.29,23.71 C37.3872607,23.7982527 37.4988607,23.8692709 37.62,23.92 C37.8620922,24.0267285 38.1379078,24.0267285 38.38,23.92 C38.5011393,23.8692709 38.6127393,23.7982527 38.71,23.71 C38.7530128,23.6624865 38.7930872,23.6123935 38.83,23.56 C38.8678773,23.5042729 38.8981446,23.4437381 38.92,23.38 C38.9488877,23.3233376 38.9691127,23.2626625 38.98,23.2 C38.9916089,23.1339204 38.9982939,23.0670699 39,23 C38.9961196,22.7352731 38.892565,22.481743 38.71,22.29 C38.6127393,22.2017473 38.5011393,22.1307291 38.38,22.08 Z" id="Shape" fill="var(--resa-icon-primary, #428dff)"/><path d="M37,20 L39,20 C39.5522847,20 40,19.5522847 40,19 C40,18.4477153 39.5522847,18 39,18 L39,16 C39,15.4477153 38.5522847,15 38,15 C37.4477153,15 37,15.4477153 37,16 L37,18 C36.4477153,18 36,18.4477153 36,19 C36,19.5522847 36.4477153,20 37,20 Z" id="Shape" fill="var(--resa-icon-primary, #428dff)"/><path d="M46,45 L52,45 C52.5522847,45 53,44.5522847 53,44 L53,35 C53,34.4477153 52.5522847,34 52,34 L46,34 C45.4477153,34 45,34.4477153 45,35 L45,44 C45,44.5522847 45.4477153,45 46,45 Z M47,36 L51,36 L51,43 L47,43 L47,36 Z" id="Shape" fill="var(--resa-icon-primary, #428dff)"/><path d="M46,32 L52,32 C52.5522847,32 53,31.5522847 53,31 L53,25 C53,24.4477153 52.5522847,24 52,24 L46,24 C45.4477153,24 45,24.4477153 45,25 L45,31 C45,31.5522847 45.4477153,32 46,32 Z M47,26 L51,26 L51,30 L47,30 L47,26 Z" id="Shape" fill="var(--resa-icon-primary, #428dff)"/><path d="M17,47 L9,47 C8.44771525,47 8,47.4477153 8,48 C8,48.5522847 8.44771525,49 9,49 L17,49 C17.5522847,49 18,48.5522847 18,48 C18,47.4477153 17.5522847,47 17,47 Z" id="Shape" fill="var(--resa-icon-primary, #428dff)"/><path d="M56,52 L52,52 C50.8954305,52 50,52.8954305 50,54 L50,58 C50,59.1045695 50.8954305,60 52,60 L56,60 C57.1045695,60 58,59.1045695 58,58 L58,54 C58,52.8954305 57.1045695,52 56,52 Z M52,58 L52,54 L56,54 L56,58 L52,58 Z" id="Shape" fill="var(--resa-icon-primary, #428dff)"/><path d="M39.92,41.62 C39.8981446,41.5562619 39.8678773,41.4957271 39.83,41.44 L39.71,41.29 C39.6143929,41.1996032 39.5023813,41.128323 39.38,41.08 C39.1365386,40.979982 38.8634614,40.979982 38.62,41.08 C38.4976187,41.128323 38.3856071,41.1996032 38.29,41.29 L38.17,41.44 C38.1321227,41.4957271 38.1018554,41.5562619 38.08,41.62 C38.0495504,41.6795467 38.0292708,41.7437653 38.02,41.81 C38.0083973,41.8727161 38.0017103,41.9362426 38,42 C38.0038804,42.2647269 38.107435,42.518257 38.29,42.71 C38.3872607,42.7982527 38.4988607,42.8692709 38.62,42.92 C38.7402223,42.971241 38.8693227,42.99842 39,43 C39.2660353,43.0027011 39.5219616,42.8982118 39.7100867,42.7100867 C39.8982118,42.5219616 40.0027011,42.2660353 40,42 C39.9982897,41.9362426 39.9916027,41.8727161 39.98,41.81 C39.9707292,41.7437653 39.9504496,41.6795467 39.92,41.62 Z" id="Shape" fill="var(--resa-icon-primary, #428dff)"/></g></g></svg>
