<svg height="512" viewBox="0 0 60 60" width="512" xmlns="http://www.w3.org/2000/svg"><style>:root{--resa-icon-primary:#428dff;--resa-icon-secondary:#7facfa;--resa-icon-light:#a4c2f7;--resa-icon-bg:#e8edfc;}</style><g id="Page-1" fill="none" fill-rule="evenodd"><g id="041---Real-Estate-Rules" fill-rule="nonzero"><g id="Icons" transform="translate(1)"><path id="Shape" d="m58 50v4c0 .5522847-.4477153 1-1 1h-22.43c-.8269597.0187661-1.5504359.5613732-1.8 1.35-.572441 1.5896147-2.0804546 2.6493738-3.77 2.6493738s-3.197559-1.0597591-3.77-2.6493738c-.2495641-.7886268-.9730403-1.3312339-1.8-1.35h-22.43c-.55228475 0-1-.4477153-1-1v-4c0-.5522847.44771525-1 1-1h56c.5522847 0 1 .4477153 1 1z" fill="var(--resa-icon-light, #a4c2f7)"/><path id="Shape" d="m57 49h-3c.5522847 0 1 .4477153 1 1v4c0 .5522847-.4477153 1-1 1h3c.5522847 0 1-.4477153 1-1v-4c0-.5522847-.4477153-1-1-1z" fill="var(--resa-icon-secondary, #7facfa)"/><path id="Shape" d="m56 45v4h-27c0-3.3137085 2.6862915-6 6-6h19c1.1032019.0032948 1.9967052.8967981 2 2z" fill="var(--resa-icon-bg, #e8edfc)"/><path id="Shape" d="m54 43h-3c1.1032019.0032948 1.9967052.8967981 2 2v4h3v-4c-.0032948-1.1032019-.8967981-1.9967052-2-2z" fill="var(--resa-icon-bg, #e8edfc)"/><path id="Shape" d="m29 49h-27v-4c.0032948-1.1032019.89679813-1.9967052 2-2h19c3.3116533.0049563 5.9950437 2.6883467 6 6z" fill="var(--resa-icon-bg, #e8edfc)"/><path id="Shape" d="m51 14.15v28.85h-16c-3.3137085 0-6 2.6862915-6 6-.0049563-3.3116533-2.6883467-5.9950437-6-6h-16v-28.85l20.84-12.82c.7104933-.44089142 1.6095067-.44089142 2.32 0z" fill="var(--resa-icon-bg, #e8edfc)"/><path id="Shape" d="m30.16 1.33c-.7104933-.44089142-1.6095067-.44089142-2.32 0l-.34.209 20.5 12.611v28.85h3v-28.85z" fill="var(--resa-icon-bg, #e8edfc)"/><path id="Shape" d="m13 21h8c.5522847 0 1 .4477153 1 1v21h-10v-21c0-.5522847.4477153-1 1-1z" fill="var(--resa-icon-bg, #e8edfc)"/><path id="Shape" d="m21 21h-3c.5522847 0 1 .4477153 1 1v21h3v-21c0-.5522847-.4477153-1-1-1z" fill="var(--resa-icon-bg, #e8edfc)"/><rect id="Rectangle-path" fill="var(--resa-icon-light, #a4c2f7)" height="12" rx="1" width="16" x="29" y="21"/><path id="Shape" d="m44 21h-3c.5522847 0 1 .4477153 1 1v10c0 .5522847-.4477153 1-1 1h3c.5522847 0 1-.4477153 1-1v-10c0-.5522847-.4477153-1-1-1z" fill="var(--resa-icon-secondary, #7facfa)"/><path id="Shape" d="m40 7.39v-3.39c0-.55228475.4477153-1 1-1h6c.5522847 0 1 .44771525 1 1v8.31z" fill="var(--resa-icon-light, #a4c2f7)"/><path id="Shape" d="m47 3h-3c.5522847 0 1 .44771525 1 1v6.465l3 1.845v-8.31c0-.55228475-.4477153-1-1-1z" fill="var(--resa-icon-secondary, #7facfa)"/></g><g id="Icons_copy_2" fill="#fff" transform="translate(1)"><path id="Shape" d="m10 14.15 20.5-12.611-.34-.209c-.7104933-.44089142-1.6095067-.44089142-2.32 0l-20.84 12.82v28.85h3z"/><path id="Shape" d="m3 54v-4c0-.5522847.44771525-1 1-1h1v-4c.0032948-1.1032019.89679813-1.9967052 2-2h-3c-1.10320187.0032948-1.9967052.8967981-2 2v4h-1c-.55228475 0-1 .4477153-1 1v4c0 .5522847.44771525 1 1 1h3c-.55228475 0-1-.4477153-1-1z"/></g><g id="Icons_copy"><path id="Rectangle-path" d="m7 35h2v8h-2z" fill="#fff"/><g fill="var(--resa-icon-primary, #428dff)"><path id="Shape" d="m8.02 40c-.55228475.0027614-1.00223858-.4427153-1.005-.995s.44271525-1.0022386.995-1.005h.01c.55228475 0 1 .4477153 1 1s-.44771525 1-1 1z"/><path id="Shape" d="m58 48v-3c0-1.6568542-1.3431458-3-3-3h-2v-26.057l1.476.909c.3041508.2110153.6999905.2367456 1.0288992.0668803.3289087-.1698654.537071-.5075332.5410726-.8776942s-.1968122-.71225-.5219718-.8891861l-5.524-3.402v-7.75c0-1.1045695-.8954305-2-2-2h-6c-1.1045695 0-2 .8954305-2 2v1.6l-8.32-5.122c-1.0294452-.63693458-2.3305548-.63693458-3.36 0l-23.844 14.67c-.32515965.1769361-.52597345.5190251-.52197184.8891861s.21216389.7078288.54107262.8776942c.32890873.1698653.7247484.144135 1.02889922-.0668803l1.476-.905v19.057c0 .5522847.44771525 1 1 1s1-.4477153 1-1v-20.287l20.367-12.532c.3878307-.2388934.8771693-.2388934 1.265 0l20.368 12.532v27.287h-15c-2.4582631.0011704-4.7357505 1.2917466-6 3.4-1.2642495-2.1082534-3.5417369-3.3988296-6-3.4v-20c0-1.1045695-.8954305-2-2-2h-8c-1.1045695 0-2 .8954305-2 2v20h-7c-1.65685425 0-3 1.3431458-3 3v3c-1.1045695 0-2 .8954305-2 2v4c0 1.1045695.8954305 2 2 2h22.428c.4044704.0228055.7506515.2980674.864.687.7112804 1.9889367 2.5957053 3.3163326 4.708 3.3163326s3.9967196-1.3273959 4.708-3.3163326c.1133485-.3889326.4595296-.6641945.864-.687h22.428c1.1045695 0 2-.8954305 2-2v-4c0-1.1045695-.8954305-2-2-2zm-16-44h6v6.519l-6-3.692zm-6 40h19c.5522847 0 1 .4477153 1 1v3h-24.9c.4784327-2.3264168 2.5248992-3.9970017 4.9-4zm-22-22h8v20h-8zm-10 23c0-.5522847.44771525-1 1-1h19c2.3751008.0029983 4.4215673 1.6735832 4.9 4h-24.9zm54 9h-22.428c-1.25159.0148401-2.3552326.8238832-2.746 2.013-.4257874 1.1951025-1.5573137 1.9931614-2.826 1.9931614s-2.4002126-.7980589-2.826-1.9931614c-.3907674-1.1891168-1.49441-1.9981599-2.746-2.013h-22.428v-4h56z"/><circle id="Oval" cx="17" cy="32" r="1"/><path id="Shape" d="m45 20h-14c-1.1045695 0-2 .8954305-2 2v10c0 1.1045695.8954305 2 2 2h14c1.1045695 0 2-.8954305 2-2v-10c0-1.1045695-.8954305-2-2-2zm-5.865 12 3.633-4.359c.3540145-.4241547.2971547-1.0549855-.127-1.409s-1.0549855-.2971547-1.409.127l-4.701 5.641h-5.531v-10h5.865l-3.633 4.359c-.3540145.4241547-.2971547 1.0549855.127 1.409s1.0549855.2971547 1.409-.127l4.701-5.641h5.531v10z"/><path id="Shape" d="m46 14h-32c-.5522847 0-1 .4477153-1 1s.4477153 1 1 1h32c.5522847 0 1-.4477153 1-1s-.4477153-1-1-1z"/></g></g></g></g></svg>