<svg id="Icons" height="512" viewBox="0 0 60 60" width="512" xmlns="http://www.w3.org/2000/svg"><style>:root{--resa-icon-primary:#428dff;--resa-icon-secondary:#7facfa;--resa-icon-light:#a4c2f7;--resa-icon-bg:#e8edfc;}</style><path d="m53 27.29v30.71a1 1 0 0 1 -1 1h-44a1 1 0 0 1 -1-1v-30.71l23-19.08z" fill="var(--resa-icon-bg, #e8edfc)"/><path d="m30 8.21-1.5 1.244 21.5 17.836v30.71a1 1 0 0 1 -1 1h3a1 1 0 0 0 1-1v-30.71z" fill="var(--resa-icon-bg, #e8edfc)"/><path d="m53 8v11.78l-7-5.81v-5.97a1 1 0 0 1 1-1h5a1 1 0 0 1 1 1z" fill="var(--resa-icon-secondary, #7facfa)"/><path d="m58.74 25.9-2.49 2.82a1 1 0 0 1 -1.4.1l-1.85-1.53-23-19.08-23 19.08-1.85 1.53a1 1 0 0 1 -1.4-.1l-2.49-2.82a1 1 0 0 1 .11-1.45l27.98-23.22a1.025 1.025 0 0 1 1.3 0l15.35 12.74 7 5.81 5.63 4.67a1 1 0 0 1 .11 1.45z" fill="var(--resa-icon-light, #a4c2f7)"/><path d="m58.63 24.45-5.63-4.67-7-5.81-15.35-12.74a1.025 1.025 0 0 0 -1.3 0l-.85.705 14.5 12.035 7 5.81 5.63 4.67a1 1 0 0 1 .11 1.45l-1.866 2.113.976.807a1 1 0 0 0 1.4-.1l2.49-2.82a1 1 0 0 0 -.11-1.45z" fill="var(--resa-icon-secondary, #7facfa)"/><path d="m40 36v6h-17v3a2.006 2.006 0 0 1 -2 2h-2a2.006 2.006 0 0 1 -2-2v-3a6 6 0 0 1 6-6z" fill="var(--resa-icon-light, #a4c2f7)"/><path d="m37 36h3v6h-3z" fill="var(--resa-icon-secondary, #7facfa)"/><path d="m46 33v14a1 1 0 0 1 -1 1h-1a4 4 0 0 1 -4-4v-8a4 4 0 0 1 4-4h1a1 1 0 0 1 1 1z" fill="var(--resa-icon-light, #a4c2f7)"/><path d="m27 30h6v6h-6z" fill="var(--resa-icon-secondary, #7facfa)"/><path d="m42 26.5a3.5 3.5 0 0 1 -3.5 3.5h-17a3.5 3.5 0 1 1 3.15-5h10.7a3.492 3.492 0 0 1 6.65 1.5z" fill="var(--resa-icon-light, #a4c2f7)"/><path d="m38.5 23a3.454 3.454 0 0 0 -1.508.347 3.492 3.492 0 0 1 -1.492 6.653h3a3.5 3.5 0 0 0 0-7z" fill="var(--resa-icon-secondary, #7facfa)"/><path d="m23 52a3 3 0 0 1 -6 0c0-2.99 3-5 3-5s3 2.01 3 5z" fill="var(--resa-icon-bg, #e8edfc)"/><g fill="#fff"><path d="m8 59h3a1 1 0 0 1 -1-1v-32.761l-1.85 1.53a1 1 0 0 1 -1.15.091v31.14a1 1 0 0 0 1 1z"/><path d="m3.75 28.72a1 1 0 0 0 1.4.1l.976-.807-1.866-2.113a1 1 0 0 1 .11-1.45l27.13-22.515-.85-.7a1.025 1.025 0 0 0 -1.3 0l-27.98 23.215a1 1 0 0 0 -.11 1.45z"/><path d="m6 50h2v8h-2z"/></g><g fill="var(--resa-icon-primary, #428dff)"><path d="m20 56a4 4 0 0 0 4-4 6.643 6.643 0 0 0 -1.752-4.281 3 3 0 0 0 1.752-2.719v-2h15v1a5.006 5.006 0 0 0 5 5h1a2 2 0 0 0 2-2v-14a2 2 0 0 0 -2-2h-1a5.009 5.009 0 0 0 -4.9 4h-5.1v-4h4.5a4.5 4.5 0 1 0 -3.732-7h-9.536a4.5 4.5 0 1 0 -3.732 7h4.5v4h-3a7.008 7.008 0 0 0 -7 7v3a3 3 0 0 0 1.752 2.719 6.643 6.643 0 0 0 -1.752 4.281 4 4 0 0 0 4 4zm0-2a2 2 0 0 1 -2-2 5.363 5.363 0 0 1 2-3.72 5.39 5.39 0 0 1 2 3.72 2 2 0 0 1 -2 2zm24-21h1v14h-1a3 3 0 0 1 -3-3v-8a3 3 0 0 1 3-3zm-25-6.5a2.493 2.493 0 0 1 4.744-1.077 1 1 0 0 0 .906.577h10.7a1 1 0 0 0 .906-.577 2.5 2.5 0 1 1 2.244 3.577h-17a2.5 2.5 0 0 1 -2.5-2.5zm9 4.5h4v4h-4zm-10 11a5.006 5.006 0 0 1 5-5h16v4h-16a1 1 0 0 0 -1 1v3a1 1 0 0 1 -1 1h-2a1 1 0 0 1 -1-1z"/><circle cx="7" cy="54" r="1"/><path d="m54 19.307v-11.307a2 2 0 0 0 -2-2h-5a2 2 0 0 0 -2 2v3.84l-13.713-11.376a2.016 2.016 0 0 0 -2.574 0l-27.984 23.216a2.015 2.015 0 0 0 -.223 2.887l2.494 2.813a2.007 2.007 0 0 0 2.8.214l.2-.172v20.578a1 1 0 0 0 2 0v-22.237l22-18.25 22 18.25v30.237h-44a1 1 0 0 0 -2 0 2 2 0 0 0 2 2h44a2 2 0 0 0 2-2v-28.578l.207.172a2.006 2.006 0 0 0 2.793-.214l2.491-2.814a2.014 2.014 0 0 0 -.223-2.886zm-7-11.307h5v9.647l-5-4.147zm8.505 20.054a.015.015 0 0 1 -.021 0l-24.845-20.61a1 1 0 0 0 -1.278 0l-24.861 20.61-2.494-2.835 28.004-23.219 27.99 23.241z"/></g></svg>