<svg height="512" viewBox="0 0 60 60" width="512" xmlns="http://www.w3.org/2000/svg"><style>:root{--resa-icon-primary:#428dff;--resa-icon-secondary:#7facfa;--resa-icon-light:#a4c2f7;--resa-icon-bg:#e8edfc;}</style><g id="Page-1" fill="none" fill-rule="evenodd"><g id="038---Refresh-House" transform="translate(-1)"><path id="Path" d="m3.983 28.6c-1.19665803.2719702-2.0298792 1.3577208-1.983 2.584.47772188 12.4315491 8.8470278 23.166785 20.7864839 26.6626421 11.9394562 3.4958572 24.7771862-1.0299863 31.8845161-11.2406421l3.758 2.627c.3035803.2164217.7027412.244765 1.0338564.0734113s.5385006-.5135876.5371436-.8864113l-.007-8.42v-4.044c.0015592-.3830863-.2197996-.7321069-.567-.894-.2415326-.1289585-.5270263-.1471892-.783-.05l-4.836 1.783-4.762 1.749-2.082.766c-.3485589.1301138-.5960659.4429785-.6424717.8121253-.0464059.3691468.1159627.7335374.4214717.9458747l1.292.9 1.208.845 1.259.879c-5.8628635 8.4146765-16.4463064 12.1426722-26.2886006 9.2601048-9.8422941-2.8825675-16.74238964-11.7310644-17.1393994-21.9791048-.02900308-.7523451-.39118952-1.4527961-.98832546-1.9113733s-1.36732558-.6277471-2.10167454-.4616267z" fill="var(--resa-icon-bg, #e8edfc)"/><path id="Path" d="m51.1 47.4c-5.1626663 6.8994697-13.1331431 11.1373142-21.74 11.559 9.3966977.5041793 18.4525004-3.588702 24.283-10.975l-1.17-.818c-.4456842-.3059304-1.0538117-.2022874-1.373.234z" fill="var(--resa-icon-bg, #e8edfc)"/><path id="Path" d="m4.073 30.973c.24313638 6.4133409 3.06107723 12.4579557 7.8168656 16.7675419 4.7557884 4.3095863 11.0479163 6.5203066 17.4541344 6.1324581-12.1908561-.8075594-21.80319989-10.6913847-22.271-22.9-.02900308-.7523451-.39118952-1.4527961-.98832546-1.9113733s-1.36732558-.6277471-2.10167454-.4616267c-.33900901.0798328-.65795917.2285855-.937.437.61834658.4560816.99614437 1.168269 1.027 1.936z" fill="var(--resa-icon-bg, #e8edfc)"/><path id="Path" d="m59.993 40v-4.044c.0015592-.3830863-.2197996-.7321069-.567-.894-.2415326-.1289585-.5270263-.1471892-.783-.05l-1.7.628c.0350829.1016912.053323.2084293.054.316v4.044l.003 8.234 1.429 1c.3038734.2166359.7034862.2448121 1.0347515.072959s.5383602-.5147758.5362485-.887959z" fill="var(--resa-icon-bg, #e8edfc)"/><path id="Path" d="m58.017 31.4c1.196658-.2719702 2.0298792-1.3577208 1.983-2.584-.4777219-12.4315491-8.8470278-23.16678495-20.7864839-26.66264212-11.9394562-3.49585716-24.7771862 1.0299863-31.8845161 11.24064212l-3.758-2.627c-.30358033-.2164217-.70274119-.244765-1.0338564-.0734113s-.53850059.5135876-.5371436.8864113v12.467c-.00298327.3202181.1547261.6206169.42.8.04628108.0345201.09546484.0649672.147.091.24153261.1289585.52702628.1471892.783.05l4.836-1.783 6.844-2.515c.3485589-.1301138.5960659-.4429785.6424717-.8121253.0464059-.3691468-.1159627-.7335374-.4214717-.9458747l-3.751-2.624c5.8631304-8.41381396 16.446052-12.14117615 26.2877955-9.2587036s16.741632 11.7302405 17.1392045 21.9777036c.0284263.752701.3903699 1.4537046.9875836 1.9127281s1.367737.6284434 2.1024164.4622719z" fill="var(--resa-icon-bg, #e8edfc)"/><path id="Path" d="m15.254 18.935-3.754-2.627c4.1729805-5.9948836 10.8644378-9.74528398 18.156-10.176-7.9853416-.52681245-15.7034906 2.98232457-20.556 9.346-.16249869.2180779-.22916647.492934-.18463964.7612271.04452684.2682931.1964071.5068782.42063964.6607729l2.918 2.04c.305509.2123373.4678776.5767279.4214717.9458747-.0464058.3691468-.2939128.6820115-.6424717.8121253l-6.844 2.51-3.131 1.154c.06665124.1973556.19451466.3683072.365.488.04628108.0345201.09546484.0649672.147.091.24153261.1289585.52702628.1471892.783.05l4.836-1.783 6.844-2.515c.3485589-.1301138.5960659-.4429785.6424717-.8121253.0464059-.3691468-.1159627-.7335374-.4214717-.9458747z" fill="var(--resa-icon-bg, #e8edfc)"/><path id="Path" d="m47.652 6.205c-5.2587826-3.68305133-11.5985894-5.50086157-18.01-5.164 14.9273038.79601971 26.7878646 12.8373632 27.358 27.775.0314678.8454681-.359935 1.651143-1.044 2.149.5902146.4413568 1.3445245.6011403 2.063.437 1.196626-.2729277 2.0290576-1.359585 1.981-2.586-.3598387-9.0515519-4.9273767-17.4153841-12.348-22.611z" fill="var(--resa-icon-bg, #e8edfc)"/><path id="Path" d="m44.56 28h-27.12c-.6065142-.0272555-1.1379053-.4146501-1.349408-.9837449s-.0620934-1.2095072.379408-1.6262551l13.56-12.99c.5380113-.5301464 1.4019887-.5301464 1.94 0l6.03 5.78 5 4.79 2.53 2.42c.4415014.4167479.5909107 1.0571603.379408 1.6262551s-.7428938.9564894-1.349408.9837449z" fill="var(--resa-icon-bg, #e8edfc)"/><path id="Path" d="m45.53 25.39-2.53-2.42-5-4.79-6.03-5.78c-.5380113-.5301464-1.4019887-.5301464-1.94 0l-.53.508 5.5 5.272 5 4.79 2.53 2.42c.4415014.4167479.5909107 1.0571603.379408 1.6262551s-.7428938.9564894-1.349408.9837449h3c.6065142-.0272555 1.1379053-.4146501 1.349408-.9837449s.0620934-1.2095072-.379408-1.6262551z" fill="var(--resa-icon-light, #a4c2f7)"/><path id="Path" d="m43 15v7.97l-5-4.79v-3.18c0-.5522847.4477153-1 1-1h3c.5522847 0 1 .4477153 1 1z" fill="var(--resa-icon-light, #a4c2f7)"/><path id="Path" d="m43 28v14c-.0032948 1.1032019-.8967981 1.9967052-2 2h-20c-1.1032019-.0032948-1.9967052-.8967981-2-2v-14z" fill="var(--resa-icon-bg, #e8edfc)"/><path id="Path" d="m40 28v14c-.0032948 1.1032019-.8967981 1.9967052-2 2h3c1.1032019-.0032948 1.9967052-.8967981 2-2v-14z" fill="var(--resa-icon-bg, #e8edfc)"/><path id="Path" d="m31 33c2.209139 0 4 1.790861 4 4v7h-8v-7c0-2.209139 1.790861-4 4-4z" fill="var(--resa-icon-light, #a4c2f7)"/><g fill="#fff"><path id="Path" d="m2.194 24.619.021.029c.05951554.0761774.12954812.1435164.208.2.04628108.0345201.09546484.0649672.147.091.24153261.1289585.52702628.1471892.783.05l1.7-.628c-.03665841-.1005612-.05462045-.2069778-.053-.314v-12.281l-1.429-1c-.30372686-.2165285-.70311347-.2447882-1.03430361-.0731849s-.53843041.5141814-.53669639.8871849v12.467c-.00139214.2070407.06694314.4085241.194.572z"/><path id="Path" d="m3.983 28.6c-.16807232.0397603-.331602.0967276-.488.17l-.03.016c-.92555231.4326414-1.50249155 1.3770102-1.465 2.398.57013539 14.9376368 12.4306962 26.9789803 27.358 27.775.544.028 1.089.039 1.633.037h.172c.379 0 .757-.022 1.135-.04-14.9037525-.8234737-26.73118929-12.856281-27.298-27.772-.03172078-.8456649.36113812-1.6512695 1.047-2.147-.59023458-.4421592-1.34521328-.6020069-2.064-.437z"/><path id="Path" d="m32.537 1.049c-.965-.049-1.932-.057-2.894-.008-8.3486089.40950082-16.1119319 4.41040172-21.29 10.972l1.976 1.381c5.1005344-7.3220815 13.2967473-11.87819858 22.208-12.345z"/><path id="Path" d="m4.373 38.723-1.9.619c-.84645072-2.6286153-1.34174009-5.3575824-1.473-8.116l2-.084c.12214175 2.5764007.58379483 5.1254116 1.373 7.581z"/></g><path id="Path" d="m2.471 36.161c-.55228473.0027614-1.00223852-.4427153-1.00499994-.995-.00276143-.5522847.44271521-1.0022385.99499994-1.005h.01c.55228475 0 1 .4477153 1 1s-.44771525 1-1 1z" fill="var(--resa-icon-primary, #428dff)"/><path id="Path" d="m61 35.953c-.0055847-.6538093-.3275872-1.2643933-.8639738-1.6382746-.5363865-.3738813-1.2206725-.4647176-1.8360262-.2437254l-11.675 4.3c-.7008875.2493838-1.2029709.8704222-1.3 1.608-.1001778.7442538.2250056 1.4819027.842 1.91l2.933 2.039c-5.8528327 7.6673574-15.8876927 10.8372626-25.0830031 7.9234531s-15.57316346-11.2845744-15.9419969-20.9234531c-.05323255-1.263827-.77666517-2.4032521-1.89778777-2.9890649-1.12112261-.5858128-2.46961-.5290143-3.53750003.149s-1.69294479 1.8742379-1.6397122 3.1380649c.03715434.54474.49405561.9651771 1.04.957.26528998-.010399.51555567-.1258668.69563478-.3209525s.27518871-.4537745.26436522-.7190475c-.02941792-.7454191.47732743-1.4056599 1.205-1.57.44126319-.1009934.90458104-.0001925 1.264.275.36353079.2800293.58345644.7074181.6 1.166.41510107 10.6775609 7.60526 19.8961734 17.8603008 22.8989643 10.2550409 3.0027909 21.2819257-.881667 27.3906992-9.6489643.3153078-.4524531.2048042-1.0747631-.247-1.391l-3.766-2.628 11.693-4.293v4.046 8.416l-3.759-2.628c-.2175685-.1519654-.4866207-.211215-.747898-.164699-.2612772.046516-.4933491.1949822-.645102.412699-8.8348831 12.6646382-26.2621439 15.7722684-38.93 6.942-4.96252524-3.4869948-8.66214284-8.4875305-10.545-14.253-.09919432-.3534809-.38410864-.6241836-.74219838-.7051774-.35808975-.0809937-.73176796.0407467-.97342726.3171324s-.31243673.662969-.18437436 1.007045c2.01764083 6.1778787 5.98218304 11.535975 11.3 15.272 4.9955979 3.51397 10.9543013 5.3998566 17.062 5.4 1.7844206-.0006987 3.5653086-.1586429 5.322-.472 7.4972655-1.3098901 14.2070344-5.4442644 18.748-11.552l2.951 2.063c.6094578.4302631 1.408117.4843256 2.0699997.1401213.6618826-.3442042 1.0762596-1.0290918 1.0740003-1.7751213l-.007-8.418z" fill="var(--resa-icon-primary, #428dff)"/><path id="Shape" d="m1.853 25.671c.07690821.0571556.15853535.1076707.244.151.49345889.262947 1.07592265.3018992 1.6.107l11.675-4.295c.7008875-.2493838 1.2029709-.8704222 1.3-1.608.1001778-.7442538-.2250056-1.4819027-.842-1.91l-2.93-2.044c5.8528327-7.6673574 15.8876927-10.83726263 25.0830031-7.92345311 9.1953104 2.91380951 15.5731635 11.28457441 15.9419969 20.92345311.0532326 1.263827.7766652 2.4032521 1.8977878 2.9890649 1.1211226.5858127 2.46961.5290142 3.5375-.149 1.06789-.6780143 1.6929448-1.8742379 1.6397122-3.1380649-.4981406-12.6698695-8.9217218-23.6526992-21.029291-27.41840032s-25.2743986.50207026-32.870709 10.65440032l-2.956-2.063c-.60931084-.43015785-1.40774548-.48430481-2.06955388-.14034968-.66180839.34395508-1.0763301 1.02849988-1.07444612 1.77434968v12.452c-.00558831.6538379.31409128 1.2677127.853 1.638zm4.9-11.457c.21756854.1519654.48662066.211215.74789795.164699s.49334916-.1949822.64510205-.412699c6.8611548-9.86065564 19.2573087-14.23191099 30.7860447-10.856082 11.528736 3.375829 19.6091979 13.7430195 20.0679553 25.747082.0294179.7454191-.4773274 1.4056599-1.205 1.57-.4412654.1005646-.9044009-.0001967-1.264-.275-.3635308-.2800293-.5834564-.7074181-.6-1.166-.5157796-13.3259237-11.4501459-23.87340064-24.786-23.909-1.4806239.00044751-2.958332.13128625-4.416.391-6.5088984 1.13867432-12.2906649 4.8366423-16.054 10.268-.3153078.4524531-.2048042 1.0747631.247 1.391l3.766 2.628-11.688 4.292v-12.461z" fill="var(--resa-icon-primary, #428dff)" fill-rule="nonzero"/><path id="Shape" d="m21 45h20c1.6568542 0 3-1.3431458 3-3v-13h.559c.9999433.0040387 1.8976087-.6123343 2.253-1.547.3936557-.9615738.1601573-2.0660331-.589-2.786l-2.223-2.13v-7.537c0-1.1045695-.8954305-2-2-2h-3c-1.1045695 0-2 .8954305-2 2v.829l-4.337-4.156c-.9289484-.8927434-2.3970516-.8927434-3.326 0l-13.56 12.994c-.7501794.7193991-.9838202 1.8245317-.589 2.786.3552625.9343222 1.2524219 1.5506214 2.252 1.547h.56v13c0 1.6568542 1.3431458 3 3 3zm7-2v-6c0-1.6568542 1.3431458-3 3-3s3 1.3431458 3 3v6zm14-1c0 .5522847-.4477153 1-1 1h-5v-6c0-2.7614237-2.2385763-5-5-5s-5 2.2385763-5 5v6h-5c-.5522847 0-1-.4477153-1-1v-13h22zm-3-27h3v5.62l-3-2.875zm-21.957 11.708c-.0900491-.204817-.0434043-.4440214.117-.6l13.56-12.991c.0748186-.0735501.1750951-.1154513.28-.117.104731.0009695.2049041.0429775.279.117l6 5.749.042.039 4.961 4.754c.011.012.022.022.034.033l2.524 2.419c.1604043.1559786.2070491.395183.117.6-.0569906.1729884-.2178724.2904321-.4.292h-27.117c-.181817-.0032739-.3414058-.1218601-.397-.295z" fill="var(--resa-icon-primary, #428dff)" fill-rule="nonzero"/></g></g></svg>