<svg height="512pt" viewBox="0 -4 512 511" width="512pt" xmlns="http://www.w3.org/2000/svg"><style>:root{--resa-icon-primary:#428dff;--resa-icon-secondary:#7facfa;--resa-icon-light:#a4c2f7;--resa-icon-bg:#e8edfc;}</style><path d="m211.199219 285.683594h275.199219v186.964844h-275.199219zm0 0" fill="var(--resa-icon-light, #a4c2f7)"/><path d="m211.199219 285.683594h249.601562v186.964844h-249.601562zm0 0" fill="#e3e7f2"/><path d="m213.675781 89.417969h272.722657v189.867187h-272.722657zm0 0" fill="var(--resa-icon-light, #a4c2f7)"/><path d="m213.675781 89.417969h247.125v189.867187h-247.125zm0 0" fill="#e3e7f2"/><path d="m25.601562 31.816406h204.796876v442.285156h-204.796876zm0 0" fill="var(--resa-icon-light, #a4c2f7)"/><path d="m25.601562 31.816406h179.199219v442.285156h-179.199219zm0 0" fill="#e3e7f2"/><path d="m25.601562.5h204.796876c9.425781 0 17.066406 7.640625 17.066406 17.066406v8.535156c0 9.425782-7.640625 17.066407-17.066406 17.066407h-204.796876c-9.425781 0-17.066406-7.640625-17.066406-17.066407v-8.535156c0-9.425781 7.640625-17.066406 17.066406-17.066406zm0 0" fill="var(--resa-icon-light, #a4c2f7)"/><path d="m179.199219 316.234375v149.246094h-102.398438v-149.246094c.027344-9.414063 7.652344-17.039063 17.066407-17.066406h68.265624c9.414063.027343 17.039063 7.652343 17.066407 17.066406zm0 0" fill="var(--resa-icon-light, #a4c2f7)"/><path d="m196.265625 137.035156v59.730469c0 4.714844-3.820313 8.535156-8.53125 8.535156h-76.800781v-68.265625zm0 0" fill="#7fabfa"/><path d="m196.265625 102.898438v34.136718h-85.332031v-42.667968h76.800781c4.710937 0 8.53125 3.820312 8.53125 8.53125zm0 0" fill="#7fabfa"/><path d="m426.667969 179.699219v42.667969c0 4.710937-3.820313 8.53125-8.535157 8.53125h-76.800781v-51.199219zm0 0" fill="#7fabfa"/><path d="m426.667969 145.566406v34.132813h-85.335938v-42.664063h76.800781c4.714844 0 8.535157 3.820313 8.535157 8.53125zm0 0" fill="#7fabfa"/><path d="m64.75 94.367188-5.015625 5.015624v-5.015624zm0 0" fill="#d3dff2"/><path d="m107.117188 94.367188-47.382813 47.386718v-42.371094l5.015625-5.015624zm0 0" fill="#d3dff2"/><path d="m107.136719 94.367188-47.402344 47.402343v-.015625l47.382813-47.386718zm0 0" fill="#d3dff2"/><path d="m107.160156 94.367188-47.425781 47.429687v-.027344l47.402344-47.402343zm0 0" fill="#d8e1f2"/><path d="m107.1875 94.367188-47.453125 47.453124v-.023437l47.425781-47.429687zm0 0" fill="#dce3f2"/><path d="m107.210938 94.367188-47.476563 47.480468v-.027344l47.453125-47.453124zm0 0" fill="#e0e5f2"/><path d="m107.230469 94.367188-47.496094 47.496093v-.015625l47.476563-47.480468zm0 0" fill="#e4e7f2"/><path d="m107.253906 94.367188-47.519531 47.523437v-.027344l47.496094-47.496093zm0 0" fill="#e7e8f2"/><path d="m107.28125 94.367188-47.546875 47.546874v-.023437l47.519531-47.523437zm0 0" fill="#eaeaf2"/><path d="m107.308594 94.367188-47.574219 47.574218v-.027344l47.546875-47.546874zm0 0" fill="#edebf2"/><path d="m107.332031 94.367188-47.597656 47.597656v-.023438l47.574219-47.574218zm0 0" fill="#efecf2"/><path d="m107.347656 94.367188-47.613281 47.617187v-.019531l47.597656-47.597656zm0 0" fill="#f1edf2"/><path d="m107.375 94.367188-47.640625 47.640624v-.023437l47.613281-47.617187zm0 0" fill="#f3eef2"/><path d="m107.402344 94.367188-47.667969 47.667968v-.027344l47.640625-47.640624zm0 0" fill="#f5eef2"/><path d="m107.425781 94.367188-47.691406 47.691406v-.023438l47.667969-47.667968zm0 0" fill="#f6eff2"/><path d="m107.453125 94.367188-47.71875 47.71875v-.027344l47.691406-47.691406zm0 0" fill="#f8f0f2"/><path d="m107.46875 94.367188-47.734375 47.734374v-.015624l47.71875-47.71875zm0 0" fill="#f9f0f2"/><path d="m107.496094 94.367188-47.761719 47.761718v-.027344l47.734375-47.734374zm0 0" fill="#faf1f2"/><path d="m107.519531 94.367188-47.785156 47.785156v-.023438l47.761719-47.761718zm0 0" fill="#fbf1f2"/><path d="m107.546875 94.367188-47.8125 47.8125v-.027344l47.785156-47.785156zm0 0" fill="#fbf1f2"/><path d="m107.570312 94.367188-47.835937 47.835937v-.023437l47.8125-47.8125zm0 0" fill="#fcf2f2"/><path d="m107.589844 94.367188-47.855469 47.855468v-.019531l47.835937-47.835937zm0 0" fill="#fdf2f2"/><path d="m107.613281 94.367188-47.878906 47.878906v-.023438l47.855469-47.855468zm0 0" fill="#fdf2f2"/><path d="m107.640625 94.367188-47.90625 47.90625v-.027344l47.878906-47.878906zm0 0" fill="#fdf2f2"/><path d="m107.664062 94.367188-47.929687 47.929687v-.023437l47.90625-47.90625zm0 0" fill="#fef2f2"/><path d="m107.691406 94.367188-47.957031 47.957031v-.027344l47.929687-47.929687zm0 0" fill="#fef3f2"/><path d="m107.707031 94.367188-47.972656 47.972656v-.015625l47.957031-47.957031zm0 0" fill="#fef3f2"/><path d="m107.734375 94.367188-48 48v-.027344l47.972656-47.972656zm0 0" fill="#fef3f2"/><path d="m107.757812 94.367188-48.023437 48.023437v-.023437l48-48zm0 0" fill="#fff3f2"/><path d="m107.785156 94.367188-48.050781 48.050781v-.027344l48.023437-48.023437zm0 0" fill="#fff3f2"/><path d="m107.808594 94.367188-48.074219 48.078124v-.027343l48.050781-48.050781zm0 0" fill="#fff3f2"/><path d="m107.828125 94.367188-48.09375 48.09375v-.015626l48.074219-48.078124zm0 0" fill="#fff3f2"/><path d="m107.851562 94.367188-48.117187 48.117187v-.023437l48.09375-48.09375zm0 0" fill="#fff3f2"/><path d="m107.878906 94.367188-48.144531 48.144531v-.027344l48.117187-48.117187zm0 0" fill="#fff3f2"/><path d="m107.902344 94.367188-48.167969 48.171874v-.027343l48.144531-48.144531zm0 0" fill="#fff3f2"/><path d="m107.921875 94.367188-48.1875 48.1875v-.015626l48.167969-48.171874zm0 0" fill="#fff3f2"/><path d="m107.945312 94.367188-48.210937 48.210937v-.023437l48.1875-48.1875zm0 0" fill="#fff3f2"/><path d="m107.972656 94.367188-48.238281 48.238281v-.027344l48.210937-48.210937zm0 0" fill="#fff3f2"/><path d="m107.996094 94.367188-48.261719 48.265624v-.027343l48.238281-48.238281zm0 0" fill="#fff3f2"/><path d="m108.023438 94.367188-48.289063 48.289062v-.023438l48.261719-48.265624zm0 0" fill="#fff3f2"/><path d="m108.039062 94.367188-48.304687 48.308593v-.019531l48.289063-48.289062zm0 0" fill="#fff3f2"/><path d="m108.066406 94.367188-48.332031 48.332031v-.023438l48.304687-48.308593zm0 0" fill="#fff3f2"/><path d="m108.089844 94.367188-48.355469 48.359374v-.027343l48.332031-48.332031zm0 0" fill="#fff3f2"/><path d="m108.117188 94.367188-48.382813 48.382812v-.023438l48.355469-48.359374zm0 0" fill="#fff3f2"/><path d="m108.144531 94.367188-48.410156 48.410156v-.027344l48.382813-48.382812zm0 0" fill="#fff3f2"/><path d="m108.160156 94.367188-48.425781 48.425781v-.015625l48.410156-48.410156zm0 0" fill="#fff3f2"/><path d="m119.824219 94.367188-60.089844 60.089843v-11.664062l48.425781-48.425781zm0 0" fill="#fff3f2"/><path d="m119.824219 94.367188-60.089844 60.089843zm0 0" fill="#fff3f2"/><path d="m119.824219 94.367188-60.089844 60.089843zm0 0" fill="#fef3f2"/><path d="m119.824219 94.367188-60.089844 60.089843zm0 0" fill="#fdf2f2"/><path d="m119.824219 94.367188-60.089844 60.089843zm0 0" fill="#fcf2f2"/><path d="m119.824219 94.367188-60.089844 60.089843zm0 0" fill="#fbf1f2"/><path d="m119.824219 94.367188-60.089844 60.089843zm0 0" fill="#faf1f2"/><path d="m119.824219 94.367188-60.089844 60.089843zm0 0" fill="#f9f0f2"/><path d="m119.824219 94.367188-60.089844 60.089843zm0 0" fill="#f8f0f2"/><path d="m119.824219 94.367188-60.089844 60.089843zm0 0" fill="#f7eff2"/><path d="m119.824219 94.367188-60.089844 60.089843zm0 0" fill="#f6eff2"/><path d="m119.824219 94.367188-60.089844 60.089843zm0 0" fill="#f5eef2"/><path d="m119.824219 94.367188-60.089844 60.089843zm0 0" fill="#f4eef2"/><path d="m119.824219 94.367188-60.089844 60.089843zm0 0" fill="#f3edf2"/><path d="m119.824219 94.367188-60.089844 60.089843zm0 0" fill="#f2edf2"/><path d="m119.824219 94.367188-60.089844 60.089843zm0 0" fill="#f1ecf2"/><path d="m119.824219 94.367188-60.089844 60.089843zm0 0" fill="#f0ecf2"/><path d="m119.824219 94.367188-60.089844 60.089843zm0 0" fill="#efecf2"/><path d="m119.824219 94.367188-60.089844 60.089843zm0 0" fill="#eeebf2"/><path d="m119.824219 94.367188-60.089844 60.089843zm0 0" fill="#edebf2"/><path d="m119.824219 94.367188-60.089844 60.089843zm0 0" fill="#eceaf2"/><path d="m119.824219 94.367188-60.089844 60.089843zm0 0" fill="#ebeaf2"/><path d="m119.824219 94.367188-60.089844 60.089843zm0 0" fill="#eae9f2"/><path d="m119.824219 94.367188-60.089844 60.089843zm0 0" fill="#e8e9f2"/><path d="m119.824219 94.367188-60.089844 60.089843zm0 0" fill="#e7e8f2"/><path d="m119.824219 94.367188-60.089844 60.089843zm0 0" fill="#e6e8f2"/><path d="m119.824219 94.367188-60.089844 60.089843zm0 0" fill="#e5e7f2"/><path d="m119.824219 94.367188-60.089844 60.089843zm0 0" fill="#e4e7f2"/><path d="m119.824219 94.367188-60.089844 60.089843zm0 0" fill="#e3e6f2"/><path d="m119.824219 94.367188-60.089844 60.089843zm0 0" fill="#e2e6f2"/><path d="m119.824219 94.367188-60.089844 60.089843zm0 0" fill="#e1e6f2"/><path d="m119.824219 94.367188-60.089844 60.089843zm0 0" fill="#e0e5f2"/><path d="m119.824219 94.367188-60.089844 60.089843zm0 0" fill="#dfe5f2"/><path d="m119.824219 94.367188-60.089844 60.089843zm0 0" fill="#dee4f2"/><path d="m119.824219 94.367188-60.089844 60.089843zm0 0" fill="#dde4f2"/><path d="m119.824219 94.367188-60.089844 60.089843zm0 0" fill="#dce3f2"/><path d="m119.824219 94.367188-60.089844 60.089843zm0 0" fill="#dbe3f2"/><path d="m119.824219 94.367188-60.089844 60.089843zm0 0" fill="#dae2f2"/><path d="m119.824219 94.367188-60.089844 60.089843zm0 0" fill="#d9e2f2"/><path d="m119.824219 94.367188-60.089844 60.089843zm0 0" fill="#d8e1f2"/><path d="m119.824219 94.367188-60.089844 60.089843zm0 0" fill="#d7e1f2"/><path d="m119.824219 94.367188-60.089844 60.089843zm0 0" fill="#d6e0f2"/><path d="m119.824219 94.367188-60.089844 60.089843zm0 0" fill="#d5e0f2"/><path d="m119.824219 94.367188-60.089844 60.089843zm0 0" fill="#d4dff2"/><path d="m119.824219 94.367188-60.089844 60.089843zm0 0" fill="#d3dff2"/><path d="m153.71875 94.367188-93.984375 93.984374v-33.894531l60.089844-60.089843zm0 0" fill="#d3dff2"/><path d="m153.746094 94.367188-94.011719 94.011718v-.027344l93.984375-93.984374zm0 0" fill="#d3dff2"/><path d="m153.769531 94.367188-94.035156 94.035156v-.023438l94.011719-94.011718zm0 0" fill="#d8e1f2"/><path d="m153.789062 94.367188-94.054687 94.054687v-.019531l94.035156-94.035156zm0 0" fill="#dce3f2"/><path d="m153.8125 94.367188-94.078125 94.078124v-.023437l94.054687-94.054687zm0 0" fill="#e0e5f2"/><path d="m153.839844 94.367188-94.105469 94.105468v-.027344l94.078125-94.078124zm0 0" fill="#e4e7f2"/><path d="m153.863281 94.367188-94.128906 94.128906v-.023438l94.105469-94.105468zm0 0" fill="#e7e8f2"/><path d="m153.890625 94.367188-94.15625 94.15625v-.027344l94.128906-94.128906zm0 0" fill="#eaeaf2"/><path d="m153.90625 94.367188-94.171875 94.171874v-.015624l94.15625-94.15625zm0 0" fill="#edebf2"/><path d="m153.933594 94.367188-94.199219 94.199218v-.027344l94.171875-94.171874zm0 0" fill="#efecf2"/><path d="m153.957031 94.367188-94.222656 94.222656v-.023438l94.199219-94.199218zm0 0" fill="#f1edf2"/><path d="m153.984375 94.367188-94.25 94.25v-.027344l94.222656-94.222656zm0 0" fill="#f3eef2"/><path d="m154.007812 94.367188-94.273437 94.277343v-.027343l94.25-94.25zm0 0" fill="#f5eef2"/><path d="m154.027344 94.367188-94.292969 94.292968v-.015625l94.273437-94.277343zm0 0" fill="#f6eff2"/><path d="m154.050781 94.367188-94.316406 94.320312v-.027344l94.292969-94.292968zm0 0" fill="#f8f0f2"/><path d="m154.078125 94.367188-94.34375 94.34375v-.023438l94.316406-94.320312zm0 0" fill="#f9f0f2"/><path d="m154.101562 94.367188-94.367187 94.371093v-.027343l94.34375-94.34375zm0 0" fill="#faf1f2"/><path d="m154.121094 94.367188-94.386719 94.386718v-.015625l94.367187-94.371093zm0 0" fill="#fbf1f2"/><path d="m154.144531 94.367188-94.410156 94.414062v-.027344l94.386719-94.386718zm0 0" fill="#fbf1f2"/><path d="m154.171875 94.367188-94.4375 94.4375v-.023438l94.410156-94.414062zm0 0" fill="#fcf2f2"/><path d="m154.199219 94.367188-94.464844 94.464843v-.027343l94.4375-94.4375zm0 0" fill="#fdf2f2"/><path d="m154.222656 94.367188-94.488281 94.488281v-.023438l94.464844-94.464843zm0 0" fill="#fdf2f2"/><path d="m154.238281 94.367188-94.503906 94.507812v-.019531l94.488281-94.488281zm0 0" fill="#fdf2f2"/><path d="m154.265625 94.367188-94.53125 94.53125v-.023438l94.503906-94.507812zm0 0" fill="#fef2f2"/><path d="m154.292969 94.367188-94.558594 94.558593v-.027343l94.53125-94.53125zm0 0" fill="#fef3f2"/><path d="m154.316406 94.367188-94.582031 94.582031v-.023438l94.558594-94.558593zm0 0" fill="#fef3f2"/><path d="m154.34375 94.367188-94.609375 94.609374v-.027343l94.582031-94.582031zm0 0" fill="#fef3f2"/><path d="m154.359375 94.367188-94.625 94.625v-.015626l94.609375-94.609374zm0 0" fill="#fff3f2"/><path d="m154.386719 94.367188-94.652344 94.652343v-.027343l94.625-94.625zm0 0" fill="#fff3f2"/><path d="m154.410156 94.367188-94.675781 94.675781v-.023438l94.652344-94.652343zm0 0" fill="#fff3f2"/><path d="m154.4375 94.367188-94.703125 94.703124v-.027343l94.675781-94.675781zm0 0" fill="#fff3f2"/><path d="m154.460938 94.367188-94.726563 94.726562v-.023438l94.703125-94.703124zm0 0" fill="#fff3f2"/><path d="m154.480469 94.367188-94.746094 94.746093v-.019531l94.726563-94.726562zm0 0" fill="#fff3f2"/><path d="m154.503906 94.367188-94.769531 94.769531v-.023438l94.746094-94.746093zm0 0" fill="#fff3f2"/><path d="m154.53125 94.367188-94.796875 94.796874v-.027343l94.769531-94.769531zm0 0" fill="#fff3f2"/><path d="m154.554688 94.367188-94.820313 94.820312v-.023438l94.796875-94.796874zm0 0" fill="#fff3f2"/><path d="m154.582031 94.367188-94.847656 94.847656v-.027344l94.820313-94.820312zm0 0" fill="#fff3f2"/><path d="m154.597656 94.367188-94.863281 94.863281v-.015625l94.847656-94.847656zm0 0" fill="#fff3f2"/><path d="m154.625 94.367188-94.890625 94.890624v-.027343l94.863281-94.863281zm0 0" fill="#fff3f2"/><path d="m154.648438 94.367188-94.914063 94.914062v-.023438l94.890625-94.890624zm0 0" fill="#fff3f2"/><path d="m154.675781 94.367188-94.941406 94.941406v-.027344l94.914063-94.914062zm0 0" fill="#fff3f2"/><path d="m154.699219 94.367188-94.964844 94.96875v-.027344l94.941406-94.941406zm0 0" fill="#fff3f2"/><path d="m154.71875 94.367188-94.984375 94.984374v-.015624l94.964844-94.96875zm0 0" fill="#fff3f2"/><path d="m154.742188 94.367188-95.007813 95.007812v-.023438l94.984375-94.984374zm0 0" fill="#fff3f2"/><path d="m154.769531 94.367188-95.035156 95.035156v-.027344l95.007813-95.007812zm0 0" fill="#fff3f2"/><path d="m170.667969 94.367188-110.933594 110.933593v-15.898437l95.035156-95.035156zm0 0" fill="#fff3f2"/><path d="m170.667969 94.375-110.925781 110.925781h-.007813l110.933594-110.933593zm0 0" fill="#fff3f2"/><path d="m170.667969 94.375-110.925781 110.925781zm0 0" fill="#faf1f2"/><path d="m170.667969 94.382812-110.917969 110.917969h-.007812l110.925781-110.925781zm0 0" fill="#f6eff2"/><path d="m170.667969 94.382812-110.917969 110.917969zm0 0" fill="#f2edf2"/><path d="m170.667969 94.390625-110.910157 110.910156h-.007812l110.917969-110.917969zm0 0" fill="#eeebf2"/><path d="m170.667969 94.390625-110.910157 110.910156zm0 0" fill="#ebeaf2"/><path d="m170.667969 94.402344-110.902344 110.898437h-.007813l110.910157-110.910156zm0 0" fill="#e8e8f2"/><path d="m170.667969 94.410156-110.890625 110.890625h-.011719l110.902344-110.898437zm0 0" fill="#e5e7f2"/><path d="m170.667969 94.410156-110.890625 110.890625zm0 0" fill="#e3e6f2"/><path d="m170.667969 94.417969-110.882813 110.882812h-.007812l110.890625-110.890625zm0 0" fill="#e1e5f2"/><path d="m170.667969 94.417969-110.882813 110.882812zm0 0" fill="#dfe4f2"/><path d="m170.667969 94.425781-110.875 110.875h-.007813l110.882813-110.882812zm0 0" fill="#dde4f2"/><path d="m170.667969 94.425781-110.875 110.875zm0 0" fill="#dce3f2"/><path d="m170.667969 94.433594-110.867188 110.867187h-.007812l110.875-110.875zm0 0" fill="#dae2f2"/><path d="m170.667969 94.433594-110.867188 110.867187zm0 0" fill="#d9e2f2"/><path d="m170.667969 94.445312-110.859375 110.855469h-.007813l110.867188-110.867187zm0 0" fill="#d8e1f2"/><path d="m170.667969 94.453125-110.847657 110.847656h-.011718l110.859375-110.855469zm0 0" fill="#d7e1f2"/><path d="m170.667969 94.453125-110.847657 110.847656zm0 0" fill="#d7e1f2"/><path d="m170.667969 94.460938-110.839844 110.839843h-.007813l110.847657-110.847656zm0 0" fill="#d6e0f2"/><path d="m170.667969 94.460938-110.839844 110.839843zm0 0" fill="#d5e0f2"/><path d="m170.667969 94.46875-110.832031 110.832031h-.007813l110.839844-110.839843zm0 0" fill="#d5e0f2"/><path d="m170.667969 94.46875-110.832031 110.832031zm0 0" fill="#d5e0f2"/><path d="m170.667969 94.476562-110.824219 110.824219h-.007812l110.832031-110.832031zm0 0" fill="#d4e0f2"/><path d="m170.667969 94.484375-110.816407 110.816406h-.007812l110.824219-110.824219zm0 0" fill="#d4dff2"/><path d="m170.667969 94.484375-110.816407 110.816406zm0 0" fill="#d4dff2"/><path d="m170.667969 94.496094-110.804688 110.804687h-.011719l110.816407-110.816406zm0 0" fill="#d4dff2"/><path d="m170.667969 94.496094-110.804688 110.804687zm0 0" fill="#d3dff2"/><path d="m170.667969 94.503906-110.796875 110.796875h-.007813l110.804688-110.804687zm0 0" fill="#d3dff2"/><path d="m170.667969 94.503906-110.796875 110.796875zm0 0" fill="#d3dff2"/><path d="m170.667969 94.511719-110.789063 110.789062h-.007812l110.796875-110.796875zm0 0" fill="#d3dff2"/><path d="m170.667969 94.511719-110.789063 110.789062zm0 0" fill="#d3dff2"/><path d="m170.667969 94.519531-110.78125 110.78125h-.007813l110.789063-110.789062zm0 0" fill="#d3dff2"/><path d="m170.667969 94.527344-110.773438 110.773437h-.007812l110.78125-110.78125zm0 0" fill="#d3dff2"/><path d="m170.667969 94.527344-110.773438 110.773437zm0 0" fill="#d3dff2"/><path d="m170.667969 94.539062-110.765625 110.761719h-.007813l110.773438-110.773437zm0 0" fill="#d3dff2"/><path d="m170.667969 94.539062-110.765625 110.761719zm0 0" fill="#d3dff2"/><path d="m170.667969 94.546875-110.753907 110.753906h-.011718l110.765625-110.761719zm0 0" fill="#d3dff2"/><path d="m170.667969 94.546875-110.753907 110.753906zm0 0" fill="#d3dff2"/><path d="m170.667969 94.554688-110.746094 110.746093h-.007813l110.753907-110.753906zm0 0" fill="#d3dff2"/><path d="m170.667969 94.5625-110.738281 110.738281h-.007813l110.746094-110.746093zm0 0" fill="#d3dff2"/><path d="m170.667969 94.5625-110.738281 110.738281zm0 0" fill="#d3dff2"/><path d="m170.667969 94.570312-110.730469 110.730469h-.007812l110.738281-110.738281zm0 0" fill="#d3dff2"/><path d="m170.667969 94.570312-110.730469 110.730469zm0 0" fill="#d3dff2"/><path d="m170.667969 94.578125-110.722657 110.722656h-.007812l110.730469-110.730469zm0 0" fill="#d3dff2"/><path d="m170.667969 145.207031-60.09375 60.09375h-50.628907l110.722657-110.722656zm0 0" fill="#d3dff2"/><path d="m170.667969 145.21875-60.085938 60.082031h-.007812l60.09375-60.09375zm0 0" fill="#d3dff2"/><path d="m170.667969 145.21875-60.085938 60.082031zm0 0" fill="#d4dff2"/><path d="m170.667969 145.226562-60.074219 60.074219h-.011719l60.085938-60.082031zm0 0" fill="#d5e0f2"/><path d="m170.667969 145.226562-60.074219 60.074219zm0 0" fill="#d6e0f2"/><path d="m170.667969 145.234375-60.066407 60.066406h-.007812l60.074219-60.074219zm0 0" fill="#d7e1f2"/><path d="m170.667969 145.234375-60.066407 60.066406zm0 0" fill="#d8e1f2"/><path d="m170.667969 145.242188-60.058594 60.058593h-.007813l60.066407-60.066406zm0 0" fill="#d9e2f2"/><path d="m170.667969 145.25-60.050781 60.050781h-.007813l60.058594-60.058593zm0 0" fill="#dae2f2"/><path d="m170.667969 145.25-60.050781 60.050781zm0 0" fill="#dbe3f2"/><path d="m170.667969 145.257812-60.042969 60.042969h-.007812l60.050781-60.050781zm0 0" fill="#dce3f2"/><path d="m170.667969 145.257812-60.042969 60.042969zm0 0" fill="#dde4f2"/><path d="m170.667969 145.269531-60.035157 60.03125h-.007812l60.042969-60.042969zm0 0" fill="#dee4f2"/><path d="m170.667969 145.269531-60.035157 60.03125zm0 0" fill="#dfe5f2"/><path d="m170.667969 145.277344-60.023438 60.023437h-.011719l60.035157-60.03125zm0 0" fill="#e0e5f2"/><path d="m170.667969 145.277344-60.023438 60.023437zm0 0" fill="#e1e6f2"/><path d="m170.667969 145.285156-60.015625 60.015625h-.007813l60.023438-60.023437zm0 0" fill="#e2e6f2"/><path d="m170.667969 145.292969-60.007813 60.007812h-.007812l60.015625-60.015625zm0 0" fill="#e3e6f2"/><path d="m170.667969 145.292969-60.007813 60.007812zm0 0" fill="#e4e7f2"/><path d="m170.667969 145.300781-60 60h-.007813l60.007813-60.007812zm0 0" fill="#e5e7f2"/><path d="m170.667969 145.300781-60 60zm0 0" fill="#e6e8f2"/><path d="m170.667969 145.3125-59.992188 59.988281h-.007812l60-60zm0 0" fill="#e7e8f2"/><path d="m170.667969 145.3125-59.992188 59.988281zm0 0" fill="#e8e9f2"/><path d="m170.667969 145.320312-59.980469 59.980469h-.011719l59.992188-59.988281zm0 0" fill="#eae9f2"/><path d="m170.667969 145.328125-59.972657 59.972656h-.007812l59.980469-59.980469zm0 0" fill="#ebeaf2"/><path d="m170.667969 145.328125-59.972657 59.972656zm0 0" fill="#eceaf2"/><path d="m170.667969 145.335938-59.964844 59.964843h-.007813l59.972657-59.972656zm0 0" fill="#edebf2"/><path d="m170.667969 145.335938-59.964844 59.964843zm0 0" fill="#eeebf2"/><path d="m170.667969 145.34375-59.957031 59.957031h-.007813l59.964844-59.964843zm0 0" fill="#efecf2"/><path d="m170.667969 145.34375-59.957031 59.957031zm0 0" fill="#f0ecf2"/><path d="m170.667969 145.351562-59.949219 59.949219h-.007812l59.957031-59.957031zm0 0" fill="#f1ecf2"/><path d="m170.667969 145.351562-59.949219 59.949219zm0 0" fill="#f2edf2"/><path d="m170.667969 145.363281-59.9375 59.9375h-.011719l59.949219-59.949219zm0 0" fill="#f3edf2"/><path d="m170.667969 145.371094-59.929688 59.929687h-.007812l59.9375-59.9375zm0 0" fill="#f4eef2"/><path d="m170.667969 145.371094-59.929688 59.929687zm0 0" fill="#f5eef2"/><path d="m170.667969 145.378906-59.921875 59.921875h-.007813l59.929688-59.929687zm0 0" fill="#f6eff2"/><path d="m170.667969 145.378906-59.921875 59.921875zm0 0" fill="#f7eff2"/><path d="m170.667969 145.386719-59.914063 59.914062h-.007812l59.921875-59.921875zm0 0" fill="#f8f0f2"/><path d="m170.667969 145.386719-59.914063 59.914062zm0 0" fill="#f9f0f2"/><path d="m170.667969 145.394531-59.90625 59.90625h-.007813l59.914063-59.914062zm0 0" fill="#faf1f2"/><path d="m170.667969 145.40625-59.898438 59.894531h-.007812l59.90625-59.90625zm0 0" fill="#fbf1f2"/><path d="m170.667969 145.40625-59.898438 59.894531zm0 0" fill="#fcf2f2"/><path d="m170.667969 145.414062-59.886719 59.886719h-.011719l59.898438-59.894531zm0 0" fill="#fdf2f2"/><path d="m170.667969 145.414062-59.886719 59.886719zm0 0" fill="#fef3f2"/><path d="m170.667969 145.421875-59.878907 59.878906h-.007812l59.886719-59.886719zm0 0" fill="#fff3f2"/><path d="m170.667969 168.511719-36.789063 36.789062h-23.089844l59.878907-59.878906zm0 0" fill="#fff3f2"/><path d="m170.667969 168.511719-36.789063 36.789062zm0 0" fill="#fff3f2"/><path d="m170.667969 168.519531-36.78125 36.78125h-.007813l36.789063-36.789062zm0 0" fill="#fef3f2"/><path d="m170.667969 168.519531-36.78125 36.78125zm0 0" fill="#fdf2f2"/><path d="m170.667969 168.53125-36.769531 36.769531h-.011719l36.78125-36.78125zm0 0" fill="#fcf2f2"/><path d="m170.667969 168.539062-36.761719 36.761719h-.007812l36.769531-36.769531zm0 0" fill="#fbf1f2"/><path d="m170.667969 168.539062-36.761719 36.761719zm0 0" fill="#faf1f2"/><path d="m170.667969 168.546875-36.753907 36.753906h-.007812l36.761719-36.761719zm0 0" fill="#f9f0f2"/><path d="m170.667969 168.546875-36.753907 36.753906zm0 0" fill="#f8f0f2"/><path d="m170.667969 168.554688-36.746094 36.746093h-.007813l36.753907-36.753906zm0 0" fill="#f7eff2"/><path d="m170.667969 168.554688-36.746094 36.746093zm0 0" fill="#f6eff2"/><path d="m170.667969 168.5625-36.738281 36.738281h-.007813l36.746094-36.746093zm0 0" fill="#f5eef2"/><path d="m170.667969 168.574219-36.730469 36.726562h-.007812l36.738281-36.738281zm0 0" fill="#f4eef2"/><path d="m170.667969 168.574219-36.730469 36.726562zm0 0" fill="#f3edf2"/><path d="m170.667969 168.582031-36.71875 36.71875h-.011719l36.730469-36.726562zm0 0" fill="#f2edf2"/><path d="m170.667969 168.582031-36.71875 36.71875zm0 0" fill="#f1ecf2"/><path d="m170.667969 168.589844-36.710938 36.710937h-.007812l36.71875-36.71875zm0 0" fill="#f0ecf2"/><path d="m170.667969 168.589844-36.710938 36.710937zm0 0" fill="#efecf2"/><path d="m170.667969 168.597656-36.703125 36.703125h-.007813l36.710938-36.710937zm0 0" fill="#eeebf2"/><path d="m170.667969 168.597656-36.703125 36.703125zm0 0" fill="#edebf2"/><path d="m170.667969 168.605469-36.695313 36.695312h-.007812l36.703125-36.703125zm0 0" fill="#eceaf2"/><path d="m170.667969 168.613281-36.6875 36.6875h-.007813l36.695313-36.695312zm0 0" fill="#ebeaf2"/><path d="m170.667969 168.613281-36.6875 36.6875zm0 0" fill="#eae9f2"/><path d="m170.667969 168.625-36.675781 36.675781h-.011719l36.6875-36.6875zm0 0" fill="#e8e9f2"/><path d="m170.667969 168.625-36.675781 36.675781zm0 0" fill="#e7e8f2"/><path d="m170.667969 168.632812-36.667969 36.667969h-.007812l36.675781-36.675781zm0 0" fill="#e6e8f2"/><path d="m170.667969 168.632812-36.667969 36.667969zm0 0" fill="#e5e7f2"/><path d="m170.667969 168.640625-36.660157 36.660156h-.007812l36.667969-36.667969zm0 0" fill="#e4e7f2"/><path d="m170.667969 168.648438-36.652344 36.652343h-.007813l36.660157-36.660156zm0 0" fill="#e3e6f2"/><path d="m170.667969 168.648438-36.652344 36.652343zm0 0" fill="#e2e6f2"/><path d="m170.667969 168.65625-36.644531 36.644531h-.007813l36.652344-36.652343zm0 0" fill="#e1e6f2"/><path d="m170.667969 168.65625-36.644531 36.644531zm0 0" fill="#e0e5f2"/><path d="m170.667969 168.667969-36.636719 36.632812h-.007812l36.644531-36.644531zm0 0" fill="#dfe5f2"/><path d="m170.667969 168.667969-36.636719 36.632812zm0 0" fill="#dee4f2"/><path d="m170.667969 168.675781-36.625 36.625h-.011719l36.636719-36.632812zm0 0" fill="#dde4f2"/><path d="m170.667969 168.675781-36.625 36.625zm0 0" fill="#dce3f2"/><path d="m170.667969 168.683594-36.617188 36.617187h-.007812l36.625-36.625zm0 0" fill="#dbe3f2"/><path d="m170.667969 168.691406-36.609375 36.609375h-.007813l36.617188-36.617187zm0 0" fill="#dae2f2"/><path d="m170.667969 168.691406-36.609375 36.609375zm0 0" fill="#d9e2f2"/><path d="m170.667969 168.699219-36.601563 36.601562h-.007812l36.609375-36.609375zm0 0" fill="#d8e1f2"/><path d="m170.667969 168.699219-36.601563 36.601562zm0 0" fill="#d7e1f2"/><path d="m170.667969 168.710938-36.59375 36.589843h-.007813l36.601563-36.601562zm0 0" fill="#d6e0f2"/><path d="m170.667969 168.710938-36.59375 36.589843zm0 0" fill="#d5e0f2"/><path d="m170.667969 168.71875-36.582031 36.582031h-.011719l36.59375-36.589843zm0 0" fill="#d4dff2"/><path d="m170.667969 168.726562-36.574219 36.574219h-.007812l36.582031-36.582031zm0 0" fill="#d3dff2"/><path d="m134.09375 205.300781 36.574219-36.574219v36.574219zm0 0" fill="#d3dff2"/><path d="m295.152344 137.035156-5.019532 5.015625v-5.015625zm0 0" fill="#d3dff2"/><path d="m334.105469 137.035156-43.972657 43.96875v-38.953125l5.019532-5.015625zm0 0" fill="#d3dff2"/><path d="m334.121094 137.035156-43.988282 43.988282v-.019532l43.972657-43.96875zm0 0" fill="#d3dff2"/><path d="m334.148438 137.035156-44.015626 44.011719v-.023437l43.988282-43.988282zm0 0" fill="#d8e1f2"/><path d="m334.164062 137.035156-44.03125 44.03125v-.019531l44.015626-44.011719zm0 0" fill="#dce3f2"/><path d="m334.191406 137.035156-44.058594 44.054688v-.023438l44.03125-44.03125zm0 0" fill="#e0e5f2"/><path d="m334.207031 137.035156-44.074219 44.074219v-.019531l44.058594-44.054688zm0 0" fill="#e4e7f2"/><path d="m334.234375 137.035156-44.101563 44.097656v-.023437l44.074219-44.074219zm0 0" fill="#e7e8f2"/><path d="m334.25 137.035156-44.117188 44.117188v-.019532l44.101563-44.097656zm0 0" fill="#eaeaf2"/><path d="m334.277344 137.035156-44.144532 44.140625v-.023437l44.117188-44.117188zm0 0" fill="#edebf2"/><path d="m334.300781 137.035156-44.167969 44.167969v-.027344l44.144532-44.140625zm0 0" fill="#efecf2"/><path d="m334.320312 137.035156-44.1875 44.183594v-.015625l44.167969-44.167969zm0 0" fill="#f1edf2"/><path d="m334.34375 137.035156-44.210938 44.210938v-.027344l44.1875-44.183594zm0 0" fill="#f3eef2"/><path d="m334.363281 137.035156-44.230469 44.226563v-.015625l44.210938-44.210938zm0 0" fill="#f5eef2"/><path d="m334.386719 137.035156-44.253907 44.253906v-.027343l44.230469-44.226563zm0 0" fill="#f6eff2"/><path d="m334.402344 137.035156-44.269532 44.269532v-.015626l44.253907-44.253906zm0 0" fill="#f8f0f2"/><path d="m334.429688 137.035156-44.296876 44.292969v-.023437l44.269532-44.269532zm0 0" fill="#f9f0f2"/><path d="m334.457031 137.035156-44.324219 44.320313v-.027344l44.296876-44.292969zm0 0" fill="#faf1f2"/><path d="m334.472656 137.035156-44.339844 44.335938v-.015625l44.324219-44.320313zm0 0" fill="#fbf1f2"/><path d="m334.5 137.035156-44.367188 44.363282v-.027344l44.339844-44.335938zm0 0" fill="#fbf1f2"/><path d="m334.515625 137.035156-44.382813 44.378906v-.015624l44.367188-44.363282zm0 0" fill="#fcf2f2"/><path d="m334.539062 137.035156-44.40625 44.40625v-.027344l44.382813-44.378906zm0 0" fill="#fdf2f2"/><path d="m334.558594 137.035156-44.425782 44.421875v-.015625l44.40625-44.40625zm0 0" fill="#fdf2f2"/><path d="m334.582031 137.035156-44.449219 44.449219v-.027344l44.425782-44.421875zm0 0" fill="#fdf2f2"/><path d="m334.609375 137.035156-44.476563 44.472656v-.023437l44.449219-44.449219zm0 0" fill="#fef2f2"/><path d="m334.625 137.035156-44.492188 44.492188v-.019532l44.476563-44.472656zm0 0" fill="#fef3f2"/><path d="m334.652344 137.035156-44.519532 44.515625v-.023437l44.492188-44.492188zm0 0" fill="#fef3f2"/><path d="m334.667969 137.035156-44.535157 44.535156v-.019531l44.519532-44.515625zm0 0" fill="#fef3f2"/><path d="m334.695312 137.035156-44.5625 44.558594v-.023438l44.535157-44.535156zm0 0" fill="#fff3f2"/><path d="m334.710938 137.035156-44.578126 44.578125v-.019531l44.5625-44.558594zm0 0" fill="#fff3f2"/><path d="m334.738281 137.035156-44.605469 44.601563v-.023438l44.578126-44.578125zm0 0" fill="#fff3f2"/><path d="m334.761719 137.035156-44.628907 44.628906v-.027343l44.605469-44.601563zm0 0" fill="#fff3f2"/><path d="m334.78125 137.035156-44.648438 44.644532v-.015626l44.628907-44.628906zm0 0" fill="#fff3f2"/><path d="m334.804688 137.035156-44.671876 44.671875v-.027343l44.648438-44.644532zm0 0" fill="#fff3f2"/><path d="m334.824219 137.035156-44.691407 44.6875v-.015625l44.671876-44.671875zm0 0" fill="#fff3f2"/><path d="m334.847656 137.035156-44.714844 44.710938v-.023438l44.691407-44.6875zm0 0" fill="#fff3f2"/><path d="m334.863281 137.035156-44.730469 44.730469v-.019531l44.714844-44.710938zm0 0" fill="#fff3f2"/><path d="m334.890625 137.035156-44.757813 44.753906v-.023437l44.730469-44.730469zm0 0" fill="#fff3f2"/><path d="m334.917969 137.035156-44.785157 44.78125v-.027344l44.757813-44.753906zm0 0" fill="#fff3f2"/><path d="m334.933594 137.035156-44.800782 44.796875v-.015625l44.785157-44.78125zm0 0" fill="#fff3f2"/><path d="m334.957031 137.035156-44.824219 44.824219v-.027344l44.800782-44.796875zm0 0" fill="#fff3f2"/><path d="m334.976562 137.035156-44.84375 44.839844v-.015625l44.824219-44.824219zm0 0" fill="#fff3f2"/><path d="m335 137.035156-44.867188 44.867188v-.027344l44.84375-44.839844zm0 0" fill="#fff3f2"/><path d="m335.019531 137.035156-44.886719 44.882813v-.015625l44.867188-44.867188zm0 0" fill="#fff3f2"/><path d="m335.042969 137.035156-44.910157 44.910156v-.027343l44.886719-44.882813zm0 0" fill="#fff3f2"/><path d="m335.070312 137.035156-44.9375 44.933594v-.023438l44.910157-44.910156zm0 0" fill="#fff3f2"/><path d="m345.789062 137.035156-55.65625 55.652344v-10.71875l44.9375-44.933594zm0 0" fill="#fff3f2"/><path d="m345.789062 137.035156-55.65625 55.652344zm0 0" fill="#fff3f2"/><path d="m345.789062 137.035156-55.65625 55.652344zm0 0" fill="#fef3f2"/><path d="m345.789062 137.035156-55.65625 55.652344zm0 0" fill="#fdf2f2"/><path d="m345.789062 137.035156-55.65625 55.652344zm0 0" fill="#fcf2f2"/><path d="m345.789062 137.035156-55.65625 55.652344zm0 0" fill="#fbf1f2"/><path d="m345.789062 137.035156-55.65625 55.652344zm0 0" fill="#faf1f2"/><path d="m345.789062 137.035156-55.65625 55.652344zm0 0" fill="#f9f0f2"/><path d="m345.789062 137.035156-55.65625 55.652344zm0 0" fill="#f8f0f2"/><path d="m345.789062 137.035156-55.65625 55.652344zm0 0" fill="#f7eff2"/><path d="m345.789062 137.035156-55.65625 55.652344zm0 0" fill="#f6eff2"/><path d="m345.789062 137.035156-55.65625 55.652344zm0 0" fill="#f5eef2"/><path d="m345.789062 137.035156-55.65625 55.652344zm0 0" fill="#f4eef2"/><path d="m345.789062 137.035156-55.65625 55.652344zm0 0" fill="#f3edf2"/><path d="m345.789062 137.035156-55.65625 55.652344zm0 0" fill="#f2edf2"/><path d="m345.789062 137.035156-55.65625 55.652344zm0 0" fill="#f1ecf2"/><path d="m345.789062 137.035156-55.65625 55.652344zm0 0" fill="#f0ecf2"/><path d="m345.789062 137.035156-55.65625 55.652344zm0 0" fill="#efecf2"/><path d="m345.789062 137.035156-55.65625 55.652344zm0 0" fill="#eeebf2"/><path d="m345.789062 137.035156-55.65625 55.652344zm0 0" fill="#edebf2"/><path d="m345.789062 137.035156-55.65625 55.652344zm0 0" fill="#eceaf2"/><path d="m345.789062 137.035156-55.65625 55.652344zm0 0" fill="#ebeaf2"/><path d="m345.789062 137.035156-55.65625 55.652344zm0 0" fill="#eae9f2"/><path d="m345.789062 137.035156-55.65625 55.652344zm0 0" fill="#e8e9f2"/><path d="m345.789062 137.035156-55.65625 55.652344zm0 0" fill="#e7e8f2"/><path d="m345.789062 137.035156-55.65625 55.652344zm0 0" fill="#e6e8f2"/><path d="m345.789062 137.035156-55.65625 55.652344zm0 0" fill="#e5e7f2"/><path d="m345.789062 137.035156-55.65625 55.652344zm0 0" fill="#e4e7f2"/><path d="m345.789062 137.035156-55.65625 55.652344zm0 0" fill="#e3e6f2"/><path d="m345.789062 137.035156-55.65625 55.652344zm0 0" fill="#e2e6f2"/><path d="m345.789062 137.035156-55.65625 55.652344zm0 0" fill="#e1e6f2"/><path d="m345.789062 137.035156-55.65625 55.652344zm0 0" fill="#e0e5f2"/><path d="m345.789062 137.035156-55.65625 55.652344zm0 0" fill="#dfe5f2"/><path d="m345.789062 137.035156-55.65625 55.652344zm0 0" fill="#dee4f2"/><path d="m345.789062 137.035156-55.65625 55.652344zm0 0" fill="#dde4f2"/><path d="m345.789062 137.035156-55.65625 55.652344zm0 0" fill="#dce3f2"/><path d="m345.789062 137.035156-55.65625 55.652344zm0 0" fill="#dbe3f2"/><path d="m345.789062 137.035156-55.65625 55.652344zm0 0" fill="#dae2f2"/><path d="m345.789062 137.035156-55.65625 55.652344zm0 0" fill="#d9e2f2"/><path d="m345.789062 137.035156-55.65625 55.652344zm0 0" fill="#d8e1f2"/><path d="m345.789062 137.035156-55.65625 55.652344zm0 0" fill="#d7e1f2"/><path d="m345.789062 137.035156-55.65625 55.652344zm0 0" fill="#d6e0f2"/><path d="m345.789062 137.035156-55.65625 55.652344zm0 0" fill="#d5e0f2"/><path d="m345.789062 137.035156-55.65625 55.652344zm0 0" fill="#d4dff2"/><path d="m345.789062 137.035156-55.65625 55.652344zm0 0" fill="#d3dff2"/><path d="m376.953125 137.035156-86.820313 86.816406v-31.164062l55.65625-55.652344zm0 0" fill="#d3dff2"/><path d="m376.976562 137.035156-86.84375 86.84375v-.027344l86.820313-86.816406zm0 0" fill="#d3dff2"/><path d="m376.992188 137.035156-86.859376 86.859375v-.015625l86.84375-86.84375zm0 0" fill="#d8e1f2"/><path d="m377.019531 137.035156-86.886719 86.882813v-.023438l86.859376-86.859375zm0 0" fill="#dce3f2"/><path d="m377.035156 137.035156-86.902344 86.902344v-.019531l86.886719-86.882813zm0 0" fill="#e0e5f2"/><path d="m377.0625 137.035156-86.929688 86.925782v-.023438l86.902344-86.902344zm0 0" fill="#e4e7f2"/><path d="m377.078125 137.035156-86.945313 86.945313v-.019531l86.929688-86.925782zm0 0" fill="#e7e8f2"/><path d="m377.105469 137.035156-86.972657 86.96875v-.023437l86.945313-86.945313zm0 0" fill="#eaeaf2"/><path d="m377.128906 137.035156-86.996094 86.996094v-.027344l86.972657-86.96875zm0 0" fill="#edebf2"/><path d="m377.148438 137.035156-87.015626 87.011719v-.015625l86.996094-86.996094zm0 0" fill="#efecf2"/><path d="m377.171875 137.035156-87.039063 87.039063v-.027344l87.015626-87.011719zm0 0" fill="#f1edf2"/><path d="m377.191406 137.035156-87.058594 87.054688v-.015625l87.039063-87.039063zm0 0" fill="#f3eef2"/><path d="m377.214844 137.035156-87.082032 87.082032v-.027344l87.058594-87.054688zm0 0" fill="#f5eef2"/><path d="m377.234375 137.035156-87.101563 87.097656v-.015624l87.082032-87.082032zm0 0" fill="#f6eff2"/><path d="m377.257812 137.035156-87.125 87.125v-.027344l87.101563-87.097656zm0 0" fill="#f8f0f2"/><path d="m377.285156 137.035156-87.152344 87.148438v-.023438l87.125-87.125zm0 0" fill="#f9f0f2"/><path d="m377.300781 137.035156-87.167969 87.167969v-.019531l87.152344-87.148438zm0 0" fill="#faf1f2"/><path d="m377.328125 137.035156-87.195313 87.191406v-.023437l87.167969-87.167969zm0 0" fill="#fbf1f2"/><path d="m377.34375 137.035156-87.210938 87.207032v-.015626l87.195313-87.191406zm0 0" fill="#fbf1f2"/><path d="m377.371094 137.035156-87.238282 87.234375v-.027343l87.210938-87.207032zm0 0" fill="#fcf2f2"/><path d="m377.386719 137.035156-87.253907 87.25v-.015625l87.238282-87.234375zm0 0" fill="#fdf2f2"/><path d="m377.414062 137.035156-87.28125 87.277344v-.027344l87.253907-87.25zm0 0" fill="#fdf2f2"/><path d="m377.429688 137.035156-87.296876 87.292969v-.015625l87.28125-87.277344zm0 0" fill="#fdf2f2"/><path d="m377.453125 137.035156-87.320313 87.320313v-.027344l87.296876-87.292969zm0 0" fill="#fef2f2"/><path d="m377.480469 137.035156-87.347657 87.34375v-.023437l87.320313-87.320313zm0 0" fill="#fef3f2"/><path d="m377.496094 137.035156-87.363282 87.363282v-.019532l87.347657-87.34375zm0 0" fill="#fef3f2"/><path d="m377.523438 137.035156-87.390626 87.386719v-.023437l87.363282-87.363282zm0 0" fill="#fef3f2"/><path d="m377.539062 137.035156-87.40625 87.40625v-.019531l87.390626-87.386719zm0 0" fill="#fff3f2"/><path d="m377.566406 137.035156-87.433594 87.429688v-.023438l87.40625-87.40625zm0 0" fill="#fff3f2"/><path d="m377.582031 137.035156-87.449219 87.449219v-.019531l87.433594-87.429688zm0 0" fill="#fff3f2"/><path d="m377.609375 137.035156-87.476563 87.472656v-.023437l87.449219-87.449219zm0 0" fill="#fff3f2"/><path d="m377.632812 137.035156-87.5 87.5v-.027344l87.476563-87.472656zm0 0" fill="#fff3f2"/><path d="m377.652344 137.035156-87.519532 87.515625v-.015625l87.5-87.5zm0 0" fill="#fff3f2"/><path d="m377.675781 137.035156-87.542969 87.542969v-.027344l87.519532-87.515625zm0 0" fill="#fff3f2"/><path d="m377.695312 137.035156-87.5625 87.558594v-.015625l87.542969-87.542969zm0 0" fill="#fff3f2"/><path d="m377.71875 137.035156-87.585938 87.585938v-.027344l87.5625-87.558594zm0 0" fill="#fff3f2"/><path d="m377.738281 137.035156-87.605469 87.601563v-.015625l87.585938-87.585938zm0 0" fill="#fff3f2"/><path d="m377.761719 137.035156-87.628907 87.628906v-.027343l87.605469-87.601563zm0 0" fill="#fff3f2"/><path d="m377.789062 137.035156-87.65625 87.652344v-.023438l87.628907-87.628906zm0 0" fill="#fff3f2"/><path d="m377.804688 137.035156-87.671876 87.667969v-.015625l87.65625-87.652344zm0 0" fill="#fff3f2"/><path d="m377.832031 137.035156-87.699219 87.695313v-.027344l87.671876-87.667969zm0 0" fill="#fff3f2"/><path d="m377.847656 137.035156-87.714844 87.710938v-.015625l87.699219-87.695313zm0 0" fill="#fff3f2"/><path d="m377.875 137.035156-87.742188 87.738282v-.027344l87.714844-87.710938zm0 0" fill="#fff3f2"/><path d="m377.890625 137.035156-87.757813 87.753906v-.015624l87.742188-87.738282zm0 0" fill="#fff3f2"/><path d="m377.914062 137.035156-87.78125 87.78125v-.027344l87.757813-87.753906zm0 0" fill="#fff3f2"/><path d="m392.535156 137.035156-93.867187 93.863282h-8.535157v-6.082032l87.78125-87.78125zm0 0" fill="#fff3f2"/><path d="m392.542969 137.035156-93.867188 93.863282h-.007812l93.867187-93.863282zm0 0" fill="#fff3f2"/><path d="m392.542969 137.035156-93.867188 93.863282zm0 0" fill="#faf1f2"/><path d="m392.550781 137.035156-93.867187 93.863282h-.007813l93.867188-93.863282zm0 0" fill="#f6eff2"/><path d="m392.550781 137.035156-93.867187 93.863282zm0 0" fill="#f2edf2"/><path d="m392.558594 137.035156-93.867188 93.863282h-.007812l93.867187-93.863282zm0 0" fill="#eeebf2"/><path d="m392.558594 137.035156-93.867188 93.863282zm0 0" fill="#ebeaf2"/><path d="m392.566406 137.035156-93.867187 93.863282h-.007813l93.867188-93.863282zm0 0" fill="#e8e8f2"/><path d="m392.566406 137.035156-93.867187 93.863282zm0 0" fill="#e5e7f2"/><path d="m392.574219 137.035156-93.863281 93.863282h-.011719l93.867187-93.863282zm0 0" fill="#e3e6f2"/><path d="m392.574219 137.035156-93.863281 93.863282zm0 0" fill="#e1e5f2"/><path d="m392.585938 137.035156-93.867188 93.863282h-.007812l93.863281-93.863282zm0 0" fill="#dfe4f2"/><path d="m392.585938 137.035156-93.867188 93.863282zm0 0" fill="#dde4f2"/><path d="m392.59375 137.035156-93.867188 93.863282h-.007812l93.867188-93.863282zm0 0" fill="#dce3f2"/><path d="m392.59375 137.035156-93.867188 93.863282zm0 0" fill="#dae2f2"/><path d="m392.601562 137.035156-93.867187 93.863282h-.007813l93.867188-93.863282zm0 0" fill="#d9e2f2"/><path d="m392.601562 137.035156-93.867187 93.863282zm0 0" fill="#d8e1f2"/><path d="m392.609375 137.035156-93.867187 93.863282h-.007813l93.867187-93.863282zm0 0" fill="#d7e1f2"/><path d="m392.609375 137.035156-93.867187 93.863282zm0 0" fill="#d7e1f2"/><path d="m392.617188 137.035156-93.863282 93.863282h-.011718l93.867187-93.863282zm0 0" fill="#d6e0f2"/><path d="m392.617188 137.035156-93.863282 93.863282zm0 0" fill="#d5e0f2"/><path d="m392.628906 137.035156-93.867187 93.863282h-.007813l93.863282-93.863282zm0 0" fill="#d5e0f2"/><path d="m392.628906 137.035156-93.867187 93.863282zm0 0" fill="#d5e0f2"/><path d="m392.636719 137.035156-93.867188 93.863282h-.007812l93.867187-93.863282zm0 0" fill="#d4e0f2"/><path d="m392.636719 137.035156-93.867188 93.863282zm0 0" fill="#d4dff2"/><path d="m392.644531 137.035156-93.867187 93.863282h-.007813l93.867188-93.863282zm0 0" fill="#d4dff2"/><path d="m392.644531 137.035156-93.867187 93.863282zm0 0" fill="#d4dff2"/><path d="m392.652344 137.035156-93.867188 93.863282h-.007812l93.867187-93.863282zm0 0" fill="#d3dff2"/><path d="m392.660156 137.035156-93.867187 93.863282h-.007813l93.867188-93.863282zm0 0" fill="#d3dff2"/><path d="m392.660156 137.035156-93.867187 93.863282zm0 0" fill="#d3dff2"/><path d="m392.667969 137.035156-93.863281 93.863282h-.011719l93.867187-93.863282zm0 0" fill="#d3dff2"/><path d="m392.667969 137.035156-93.863281 93.863282zm0 0" fill="#d3dff2"/><path d="m392.679688 137.035156-93.867188 93.863282h-.007812l93.863281-93.863282zm0 0" fill="#d3dff2"/><path d="m392.679688 137.035156-93.867188 93.863282zm0 0" fill="#d3dff2"/><path d="m392.6875 137.035156-93.867188 93.863282h-.007812l93.867188-93.863282zm0 0" fill="#d3dff2"/><path d="m392.6875 137.035156-93.867188 93.863282zm0 0" fill="#d3dff2"/><path d="m392.695312 137.035156-93.867187 93.863282h-.007813l93.867188-93.863282zm0 0" fill="#d3dff2"/><path d="m392.695312 137.035156-93.867187 93.863282zm0 0" fill="#d3dff2"/><path d="m392.703125 137.035156-93.867187 93.863282h-.007813l93.867187-93.863282zm0 0" fill="#d3dff2"/><path d="m392.703125 137.035156-93.867187 93.863282zm0 0" fill="#d3dff2"/><path d="m392.710938 137.035156-93.863282 93.863282h-.011718l93.867187-93.863282zm0 0" fill="#d3dff2"/><path d="m392.710938 137.035156-93.863282 93.863282zm0 0" fill="#d3dff2"/><path d="m392.722656 137.035156-93.867187 93.863282h-.007813l93.863282-93.863282zm0 0" fill="#d3dff2"/><path d="m392.722656 137.035156-93.867187 93.863282zm0 0" fill="#d3dff2"/><path d="m392.730469 137.035156-93.867188 93.863282h-.007812l93.867187-93.863282zm0 0" fill="#d3dff2"/><path d="m401.066406 175.246094-55.652344 55.652344h-46.550781l93.867188-93.863282h8.335937zm0 0" fill="#d3dff2"/><path d="m401.066406 175.253906-55.644531 55.644532h-.007813l55.652344-55.652344zm0 0" fill="#d3dff2"/><path d="m401.066406 175.253906-55.644531 55.644532zm0 0" fill="#d4dff2"/><path d="m401.066406 175.261719-55.636718 55.636719h-.007813l55.644531-55.644532zm0 0" fill="#d5e0f2"/><path d="m401.066406 175.261719-55.636718 55.636719zm0 0" fill="#d6e0f2"/><path d="m401.066406 175.269531-55.628906 55.628907h-.007812l55.636718-55.636719zm0 0" fill="#d7e1f2"/><path d="m401.066406 175.269531-55.628906 55.628907zm0 0" fill="#d8e1f2"/><path d="m401.066406 175.28125-55.621094 55.617188h-.007812l55.628906-55.628907zm0 0" fill="#d9e2f2"/><path d="m401.066406 175.28125-55.621094 55.617188zm0 0" fill="#dae2f2"/><path d="m401.066406 175.289062-55.613281 55.609376h-.007813l55.621094-55.617188zm0 0" fill="#dbe3f2"/><path d="m401.066406 175.289062-55.613281 55.609376zm0 0" fill="#dce3f2"/><path d="m401.066406 175.296875-55.601562 55.601563h-.011719l55.613281-55.609376zm0 0" fill="#dde4f2"/><path d="m401.066406 175.296875-55.601562 55.601563zm0 0" fill="#dee4f2"/><path d="m401.066406 175.304688-55.59375 55.59375h-.007812l55.601562-55.601563zm0 0" fill="#dfe5f2"/><path d="m401.066406 175.304688-55.59375 55.59375zm0 0" fill="#e0e5f2"/><path d="m401.066406 175.3125-55.585937 55.585938h-.007813l55.59375-55.59375zm0 0" fill="#e1e6f2"/><path d="m401.066406 175.3125-55.585937 55.585938zm0 0" fill="#e2e6f2"/><path d="m401.066406 175.324219-55.578125 55.574219h-.007812l55.585937-55.585938zm0 0" fill="#e3e6f2"/><path d="m401.066406 175.324219-55.578125 55.574219zm0 0" fill="#e4e7f2"/><path d="m401.066406 175.332031-55.570312 55.566407h-.007813l55.578125-55.574219zm0 0" fill="#e5e7f2"/><path d="m401.066406 175.332031-55.570312 55.566407zm0 0" fill="#e6e8f2"/><path d="m401.066406 175.339844-55.558594 55.558594h-.011718l55.570312-55.566407zm0 0" fill="#e7e8f2"/><path d="m401.066406 175.339844-55.558594 55.558594zm0 0" fill="#e8e9f2"/><path d="m401.066406 175.347656-55.550781 55.550782h-.007813l55.558594-55.558594zm0 0" fill="#eae9f2"/><path d="m401.066406 175.347656-55.550781 55.550782zm0 0" fill="#ebeaf2"/><path d="m401.066406 175.355469-55.542968 55.542969h-.007813l55.550781-55.550782zm0 0" fill="#eceaf2"/><path d="m401.066406 175.355469-55.542968 55.542969zm0 0" fill="#edebf2"/><path d="m401.066406 175.363281-55.535156 55.535157h-.007812l55.542968-55.542969zm0 0" fill="#eeebf2"/><path d="m401.066406 175.375-55.527344 55.523438h-.007812l55.535156-55.535157zm0 0" fill="#efecf2"/><path d="m401.066406 175.375-55.527344 55.523438zm0 0" fill="#f0ecf2"/><path d="m401.066406 175.382812-55.519531 55.515626h-.007813l55.527344-55.523438zm0 0" fill="#f1ecf2"/><path d="m401.066406 175.382812-55.519531 55.515626zm0 0" fill="#f2edf2"/><path d="m401.066406 175.390625-55.507812 55.507813h-.011719l55.519531-55.515626zm0 0" fill="#f3edf2"/><path d="m401.066406 175.390625-55.507812 55.507813zm0 0" fill="#f4eef2"/><path d="m401.066406 175.398438-55.5 55.5h-.007812l55.507812-55.507813zm0 0" fill="#f5eef2"/><path d="m401.066406 175.398438-55.5 55.5zm0 0" fill="#f6eff2"/><path d="m401.066406 175.40625-55.492187 55.492188h-.007813l55.5-55.5zm0 0" fill="#f7eff2"/><path d="m401.066406 175.40625-55.492187 55.492188zm0 0" fill="#f8f0f2"/><path d="m401.066406 175.417969-55.484375 55.480469h-.007812l55.492187-55.492188zm0 0" fill="#f9f0f2"/><path d="m401.066406 175.417969-55.484375 55.480469zm0 0" fill="#faf1f2"/><path d="m401.066406 175.425781-55.476562 55.472657h-.007813l55.484375-55.480469zm0 0" fill="#fbf1f2"/><path d="m401.066406 175.425781-55.476562 55.472657zm0 0" fill="#fcf2f2"/><path d="m401.066406 175.433594-55.464844 55.464844h-.011718l55.476562-55.472657zm0 0" fill="#fdf2f2"/><path d="m401.066406 175.433594-55.464844 55.464844zm0 0" fill="#fef3f2"/><path d="m401.066406 175.441406-55.457031 55.457032h-.007813l55.464844-55.464844zm0 0" fill="#fff3f2"/><path d="m401.066406 196.671875-34.226562 34.226563h-21.230469l55.457031-55.457032zm0 0" fill="#fff3f2"/><path d="m401.066406 196.671875-34.226562 34.226563zm0 0" fill="#fff3f2"/><path d="m401.066406 196.679688-34.21875 34.21875h-.007812l34.226562-34.226563zm0 0" fill="#fef3f2"/><path d="m401.066406 196.679688-34.21875 34.21875zm0 0" fill="#fdf2f2"/><path d="m401.066406 196.691406-34.210937 34.207032h-.007813l34.21875-34.21875zm0 0" fill="#fcf2f2"/><path d="m401.066406 196.691406-34.210937 34.207032zm0 0" fill="#fbf1f2"/><path d="m401.066406 196.699219-34.203125 34.199219h-.007812l34.210937-34.207032zm0 0" fill="#faf1f2"/><path d="m401.066406 196.699219-34.203125 34.199219zm0 0" fill="#f9f0f2"/><path d="m401.066406 196.707031-34.191406 34.191407h-.011719l34.203125-34.199219zm0 0" fill="#f8f0f2"/><path d="m401.066406 196.707031-34.191406 34.191407zm0 0" fill="#f7eff2"/><path d="m401.066406 196.714844-34.183594 34.183594h-.007812l34.191406-34.191407zm0 0" fill="#f6eff2"/><path d="m401.066406 196.714844-34.183594 34.183594zm0 0" fill="#f5eef2"/><path d="m401.066406 196.722656-34.175781 34.175782h-.007813l34.183594-34.183594zm0 0" fill="#f4eef2"/><path d="m401.066406 196.722656-34.175781 34.175782zm0 0" fill="#f3edf2"/><path d="m401.066406 196.734375-34.167968 34.164063h-.007813l34.175781-34.175782zm0 0" fill="#f2edf2"/><path d="m401.066406 196.742188-34.160156 34.15625h-.007812l34.167968-34.164063zm0 0" fill="#f1ecf2"/><path d="m401.066406 196.742188-34.160156 34.15625zm0 0" fill="#f0ecf2"/><path d="m401.066406 196.75-34.148437 34.148438h-.011719l34.160156-34.15625zm0 0" fill="#efecf2"/><path d="m401.066406 196.75-34.148437 34.148438zm0 0" fill="#eeebf2"/><path d="m401.066406 196.757812-34.140625 34.140626h-.007812l34.148437-34.148438zm0 0" fill="#edebf2"/><path d="m401.066406 196.757812-34.140625 34.140626zm0 0" fill="#eceaf2"/><path d="m401.066406 196.765625-34.132812 34.132813h-.007813l34.140625-34.140626zm0 0" fill="#ebeaf2"/><path d="m401.066406 196.765625-34.132812 34.132813zm0 0" fill="#eae9f2"/><path d="m401.066406 196.773438-34.125 34.125h-.007812l34.132812-34.132813zm0 0" fill="#e8e9f2"/><path d="m401.066406 196.773438-34.125 34.125zm0 0" fill="#e7e8f2"/><path d="m401.066406 196.785156-34.117187 34.113282h-.007813l34.125-34.125zm0 0" fill="#e6e8f2"/><path d="m401.066406 196.785156-34.117187 34.113282zm0 0" fill="#e5e7f2"/><path d="m401.066406 196.792969-34.109375 34.105469h-.007812l34.117187-34.113282zm0 0" fill="#e4e7f2"/><path d="m401.066406 196.792969-34.109375 34.105469zm0 0" fill="#e3e6f2"/><path d="m401.066406 196.800781-34.097656 34.097657h-.011719l34.109375-34.105469zm0 0" fill="#e2e6f2"/><path d="m401.066406 196.800781-34.097656 34.097657zm0 0" fill="#e1e6f2"/><path d="m401.066406 196.808594-34.089844 34.089844h-.007812l34.097656-34.097657zm0 0" fill="#e0e5f2"/><path d="m401.066406 196.808594-34.089844 34.089844zm0 0" fill="#dfe5f2"/><path d="m401.066406 196.816406-34.082031 34.082032h-.007813l34.089844-34.089844zm0 0" fill="#dee4f2"/><path d="m401.066406 196.816406-34.082031 34.082032zm0 0" fill="#dde4f2"/><path d="m401.066406 196.828125-34.074218 34.070313h-.007813l34.082031-34.082032zm0 0" fill="#dce3f2"/><path d="m401.066406 196.828125-34.074218 34.070313zm0 0" fill="#dbe3f2"/><path d="m401.066406 196.835938-34.066406 34.0625h-.007812l34.074218-34.070313zm0 0" fill="#dae2f2"/><path d="m401.066406 196.835938-34.066406 34.0625zm0 0" fill="#d9e2f2"/><path d="m401.066406 196.84375-34.054687 34.054688h-.011719l34.066406-34.0625zm0 0" fill="#d8e1f2"/><path d="m401.066406 196.84375-34.054687 34.054688zm0 0" fill="#d7e1f2"/><path d="m401.066406 196.851562-34.046875 34.046876h-.007812l34.054687-34.054688zm0 0" fill="#d6e0f2"/><path d="m401.066406 196.859375-34.039062 34.039063h-.007813l34.046875-34.046876zm0 0" fill="#d5e0f2"/><path d="m401.066406 196.859375-34.039062 34.039063zm0 0" fill="#d4dff2"/><path d="m401.066406 196.867188-34.03125 34.03125h-.007812l34.039062-34.039063zm0 0" fill="#d3dff2"/><path d="m367.035156 230.898438 34.03125-34.03125v34.03125zm0 0" fill="#d3dff2"/><path d="m503.464844 273.566406v21.332032c0 2.359374-1.910156 4.269531-4.265625 4.269531h-268.800781v-34.132813h264.535156c4.710937 0 8.53125 3.820313 8.53125 8.53125zm0 0" fill="var(--resa-icon-light, #a4c2f7)"/><path d="m503.464844 77.300781v21.332031c0 2.355469-1.910156 4.265626-4.265625 4.265626h-268.800781v-34.132813h264.535156c4.710937 0 8.53125 3.820313 8.53125 8.535156zm0 0" fill="var(--resa-icon-light, #a4c2f7)"/><path d="m25.601562.5h179.199219c9.425781 0 17.066407 7.640625 17.066407 17.066406v8.535156c0 9.425782-7.640626 17.066407-17.066407 17.066407h-179.199219c-9.425781 0-17.066406-7.640625-17.066406-17.066407v-8.535156c0-9.425781 7.640625-17.066406 17.066406-17.066406zm0 0" fill="#e3e7f2"/><path d="m477.867188 273.566406v21.332032c0 2.359374-1.910157 4.269531-4.265626 4.269531h-243.203124v-34.132813h238.933593c4.714844 0 8.535157 3.820313 8.535157 8.53125zm0 0" fill="#e3e7f2"/><path d="m477.867188 77.300781v21.332031c0 2.355469-1.910157 4.265626-4.265626 4.265626h-243.203124v-34.132813h238.933593c4.714844 0 8.535157 3.820313 8.535157 8.535156zm0 0" fill="#e3e7f2"/><path d="m452.265625 350.707031v113.410157h-187.734375l.003906-113.410157c-.058594-9.503906 7.5625-17.277343 17.066406-17.40625h153.597657c9.503906.128907 17.125 7.902344 17.066406 17.40625zm0 0" fill="var(--resa-icon-light, #a4c2f7)"/><path d="m153.601562 316.234375v149.246094h-76.800781v-149.246094c.027344-9.414063 7.652344-17.039063 17.066407-17.066406h42.667968c9.414063.027343 17.035156 7.652343 17.066406 17.066406zm0 0" fill="#e3e7f2"/><path d="m426.667969 350.707031v113.410157h-162.136719l.003906-113.410157c-.058594-9.503906 7.5625-17.277343 17.066406-17.40625h128c9.503907.128907 17.121094 7.902344 17.066407 17.40625zm0 0" fill="#e3e7f2"/><path d="m17.066406 461.300781h477.867188c4.710937 0 8.53125 3.820313 8.53125 8.53125v17.066407c0 4.714843-3.820313 8.535156-8.53125 8.535156h-477.867188c-4.710937 0-8.53125-3.820313-8.53125-8.535156v-17.066407c0-4.710937 3.820313-8.53125 8.53125-8.53125zm0 0" fill="#7fabfa"/><path d="m17.066406 461.300781h452.265625c4.714844 0 8.535157 3.820313 8.535157 8.53125v17.066407c0 4.714843-3.820313 8.535156-8.535157 8.535156h-452.265625c-4.710937 0-8.53125-3.820313-8.53125-8.535156v-17.066407c0-4.710937 3.820313-8.53125 8.53125-8.53125zm0 0" fill="var(--resa-icon-light, #a4c2f7)"/><path d="m34.132812 486.898438v-17.066407c0-4.710937 3.820313-8.53125 8.535157-8.53125h8.53125v-418.132812c-9.414063-.03125-17.039063-7.652344-17.066407-17.066407v-8.535156c.027344-9.414062 7.652344-17.039062 17.066407-17.066406h-25.597657c-9.414062.027344-17.039062 7.652344-17.066406 17.066406v8.535156c.027344 9.414063 7.652344 17.035157 17.066406 17.066407v418.132812h-8.535156c-4.710937 0-8.53125 3.820313-8.53125 8.53125v17.066407c0 4.714843 3.820313 8.535156 8.53125 8.535156h25.601563c-4.714844 0-8.535157-3.820313-8.535157-8.535156zm0 0" fill="#fff"/><path d="m34.132812 43.167969v418.132812h-17.066406v-418.132812zm0 0" fill="#fff"/><g fill="var(--resa-icon-primary, #428dff)"><path d="m25.601562 85.832031c4.710938 0 8.53125-3.820312 8.53125-8.53125v-34.132812h-17.066406v34.132812c0 4.710938 3.820313 8.53125 8.535156 8.53125zm0 0"/><path d="m17.066406 461.300781h17.066406v-315.734375c0-4.710937-3.820312-8.53125-8.53125-8.53125-4.714843 0-8.535156 3.820313-8.535156 8.53125zm0 0"/><path d="m34.132812 111.433594c-.03125-2.257813-.917968-4.421875-2.472656-6.058594l-1.28125-1.023438c-.476562-.324218-.992187-.582031-1.535156-.769531-.484375-.246093-1.003906-.417969-1.535156-.511719-.566406-.09375-1.136719-.152343-1.707032-.171874-2.261718.035156-4.425781.917968-6.058593 2.476562-.773438.816406-1.382813 1.769531-1.792969 2.816406-1.289062 3.183594-.585938 6.824219 1.792969 9.300782.8125.769531 1.769531 1.378906 2.8125 1.792968 1.027343.4375 2.128906.667969 3.246093.679688 2.257813-.03125 4.421876-.914063 6.058594-2.472656 1.554688-1.636719 2.441406-3.800782 2.472656-6.058594zm0 0"/><path d="m230.398438 469.832031h-204.796876c-4.714843 0-8.535156-3.820312-8.535156-8.53125 0-4.714843 3.820313-8.535156 8.535156-8.535156h196.265626v-401.066406h-196.265626c-4.714843 0-8.535156-3.820313-8.535156-8.53125 0-4.714844 3.820313-8.535157 8.535156-8.535157h204.796876c4.714843 0 8.535156 3.820313 8.535156 8.535157v418.132812c0 4.710938-3.820313 8.53125-8.535156 8.53125zm0 0"/><path d="m494.933594 503.964844h-477.867188c-9.425781 0-17.066406-7.640625-17.066406-17.066406v-17.066407c0-9.425781 7.640625-17.066406 17.066406-17.066406h477.867188c9.425781 0 17.066406 7.640625 17.066406 17.066406v17.066407c0 9.425781-7.640625 17.066406-17.066406 17.066406zm-477.867188-34.132813v17.066407h477.867188v-17.066407zm0 0"/><path d="m234.667969 60.234375h-204.800781c-14.140626 0-25.601563-11.460937-25.601563-25.601563v-8.53125c0-14.140624 11.460937-25.601562 25.601563-25.601562h204.800781c14.136719 0 25.597656 11.460938 25.597656 25.601562v8.53125c0 14.140626-11.460937 25.601563-25.597656 25.601563zm-204.800781-42.667969c-4.714844 0-8.535157 3.820313-8.535157 8.535156v8.53125c0 4.714844 3.820313 8.535157 8.535157 8.535157h204.800781c4.710937 0 8.53125-3.820313 8.53125-8.535157v-8.53125c0-4.714843-3.820313-8.535156-8.53125-8.535156zm0 0"/><path d="m179.199219 469.832031h-102.398438c-4.714843 0-8.535156-3.820312-8.535156-8.53125v-145.066406c0-14.140625 11.460937-25.601563 25.601563-25.601563h68.265624c14.140626 0 25.601563 11.460938 25.601563 25.601563v145.066406c0 4.710938-3.820313 8.53125-8.535156 8.53125zm-93.867188-17.066406h85.335938v-136.53125c0-4.714844-3.820313-8.535156-8.535157-8.535156h-68.265624c-4.714844 0-8.535157 3.820312-8.535157 8.535156zm0 0"/><path d="m187.734375 213.832031h-119.46875c-9.425781 0-17.066406-7.640625-17.066406-17.066406v-93.867187c0-9.425782 7.640625-17.066407 17.066406-17.066407h119.46875c9.425781 0 17.066406 7.640625 17.066406 17.066407v93.867187c0 9.425781-7.640625 17.066406-17.066406 17.066406zm-119.46875-110.933593v93.867187h119.46875v-93.867187zm0 0"/><path d="m110.933594 213.832031c-4.714844 0-8.535156-3.820312-8.535156-8.53125v-110.933593c0-4.714844 3.820312-8.535157 8.535156-8.535157 4.710937 0 8.53125 3.820313 8.53125 8.535157v110.933593c0 4.710938-3.820313 8.53125-8.53125 8.53125zm0 0"/><path d="m196.265625 145.566406h-85.332031c-4.714844 0-8.535156-3.820312-8.535156-8.53125 0-4.714844 3.820312-8.535156 8.535156-8.535156h85.332031c4.714844 0 8.535156 3.820312 8.535156 8.535156 0 4.710938-3.820312 8.53125-8.535156 8.53125zm0 0"/><path d="m418.132812 239.433594h-119.464843c-9.425781 0-17.066407-7.640625-17.066407-17.066406v-76.800782c0-9.425781 7.640626-17.066406 17.066407-17.066406h119.464843c9.425782 0 17.066407 7.640625 17.066407 17.066406v76.800782c0 9.425781-7.640625 17.066406-17.066407 17.066406zm-119.464843-93.867188v76.800782h119.464843v-76.800782zm0 0"/><path d="m341.332031 239.433594c-4.710937 0-8.53125-3.820313-8.53125-8.535156v-93.863282c0-4.714844 3.820313-8.535156 8.53125-8.535156 4.714844 0 8.535157 3.820312 8.535157 8.535156v93.863282c0 4.714843-3.820313 8.535156-8.535157 8.535156zm0 0"/><path d="m426.667969 188.234375h-85.335938c-4.710937 0-8.53125-3.820313-8.53125-8.535156 0-4.710938 3.820313-8.53125 8.53125-8.53125h85.335938c4.710937 0 8.53125 3.820312 8.53125 8.53125 0 4.714843-3.820313 8.535156-8.53125 8.535156zm0 0"/><path d="m503.464844 307.699219h-273.066406c-4.710938 0-8.53125-3.820313-8.53125-8.53125v-34.132813c0-4.714844 3.820312-8.535156 8.53125-8.535156h264.535156c9.425781 0 17.066406 7.640625 17.066406 17.066406v25.601563c0 4.710937-3.820312 8.53125-8.535156 8.53125zm-264.53125-17.066407h256v-17.066406h-256zm0 0"/><path d="m503.464844 111.433594h-273.066406c-4.710938 0-8.53125-3.820313-8.53125-8.535156v-34.132813c0-4.710937 3.820312-8.53125 8.53125-8.53125h264.535156c9.425781 0 17.066406 7.640625 17.066406 17.066406v25.597657c0 4.714843-3.820312 8.535156-8.535156 8.535156zm-264.53125-17.066406h256v-17.066407h-256zm0 0"/><path d="m486.398438 273.566406h-256c-4.710938 0-8.53125-3.820312-8.53125-8.53125v-162.136718c0-4.710938 3.820312-8.53125 8.53125-8.53125h256c4.714843 0 8.535156 3.820312 8.535156 8.53125v162.136718c0 4.710938-3.820313 8.53125-8.535156 8.53125zm-247.464844-17.066406h238.933594v-145.066406h-238.933594zm0 0"/><path d="m486.398438 469.832031c-4.710938 0-8.53125-3.820312-8.53125-8.53125v-162.132812c0-4.714844 3.820312-8.535157 8.53125-8.535157 4.714843 0 8.535156 3.820313 8.535156 8.535157v162.132812c0 4.710938-3.820313 8.53125-8.535156 8.53125zm0 0"/><path d="m452.265625 469.832031h-187.730469c-4.714844 0-8.535156-3.820312-8.535156-8.53125v-110.933593c0-14.140626 11.460938-25.601563 25.601562-25.601563h153.597657c14.140625 0 25.601562 11.460937 25.601562 25.601563v110.933593c0 4.710938-3.820312 8.53125-8.535156 8.53125zm-179.199219-17.066406h170.667969v-102.398437c0-4.714844-3.820313-8.535157-8.535156-8.535157h-153.597657c-4.714843 0-8.535156 3.820313-8.535156 8.535157zm0 0"/><path d="m298.667969 375.964844h-34.132813c-4.714844 0-8.535156-3.820313-8.535156-8.53125 0-4.714844 3.820312-8.535156 8.535156-8.535156h34.132813c4.710937 0 8.53125 3.820312 8.53125 8.535156 0 4.710937-3.820313 8.53125-8.53125 8.53125zm0 0"/><path d="m452.265625 375.964844h-119.464844c-4.714843 0-8.535156-3.820313-8.535156-8.53125 0-4.714844 3.820313-8.535156 8.535156-8.535156h119.464844c4.714844 0 8.535156 3.820312 8.535156 8.535156 0 4.710937-3.820312 8.53125-8.535156 8.53125zm0 0"/><path d="m392.535156 418.632812h-128c-4.714844 0-8.535156-3.820312-8.535156-8.53125 0-4.714843 3.820312-8.535156 8.535156-8.535156h128c4.710938 0 8.53125 3.820313 8.53125 8.535156 0 4.710938-3.820312 8.53125-8.53125 8.53125zm0 0"/><path d="m153.601562 393.035156c-2.261718-.035156-4.425781-.917968-6.058593-2.476562-.773438-.816406-1.382813-1.773438-1.792969-2.816406-.910156-2.066407-.910156-4.417969 0-6.484376.410156-1.042968 1.019531-2 1.792969-2.816406.828125-.753906 1.78125-1.359375 2.8125-1.792968 2.078125-.851563 4.410156-.851563 6.488281 0 2.144531.777343 3.832031 2.464843 4.605469 4.609374.4375 1.027344.671875 2.128907.683593 3.242188-.03125 2.257812-.917968 4.421875-2.472656 6.058594-.832031.753906-1.785156 1.359375-2.816406 1.792968-1.011719.476563-2.125.710938-3.242188.683594zm0 0"/></g></svg>