<svg height="512" viewBox="0 0 60 54" width="512" xmlns="http://www.w3.org/2000/svg"><style>:root{--resa-icon-primary:#428dff;--resa-icon-secondary:#7facfa;--resa-icon-light:#a4c2f7;--resa-icon-bg:#e8edfc;}</style><g id="Page-1" fill="none" fill-rule="evenodd"><g id="074---Flats"><path id="Path" d="m30 17.75v31.25h-24v-31.29c.07169391-.0266743.13908008-.0637367.2-.11l11.8-8.85z" fill="var(--resa-icon-bg, #e8edfc)"/><path id="Path" d="m18 8.75-1.5 1.125 10.5 7.875v31.25h3v-31.25z" fill="var(--resa-icon-bg, #e8edfc)"/><path id="Path" d="m54 17.71v31.29h-24v-31.25l12-9 11.8 8.85c.0609199.0462633.1283061.0833257.2.11z" fill="var(--resa-icon-bg, #e8edfc)"/><path id="Path" d="m53.8 17.6-11.8-8.85-1.5 1.125 10.3 7.725c.0609199.0462633.1283061.0833257.2.11v31.29h3v-31.29c-.0716939-.0266743-.1390801-.0637367-.2-.11z" fill="var(--resa-icon-bg, #e8edfc)"/><path id="Path" d="m57.6 14.2-2.4 3.2c-.2769475.3732368-.7769299.502399-1.2.31-.0716939-.0266743-.1390801-.0637367-.2-.11l-11.8-8.85-12 9-12-9-11.8 8.85c-.06091992.0462633-.12830609.0833257-.2.11-.42307006.192399-.92305251.0632368-1.2-.31l-2.4-3.2c-.33137085-.4418278-.2418278-1.0686292.2-1.4l14.8-11.1c.3544214-.27004762.8455786-.27004762 1.2 0l11.4 8.55 11.4-8.55c.3544214-.27004762.8455786-.27004762 1.2 0l14.8 11.1c.4418278.3313708.5313708.9581722.2 1.4z" fill="var(--resa-icon-bg, #e8edfc)"/><path id="Path" d="m57.4 12.8-14.8-11.1c-.3544214-.27004762-.8455786-.27004762-1.2 0l-.9.675 13.9 10.425c.4418278.3313708.5313708.9581722.2 1.4l-1.92 2.56 1.12.84c.0609199.0462633.1283061.0833257.2.11.4230701.192399.9230525.0632368 1.2-.31l2.4-3.2c.3313708-.4418278.2418278-1.0686292-.2-1.4z" fill="var(--resa-icon-light, #a4c2f7)"/><path id="Path" d="m59 51c-.0081672 1.1011688-.8988312 1.9918328-2 2h-54c-1.10320187-.0032948-1.9967052-.8967981-2-2-.00282307-.5305905.2101411-1.0395388.59-1.41.3704612-.3798589.87940947-.5928231 1.41-.59h54c1.1032019.0032948 1.9967052.8967981 2 2z" fill="var(--resa-icon-bg, #e8edfc)"/><path id="Path" d="m57 49h-3c1.1032019.0032948 1.9967052.8967981 2 2-.0081672 1.1011688-.8988312 1.9918328-2 2h3c1.1011688-.0081672 1.9918328-.8988312 2-2-.0032948-1.1032019-.8967981-1.9967052-2-2z" fill="var(--resa-icon-bg, #e8edfc)"/><path id="Path" d="m15 39h6c.5522847 0 1 .4477153 1 1v9h-8v-9c0-.5522847.4477153-1 1-1z" fill="var(--resa-icon-light, #a4c2f7)"/><path id="Path" d="m39 39h6c.5522847 0 1 .4477153 1 1v9h-8v-9c0-.5522847.4477153-1 1-1z" fill="var(--resa-icon-light, #a4c2f7)"/><rect id="Rectangle" fill="var(--resa-icon-bg, #e8edfc)" height="5" rx="1" width="5" x="10" y="30"/><rect id="Rectangle" fill="var(--resa-icon-bg, #e8edfc)" height="5" rx="1" width="5" x="21" y="30"/><rect id="Rectangle" fill="var(--resa-icon-bg, #e8edfc)" height="5" rx="1" width="5" x="10" y="19"/><rect id="Rectangle" fill="var(--resa-icon-bg, #e8edfc)" height="5" rx="1" width="5" x="21" y="19"/><rect id="Rectangle" fill="var(--resa-icon-bg, #e8edfc)" height="5" rx="1" width="5" x="34" y="30"/><rect id="Rectangle" fill="var(--resa-icon-bg, #e8edfc)" height="5" rx="1" width="5" x="45" y="30"/><rect id="Rectangle" fill="var(--resa-icon-bg, #e8edfc)" height="5" rx="1" width="5" x="34" y="19"/><rect id="Rectangle" fill="var(--resa-icon-bg, #e8edfc)" height="5" rx="1" width="5" x="45" y="19"/><path id="Path" d="m9 17.71c-.42307006.192399-.92305251.0632368-1.2-.31l-2.4-3.2c-.15912989-.2121732-.22745677-.4788704-.18994949-.7414214.03750727-.2625509.1777763-.4994487.38994949-.6585786l13.9-10.425-.9-.675c-.3544214-.27004762-.8455786-.27004762-1.2 0l-14.8 11.1c-.4418278.3313708-.53137085.9581722-.2 1.4l2.4 3.2c.27694749.3732368.77692994.502399 1.2.31v31.29h3z" fill="#fff"/><path id="Path" d="m3 53h3c-1.10320187-.0032948-1.9967052-.8967981-2-2 .00816722-1.1011688.89883122-1.9918328 2-2.0000277l-3 .0000277c-.53059053-.0028231-1.0395388.2101411-1.41.59-.3798589.3704612-.59282307.8794095-.59 1.41.0032948 1.1032019.89679813 1.9967052 2 2z" fill="#fff"/><path id="Rectangle" d="m1.8 9.4h8v2h-8z" fill="#fff" transform="matrix(.8 -.6 .6 .8 -5.08 5.56)"/><g fill="var(--resa-icon-primary, #428dff)"><path id="Path" d="m5.82 11.4c-.55228475.0027614-1.00223858-.4427153-1.005-.995-.00276142-.55228475.44271525-1.00223858.995-1.005h.01c.55228475 0 1 .44771525 1 1 0 .5522847-.44771525 1-1 1z"/><path id="Shape" d="m57 48h-2v-29.3c.3986737-.1223219.7486079-.3672759 1-.7l2.4-3.2c.3182598-.4243464.4549135-.9577409.379899-1.4828427-.0750146-.5251019-.3555526-.9988975-.779899-1.3171573l-14.8-11.1c-.7118834-.53101142-1.6881166-.53101142-2.4 0l-10.8 8.1-10.8-8.1c-.7118834-.53101142-1.6881166-.53101142-2.4 0l-8.4 6.3c-.44182778.33137086-.53137082.95817219-.19999998 1.39999998.33137084.4418278.95817218.53137085 1.39999998.20000002l8.4-6.3 11.4 8.55c.3555556.2666667.8444444.2666667 1.2 0l11.4-8.55 14.8 11.1-2.4 3.2-.019-.01-11.781-8.84c-.3555556-.26666667-.8444444-.26666667-1.2 0l-11.4 8.55-11.4-8.55c-.3555556-.26666667-.8444444-.26666667-1.2 0l-11.782 8.837-.018.013-2.4-3.2c.44182779-.3313709.53137083-.9581722.19999999-1.4-.33137085-.4418278-.95817219-.5313708-1.39999999-.2-.8836556.6627417-1.0627417 1.9163444-.4 2.8l2.4 3.2c.2513921.3327241.60132635.5776781 1 .7v29.3h-2c-1.65685425 0-3 1.3431458-3 3s1.34314575 3 3 3h54c1.6568542 0 3-1.3431458 3-3s-1.3431458-3-3-3zm-15-38 11 8.25v29.75h-6v-8c0-1.1045695-.8954305-2-2-2h-6c-1.1045695 0-2 .8954305-2 2v8h-6v-29.75zm-3 38v-8h2v8zm4-8h2v8h-2zm-36-21.75 11-8.25 11 8.25v29.75h-6v-8c0-1.1045695-.8954305-2-2-2h-6c-1.1045695 0-2 .8954305-2 2v8h-6zm8 29.75v-8h2v8zm4-8h2v8h-2zm38 12h-54c-.55228475 0-1-.4477153-1-1s.44771525-1 1-1h54c.5522847 0 1 .4477153 1 1s-.4477153 1-1 1z" fill-rule="nonzero"/><path id="Shape" d="m14 36c1.1045695 0 2-.8954305 2-2v-3c0-1.1045695-.8954305-2-2-2h-3c-1.1045695 0-2 .8954305-2 2v3c0 1.1045695.8954305 2 2 2zm-3-5h3v3h-3z" fill-rule="nonzero"/><path id="Shape" d="m22 36h3c1.1045695 0 2-.8954305 2-2v-3c0-1.1045695-.8954305-2-2-2h-3c-1.1045695 0-2 .8954305-2 2v3c0 1.1045695.8954305 2 2 2zm0-5h3v3h-3z" fill-rule="nonzero"/><path id="Shape" d="m11 25h3c1.1045695 0 2-.8954305 2-2v-3c0-1.1045695-.8954305-2-2-2h-3c-1.1045695 0-2 .8954305-2 2v3c0 1.1045695.8954305 2 2 2zm0-5h3v3h-3z" fill-rule="nonzero"/><path id="Shape" d="m22 25h3c1.1045695 0 2-.8954305 2-2v-3c0-1.1045695-.8954305-2-2-2h-3c-1.1045695 0-2 .8954305-2 2v3c0 1.1045695.8954305 2 2 2zm0-5h3v3h-3z" fill-rule="nonzero"/><path id="Shape" d="m35 36h3c1.1045695 0 2-.8954305 2-2v-3c0-1.1045695-.8954305-2-2-2h-3c-1.1045695 0-2 .8954305-2 2v3c0 1.1045695.8954305 2 2 2zm0-5h3v3h-3z" fill-rule="nonzero"/><path id="Shape" d="m46 36h3c1.1045695 0 2-.8954305 2-2v-3c0-1.1045695-.8954305-2-2-2h-3c-1.1045695 0-2 .8954305-2 2v3c0 1.1045695.8954305 2 2 2zm0-5h3v3h-3z" fill-rule="nonzero"/><path id="Shape" d="m35 25h3c1.1045695 0 2-.8954305 2-2v-3c0-1.1045695-.8954305-2-2-2h-3c-1.1045695 0-2 .8954305-2 2v3c0 1.1045695.8954305 2 2 2zm0-5h3v3h-3z" fill-rule="nonzero"/><path id="Shape" d="m46 25h3c1.1045695 0 2-.8954305 2-2v-3c0-1.1045695-.8954305-2-2-2h-3c-1.1045695 0-2 .8954305-2 2v3c0 1.1045695.8954305 2 2 2zm0-5h3v3h-3z" fill-rule="nonzero"/></g></g></g></svg>