<svg id="Icons" height="512" viewBox="0 0 60 60" width="512" xmlns="http://www.w3.org/2000/svg"><style>:root{--resa-icon-primary:#428dff;--resa-icon-secondary:#7facfa;--resa-icon-light:#a4c2f7;--resa-icon-bg:#e8edfc;}</style><path d="m49 38v4 17h-44v-27z" fill="var(--resa-icon-bg, #e8edfc)"/><path d="m5 32v.409l41 5.591v4 17h3v-17-4z" fill="var(--resa-icon-bg, #e8edfc)"/><rect fill="var(--resa-icon-bg, #e8edfc)" height="12" rx="2" width="32" x="23" y="26"/><path d="m53 26h-3a2.006 2.006 0 0 1 2 2v8a2.006 2.006 0 0 1 -2 2h3a2.006 2.006 0 0 0 2-2v-8a2.006 2.006 0 0 0 -2-2z" fill="var(--resa-icon-bg, #e8edfc)"/><path d="m50.27 23h-1.27v3h-24a2.006 2.006 0 0 0 -2 2v8a2.006 2.006 0 0 0 2 2h1v3a3 3 0 0 1 -6 0v-3.5a2.5 2.5 0 0 0 -5 0v9.5a3 3 0 0 1 -6 0v-12.5a2.5 2.5 0 0 0 -2.5-2.5h-1.5v-9h-1.27a1 1 0 0 1 -.65-1.76l23.27-19.69a1 1 0 0 1 1.3 0l8.35 7.07v-6.62a1 1 0 0 1 1-1h6a1 1 0 0 1 1 1v13.38l6.92 5.86a1 1 0 0 1 -.65 1.76z" fill="var(--resa-icon-bg, #e8edfc)"/><path d="m50.92 21.24-6.92-5.86v-13.38a1 1 0 0 0 -1-1h-3a1 1 0 0 1 1 1v13.38l6.92 5.86a1 1 0 0 1 -.65 1.76h-1.27v3h3v-3h1.27a1 1 0 0 0 .65-1.76z" fill="var(--resa-icon-light, #a4c2f7)"/><path d="m23 36v-8a2.006 2.006 0 0 1 2-2h-3a2.006 2.006 0 0 0 -2 2v8a2.006 2.006 0 0 0 2 2h1v3a2.993 2.993 0 0 1 -.88 2.12 3.033 3.033 0 0 1 -.623.464 2.993 2.993 0 0 0 4.503-2.584v-3h-1a2.006 2.006 0 0 1 -2-2z" fill="var(--resa-icon-light, #a4c2f7)"/><path d="m42 47v9a3 3 0 0 1 -6 0v-9a1 1 0 0 1 1-1h4a1 1 0 0 1 1 1z" fill="var(--resa-icon-light, #a4c2f7)"/><path d="m29.274 2.69-1.35-1.45a1 1 0 0 0 -1.3 0l-23.27 19.69a1 1 0 0 0 .646 1.76h1.27v36h3v-38" fill="#fff"/><path d="m19.296 3.134h8v2h-8z" fill="#fff" transform="matrix(.763 -.646 .646 .763 2.842 16.026)"/><g fill="var(--resa-icon-primary, #428dff)"><path d="m22.651 3.37a1 1 0 1 0 1.409.118 1 1 0 0 0 -1.409-.118z"/><path d="m57 31h-1v-3a3 3 0 0 0 -3-3h-3v-1h.27a2 2 0 0 0 1.3-3.523l-6.57-5.56v-12.917a2 2 0 0 0 -2-2h-6a2 2 0 0 0 -2 2v4.463l-6.706-5.678a2.006 2.006 0 0 0 -2.588 0 1 1 0 0 0 1.294 1.528l8.35 7.07a1 1 0 0 0 1.65-.763v-6.62h6v13.38a1 1 0 0 0 .354.763l6.916 5.857h-1.27a1 1 0 0 0 -1 1v2h-23a3 3 0 0 0 -3 3v3a1 1 0 0 0 0 2v3a3 3 0 0 0 3 3v2a2 2 0 0 1 -4 0v-3.5a3.5 3.5 0 0 0 -7 0v9.5a2 2 0 0 1 -4 0v-12.5a3.5 3.5 0 0 0 -3.5-3.5h-.5v-8a1 1 0 0 0 -1-1l-1.282.011.007-.011 17.164-14.519a1 1 0 0 0 -1.289-1.527l-17.166 14.523a2 2 0 0 0 1.296 3.523h.27v34h-3a1 1 0 0 0 0 2h52a1 1 0 0 0 0-2h-3v-15h7a3 3 0 0 0 3-3v-6a3 3 0 0 0 -3-3zm-16 25a2 2 0 0 1 -4 0v-9h4zm7 2h-5.556a3.959 3.959 0 0 0 .556-2v-9a2 2 0 0 0 -2-2h-1a2 2 0 0 1 2-2h6zm0-17h-6a4 4 0 0 0 -4 4h-1a2 2 0 0 0 -2 2v9a3.959 3.959 0 0 0 .556 2h-29.556v-25h.5a1.5 1.5 0 0 1 1.5 1.5v12.5a4 4 0 0 0 8 0v-9.5a1.5 1.5 0 0 1 3 0v3.5a4 4 0 0 0 8 0v-2h21zm-23-4a1 1 0 0 1 -1-1v-8a1 1 0 0 1 1-1h28a1 1 0 0 1 1 1v8a1 1 0 0 1 -1 1zm33 3a1 1 0 0 1 -1 1h-7v-2h3a3 3 0 0 0 3-3v-3h1a1 1 0 0 1 1 1z"/><path d="m28 29h-1a1 1 0 0 0 0 2h1a1 1 0 0 0 0-2z"/><path d="m43 29h-11a1 1 0 0 0 0 2h11a1 1 0 0 0 0-2z"/></g></svg>