<svg height="512" viewBox="0 0 60 60" width="512" xmlns="http://www.w3.org/2000/svg"><style>:root{--resa-icon-primary:#428dff;--resa-icon-secondary:#7facfa;--resa-icon-light:#a4c2f7;--resa-icon-bg:#e8edfc;}</style><g id="Page-1" fill="none" fill-rule="evenodd"><g id="033---House-Key" fill-rule="nonzero" transform="translate(-1)"><path id="Shape" d="m59.93 26.62c-.6742696-6.3089584-5.8043547-11.2095327-12.1375503-11.5945381-6.3331955-.3850054-12.0191367 3.8580449-13.4526805 10.0388659-1.4335438 6.1808209 1.8041471 12.4935667 7.6602308 14.9356722v2.99c.0013014.1878433.076783.3675613.21.5l1.49 1.5c.2565158.2470558.2866439.64733.07.93l-1.4 1.87c-.2098803.2846498-.1801247.6799742.07.93l1.26 1.27c.2565158.2470558.2866439.64733.07.93l-1.35 1.81c-.2712226.360426-.4185591.7989273-.42 1.25.0021773.6105785.2683689 1.1903657.73 1.59l2.77 2.37 1.04.89c.2636098.2298183.6563902.2298183.92 0l4.29-3.68c.1601902-.1333294.2519786-.3315924.25-.54v-14.62c5.3163846-2.2042868 8.5449808-7.6477082 7.93-13.37zm-15.93-3.62c0-1.6568542 1.3431458-3 3-3s3 1.3431458 3 3-1.3431458 3-3 3-3-1.3431458-3-3z" fill="var(--resa-icon-bg, #e8edfc)"/><path id="Shape" d="m59.93 26.62c-.6617614-6.0520446-5.4220937-10.8414287-11.47-11.54-.9792137-.1074271-1.9673842-.1047437-2.946.008 5.8731442.6846522 10.5433317 5.2484807 11.3630801 11.104297.8197484 5.8558162-2.4177048 11.5266255-7.8770801 13.797703v14.62c.0019786.2084076-.0898098.4066706-.25.54l-3.25 2.789 1.041.891c.2636098.2298183.6563902.2298183.92 0l4.29-3.68c.1601902-.1333294.2519786-.3315924.25-.54v-14.62c5.3159906-2.2046211 8.5441317-7.6479616 7.929-13.37z" fill="var(--resa-icon-light, #a4c2f7)"/><path id="Shape" d="m38.55 18.13c-.9752503.8231377-1.8183979 1.7910712-2.5 2.87h-33.05c-.40891353.0024719-.77813185-.2442714-.93227657-.623027-.15414471-.3787556-.06215402-.8132002.23227657-1.096973l7.7-7.7v-6.58c0-.55228475.4477153-1 1-1h4c.5522847 0 1 .44771525 1 1v.58l4.3-4.3c.3933997-.36981757 1.0066003-.36981757 1.4 0z" fill="var(--resa-icon-bg, #e8edfc)"/><path id="Shape" d="m21.7 1.28c-.3933997-.36981757-1.0066003-.36981757-1.4 0l-.8.8 16.05 16.05c-.9752503.8231377-1.8183979 1.7910712-2.5 2.87h3c.6816021-1.0789288 1.5247497-2.0468623 2.5-2.87z" fill="var(--resa-icon-bg, #e8edfc)"/><path id="Shape" d="m38 37.38v6.62c0 .5522847-.4477153 1-1 1h-32c-.55228475 0-1-.4477153-1-1v-23h32.05c-3.3453797 5.2250025-2.5285446 12.0864171 1.95 16.38z" fill="var(--resa-icon-bg, #e8edfc)"/><path id="Shape" d="m34 28c-.0053183-2.4821032.7065555-4.9128916 2.05-7h-3c-3.3453797 5.2250025-2.5285446 12.0864171 1.95 16.38v6.62c0 .5522847-.4477153 1-1 1h3c.5522847 0 1-.4477153 1-1v-6.62c-2.5589693-2.4487845-4.0043187-5.8381289-4-9.38z" fill="var(--resa-icon-bg, #e8edfc)"/><rect id="Rectangle-path" fill="var(--resa-icon-bg, #e8edfc)" height="7" rx="1" width="7" x="8" y="25"/><rect id="Rectangle-path" fill="var(--resa-icon-bg, #e8edfc)" height="7" rx="1" width="7" x="27" y="25"/><path id="Shape" d="m33 25h-3c.5522847 0 1 .4477153 1 1v5c0 .5522847-.4477153 1-1 1h3c.5522847 0 1-.4477153 1-1v-5c0-.5522847-.4477153-1-1-1z" fill="var(--resa-icon-light, #a4c2f7)"/><path id="Shape" d="m18 35h6c.5522847 0 1 .4477153 1 1v9h-8v-9c0-.5522847.4477153-1 1-1z" fill="var(--resa-icon-bg, #e8edfc)"/><path id="Shape" d="m10 11.58-7.7 7.7c-.29443059.2837728-.38642128.7182174-.23227657 1.096973.15414472.3787556.52336304.6254989.93227657.623027h1v23c0 .5522847.44771525 1 1 1h3c-.55228475 0-1-.4477153-1-1v-23h-1c-.40891353.0024719-.77813185-.2442714-.93227657-.623027-.15414471-.3787556-.06215402-.8132002.23227657-1.096973l4.49-4.49z" fill="#fff"/><path id="Rectangle-path" d="m3 21h2v8h-2z" fill="#fff"/><g fill="var(--resa-icon-primary, #428dff)"><path id="Shape" d="m48 38.472c-.5522847 0-1 .4477153-1 1v13.528c0 .5522847.4477153 1 1 1s1-.4477153 1-1v-13.528c0-.5522847-.4477153-1-1-1z"/><circle id="Oval" cx="4" cy="25" r="1"/><path id="Shape" d="m14 33c1.1045695 0 2-.8954305 2-2v-5c0-1.1045695-.8954305-2-2-2h-5c-1.1045695 0-2 .8954305-2 2v5c0 1.1045695.8954305 2 2 2zm-5-7h5v5h-5z"/><path id="Shape" d="m43 5c-4.2514159.02271144-8.0302512 2.71376084-9.442 6.724l-11.17-11.17c-.7876477-.74495624-2.0225345-.73657665-2.8.019l-3.1 3.1c-.3767853-.42700506-.918527-.67202667-1.488-.673h-4c-1.1045695 0-2 .8954305-2 2v6.166l-7.4 7.4c-.5844495.5681995-.76559208 1.4342389-.45786571 2.1890478.30772637.7548088 1.0427423 1.2473415 1.85786571 1.2449522h31.366c-.319305.6759258-.5844706 1.3761234-.793 2.094-.185329-.0593787-.3784132-.091054-.573-.094h-5c-1.1045695 0-2 .8954305-2 2v5c0 1.1045695.8954305 2 2 2h5c.2947149-.0023439.5851608-.0706841.85-.2.6803223 1.8727697 1.7544903 3.5777984 3.15 5v6.2h-11v-8c0-1.1045695-.8954305-2-2-2h-6c-1.1045695 0-2 .8954305-2 2v8h-11v-15c0-.5522847-.44771525-1-1-1s-1 .4477153-1 1v15c0 1.1045695.8954305 2 2 2h32c1.1045695 0 2-.8954305 2-2v-4.511c.6343162.4373227 1.3031936.8222616 2 1.151v2.351c.0027305.4501163.1823135.8811154.5 1.2l1.318 1.327-1.249 1.669c-.5052381.6821255-.4372909 1.6308381.16 2.234l1.089 1.1-1.2 1.609c-.97985 1.3018047-.7783983 3.1411463.46 4.2l3.8 3.248c.3094796.2744094.7083865.4265771 1.122.428.4076872.0016539.8017266-.1467783 1.107-.417l4.269-3.661c.3967885-.3217893.6262729-.8061338.624-1.317v-13.982c4.8896522-2.3128888 8.0063009-7.2389415 8.0022362-12.6480205-.0040647-5.4090791-3.1281134-10.3304421-8.0212362-12.6359795 0-.115.021-.228.021-.345-.0060643-5.52111436-4.4808845-9.99503978-10.002-10zm-25 39v-8h6v8zm25-37c4.2486246.00565603 7.7517643 3.3313994 7.978 7.574-.7874545-.2344459-1.5943559-.3977673-2.411-.488-3.5383366-.4076266-7.097942.560864-9.942 2.705l-3.442-3.442c.7930653-3.68840861 4.0443464-6.3291127 7.817-6.349zm-39 13-.993-.013 5.993-5.993v2.006c0 .5522847.44771525 1 1 1 .5522847 0 1-.4477153 1-1v-11h4v11c0 .5522847.4477153 1 1 1s1-.4477153 1-1v-10.007l3.993-4.006 16.124 16.124c-.5852356.5813011-1.1176625 1.2134534-1.591 1.889zm29 11h-5v-5h5zm25.933-4.276c.5862353 5.2859242-2.3990203 10.3210444-7.318 12.343-.3641316.163578-.6026554.5209751-.614.92v14.49l-4 3.431-3.614-3.092c-.2437445-.209224-.3848984-.513781-.387-.835.0015849-.2356153.079475-.4643735.222-.652l1.348-1.808c.5146573-.6797191.4462328-1.6355236-.16-2.235l-1.089-1.1 1.249-1.668c.5146573-.6797191.4462328-1.6355236-.16-2.235l-1.41-1.416v-2.867c-.010386-.3993298-.249219-.7571904-.614-.92-1.3562167-.5649878-2.5976467-1.37329-3.663-2.385-.014-.015-.03-.028-.045-.042-2.3417731-2.2486868-3.6693058-5.352399-3.678-8.599v-.09c.0099295-3.4114036 1.4713546-6.6573413 4.0188785-8.9262387 2.5475238-2.2688974 5.9403295-3.346276 9.3301215-2.9627613.8426192.0961854 1.6724136.282931 2.475.557-.2407222 1.1520614-.7338907 2.2364173-1.444 3.175-.6844972-.5206001-1.5200283-.8039083-2.38-.807-2.209139 0-4 1.790861-4 4s1.790861 4 4 4 4-1.790861 4-4c-.0002734-.5473849-.1139987-1.0887718-.334-1.59.9639137-1.1538617 1.6553788-2.5101313 2.023-3.968 3.4840604 1.8758377 5.8201099 5.3479293 6.245 9.282zm-9.933-3.724c.0042551.7593792-.4240419 1.4549815-1.1040253 1.7930608-.6799833.3380792-1.4930985.2596914-2.0959747-.2020608 1.1547236-.335235 2.2389778-.8773622 3.2000314-1.6zm-3.972-.273c.135883-.9862413.9764526-1.7223791 1.972-1.727.3393409.0019775.6724233.0915343.967.26-.8669493.6895196-1.868835 1.1896108-2.941 1.468z"/></g></g></g></svg>