<svg height="512" viewBox="0 0 60 60" width="512" xmlns="http://www.w3.org/2000/svg"><style>:root{--resa-icon-primary:#428dff;--resa-icon-secondary:#7facfa;--resa-icon-light:#a4c2f7;--resa-icon-bg:#e8edfc;}</style><g id="Page-1" fill="none" fill-rule="evenodd"><g id="044---House-Construction" fill-rule="nonzero" transform="translate(-1)"><path id="Shape" d="m59.72 20c-.5634379.9497863-1.7900448 1.263153-2.74.7l-1-.58-24.98-14.8-25 14.82-1 .58c-.93458326.4223792-2.03720258.0693624-2.55268881-.8172739-.51548624-.8866364-.27675547-2.0195079.55268881-2.6227261l27-16c.6188022-.35726559 1.3811978-.35726559 2 0l27 16c.9450148.5560225 1.2661642 1.7692537.72 2.72z" fill="var(--resa-icon-bg, #e8edfc)"/><path id="Shape" d="m56 20.14v36.86c0 1.1045695-.8954305 2-2 2h-46c-1.1045695 0-2-.8954305-2-2v-36.86l25-14.82z" fill="var(--resa-icon-bg, #e8edfc)"/><path id="Shape" d="m31 5.32-1.5.89 23.5 13.93v36.86c0 1.1045695-.8954305 2-2 2h3c1.1045695 0 2-.8954305 2-2v-36.86z" fill="var(--resa-icon-bg, #e8edfc)"/><path id="Shape" d="m40.1 31-6.4 6.3-2.85 2.81-12.73 12.6c-.3900375.3877236-1.0199625.3877236-1.41 0l-1.42-1.42c-.3877236-.3900375-.3877236-1.0199625 0-1.41l12.71-12.6 2.85-2.81 6.4-6.33z" fill="var(--resa-icon-bg, #e8edfc)"/><path id="Shape" d="m50.71 33.09-2.83 2.83c-.1877666.1893127-.4433625.2957983-.71.2957983s-.5222334-.1064856-.71-.2957983l-1.41-1.41c-.1893127-.1877666-.2957983-.4433625-.2957983-.71s.1064856-.5222334.2957983-.71l-2.12-2.09-.71.71c-.1877666.1893127-.4433625.2957983-.71.2957983s-.5222334-.1064856-.71-.2957983l-.7-.71-3.54-3.54c-.3877236-.3900375-.3877236-1.0199625 0-1.41l.71-.71-5-4.95c2.83-2.83 6.37-.7 8.49 1.42l5 4.95c.3877236.3900375.3877236 1.0199625 0 1.41l2.13 2.12c.3900375-.3877236 1.0199625-.3877236 1.41 0l1.42 1.42c.3654683.3889616.3610668.9963757-.01 1.38z" fill="var(--resa-icon-light, #a4c2f7)"/><path id="Shape" d="m50.71 31.68-1.42-1.42c-.3900375-.3877236-1.0199625-.3877236-1.41 0l-2.13-2.12c.3877236-.3900375.3877236-1.0199625 0-1.41l-5-4.95c-1.72-1.72-4.39-3.45-6.84-2.52 1.4549385.5371375 2.7682307 1.3989855 3.84 2.52l5 4.95c.3877236.3900375.3877236 1.0199625 0 1.41l2.13 2.12c.3900375-.3877236 1.0199625-.3877236 1.41 0l1.42 1.42c.3877236.3900375.3877236 1.0199625 0 1.41l-2 2 .79.79c.1877666.1893127.4433625.2957983.71.2957983s.5222334-.1064856.71-.2957983l2.83-2.83c.3509174-.3954399.3333913-.9957078-.04-1.37z" fill="var(--resa-icon-secondary, #7facfa)"/><path id="Shape" d="m46.5 47.89c-.0691779.3641331-.3340866.6601359-.6883423.7691376-.3542556.1090018-.7397439.0131211-1.0016577-.2491376l-2.12-2.12c-.1837887-.1823408-.4311318-.2862966-.69-.29h-1.43c-.5522847 0-1 .4477153-1 1v1.42c.0011046.2623399.1052558.5137394.29.7l2.14 2.12c.2622587.2619138.3581394.6474021.2491376 1.0016577-.1090017.3542557-.4050045.6191644-.7691376.6883423-1.9982791.2971088-4.0119197-.4313558-5.3575954-1.9381902-1.3456756-1.5068344-1.8426986-3.5897117-1.3224046-5.5418098.101177-.3438683.2316549-.6784272.39-1l-4.32-4.32 2.83-2.83 4.3 4.3c.3207912-.1601138.6555093-.2906539 1-.39 1.9520981-.520294 4.0349754-.023271 5.5418098 1.3224046 1.5068344 1.3456757 2.235299 3.3593163 1.9381902 5.3575954z" fill="var(--resa-icon-light, #a4c2f7)"/><path id="Shape" d="m30.87 34.47-2.87 2.81-4.46-4.45c-.3218976.1603132-.6563409.2940905-1 .4-1.9526448.5172463-4.0345003.0172362-5.539249-1.3303901-1.5047487-1.3476264-2.2303967-3.3619668-1.930751-5.3596099.0632913-.3675511.3258637-.6693384.6811291-.7828551.3552655-.1135168.7441808-.0198972 1.0088709.2428551l2.11 2.11c.190636.1855517.4440728.2926376.71.3h1.42c.5522847 0 1-.4477153 1-1v-1.41c-.009269-.2655098-.1160766-.5182878-.3-.71l-2.11-2.09c-.2620698-.2605216-.359108-.6443333-.2523484-.9981051.1067595-.3537719.3999133-.6198334.7623484-.6918949 2.0021283-.302237 4.0216464.4257229 5.3704838 1.9358562 1.3488374 1.5101334 1.8450286 3.598715 1.3195162 5.5541438-.1006076.3440624-.2311045.6786698-.39 1z" fill="var(--resa-icon-light, #a4c2f7)"/><g fill="#fff"><path id="Shape" d="m5.28 20c-.54616424-.9507463-.22501479-2.1639775.72-2.72l26.5-15.72-.5-.28c-.6188022-.35726559-1.3811978-.35726559-2 0l-27 16c-.82944428.6032182-1.06817505 1.7360897-.55268881 2.6227261.51548623.8866363 1.61810555 1.2396531 2.55268881.8172739l.55-.33c-.10718622-.1172208-.19801089-.248412-.27-.39z"/><path id="Shape" d="m9 57v-36.86l-1 .58c-.61880215.3572656-1.38119785.3572656-2 0v36.28c0 1.1045695.8954305 2 2 2h3c-1.1045695 0-2-.8954305-2-2z"/><path id="Rectangle-path" d="m5 20.14h2v8h-2z"/></g><circle id="Oval" cx="6" cy="24.14" fill="var(--resa-icon-primary, #428dff)" r="1"/><path id="Shape" d="m59.53 16.42-27-16c-.9433286-.5593024-2.1166714-.5593024-3.06 0l-27 16c-1.04568152.618581-1.61503082 1.8067797-1.44198503 3.0093385.17304579 1.2025587 1.05431646 2.1820161 2.23198503 2.4806615.24231807.0587267.49066944.0889316.74.09.53505499-.0019468 1.05985321-.1469569 1.52-.42l25.48-15.09 24 14.22v36.29c0 .5522847-.4477153 1-1 1h-46c-.55228475 0-1-.4477153-1-1v-28.86c0-.5522847-.44771525-1-1-1s-1 .4477153-1 1v28.86c0 1.6568542 1.34314575 3 3 3h46c1.6568542 0 3-1.3431458 3-3v-35.19c.320388.1187186.6583968.1829403 1 .19 1.3510055-.0003971 2.5350791-.9037847 2.89233-2.2066998s-.2004652-2.6838902-1.36233-3.3733002zm-.67 3.09c-.281719.4748931-.8950224.6315765-1.37.35l-26-15.4c-.3094011-.17863279-.6905989-.17863279-1 0l-26 15.4c-.46729163.2111896-1.01860129.0346812-1.27634441-.408637-.25774312-.4433181-.13837773-1.0097539.27634441-1.311363l27-16c.3094011-.17863279.6905989-.17863279 1 0l27 16c.2314397.1319512.4006596.350799.4701217.6079963.069462.2571974.0334233.53148-.1001217.7620037z" fill="var(--resa-icon-primary, #428dff)"/><path id="Shape" d="m14.59 52 1.41 1.42c.3774377.374373.888394.5830735 1.42.58.528145.0004215 1.0350171-.2080791 1.41-.58l12-11.89 3.17 3.13c-.12.31-.17.5-.18.53-.5625406 2.1015845-.1159595 4.3452596 1.2084256 6.0712705 1.3243852 1.7260108 3.3760034 2.738125 5.5515744 2.7387295.3345628.0001572.6687218-.0232339 1-.07.7309026-.1099599 1.335819-.6256899 1.56-1.33.2459031-.722018.0597231-1.5210406-.48-2.06l-2.12-2.11v-1.43h1.46l2.12 2.12c.5270137.5168044 1.295836.7013218 2 .48.7232759-.2301631 1.2539358-.8499119 1.37-1.6.3470349-2.3286626-.4998044-4.6757981-2.2537004-6.2464512-1.753896-1.5706532-4.1798831-2.1544069-6.4562996-1.5535488-.1868854.0485474-.3705729.1086633-.55.18l-3.11-3.08 5-4.92c.7800749.7754472 2.0399251.7754472 2.82 0l.9.9c-.0435329.1700102-.067026.3445299-.07.52.0022328.5295768.2144122 1.0366497.59 1.41l1.42 1.42c.7800749.7754472 2.0399251.7754472 2.82 0l2.83-2.83c.3755541-.3751365.5865733-.8841815.5865733-1.415s-.2110192-1.0398635-.5865733-1.415l-1.43-1.41c-.4960404-.5197902-1.2327805-.7335594-1.93-.56l-1.07-1c.2061946-.7152111-.0018538-1.4857609-.54-2l-5-4.95c-2.74-2.73-6.77-4.54-9.9-1.41-.1884143.1846305-.296243.4362307-.3.7.0011094.2672459.1091444.5229286.3.71l4.24 4.24c-.3755541.3751365-.5865733.8841815-.5865733 1.415s.2110192 1.0398635.5865733 1.415l-5 4.92-3.29-3.28c.0668197-.1766449.1235773-.3569338.17-.54.5845194-2.2519045.0120163-4.6470668-1.5276633-6.3912351-1.5396797-1.7441684-3.845313-2.609395-6.1523367-2.3087649-.7281311.1112344-1.3294593.6272129-1.55 1.33-.2433783.7239006-.0532512 1.5232103.49 2.06l2.06 2.09v1.42h-1.42l-2.11-2.11c-.5389594-.5397231-1.337982-.7259031-2.06-.48-.7027871.2205407-1.2187656.8218689-1.33 1.55-.3534429 2.3347468.4940489 4.690334 2.2539285 6.2647509 1.7598795 1.5744169 4.1949247 2.1554406 6.4760715 1.5452491l.53-.18 3.26 3.26-12 11.89c-.3799507.3741984-.5947241.8846408-.5966019 1.4179169-.0018777.5332761.2092958 1.0452183.5866019 1.4220831zm22.7-9.69c.3012256.2987403.7581681.3748974 1.14.19.2702653-.1385919.5554364-.2459504.85-.32 1.6186673-.4314069 3.3458234-.0235556 4.6005202 1.0863685s1.8702006 2.7744258 1.6394798 4.4336315l-2.12-2.12c-.3725213-.3694883-.8753202-.5777908-1.4-.58h-1.43c-1.1045695 0-2 .8954305-2 2v1.42c-.0004215.528145.2080791 1.0350171.58 1.41l2.16 2.11c-1.8216906.2640286-3.6411285-.4942168-4.7361788-1.9737886s-1.2885969-3.4411604-.5038212-5.1062114c.1848974-.3818319.1087403-.8387744-.19-1.14l-3.61-3.6 1.42-1.41zm-3.48-21.86c2.4-1.4 5.14.89 6.29 2l4.95 4.95c-.1908556.1870714-.2988906.4427541-.3.71.0011094.2672459.1091444.5229286.3.71l2.12 2.18c.3900375.3877236 1.0199625.3877236 1.41 0l1.42 1.38-2.83 2.83-1.42-1.41c.1908556-.1870714.2988906-.4427541.3-.71-.0011094-.2672459-.1091444-.5229286-.3-.71l-2.12-2.12c-.3900375-.3877236-1.0199625-.3877236-1.41 0l-.71.71-4.24-4.24.73-.73c.1908556-.1870714.2988906-.4427541.3-.71-.003757-.2637693-.1115857-.5153695-.3-.7zm-9.54 11.67c-.3012256-.2987403-.7581681-.3748974-1.14-.19-.270804.1321057-.5516904.242454-.84.33-1.6186673.4314069-3.3458234.0235556-4.6005202-1.0863685s-1.8702006-2.7744258-1.6394798-4.4336315l2.11 2.11c.3800187.3717.8884687.5829574 1.42.59h1.42c1.1045695 0 2-.8954305 2-2v-1.44c-.0199636-.5169719-.2300587-1.0083808-.59-1.38l-2.16-2.1c1.6650203-.2484357 3.3432871.3576794 4.4653335 1.6126793 1.1220465 1.2549999 1.5372282 2.99039 1.1046665 4.6173207-.0845017.2925838-.1949395.5770449-.33.85-.1823582.3838912-.1021445.8411092.2 1.14l3.76 3.75-1.45 1.39zm13-2.57 1.41 1.45-21.26 21-1.42-1.41z" fill="var(--resa-icon-primary, #428dff)"/></g></g></svg>