<svg height="512" viewBox="0 0 60 60" width="512" xmlns="http://www.w3.org/2000/svg"><style>:root{--resa-icon-primary:#428dff;--resa-icon-secondary:#7facfa;--resa-icon-light:#a4c2f7;--resa-icon-bg:#e8edfc;}</style><g id="Page-1" fill="none" fill-rule="evenodd"><g id="012---Broken-Home" transform="translate(-1)"><g id="Icons" transform="translate(1 1)"><path id="Path" d="m49 4v11.8l-8-7.08v-4.72c.0032948-1.10320187.8967981-1.9967052 2-2h4c1.1032019.0032948 1.9967052.89679813 2 2z" fill="var(--resa-icon-bg, #e8edfc)"/><path id="Path" d="m38 41v17h-16v-17c.0004672-.9346676.6482318-1.7443732 1.56-1.95l6.08 4.65c.5146274.3932962 1.2302611.3882019 1.7392371-.0123811.508976-.4005829.6821048-1.0949777.4207629-1.6876189l-1.31-3h5.51c1.1032019.0032948 1.9967052.8967981 2 2z" fill="var(--resa-icon-light, #a4c2f7)"/><path id="Path" d="m26.64 43.7c.3550027.2728473.8184931.3608691 1.2488058.2371616.4303126-.1237075.7762937-.4444384.9321942-.8641616l-5.261-4.023c-.642372.1467204-1.1712598.6004269-1.414 1.213z" fill="var(--resa-icon-secondary, #7facfa)"/><path id="Path" d="m36 39h-3c1.1032019.0032948 1.9967052.8967981 2 2v17h3v-17c-.0032948-1.1032019-.8967981-1.9967052-2-2z" fill="var(--resa-icon-secondary, #7facfa)"/><path id="Path" d="m18.1 34.87 5.46 4.18c-.9117682.2056268-1.5595328 1.0153324-1.56 1.95v17h-16c-1.1045695 0-2-.8954305-2-2v-27c.73247739.0003729 1.439973-.2662712 1.99-.75l6.89-6.1h.02l5.1 1.34c.5234308.1402102.9681766.4856284 1.2335734.9580723s.3290047 1.0319675.1764266 1.5519277l-2.01 6.7c-.2391973.7985057.0392814 1.6617898.7 2.17z" fill="var(--resa-icon-bg, #e8edfc)"/><path id="Path" d="m18.1 34.87c-.6607186-.5082102-.9391973-1.3714943-.7-2.17l2.01-6.7c.1525781-.5199602.0889702-1.0794838-.1764266-1.5519277s-.7101426-.8178621-1.2335734-.9580723l-5.1-1.34h-.02l-.682.6 2.8.736c.5247153.1397024.9706878.4855585 1.2365928.95899.2659051.4734316.329165 1.0342399.1754072 1.55501l-2.01 6.7c-.2391973.7985057.0392814 1.6617898.7 2.17l5.46 4.18c-.9117682.2056268-1.5595328 1.0153324-1.56 1.95v17h3v-17c.0004672-.9346676.6482318-1.7443732 1.56-1.95z" fill="var(--resa-icon-bg, #e8edfc)"/><path id="Path" d="m56 29v27c0 1.1045695-.8954305 2-2 2h-16v-17c-.0032948-1.1032019-.8967981-1.9967052-2-2h-5.51l-3.11-7.12c-.2422079-.544006-.2275259-1.1679878.04-1.7l3.81-7.62c.4415775-.8887139.1699746-1.9666378-.64-2.54l-7.74-5.41c-.2821949-.2017768-.5063594-.4742228-.65-.79l7.8-6.81 24.01 21.24c.550027.4837288 1.2575226.7503729 1.99.75z" fill="var(--resa-icon-bg, #e8edfc)"/><path id="Path" d="m54.01 28.25-24.01-21.24-1.51 1.318 22.52 19.922c.550027.4837288 1.2575226.7503729 1.99.75v27c0 1.1045695-.8954305 2-2 2h3c1.1045695 0 2-.8954305 2-2v-27c-.7324774.0003729-1.439973-.2662712-1.99-.75z" fill="var(--resa-icon-bg, #e8edfc)"/><path id="Path" d="m12.88 22.15-6.89 6.1c-.80384758.7109585-1.92592523.9390637-2.94355716.5983906-1.01763193-.3406732-1.77621564-1.1983684-1.99-2.25-.21378435-1.0516317.14970958-2.1374321.95355716-2.8483906l3.11-2.75c.50140188-.4447874 1.19340468-.6065055 1.84-.43z" fill="var(--resa-icon-light, #a4c2f7)"/><path id="Path" d="m58.25 27.99c-1.1014505 1.2377044-2.9955766 1.3538537-4.24.26l-24.01-21.24-7.8 6.81c-.1317535-.2639636-.2002284-.5549819-.2-.85v-6c.0029915-.57185653.2461074-1.11614598.67-1.5l5.34-4.72c1.1382134-1.00002943 2.8417866-1.00002943 3.98 0l9.01 7.97 8 7.08 8.99 7.95c1.2366422 1.1019666 1.3527363 2.9951942.26 4.24z" fill="var(--resa-icon-light, #a4c2f7)"/><path id="Path" d="m27 7.01-5 4.365v1.6c-.0002284.2950181.0682465.5860364.2.85l6.29-5.492z" fill="var(--resa-icon-secondary, #7facfa)"/><path id="Path" d="m57.99 23.75-8.99-7.95-8-7.08-9.01-7.97c-.9685392-.85155834-2.3716498-.99227144-3.49-.35.1744825.09867353.3386362.21458614.49.346l9.01 7.974 8 7.08 8.99 7.95c1.2366422 1.1019666 1.3527363 2.9951942.26 4.24-.2190004.2412506-.476911.4440637-.763.6 1.3335672.7831849 3.043973.4242627 3.9502126-.8289372.9062395-1.2531998.7113016-2.9899533-.4502126-4.0110628z" fill="var(--resa-icon-secondary, #7facfa)"/><g fill="var(--resa-icon-light, #a4c2f7)"><path id="Path" d="m17.81 10.18-2.72 3.45c-.2019364.2518722-.5137093.3898588-.835924.369969s-.61465-.1951732-.784076-.469969l-2.35-4.03c-.2102595-.36079491-.139367-.819511.17-1.1l2.22-2.13c.38495-.36194258.98505-.36194258 1.37 0l2.84 2.7c.3382358.31944556.3772545.84403037.09 1.21z"/><path id="Path" d="m5.88 15.98-4.24-1.05c-.38379204-.0998762-.64607581-.4537511-.63-.85l-.01-2.95c-.00001109-.5017139.38935127-.9173254.89-.95l3.64-.18c.44332186-.02622239.8297781.2987522.88.74l.58 4.17c.04396759.3024795-.06044805.6076199-.28050981.8197515-.22006175.2121316-.52882725.3052829-.82949019.2502485z"/></g></g><g id="Icons_copy_2" fill="#fff" transform="translate(1 11)"><path id="Path" d="m1.64 4.93 4.24 1.05c.40803941.07858185.81804183-.12641937 1-.5l-2.24-.55c-.38379204-.09987621-.64607581-.45375115-.63-.85l-.01-2.95c-.0000111-.50171385.38935127-.91732536.89-.95l1.1-.055c-.13797663-.08537141-.29779213-.12879954-.46-.125l-3.64.18c-.50064873.03267464-.89001109.44828615-.89.95l.01 2.95c-.01607581.39624885.24620796.75012379.63.85z"/><path id="Path" d="m6 48h3c-1.1045695 0-2-.8954305-2-2v-27c-1.24872444.0023695-2.36833153-.7690182-2.81092954-1.9366762-.442598-1.1676581-.11561772-2.4873713.82092954-3.3133238l3.11-2.75c.039-.034.086-.056.127-.087l-1.287-.343c-.64659532-.1765055-1.33859812-.0147874-1.84.43l-3.11 2.75c-.93654726.8259525-1.26352754 2.1456657-.82092954 3.3133238.44259801 1.167658 1.5622051 1.9390457 2.81092954 1.9366762v27c0 1.1045695.8954305 2 2 2z"/></g><g id="Icons_copy"><path id="Rectangle" d="m3.999 30h2v8h-2z" fill="#fff"/><g fill="var(--resa-icon-primary, #428dff)"><circle id="Oval" cx="4.999" cy="34" r="1"/><path id="Shape" d="m48 2h-4c-1.6568542 0-3 1.34314575-3 3v2.5l-7.351-6.5c-1.5180313-1.32552752-3.7819687-1.32552752-5.3 0l-5.337 4.724c-.643599.56947967-1.0120735 1.38762424-1.012 2.247v6c-.0015589.4349835.0962624.864576.286 1.256l.014.031c.2197622.4682655.5561916.8721873.977 1.173l7.738 5.408c.4031852.2901876.5383699.8288143.32 1.275l-3.81 7.62c-.4005639.7969964-.4233109 1.7314577-.062 2.547l4.421 10.119c.0855661.1748776.0327949.3859627-.125.5-.1466119.1271308-.3643881.1271308-.511 0l-11.537-8.821c-.335613-.2535375-.4766991-.6899852-.353-1.092l2.011-6.7c.2287803-.7794219.133267-1.6181921-.2648941-2.3262223-.3981611-.7080301-1.0652571-1.2253705-1.8501059-1.4347777l-5.1-1.34c-.0289528-.0077297-.0583374-.0137402-.088-.018l-5.851-1.568c-.97139861-.261238-2.00905889-.0170384-2.762.65l-3.107 2.75c-1.65685421 1.4652115-1.81221138 3.9961457-.34699996 5.653 1.46521143 1.6568542 3.99614571 1.8122114 5.65299996.347l6.494-5.75 4.6 1.208c.2616086.0709134.4838866.2437098.6171283.4797488.1332418.236039.1663322.51563.0918717.7762512l-2.01 6.7c-.3637498 1.1969093.0549895 2.4938048 1.05 3.252l4.32 3.305c-.5172441.549722-.808258 1.2742217-.815 2.029v16h-15c-.55228475 0-1-.4477153-1-1v-19c0-.5522847-.44771525-1-1-1s-1 .4477153-1 1v19c0 1.6568542 1.34314575 3 3 3h48c1.6568542 0 3-1.3431458 3-3v-26.13c.7741609-.1963427 1.471151-.6215067 2-1.22 1.4557803-1.6589764 1.3008488-4.1816359-.347-5.65l-8.653-7.653v-11.347c0-1.65685425-1.3431458-3-3-3zm-41.67 26.5c-.83952924.7016345-2.08050006.6270886-2.83-.17-.72827464-.8309405-.65154716-2.0933751.172-2.83l3.106-2.75c.18241673-.1613676.41745286-.2506173.661-.251.08785666-.0002358.17533317.0115399.26.035l4.123 1.1zm36.67-23.5c0-.55228475.4477153-1 1-1h4c.5522847 0 1 .44771525 1 1v9.578l-6-5.308zm-19 37c.0042138-.3179585.159397-.6149598.418-.8l5.613 4.3c.8773921.6745692 2.1006906.6676567 2.9704034-.0167848s1.1640044-1.8718334.7145966-2.8832152l-.7-1.6h3.984c.5522847 0 1 .4477153 1 1v16h-14zm31 16h-15v-16c0-1.6568542-1.3431458-3-3-3h-4.856l-2.85-6.526c-.1205824-.2710679-.1132422-.5819256.02-.847l3.812-7.627c.6653959-1.3302503.2556266-2.9472006-.963-3.8l-7.557-5.281 6.394-5.578 23.351 20.659c.4738157.4119222 1.0391685.7047125 1.649.854v26.146c0 .5522847-.4477153 1-1 1zm3.5-29.673c-.7354462.8245551-1.9980495.9022126-2.829.174l-24.008-21.24c-.377666-.33223194-.943334-.33223194-1.321 0l-6.342 5.532v-4.822c-.000109-.28640624.1225907-.55911267.337-.749l5.332-4.722c.7621905-.66342128 1.8968095-.66342128 2.659 0l16.965 15.007 9.034 7.993c.8224291.7357972.8995731 1.9964107.173 2.827z" fill-rule="nonzero"/><path id="Shape" d="m15.181 16h.136c.6078885.0034315 1.1832798-.2741145 1.559-.752l2.716-3.448c.6020908-.7730962.5226533-1.8761539-.184-2.555l-2.841-2.7c-.7684872-.73614228-1.9805128-.73614228-2.749 0l-2.208 2.117c-.656632.59765065-.8024702 1.5746412-.349 2.338l2.345 4.03c.331129.5650304.9214031.9285643 1.575.97zm.007-8 2.777 2.638-2.63 3.391-2.3-3.955z" fill-rule="nonzero"/><path id="Shape" d="m2.4 16.9 4.245 1.05c.13859683.0329413.28054253.0497197.423.05.47566722-.0007536.93391838-.1790614 1.285-.5.48019581-.4353378.71383773-1.0800996.624-1.722l-.577-4.178c-.11373576-.9563958-.9536208-1.65812744-1.915-1.6l-3.638.183c-1.03344881.0546598-1.84419877.9071105-1.847 1.942l.01 2.934c-.0281485.8644695.55086537 1.6313505 1.39 1.841zm4.035-4.893.565 3.971-3.991-.988-.009-2.811z" fill-rule="nonzero"/></g></g></g></g></svg>