<?xml version="1.0" encoding="UTF-8"?>
<svg id="Icons" xmlns="http://www.w3.org/2000/svg" version="1.1" viewBox="0 0 512 512">
  <!-- Generator: Adobe Illustrator 29.4.0, SVG Export Plug-In . SVG Version: 2.1.0 Build 152)  -->
  <defs>
    <style>:root{--resa-icon-primary:#428dff;--resa-icon-secondary:#7facfa;--resa-icon-light:#a4c2f7;--resa-icon-bg:#e8edfc;}
      .st0 {
        fill: #fff;
      }

      .st1 {
        fill: var(--resa-icon-bg, #e8edfc);
      }

      .st2 {
        fill: var(--resa-icon-bg, #e8edfc);
      }

      .st3 {
        fill: var(--resa-icon-primary, #428dff);
      }

      .st4 {
        fill: var(--resa-icon-light, #a4c2f7);
      }

      .st5 {
        fill: var(--resa-icon-bg, #e8edfc);
      }
    </style>
  </defs>
  <path class="st5" d="M443.7,503.5V196.3h10.8c4.7,0,8.5-3.8,8.5-8.5,0-2.5-1.1-4.9-3-6.5l-59.1-50V17.1c0-4.7-3.8-8.5-8.5-8.5h-51.2c-4.7,0-8.5,3.8-8.5,8.5v56.5l-71.3-60.3c-3.2-2.7-7.9-2.7-11.1,0L51.9,181.2c-3.6,3.1-4,8.4-.9,12,1.6,1.9,4,3,6.5,3h10.8v307.2h375.5Z"/>
  <path class="st4" d="M460.1,181.2l-59.1-50V17.1c0-4.7-3.8-8.5-8.5-8.5h-25.6c4.7,0,8.5,3.8,8.5,8.5v114.2l59.1,50c3.6,3.1,4,8.4.9,12-1.6,1.9-4,3-6.5,3h-10.8v307.2h25.6V196.3h10.8c4.7,0,8.5-3.8,8.5-8.5,0-2.5-1.1-4.9-3-6.5Z"/>
  <path class="st2" d="M372.7,288c3.8-3.8,3.7-10-.1-13.7-1.4-1.4-3.1-2.3-5.1-2.6l-66.6-10.1c-3.1-.5-5.7-2.5-7-5.3l-29.7-63.1c-2.1-4.6-7.5-6.7-12.1-4.6-2,.9-3.7,2.6-4.6,4.6l-4.5,9.5,25.2,53.6c1.3,2.8,3.9,4.8,7,5.3l66.6,10.1c5.3,1,8.8,6,7.8,11.3-.3,1.9-1.3,3.7-2.6,5.1l-48.3,49.4c-2.2,2.2-3.1,5.4-2.6,8.4l11.4,69.6c.2,1.1.2,2.3,0,3.4l12.2,6.7c4.6,2.4,10.3.6,12.6-4.1,1-1.9,1.3-4,.9-6l-11.4-69.6c-.5-3.1.5-6.2,2.6-8.4l48.3-49.4Z"/>
  <path class="st0" d="M273.1,31.5l-11.5-12.4c-3.2-2.7-7.9-2.7-11.1,0L51.9,187.1c-3.6,3.1-4,8.4-.9,12,1.6,1.9,4,3,6.5,3h10.8v307.2h25.6V185.1"/>
  <path class="st0" d="M59.7,196.3h17.1v68.3h-17.1v-68.3Z"/>
  <g>
    <circle class="st3" cx="68.3" cy="230.4" r="8.5"/>
    <path class="st3" d="M477.9,494.9h-25.6V204.8h2.3c9.4,0,17.1-7.6,17.1-17,0-5-2.2-9.8-6-13l-56.1-47.5V17.1C409.6,7.6,402,0,392.5,0h-51.2C331.9,0,324.3,7.6,324.3,17.1v38.1l-57.2-48.5c-6.4-5.4-15.7-5.4-22.1,0L46.4,174.7c-7.2,6.1-8,16.9-1.9,24.1,3.2,3.8,8,6,13,6h10.8c4.7,0,8.5-3.8,8.5-8.5s-3.8-8.5-8.5-8.5h-10.9L256,19.7l71.3,60.3c3.6,3.1,9,2.6,12-.9,1.3-1.6,2.1-3.5,2-5.6V17.1h51.2v114.2c0,2.5,1.1,4.9,3,6.5l59,50h-10.8c-4.7,0-8.5,3.8-8.5,8.5v298.7H76.8v-230.4c0-4.7-3.8-8.5-8.5-8.5s-8.5,3.8-8.5,8.5v230.4h-25.6c-4.7,0-8.5,3.8-8.5,8.5s3.8,8.5,8.5,8.5h443.7c4.7,0,8.5-3.8,8.5-8.5s-3.8-8.5-8.5-8.5h0Z"/>
  </g>
  <g>
    <path class="st1" d="M203.4,254.8l12.4,26.3c.5,1.2,1.6,2,2.9,2.2l27.8,4.2c2.2.4,3.7,2.5,3.3,4.7-.1.8-.5,1.5-1.1,2.1l-20.2,20.6c-.9.9-1.3,2.2-1.1,3.5l4.8,29.1c.4,2.1-1,4.2-3.1,4.6-.9.2-1.7,0-2.5-.4l-24.8-13.7c-1.1-.6-2.5-.6-3.7,0l-24.8,13.7c-1.9,1-4.3.2-5.3-1.7-.4-.8-.5-1.7-.4-2.5l4.8-29.1c.2-1.3-.2-2.6-1.1-3.5l-20.2-20.6c-1.6-1.6-1.5-4.2,0-5.7.6-.6,1.3-1,2.1-1.1l27.8-4.2c1.3-.2,2.4-1,2.9-2.2l12.4-26.3c.9-1.9,3.1-2.8,5.1-1.9.8.4,1.5,1.1,1.9,1.9h0Z"/>
    <path class="st3" d="M247.6,296.9c2-2.1,2.7-5.1,1.8-7.8-.9-2.7-3.2-4.6-5.9-5l-28-4.4-12.4-26.3c-1.7-3.7-6.1-5.3-9.8-3.6-1.6.7-2.9,2-3.6,3.6l-12.6,26.6-27.8,4.2c-2.8.4-5.1,2.4-5.9,5-.9,2.7-.2,5.7,1.8,7.8l20.2,20.6c.1.1.2.3.1.5l-4.8,29.1c-.5,2.9.7,5.8,3.1,7.5,2.3,1.6,5.3,1.8,7.8.4l25-13.7,24.8,13.7c2.5,1.4,5.5,1.2,7.8-.4,2.4-1.7,3.6-4.6,3.1-7.5l-4.8-29.1c0-.2,0-.3.1-.5l20.2-20.7ZM220.3,319.1l4.8,29.1c0,.2,0,.4-.4.5l-24.7-13.7c-2.2-1.2-4.9-1.2-7.1,0l-25,13.6c-.2-.1-.2-.3-.2-.5l4.8-29.1c.4-2.4-.4-4.8-2.1-6.6l-20.2-20.6c-.1-.1-.2-.4-.1-.5,0-.2.2-.3.3-.3l27.8-4.2c2.5-.4,4.6-2,5.6-4.2l12.6-26.6c.1,0,.2,0,.3.2l12.4,26.3c1,2.3,3.2,3.8,5.6,4.2l27.8,4.2c0,0,.2,0,.3.3,0,.2,0,.4-.1.5l-20.2,20.6c-1.7,1.7-2.5,4.2-2.1,6.6h0Z"/>
  </g>
  <g>
    <path class="st1" d="M322.7,254.8l12.4,26.3c.5,1.2,1.6,2,2.9,2.2l27.8,4.2c2.2.4,3.7,2.5,3.3,4.7-.1.8-.5,1.5-1.1,2.1l-20.2,20.6c-.9.9-1.3,2.2-1.1,3.5l4.8,29.1c.4,2.1-1,4.2-3.1,4.6-.9.2-1.7,0-2.5-.4l-24.8-13.7c-1.1-.6-2.5-.6-3.7,0l-24.8,13.7c-1.9,1-4.3.2-5.3-1.7-.4-.8-.5-1.7-.4-2.5l4.8-29.1c.2-1.3-.2-2.6-1.1-3.5l-20.2-20.6c-1.6-1.6-1.5-4.2,0-5.7.6-.6,1.3-1,2.1-1.1l27.8-4.2c1.3-.2,2.4-1,2.9-2.2l12.4-26.3c.9-1.9,3.1-2.8,5.1-1.9.8.4,1.5,1.1,1.9,1.9h0Z"/>
    <path class="st3" d="M367,296.8c2-2.1,2.7-5.1,1.8-7.8-.9-2.7-3.2-4.6-5.9-5l-28-4.4-12.4-26.3c-1.7-3.7-6.1-5.3-9.8-3.6-1.6.7-2.9,2-3.6,3.6l-12.6,26.6-27.8,4.2c-2.8.4-5.1,2.4-5.9,5-.9,2.7-.2,5.7,1.8,7.8l20.2,20.6c.1.1.2.3.1.5l-4.8,29.1c-.5,2.9.7,5.8,3.1,7.5,2.3,1.6,5.3,1.8,7.8.4l25-13.7,24.8,13.7c2.5,1.4,5.5,1.2,7.8-.4,2.4-1.7,3.6-4.6,3.1-7.5l-4.8-29.1c0-.2,0-.3.1-.5l20.2-20.7ZM339.6,319.1l4.8,29.1c0,.2,0,.4-.4.5l-24.7-13.7c-2.2-1.2-4.9-1.2-7.1,0l-25,13.6c-.2-.1-.2-.3-.2-.5l4.8-29.1c.4-2.4-.4-4.8-2.1-6.6l-20.2-20.6c-.1-.1-.2-.4-.1-.5,0-.2.2-.3.3-.3l27.8-4.2c2.5-.4,4.6-2,5.6-4.2l12.6-26.6c.1,0,.2,0,.3.2l12.4,26.3c1,2.3,3.2,3.8,5.6,4.2l27.8,4.2c0,0,.2,0,.3.3,0,.2,0,.4-.1.5l-20.2,20.6c-1.7,1.7-2.5,4.2-2.1,6.6h0Z"/>
  </g>
</svg>